<?xml version="1.0" standalone="no"?><!DOCTYPE svg PUBLIC "-//W3C//DTD SVG 1.1//EN" "http://www.w3.org/Graphics/SVG/1.1/DTD/svg11.dtd" ><svg version="1.1" xmlns="http://www.w3.org/2000/svg"><defs><font horiz-adv-x="0" id="font"><font-face ascent="750" bbox="-91 -232 968 833" cap-height="589" descent="-250" font-family="Copyright Klim Type Foundry" font-stretch="normal" font-style="normal" font-weight="300" units-per-em="1000" x-height="462" /><missing-glyph horiz-adv-x="207" /><glyph d="M399 187H135L65 0H10L234 589H303L525 0H469ZM151 232H382L317 407Q304 441 295 467.5Q286 494 280 514Q273 536 269 554H265Q261 537 254 515Q248 496 239 469Q230 442 217 408Z" glyph-name="A" horiz-adv-x="535" unicode="A" /><glyph d="M413 0V189H186L67 0H10L386 589H748V543H465V318H717V272H465V46H748V0ZM213 233H413V400Q412 437 413 465Q414 493 416 512Q418 534 419 550H416Z" glyph-name="AE" horiz-adv-x="800" unicode="&#198;" /><glyph d="M413 0V189H186L67 0H10L386 589H748V543H465V318H717V272H465V46H748V0ZM213 233H413V400Q412 437 413 465Q414 493 416 512Q418 534 419 550H416ZM520 642 584 763H654L565 642Z" glyph-name="AEacute" horiz-adv-x="800" unicode="&#508;" /><glyph d="M399 187H135L65 0H10L234 589H303L525 0H469ZM151 232H382L317 407Q304 441 295 467.5Q286 494 280 514Q273 536 269 554H265Q261 537 254 515Q248 496 239 469Q230 442 217 408ZM243 642 307 763H377L288 642Z" glyph-name="Aacute" horiz-adv-x="535" unicode="&#193;" /><glyph d="M399 187H135L65 0H10L234 589H303L525 0H469ZM151 232H382L317 407Q304 441 295 467.5Q286 494 280 514Q273 536 269 554H265Q261 537 254 515Q248 496 239 469Q230 442 217 408ZM267 638Q210 638 178.5 670Q147 702 147 761H189Q193 678 267 678Q306 678 325 698.5Q344 719 346 761H387Q387 702 355.5 670Q324 638 267 638Z" glyph-name="Abreve" horiz-adv-x="535" unicode="&#258;" /><glyph d="M399 187H135L65 0H10L234 589H303L525 0H469ZM151 232H382L317 407Q304 441 295 467.5Q286 494 280 514Q273 536 269 554H265Q261 537 254 515Q248 496 239 469Q230 442 217 408ZM281 767 396 642H338L296 689Q288 697 283 704.5Q278 712 274 717Q270 723 267 728H265Q262 723 258 717Q254 712 249 704.5Q244 697 236 689L193 642H135L250 767Z" glyph-name="Acircumflex" horiz-adv-x="535" unicode="&#194;" /><glyph d="M399 187H135L65 0H10L234 589H303L525 0H469ZM151 232H382L317 407Q304 441 295 467.5Q286 494 280 514Q273 536 269 554H265Q261 537 254 515Q248 496 239 469Q230 442 217 408ZM143 690Q143 706 154 717Q165 728 181 728Q198 728 208.5 717Q219 706 219 690Q219 674 208.5 663Q198 652 181 652Q165 652 154 663Q143 674 143 690ZM315 689Q315 706 326 716.5Q337 727 353 727Q369 727 380 716.5Q391 706 391 689Q391 673 380 662Q369 651 353 651Q337 651 326 662Q315 673 315 689Z" glyph-name="Adieresis" horiz-adv-x="535" unicode="&#196;" /><glyph d="M399 187H135L65 0H10L234 589H303L525 0H469ZM151 232H382L317 407Q304 441 295 467.5Q286 494 280 514Q273 536 269 554H265Q261 537 254 515Q248 496 239 469Q230 442 217 408ZM248 642 159 763H229L293 642Z" glyph-name="Agrave" horiz-adv-x="535" unicode="&#192;" /><glyph d="M399 187H135L65 0H10L234 589H303L525 0H469ZM151 232H382L317 407Q304 441 295 467.5Q286 494 280 514Q273 536 269 554H265Q261 537 254 515Q248 496 239 469Q230 442 217 408ZM156 667V708H378V667Z" glyph-name="Amacron" horiz-adv-x="535" unicode="&#256;" /><glyph d="M352 -113Q352 -88 361.5 -67Q371 -46 386.5 -29.5Q402 -13 421.5 -1Q441 11 461 20L399 187H135L65 0H10L234 589H303L525 0Q466 -9 433 -36Q400 -63 400 -108Q400 -134 413 -149Q426 -164 450 -164Q472 -164 487 -153.5Q502 -143 513 -126L534 -151Q522 -171 501 -186Q480 -201 443 -201Q401 -201 376.5 -178Q352 -155 352 -113ZM151 232H382L317 407Q304 441 295 467.5Q286 494 280 514Q273 536 269 554H265Q261 537 254 515Q248 496 239 469Q230 442 217 408Z" glyph-name="Aogonek" horiz-adv-x="535" unicode="&#260;" /><glyph d="M399 187H135L65 0H10L234 589H303L525 0H469ZM151 232H382L317 407Q304 441 295 467.5Q286 494 280 514Q273 536 269 554H265Q261 537 254 515Q248 496 239 469Q230 442 217 408ZM267 629Q224 629 200.5 654Q177 679 177 716Q177 750 201 775Q225 800 267 800Q309 800 332.5 775Q356 750 356 716Q356 679 332.5 654Q309 629 267 629ZM267 773Q240 773 225 756.5Q210 740 210 714Q210 690 224.5 674.5Q239 659 267 659Q295 659 309.5 674.5Q324 690 324 714Q324 740 309 756.5Q294 773 267 773Z" glyph-name="Aring" horiz-adv-x="535" unicode="&#197;" /><glyph d="M399 187H135L65 0H10L234 589H303L525 0H469ZM151 232H382L317 407Q304 441 295 467.5Q286 494 280 514Q273 536 269 554H265Q261 537 254 515Q248 496 239 469Q230 442 217 408ZM335 647Q312 647 296 656.5Q280 666 263 677Q244 690 231 698Q218 706 202 706Q182 706 172 692.5Q162 679 168 647H135Q127 669 128 688Q129 707 137.5 721Q146 735 161.5 743.5Q177 752 197 752Q222 752 239 743Q256 734 275 721Q293 707 305 700Q317 693 332 693Q351 693 360.5 707Q370 721 365 754H400Q415 708 397 677.5Q379 647 335 647Z" glyph-name="Atilde" horiz-adv-x="535" unicode="&#195;" /><glyph d="M324 303Q350 301 374.5 292Q399 283 417.5 265.5Q436 248 447 222.5Q458 197 458 164Q458 87 408.5 43.5Q359 0 251 0H87V589H249Q344 589 388 552Q432 515 432 440Q432 380 402 347Q372 314 324 306ZM251 322Q308 322 343.5 347.5Q379 373 379 433Q379 493 344 518.5Q309 544 243 544H140V322ZM140 45H256Q328 45 367 73.5Q406 102 406 166Q406 218 370 248Q334 278 258 278H140Z" glyph-name="B" horiz-adv-x="501" unicode="B" /><glyph d="M522 116Q488 53 435.5 22Q383 -9 303 -9Q246 -9 199 10.5Q152 30 118.5 68Q85 106 66.5 162.5Q48 219 48 293Q48 367 67.5 424Q87 481 121.5 519.5Q156 558 204.5 578Q253 598 312 598Q466 598 522 458L475 435Q454 494 411.5 523.5Q369 553 309 553Q210 553 156.5 483.5Q103 414 103 293Q103 173 154 105.5Q205 38 305 38Q370 38 412.5 64Q455 90 484 146Z" glyph-name="C" horiz-adv-x="552" unicode="C" /><glyph d="M522 116Q488 53 435.5 22Q383 -9 303 -9Q246 -9 199 10.5Q152 30 118.5 68Q85 106 66.5 162.5Q48 219 48 293Q48 367 67.5 424Q87 481 121.5 519.5Q156 558 204.5 578Q253 598 312 598Q466 598 522 458L475 435Q454 494 411.5 523.5Q369 553 309 553Q210 553 156.5 483.5Q103 414 103 293Q103 173 154 105.5Q205 38 305 38Q370 38 412.5 64Q455 90 484 146ZM280 642 344 763H414L325 642Z" glyph-name="Cacute" horiz-adv-x="552" unicode="&#262;" /><glyph d="M522 116Q488 53 435.5 22Q383 -9 303 -9Q246 -9 199 10.5Q152 30 118.5 68Q85 106 66.5 162.5Q48 219 48 293Q48 367 67.5 424Q87 481 121.5 519.5Q156 558 204.5 578Q253 598 312 598Q466 598 522 458L475 435Q454 494 411.5 523.5Q369 553 309 553Q210 553 156.5 483.5Q103 414 103 293Q103 173 154 105.5Q205 38 305 38Q370 38 412.5 64Q455 90 484 146ZM290 639 175 765H233L276 717Q290 700 298 689Q302 683 305 679H307Q310 683 314 689Q322 700 336 717L378 765H436L321 639Z" glyph-name="Ccaron" horiz-adv-x="552" unicode="&#268;" /><glyph d="M401 -126Q401 -167 374 -186Q347 -205 309 -205Q277 -205 255.5 -193.5Q234 -182 221 -165L239 -132Q253 -151 269.5 -161Q286 -171 309 -171Q331 -171 344 -160.5Q357 -150 357 -126Q357 -77 277 -74L286 -9Q232 -6 188 15Q144 36 113 74Q82 112 65 167Q48 222 48 293Q48 367 67.5 424Q87 481 121.5 519.5Q156 558 204.5 578Q253 598 312 598Q466 598 522 458L475 435Q454 494 411.5 523.5Q369 553 309 553Q210 553 156.5 483.5Q103 414 103 293Q103 173 154 105.5Q205 38 305 38Q370 38 412.5 64Q455 90 484 146L522 116Q489 55 439.5 24Q390 -7 316 -9L310 -46Q353 -50 377 -70.5Q401 -91 401 -126Z" glyph-name="Ccedilla" horiz-adv-x="552" unicode="&#199;" /><glyph d="M522 116Q488 53 435.5 22Q383 -9 303 -9Q246 -9 199 10.5Q152 30 118.5 68Q85 106 66.5 162.5Q48 219 48 293Q48 367 67.5 424Q87 481 121.5 519.5Q156 558 204.5 578Q253 598 312 598Q466 598 522 458L475 435Q454 494 411.5 523.5Q369 553 309 553Q210 553 156.5 483.5Q103 414 103 293Q103 173 154 105.5Q205 38 305 38Q370 38 412.5 64Q455 90 484 146ZM326 767 441 642H383L341 689Q333 697 328 704.5Q323 712 319 717Q315 723 312 728H310Q307 723 303 717Q299 712 294 704.5Q289 697 281 689L238 642H180L295 767Z" glyph-name="Ccircumflex" horiz-adv-x="552" unicode="&#264;" /><glyph d="M522 116Q488 53 435.5 22Q383 -9 303 -9Q246 -9 199 10.5Q152 30 118.5 68Q85 106 66.5 162.5Q48 219 48 293Q48 367 67.5 424Q87 481 121.5 519.5Q156 558 204.5 578Q253 598 312 598Q466 598 522 458L475 435Q454 494 411.5 523.5Q369 553 309 553Q210 553 156.5 483.5Q103 414 103 293Q103 173 154 105.5Q205 38 305 38Q370 38 412.5 64Q455 90 484 146ZM270 689Q270 706 281 716.5Q292 727 308 727Q325 727 335.5 716.5Q346 706 346 689Q346 673 335.5 662Q325 651 308 651Q292 651 281 662Q270 673 270 689Z" glyph-name="Cdotaccent" horiz-adv-x="552" unicode="&#266;" /><glyph d="M244 45Q351 45 414.5 108Q478 171 478 299Q478 363 462 409.5Q446 456 416 486Q386 516 343.5 530Q301 544 249 544H140V45ZM87 0V589H250Q312 589 364 573Q416 557 453.5 522.5Q491 488 512 433.5Q533 379 533 301Q533 219 510 162Q487 105 448 69Q409 33 357.5 16.5Q306 0 249 0Z" glyph-name="D" horiz-adv-x="581" unicode="D" /><glyph d="M244 45Q351 45 414.5 108Q478 171 478 299Q478 363 462 409.5Q446 456 416 486Q386 516 343.5 530Q301 544 249 544H140V45ZM87 0V589H250Q312 589 364 573Q416 557 453.5 522.5Q491 488 512 433.5Q533 379 533 301Q533 219 510 162Q487 105 448 69Q409 33 357.5 16.5Q306 0 249 0ZM244 639 129 765H187L230 717Q244 700 252 689Q256 683 259 679H261Q264 683 268 689Q276 700 290 717L332 765H390L275 639Z" glyph-name="Dcaron" horiz-adv-x="581" unicode="&#270;" /><glyph d="M90 0V272H29V318H90V589H253Q315 589 367 573Q419 557 456.5 522.5Q494 488 515 433.5Q536 379 536 301Q536 219 513 162Q490 105 451 69Q412 33 360.5 16.5Q309 0 252 0ZM247 45Q354 45 417.5 108Q481 171 481 299Q481 363 465 409.5Q449 456 419 486Q389 516 347 530Q305 544 253 544H143V318H280V272H143V45Z" glyph-name="Dcroat" horiz-adv-x="585" unicode="&#272;" /><glyph d="M422 0H87V589H422V543H140V318H391V272H140V46H422Z" glyph-name="E" horiz-adv-x="474" unicode="E" /><glyph d="M422 0H87V589H422V543H140V318H391V272H140V46H422ZM229 642 293 763H363L274 642Z" glyph-name="Eacute" horiz-adv-x="474" unicode="&#201;" /><glyph d="M422 0H87V589H422V543H140V318H391V272H140V46H422ZM258 638Q201 638 169.5 670Q138 702 138 761H180Q184 678 258 678Q297 678 316 698.5Q335 719 337 761H378Q378 702 346.5 670Q315 638 258 638Z" glyph-name="Ebreve" horiz-adv-x="474" unicode="&#276;" /><glyph d="M422 0H87V589H422V543H140V318H391V272H140V46H422ZM243 639 128 765H186L229 717Q243 700 251 689Q255 683 258 679H260Q263 683 267 689Q275 700 289 717L331 765H389L274 639Z" glyph-name="Ecaron" horiz-adv-x="474" unicode="&#282;" /><glyph d="M422 0H87V589H422V543H140V318H391V272H140V46H422ZM269 767 384 642H326L284 689Q276 697 271 704.5Q266 712 262 717Q258 723 255 728H253Q250 723 246 717Q242 712 237 704.5Q232 697 224 689L181 642H123L238 767Z" glyph-name="Ecircumflex" horiz-adv-x="474" unicode="&#202;" /><glyph d="M422 0H87V589H422V543H140V318H391V272H140V46H422ZM130 690Q130 706 141 717Q152 728 168 728Q185 728 195.5 717Q206 706 206 690Q206 674 195.5 663Q185 652 168 652Q152 652 141 663Q130 674 130 690ZM302 689Q302 706 313 716.5Q324 727 340 727Q356 727 367 716.5Q378 706 378 689Q378 673 367 662Q356 651 340 651Q324 651 313 662Q302 673 302 689Z" glyph-name="Edieresis" horiz-adv-x="474" unicode="&#203;" /><glyph d="M422 0H87V589H422V543H140V318H391V272H140V46H422ZM213 689Q213 706 224 716.5Q235 727 251 727Q268 727 278.5 716.5Q289 706 289 689Q289 673 278.5 662Q268 651 251 651Q235 651 224 662Q213 673 213 689Z" glyph-name="Edotaccent" horiz-adv-x="474" unicode="&#278;" /><glyph d="M422 0H87V589H422V543H140V318H391V272H140V46H422ZM234 642 145 763H215L279 642Z" glyph-name="Egrave" horiz-adv-x="474" unicode="&#200;" /><glyph d="M422 0H87V589H422V543H140V318H391V272H140V46H422ZM143 667V708H365V667Z" glyph-name="Emacron" horiz-adv-x="474" unicode="&#274;" /><glyph d="M542 -28Q542 -79 528.5 -114Q515 -149 491 -170.5Q467 -192 435 -201Q403 -210 367 -210Q322 -210 288 -194Q254 -178 231 -155L263 -116Q283 -138 311 -151.5Q339 -165 372 -165Q433 -165 461 -129Q489 -93 489 -16V-5L204 410Q190 430 178.5 448.5Q167 467 158 482Q147 500 139 516H135Q136 499 137 480Q138 463 139 441.5Q140 420 140 395V0H87V589H144L425 179Q452 138 471 106Q482 88 490 73H493Q492 90 491 109Q490 126 489.5 147.5Q489 169 489 194V589H542Z" glyph-name="Eng" horiz-adv-x="629" unicode="&#330;" /><glyph d="M422 0Q373 -11 342.5 -37Q312 -63 312 -108Q312 -134 325 -149Q338 -164 362 -164Q385 -164 399.5 -153.5Q414 -143 425 -126L446 -151Q435 -171 413.5 -186Q392 -201 356 -201Q313 -201 289 -178.5Q265 -156 265 -114Q265 -74 286 -46Q307 -18 339 0H87V589H422V543H140V318H391V272H140V46H422Z" glyph-name="Eogonek" horiz-adv-x="474" unicode="&#280;" /><glyph d="M90 0V272H29V318H90V589H253Q315 589 367 573Q419 557 456.5 522.5Q494 488 515 433.5Q536 379 536 301Q536 219 513 162Q490 105 451 69Q412 33 360.5 16.5Q309 0 252 0ZM247 45Q354 45 417.5 108Q481 171 481 299Q481 363 465 409.5Q449 456 419 486Q389 516 347 530Q305 544 253 544H143V318H280V272H143V45Z" glyph-name="Eth" horiz-adv-x="585" unicode="&#208;" /><glyph d="M147 221Q160 133 205 85.5Q250 38 327 38Q387 38 425.5 64Q464 90 491 146L530 116Q498 53 449 22Q400 -9 325 -9Q231 -9 169 49.5Q107 108 91 221H33V257H87V293Q87 304 87 314Q87 324 88 335H33V371H92Q110 482 174.5 540Q239 598 334 598Q478 598 530 458L483 435Q463 494 424.5 523.5Q386 553 330 553Q255 553 208.5 505Q162 457 148 371H376L368 335H144Q143 324 143 314Q143 304 143 293Q143 284 143 275Q143 266 144 257H351L343 221Z" glyph-name="Euro" horiz-adv-x="556" unicode="&#8364;" /><glyph d="M87 0V589H408V543H140V318H377V272H140V0Z" glyph-name="F" horiz-adv-x="436" unicode="F" /><glyph d="M527 288V0H481L474 101Q458 49 410.5 20Q363 -9 303 -9Q246 -9 199 10.5Q152 30 118.5 68.5Q85 107 66.5 163Q48 219 48 293Q48 367 67.5 424Q87 481 121.5 519.5Q156 558 204.5 578Q253 598 312 598Q469 598 522 458L475 435Q454 494 411.5 523.5Q369 553 309 553Q210 553 156.5 483.5Q103 414 103 293Q103 234 116 187Q129 140 154.5 106Q180 72 217.5 54Q255 36 305 36Q337 36 367.5 44.5Q398 53 421.5 72Q445 91 459.5 121.5Q474 152 474 195V240H315V288Z" glyph-name="G" horiz-adv-x="594" unicode="G" /><glyph d="M527 288V0H481L474 101Q458 49 410.5 20Q363 -9 303 -9Q246 -9 199 10.5Q152 30 118.5 68.5Q85 107 66.5 163Q48 219 48 293Q48 367 67.5 424Q87 481 121.5 519.5Q156 558 204.5 578Q253 598 312 598Q469 598 522 458L475 435Q454 494 411.5 523.5Q369 553 309 553Q210 553 156.5 483.5Q103 414 103 293Q103 234 116 187Q129 140 154.5 106Q180 72 217.5 54Q255 36 305 36Q337 36 367.5 44.5Q398 53 421.5 72Q445 91 459.5 121.5Q474 152 474 195V240H315V288ZM311 638Q254 638 222.5 670Q191 702 191 761H233Q237 678 311 678Q350 678 369 698.5Q388 719 390 761H431Q431 702 399.5 670Q368 638 311 638Z" glyph-name="Gbreve" horiz-adv-x="594" unicode="&#286;" /><glyph d="M527 288V0H481L474 101Q458 49 410.5 20Q363 -9 303 -9Q246 -9 199 10.5Q152 30 118.5 68.5Q85 107 66.5 163Q48 219 48 293Q48 367 67.5 424Q87 481 121.5 519.5Q156 558 204.5 578Q253 598 312 598Q469 598 522 458L475 435Q454 494 411.5 523.5Q369 553 309 553Q210 553 156.5 483.5Q103 414 103 293Q103 234 116 187Q129 140 154.5 106Q180 72 217.5 54Q255 36 305 36Q337 36 367.5 44.5Q398 53 421.5 72Q445 91 459.5 121.5Q474 152 474 195V240H315V288ZM326 767 441 642H383L341 689Q333 697 328 704.5Q323 712 319 717Q315 723 312 728H310Q307 723 303 717Q299 712 294 704.5Q289 697 281 689L238 642H180L295 767Z" glyph-name="Gcircumflex" horiz-adv-x="594" unicode="&#284;" /><glyph d="M527 288V0H481L474 101Q458 49 410.5 20Q363 -9 303 -9Q246 -9 199 10.5Q152 30 118.5 68.5Q85 107 66.5 163Q48 219 48 293Q48 367 67.5 424Q87 481 121.5 519.5Q156 558 204.5 578Q253 598 312 598Q469 598 522 458L475 435Q454 494 411.5 523.5Q369 553 309 553Q210 553 156.5 483.5Q103 414 103 293Q103 234 116 187Q129 140 154.5 106Q180 72 217.5 54Q255 36 305 36Q337 36 367.5 44.5Q398 53 421.5 72Q445 91 459.5 121.5Q474 152 474 195V240H315V288ZM369 -145Q369 -232 273 -232V-206Q300 -205 314.5 -195Q329 -185 330 -159Q330 -153 329 -151Q326 -153 323 -154Q320 -155 315 -155Q300 -155 291.5 -145.5Q283 -136 283 -122Q283 -105 293.5 -95.5Q304 -86 322 -86Q339 -86 354 -101Q369 -116 369 -145Z" glyph-name="Gcommaaccent" horiz-adv-x="594" unicode="&#290;" /><glyph d="M527 288V0H481L474 101Q458 49 410.5 20Q363 -9 303 -9Q246 -9 199 10.5Q152 30 118.5 68.5Q85 107 66.5 163Q48 219 48 293Q48 367 67.5 424Q87 481 121.5 519.5Q156 558 204.5 578Q253 598 312 598Q469 598 522 458L475 435Q454 494 411.5 523.5Q369 553 309 553Q210 553 156.5 483.5Q103 414 103 293Q103 234 116 187Q129 140 154.5 106Q180 72 217.5 54Q255 36 305 36Q337 36 367.5 44.5Q398 53 421.5 72Q445 91 459.5 121.5Q474 152 474 195V240H315V288ZM272 698Q272 715 283 725.5Q294 736 310 736Q327 736 337.5 725.5Q348 715 348 698Q348 682 337.5 671Q327 660 310 660Q294 660 283 671Q272 682 272 698Z" glyph-name="Gdotaccent" horiz-adv-x="594" unicode="&#288;" /><glyph d="M87 0V589H140V321H480V589H532V0H480V274H140V0Z" glyph-name="H" horiz-adv-x="620" unicode="H" /><glyph d="M24 471H93V589H145V471H485V589H538V471H609V424H538V0H485V274H145V0H93V424H24ZM485 321V424H145V321Z" glyph-name="Hbar" horiz-adv-x="633" unicode="&#294;" /><glyph d="M87 0V589H140V321H480V589H532V0H480V274H140V0ZM325 767 440 642H382L340 689Q332 697 327 704.5Q322 712 318 717Q314 723 311 728H309Q306 723 302 717Q298 712 293 704.5Q288 697 280 689L237 642H179L294 767Z" glyph-name="Hcircumflex" horiz-adv-x="620" unicode="&#292;" /><glyph d="M140 589V0H87V589Z" glyph-name="I" horiz-adv-x="227" unicode="I" /><glyph d="M140 589V0H87V589ZM88 642 152 763H222L133 642Z" glyph-name="Iacute" horiz-adv-x="227" unicode="&#205;" /><glyph d="M140 589V0H87V589ZM114 638Q57 638 25.5 670Q-6 702 -6 761H36Q40 678 114 678Q153 678 172 698.5Q191 719 193 761H234Q234 702 202.5 670Q171 638 114 638Z" glyph-name="Ibreve" horiz-adv-x="227" unicode="&#300;" /><glyph d="M140 589V0H87V589ZM128 767 243 642H185L143 689Q135 697 130 704.5Q125 712 121 717Q117 723 114 728H112Q109 723 105 717Q101 712 96 704.5Q91 697 83 689L40 642H-18L97 767Z" glyph-name="Icircumflex" horiz-adv-x="227" unicode="&#206;" /><glyph d="M140 589V0H87V589ZM-10 690Q-10 706 1 717Q12 728 28 728Q45 728 55.5 717Q66 706 66 690Q66 674 55.5 663Q45 652 28 652Q12 652 1 663Q-10 674 -10 690ZM162 689Q162 706 173 716.5Q184 727 200 727Q216 727 227 716.5Q238 706 238 689Q238 673 227 662Q216 651 200 651Q184 651 173 662Q162 673 162 689Z" glyph-name="Idieresis" horiz-adv-x="227" unicode="&#207;" /><glyph d="M140 589V0H87V589ZM75 689Q75 706 86 716.5Q97 727 113 727Q130 727 140.5 716.5Q151 706 151 689Q151 673 140.5 662Q130 651 113 651Q97 651 86 662Q75 673 75 689Z" glyph-name="Idotaccent" horiz-adv-x="227" unicode="&#304;" /><glyph d="M140 589V0H87V589ZM93 642 4 763H74L138 642Z" glyph-name="Igrave" horiz-adv-x="227" unicode="&#204;" /><glyph d="M140 589V0H87V589ZM3 667V708H225V667Z" glyph-name="Imacron" horiz-adv-x="227" unicode="&#298;" /><glyph d="M-11 -114Q-11 -90 -3 -70Q5 -50 18.5 -34.5Q32 -19 50 -6.5Q68 6 87 15V589H140V0Q121 -5 102.5 -14.5Q84 -24 69.5 -37.5Q55 -51 46 -68.5Q37 -86 37 -108Q37 -134 49.5 -149Q62 -164 87 -164Q109 -164 123.5 -153.5Q138 -143 149 -126L170 -151Q159 -171 137.5 -186Q116 -201 80 -201Q37 -201 13 -178.5Q-11 -156 -11 -114Z" glyph-name="Iogonek" horiz-adv-x="227" unicode="&#302;" /><glyph d="M140 589V0H87V589ZM182 647Q159 647 143 656.5Q127 666 110 677Q91 690 78 698Q65 706 49 706Q29 706 19 692.5Q9 679 15 647H-18Q-26 669 -25 688Q-24 707 -15.5 721Q-7 735 8.5 743.5Q24 752 44 752Q69 752 86 743Q103 734 122 721Q140 707 152 700Q164 693 179 693Q198 693 207.5 707Q217 721 212 754H247Q262 708 244 677.5Q226 647 182 647Z" glyph-name="Itilde" horiz-adv-x="227" unicode="&#296;" /><glyph d="M358 589V172Q358 121 344 86.5Q330 52 306.5 30.5Q283 9 252 0Q221 -9 186 -9Q150 -9 121.5 0Q93 9 71.5 25Q50 41 34.5 62.5Q19 84 9 109L52 136Q74 83 105.5 59.5Q137 36 188 36Q249 36 277.5 72Q306 108 306 185V589Z" glyph-name="J" horiz-adv-x="426" unicode="J" /><glyph d="M358 589V172Q358 121 344 86.5Q330 52 306.5 30.5Q283 9 252 0Q221 -9 186 -9Q150 -9 121.5 0Q93 9 71.5 25Q50 41 34.5 62.5Q19 84 9 109L52 136Q74 83 105.5 59.5Q137 36 188 36Q249 36 277.5 72Q306 108 306 185V589ZM347 767 462 642H404L362 689Q354 697 349 704.5Q344 712 340 717Q336 723 333 728H331Q328 723 324 717Q320 712 315 704.5Q310 697 302 689L259 642H201L316 767Z" glyph-name="Jcircumflex" horiz-adv-x="426" unicode="&#308;" /><glyph d="M419 0 190 274H140V0H87V589H140V321H192L407 589H470L235 300L485 0Z" glyph-name="K" horiz-adv-x="500" unicode="K" /><glyph d="M419 0 190 274H140V0H87V589H140V321H192L407 589H470L235 300L485 0ZM297 -145Q297 -232 201 -232V-206Q228 -205 242.5 -195Q257 -185 258 -159Q258 -153 257 -151Q254 -153 251 -154Q248 -155 243 -155Q228 -155 219.5 -145.5Q211 -136 211 -122Q211 -105 221.5 -95.5Q232 -86 250 -86Q267 -86 282 -101Q297 -116 297 -145Z" glyph-name="Kcommaaccent" horiz-adv-x="500" unicode="&#310;" /><glyph d="M140 589V46H414V0H87V589Z" glyph-name="L" horiz-adv-x="436" unicode="L" /><glyph d="M140 589V46H414V0H87V589ZM97 642 161 763H231L142 642Z" glyph-name="Lacute" horiz-adv-x="436" unicode="&#313;" /><glyph d="M140 589V46H414V0H87V589ZM326 426H289L305 601H365Z" glyph-name="Lcaron" horiz-adv-x="436" unicode="&#317;" /><glyph d="M140 589V46H414V0H87V589ZM304 -145Q304 -232 208 -232V-206Q235 -205 249.5 -195Q264 -185 265 -159Q265 -153 264 -151Q261 -153 258 -154Q255 -155 250 -155Q235 -155 226.5 -145.5Q218 -136 218 -122Q218 -105 228.5 -95.5Q239 -86 257 -86Q274 -86 289 -101Q304 -116 304 -145Z" glyph-name="Lcommaaccent" horiz-adv-x="436" unicode="&#315;" /><glyph d="M264 302Q264 320 276.5 332Q289 344 307 344Q325 344 337 332Q349 320 349 302Q349 283 337 271Q325 259 307 259Q289 259 276.5 271Q264 283 264 302ZM140 589V46H414V0H87V589Z" glyph-name="Ldot" horiz-adv-x="436" unicode="&#319;" /><glyph d="M28 262 92 290V589H144V311L297 381V333L144 264V46H418V0H92V244L28 216Z" glyph-name="Lslash" horiz-adv-x="440" unicode="&#321;" /><glyph d="M331 147 186 417Q172 443 163 462Q154 481 149 495Q143 511 139 522H136Q136 511 137 495Q138 481 138.5 460.5Q139 440 139 414V0H87V589H152L324 262Q332 247 337.5 235Q343 223 346 215Q350 205 352 199H355Q357 205 361 215Q364 223 369.5 235Q375 247 383 262L554 589H616V0H564V414Q564 440 564 460.5Q564 481 565 495Q566 511 567 522H564Q560 511 554 495Q549 481 540 462Q531 443 517 417L372 147Z" glyph-name="M" horiz-adv-x="703" unicode="M" /><glyph d="M424 179Q438 158 450 138.5Q462 119 471 104Q482 86 490 70H493Q492 87 491 107Q490 124 490 146.5Q490 169 490 194V589H542V0H486L205 410Q191 430 179 449Q167 468 158 484Q147 502 139 519H135Q136 502 137 482Q138 465 138.5 442.5Q139 420 139 395V0H87V589H144Z" glyph-name="N" horiz-adv-x="629" unicode="N" /><glyph glyph-name="NULL" horiz-adv-x="0" /><glyph d="M424 179Q438 158 450 138.5Q462 119 471 104Q482 86 490 70H493Q492 87 491 107Q490 124 490 146.5Q490 169 490 194V589H542V0H486L205 410Q191 430 179 449Q167 468 158 484Q147 502 139 519H135Q136 502 137 482Q138 465 138.5 442.5Q139 420 139 395V0H87V589H144ZM289 642 353 763H423L334 642Z" glyph-name="Nacute" horiz-adv-x="629" unicode="&#323;" /><glyph d="M424 179Q438 158 450 138.5Q462 119 471 104Q482 86 490 70H493Q492 87 491 107Q490 124 490 146.5Q490 169 490 194V589H542V0H486L205 410Q191 430 179 449Q167 468 158 484Q147 502 139 519H135Q136 502 137 482Q138 465 138.5 442.5Q139 420 139 395V0H87V589H144ZM298 639 183 765H241L284 717Q298 700 306 689Q310 683 313 679H315Q318 683 322 689Q330 700 344 717L386 765H444L329 639Z" glyph-name="Ncaron" horiz-adv-x="629" unicode="&#327;" /><glyph d="M424 179Q438 158 450 138.5Q462 119 471 104Q482 86 490 70H493Q492 87 491 107Q490 124 490 146.5Q490 169 490 194V589H542V0H486L205 410Q191 430 179 449Q167 468 158 484Q147 502 139 519H135Q136 502 137 482Q138 465 138.5 442.5Q139 420 139 395V0H87V589H144ZM368 -145Q368 -232 272 -232V-206Q299 -205 313.5 -195Q328 -185 329 -159Q329 -153 328 -151Q325 -153 322 -154Q319 -155 314 -155Q299 -155 290.5 -145.5Q282 -136 282 -122Q282 -105 292.5 -95.5Q303 -86 321 -86Q338 -86 353 -101Q368 -116 368 -145Z" glyph-name="Ncommaaccent" horiz-adv-x="629" unicode="&#325;" /><glyph d="M424 179Q438 158 450 138.5Q462 119 471 104Q482 86 490 70H493Q492 87 491 107Q490 124 490 146.5Q490 169 490 194V589H542V0H486L205 410Q191 430 179 449Q167 468 158 484Q147 502 139 519H135Q136 502 137 482Q138 465 138.5 442.5Q139 420 139 395V0H87V589H144ZM382 647Q359 647 343 656.5Q327 666 310 677Q291 690 278 698Q265 706 249 706Q229 706 219 692.5Q209 679 215 647H182Q174 669 175 688Q176 707 184.5 721Q193 735 208.5 743.5Q224 752 244 752Q269 752 286 743Q303 734 322 721Q340 707 352 700Q364 693 379 693Q398 693 407.5 707Q417 721 412 754H447Q462 708 444 677.5Q426 647 382 647Z" glyph-name="Ntilde" horiz-adv-x="629" unicode="&#209;" /><glyph d="M304 -9Q245 -9 198 11Q151 31 117.5 69.5Q84 108 66 164.5Q48 221 48 294Q48 367 66 423.5Q84 480 117.5 519Q151 558 198 578Q245 598 304 598Q362 598 409.5 578Q457 558 490.5 519Q524 480 542 423.5Q560 367 560 294Q560 221 542 164.5Q524 108 490.5 69.5Q457 31 409.5 11Q362 -9 304 -9ZM304 552Q205 552 154 483.5Q103 415 103 294Q103 173 154 105Q205 37 304 37Q403 37 454.5 105Q506 173 506 294Q506 415 454.5 483.5Q403 552 304 552Z" glyph-name="O" horiz-adv-x="608" unicode="O" /><glyph d="M304 -9Q245 -9 198 11Q151 31 117.5 69.5Q84 108 66 164.5Q48 221 48 294Q48 367 66 423.5Q84 480 117.5 519Q151 558 198 578Q245 598 304 598Q344 598 377 589H797V543H461Q506 509 531 452.5Q556 396 559 318H766V272H559Q556 192 531 135.5Q506 79 461 46H797V0H377Q344 -9 304 -9ZM304 552Q206 552 155 483Q104 414 104 294Q104 173 154.5 105Q205 37 304 37Q403 37 453.5 105Q504 173 504 294Q504 414 453 483Q402 552 304 552Z" glyph-name="OE" horiz-adv-x="849" unicode="&#338;" /><glyph d="M304 -9Q245 -9 198 11Q151 31 117.5 69.5Q84 108 66 164.5Q48 221 48 294Q48 367 66 423.5Q84 480 117.5 519Q151 558 198 578Q245 598 304 598Q362 598 409.5 578Q457 558 490.5 519Q524 480 542 423.5Q560 367 560 294Q560 221 542 164.5Q524 108 490.5 69.5Q457 31 409.5 11Q362 -9 304 -9ZM304 552Q205 552 154 483.5Q103 415 103 294Q103 173 154 105Q205 37 304 37Q403 37 454.5 105Q506 173 506 294Q506 415 454.5 483.5Q403 552 304 552ZM279 642 343 763H413L324 642Z" glyph-name="Oacute" horiz-adv-x="608" unicode="&#211;" /><glyph d="M304 -9Q245 -9 198 11Q151 31 117.5 69.5Q84 108 66 164.5Q48 221 48 294Q48 367 66 423.5Q84 480 117.5 519Q151 558 198 578Q245 598 304 598Q362 598 409.5 578Q457 558 490.5 519Q524 480 542 423.5Q560 367 560 294Q560 221 542 164.5Q524 108 490.5 69.5Q457 31 409.5 11Q362 -9 304 -9ZM304 552Q205 552 154 483.5Q103 415 103 294Q103 173 154 105Q205 37 304 37Q403 37 454.5 105Q506 173 506 294Q506 415 454.5 483.5Q403 552 304 552ZM304 638Q247 638 215.5 670Q184 702 184 761H226Q230 678 304 678Q343 678 362 698.5Q381 719 383 761H424Q424 702 392.5 670Q361 638 304 638Z" glyph-name="Obreve" horiz-adv-x="608" unicode="&#334;" /><glyph d="M304 -9Q245 -9 198 11Q151 31 117.5 69.5Q84 108 66 164.5Q48 221 48 294Q48 367 66 423.5Q84 480 117.5 519Q151 558 198 578Q245 598 304 598Q362 598 409.5 578Q457 558 490.5 519Q524 480 542 423.5Q560 367 560 294Q560 221 542 164.5Q524 108 490.5 69.5Q457 31 409.5 11Q362 -9 304 -9ZM304 552Q205 552 154 483.5Q103 415 103 294Q103 173 154 105Q205 37 304 37Q403 37 454.5 105Q506 173 506 294Q506 415 454.5 483.5Q403 552 304 552ZM319 767 434 642H376L334 689Q326 697 321 704.5Q316 712 312 717Q308 723 305 728H303Q300 723 296 717Q292 712 287 704.5Q282 697 274 689L231 642H173L288 767Z" glyph-name="Ocircumflex" horiz-adv-x="608" unicode="&#212;" /><glyph d="M304 -9Q245 -9 198 11Q151 31 117.5 69.5Q84 108 66 164.5Q48 221 48 294Q48 367 66 423.5Q84 480 117.5 519Q151 558 198 578Q245 598 304 598Q362 598 409.5 578Q457 558 490.5 519Q524 480 542 423.5Q560 367 560 294Q560 221 542 164.5Q524 108 490.5 69.5Q457 31 409.5 11Q362 -9 304 -9ZM304 552Q205 552 154 483.5Q103 415 103 294Q103 173 154 105Q205 37 304 37Q403 37 454.5 105Q506 173 506 294Q506 415 454.5 483.5Q403 552 304 552ZM180 690Q180 706 191 717Q202 728 218 728Q235 728 245.5 717Q256 706 256 690Q256 674 245.5 663Q235 652 218 652Q202 652 191 663Q180 674 180 690ZM352 689Q352 706 363 716.5Q374 727 390 727Q406 727 417 716.5Q428 706 428 689Q428 673 417 662Q406 651 390 651Q374 651 363 662Q352 673 352 689Z" glyph-name="Odieresis" horiz-adv-x="608" unicode="&#214;" /><glyph d="M304 -9Q245 -9 198 11Q151 31 117.5 69.5Q84 108 66 164.5Q48 221 48 294Q48 367 66 423.5Q84 480 117.5 519Q151 558 198 578Q245 598 304 598Q362 598 409.5 578Q457 558 490.5 519Q524 480 542 423.5Q560 367 560 294Q560 221 542 164.5Q524 108 490.5 69.5Q457 31 409.5 11Q362 -9 304 -9ZM304 552Q205 552 154 483.5Q103 415 103 294Q103 173 154 105Q205 37 304 37Q403 37 454.5 105Q506 173 506 294Q506 415 454.5 483.5Q403 552 304 552ZM284 642 195 763H265L329 642Z" glyph-name="Ograve" horiz-adv-x="608" unicode="&#210;" /><glyph d="M304 -9Q245 -9 198 11Q151 31 117.5 69.5Q84 108 66 164.5Q48 221 48 294Q48 367 66 423.5Q84 480 117.5 519Q151 558 198 578Q245 598 304 598Q362 598 409.5 578Q457 558 490.5 519Q524 480 542 423.5Q560 367 560 294Q560 221 542 164.5Q524 108 490.5 69.5Q457 31 409.5 11Q362 -9 304 -9ZM304 552Q205 552 154 483.5Q103 415 103 294Q103 173 154 105Q205 37 304 37Q403 37 454.5 105Q506 173 506 294Q506 415 454.5 483.5Q403 552 304 552ZM218 642 284 763H351L257 642ZM341 642 412 763H479L380 642Z" glyph-name="Ohungarumlaut" horiz-adv-x="608" unicode="&#336;" /><glyph d="M304 -9Q245 -9 198 11Q151 31 117.5 69.5Q84 108 66 164.5Q48 221 48 294Q48 367 66 423.5Q84 480 117.5 519Q151 558 198 578Q245 598 304 598Q362 598 409.5 578Q457 558 490.5 519Q524 480 542 423.5Q560 367 560 294Q560 221 542 164.5Q524 108 490.5 69.5Q457 31 409.5 11Q362 -9 304 -9ZM304 552Q205 552 154 483.5Q103 415 103 294Q103 173 154 105Q205 37 304 37Q403 37 454.5 105Q506 173 506 294Q506 415 454.5 483.5Q403 552 304 552ZM194 667V708H416V667Z" glyph-name="Omacron" horiz-adv-x="608" unicode="&#332;" /><glyph d="M37 17 102 91Q48 168 48 294Q48 367 66 423.5Q84 480 117.5 519Q151 558 198 578Q245 598 304 598Q413 598 481 530L539 596L570 568L508 495Q560 419 560 294Q560 221 542 164.5Q524 108 490.5 69.5Q457 31 409.5 11Q362 -9 304 -9Q193 -9 127 59L67 -10ZM304 552Q206 552 155 483Q104 414 104 294Q104 197 139 133L447 490Q394 552 304 552ZM504 294Q504 391 469 453L162 97Q213 37 304 37Q403 37 453.5 105Q504 173 504 294Z" glyph-name="Oslash" horiz-adv-x="608" unicode="&#216;" /><glyph d="M37 17 102 91Q48 168 48 294Q48 367 66 423.5Q84 480 117.5 519Q151 558 198 578Q245 598 304 598Q413 598 481 530L539 596L570 568L508 495Q560 419 560 294Q560 221 542 164.5Q524 108 490.5 69.5Q457 31 409.5 11Q362 -9 304 -9Q193 -9 127 59L67 -10ZM304 552Q206 552 155 483Q104 414 104 294Q104 197 139 133L447 490Q394 552 304 552ZM504 294Q504 391 469 453L162 97Q213 37 304 37Q403 37 453.5 105Q504 173 504 294ZM279 642 343 763H413L324 642Z" glyph-name="Oslashacute" horiz-adv-x="608" unicode="&#510;" /><glyph d="M304 -9Q245 -9 198 11Q151 31 117.5 69.5Q84 108 66 164.5Q48 221 48 294Q48 367 66 423.5Q84 480 117.5 519Q151 558 198 578Q245 598 304 598Q362 598 409.5 578Q457 558 490.5 519Q524 480 542 423.5Q560 367 560 294Q560 221 542 164.5Q524 108 490.5 69.5Q457 31 409.5 11Q362 -9 304 -9ZM304 552Q205 552 154 483.5Q103 415 103 294Q103 173 154 105Q205 37 304 37Q403 37 454.5 105Q506 173 506 294Q506 415 454.5 483.5Q403 552 304 552ZM372 647Q349 647 333 656.5Q317 666 300 677Q281 690 268 698Q255 706 239 706Q219 706 209 692.5Q199 679 205 647H172Q164 669 165 688Q166 707 174.5 721Q183 735 198.5 743.5Q214 752 234 752Q259 752 276 743Q293 734 312 721Q330 707 342 700Q354 693 369 693Q388 693 397.5 707Q407 721 402 754H437Q452 708 434 677.5Q416 647 372 647Z" glyph-name="Otilde" horiz-adv-x="608" unicode="&#213;" /><glyph d="M140 276H244Q323 276 356.5 310.5Q390 345 390 413Q390 477 354.5 510.5Q319 544 243 544H140ZM87 0V589H245Q350 589 397.5 543Q445 497 445 415Q445 326 396.5 279Q348 232 249 232H140V0Z" glyph-name="P" horiz-adv-x="475" unicode="P" /><glyph d="M487 -134Q482 -135 475.5 -135.5Q469 -136 461 -136Q382 -136 335.5 -101Q289 -66 271 -7Q168 4 108 81Q48 158 48 294Q48 367 66 423.5Q84 480 117.5 519Q151 558 198 578Q245 598 304 598Q362 598 409.5 578Q457 558 490.5 519Q524 480 542 423.5Q560 367 560 294Q560 225 543.5 170Q527 115 496 76.5Q465 38 422 16.5Q379 -5 325 -8Q347 -54 384.5 -72.5Q422 -91 473 -91Q487 -91 501 -88ZM304 552Q205 552 154 483.5Q103 415 103 294Q103 173 154 104.5Q205 36 304 36Q403 36 454.5 104.5Q506 173 506 294Q506 415 454.5 483.5Q403 552 304 552Z" glyph-name="Q" horiz-adv-x="608" unicode="Q" /><glyph d="M436 0Q425 12 419 24.5Q413 37 408 59L384 164Q371 218 339.5 238.5Q308 259 251 259H140V0H87V589H269Q369 589 415.5 547Q462 505 462 427Q462 392 451 365.5Q440 339 421 320.5Q402 302 377 291.5Q352 281 325 280V278Q369 273 394.5 251Q420 229 433 179L461 65Q471 26 494 0ZM140 304H268Q407 304 407 424Q407 483 373.5 513.5Q340 544 268 544H140Z" glyph-name="R" horiz-adv-x="530" unicode="R" /><glyph d="M436 0Q425 12 419 24.5Q413 37 408 59L384 164Q371 218 339.5 238.5Q308 259 251 259H140V0H87V589H269Q369 589 415.5 547Q462 505 462 427Q462 392 451 365.5Q440 339 421 320.5Q402 302 377 291.5Q352 281 325 280V278Q369 273 394.5 251Q420 229 433 179L461 65Q471 26 494 0ZM140 304H268Q407 304 407 424Q407 483 373.5 513.5Q340 544 268 544H140ZM230 642 294 763H364L275 642Z" glyph-name="Racute" horiz-adv-x="530" unicode="&#340;" /><glyph d="M436 0Q425 12 419 24.5Q413 37 408 59L384 164Q371 218 339.5 238.5Q308 259 251 259H140V0H87V589H269Q369 589 415.5 547Q462 505 462 427Q462 392 451 365.5Q440 339 421 320.5Q402 302 377 291.5Q352 281 325 280V278Q369 273 394.5 251Q420 229 433 179L461 65Q471 26 494 0ZM140 304H268Q407 304 407 424Q407 483 373.5 513.5Q340 544 268 544H140ZM234 639 119 765H177L220 717Q234 700 242 689Q246 683 249 679H251Q254 683 258 689Q266 700 280 717L322 765H380L265 639Z" glyph-name="Rcaron" horiz-adv-x="530" unicode="&#344;" /><glyph d="M436 0Q425 12 419 24.5Q413 37 408 59L384 164Q371 218 339.5 238.5Q308 259 251 259H140V0H87V589H269Q369 589 415.5 547Q462 505 462 427Q462 392 451 365.5Q440 339 421 320.5Q402 302 377 291.5Q352 281 325 280V278Q369 273 394.5 251Q420 229 433 179L461 65Q471 26 494 0ZM140 304H268Q407 304 407 424Q407 483 373.5 513.5Q340 544 268 544H140ZM308 -145Q308 -232 212 -232V-206Q239 -205 253.5 -195Q268 -185 269 -159Q269 -153 268 -151Q265 -153 262 -154Q259 -155 254 -155Q239 -155 230.5 -145.5Q222 -136 222 -122Q222 -105 232.5 -95.5Q243 -86 261 -86Q278 -86 293 -101Q308 -116 308 -145Z" glyph-name="Rcommaaccent" horiz-adv-x="530" unicode="&#342;" /><glyph d="M81 158Q92 94 130 63.5Q168 33 228 33Q291 33 328 60.5Q365 88 365 144Q365 170 357 189.5Q349 209 332 224.5Q315 240 288 252.5Q261 265 222 278Q189 288 158 300.5Q127 313 103.5 331Q80 349 65.5 376Q51 403 51 443Q51 486 66 516Q81 546 106 564.5Q131 583 162 591Q193 599 226 599Q303 599 354 563.5Q405 528 414 444L363 436Q355 498 320 527Q285 556 227 556Q174 556 138.5 529.5Q103 503 103 447Q103 419 113 400.5Q123 382 142.5 368Q162 354 189.5 343.5Q217 333 253 321Q287 310 317.5 296.5Q348 283 370 263.5Q392 244 405 216.5Q418 189 418 150Q418 110 403.5 80Q389 50 363.5 30.5Q338 11 303 1Q268 -9 227 -9Q142 -9 92.5 29.5Q43 68 31 148Z" glyph-name="S" horiz-adv-x="465" unicode="S" /><glyph d="M81 158Q92 94 130 63.5Q168 33 228 33Q291 33 328 60.5Q365 88 365 144Q365 170 357 189.5Q349 209 332 224.5Q315 240 288 252.5Q261 265 222 278Q189 288 158 300.5Q127 313 103.5 331Q80 349 65.5 376Q51 403 51 443Q51 486 66 516Q81 546 106 564.5Q131 583 162 591Q193 599 226 599Q303 599 354 563.5Q405 528 414 444L363 436Q355 498 320 527Q285 556 227 556Q174 556 138.5 529.5Q103 503 103 447Q103 419 113 400.5Q123 382 142.5 368Q162 354 189.5 343.5Q217 333 253 321Q287 310 317.5 296.5Q348 283 370 263.5Q392 244 405 216.5Q418 189 418 150Q418 110 403.5 80Q389 50 363.5 30.5Q338 11 303 1Q268 -9 227 -9Q142 -9 92.5 29.5Q43 68 31 148ZM209 642 273 763H343L254 642Z" glyph-name="Sacute" horiz-adv-x="465" unicode="&#346;" /><glyph d="M81 158Q92 94 130 63.5Q168 33 228 33Q291 33 328 60.5Q365 88 365 144Q365 170 357 189.5Q349 209 332 224.5Q315 240 288 252.5Q261 265 222 278Q189 288 158 300.5Q127 313 103.5 331Q80 349 65.5 376Q51 403 51 443Q51 486 66 516Q81 546 106 564.5Q131 583 162 591Q193 599 226 599Q303 599 354 563.5Q405 528 414 444L363 436Q355 498 320 527Q285 556 227 556Q174 556 138.5 529.5Q103 503 103 447Q103 419 113 400.5Q123 382 142.5 368Q162 354 189.5 343.5Q217 333 253 321Q287 310 317.5 296.5Q348 283 370 263.5Q392 244 405 216.5Q418 189 418 150Q418 110 403.5 80Q389 50 363.5 30.5Q338 11 303 1Q268 -9 227 -9Q142 -9 92.5 29.5Q43 68 31 148ZM218 639 103 765H161L204 717Q218 700 226 689Q230 683 233 679H235Q238 683 242 689Q250 700 264 717L306 765H364L249 639Z" glyph-name="Scaron" horiz-adv-x="465" unicode="&#352;" /><glyph d="M324 -126Q324 -167 297 -186Q270 -205 231 -205Q200 -205 178.5 -193.5Q157 -182 144 -165L162 -132Q176 -151 192 -161Q208 -171 231 -171Q254 -171 267 -160.5Q280 -150 280 -126Q280 -77 200 -74L208 -9Q133 -4 87.5 34Q42 72 31 148L81 158Q92 94 130 63.5Q168 33 228 33Q291 33 328 60.5Q365 88 365 144Q365 170 357 189.5Q349 209 332 224.5Q315 240 288 252.5Q261 265 222 278Q189 288 158 300.5Q127 313 103.5 331Q80 349 65.5 376Q51 403 51 443Q51 486 66 516Q81 546 106 564.5Q131 583 162 591Q193 599 226 599Q303 599 354 563.5Q405 528 414 444L363 436Q355 498 320 527Q285 556 227 556Q174 556 138.5 529.5Q103 503 103 447Q103 419 113 400.5Q123 382 142.5 368Q162 354 189.5 343.5Q217 333 253 321Q287 310 317.5 296.5Q348 283 370 263.5Q392 244 405 216.5Q418 189 418 150Q418 111 404.5 82Q391 53 367.5 33.5Q344 14 311 3Q278 -8 239 -9L233 -46Q276 -50 300 -70.5Q324 -91 324 -126Z" glyph-name="Scedilla" horiz-adv-x="465" unicode="&#350;" /><glyph d="M81 158Q92 94 130 63.5Q168 33 228 33Q291 33 328 60.5Q365 88 365 144Q365 170 357 189.5Q349 209 332 224.5Q315 240 288 252.5Q261 265 222 278Q189 288 158 300.5Q127 313 103.5 331Q80 349 65.5 376Q51 403 51 443Q51 486 66 516Q81 546 106 564.5Q131 583 162 591Q193 599 226 599Q303 599 354 563.5Q405 528 414 444L363 436Q355 498 320 527Q285 556 227 556Q174 556 138.5 529.5Q103 503 103 447Q103 419 113 400.5Q123 382 142.5 368Q162 354 189.5 343.5Q217 333 253 321Q287 310 317.5 296.5Q348 283 370 263.5Q392 244 405 216.5Q418 189 418 150Q418 110 403.5 80Q389 50 363.5 30.5Q338 11 303 1Q268 -9 227 -9Q142 -9 92.5 29.5Q43 68 31 148ZM249 767 364 642H306L264 689Q256 697 251 704.5Q246 712 242 717Q238 723 235 728H233Q230 723 226 717Q222 712 217 704.5Q212 697 204 689L161 642H103L218 767Z" glyph-name="Scircumflex" horiz-adv-x="465" unicode="&#348;" /><glyph d="M81 158Q92 94 130 63.5Q168 33 228 33Q291 33 328 60.5Q365 88 365 144Q365 170 357 189.5Q349 209 332 224.5Q315 240 288 252.5Q261 265 222 278Q189 288 158 300.5Q127 313 103.5 331Q80 349 65.5 376Q51 403 51 443Q51 486 66 516Q81 546 106 564.5Q131 583 162 591Q193 599 226 599Q303 599 354 563.5Q405 528 414 444L363 436Q355 498 320 527Q285 556 227 556Q174 556 138.5 529.5Q103 503 103 447Q103 419 113 400.5Q123 382 142.5 368Q162 354 189.5 343.5Q217 333 253 321Q287 310 317.5 296.5Q348 283 370 263.5Q392 244 405 216.5Q418 189 418 150Q418 110 403.5 80Q389 50 363.5 30.5Q338 11 303 1Q268 -9 227 -9Q142 -9 92.5 29.5Q43 68 31 148ZM287 -145Q287 -232 191 -232V-206Q218 -205 232.5 -195Q247 -185 248 -159Q248 -153 247 -151Q244 -153 241 -154Q238 -155 233 -155Q218 -155 209.5 -145.5Q201 -136 201 -122Q201 -105 211.5 -95.5Q222 -86 240 -86Q257 -86 272 -101Q287 -116 287 -145Z" glyph-name="Scommaaccent" horiz-adv-x="465" unicode="&#536;" /><glyph d="M206 0V543H14V589H451V543H259V0Z" glyph-name="T" horiz-adv-x="465" unicode="T" /><glyph d="M206 0V282H84V327H206V543H14V589H451V543H259V327H382V282H259V0Z" glyph-name="Tbar" horiz-adv-x="465" unicode="&#358;" /><glyph d="M206 0V543H14V589H451V543H259V0ZM216 639 101 765H159L202 717Q216 700 224 689Q228 683 231 679H233Q236 683 240 689Q248 700 262 717L304 765H362L247 639Z" glyph-name="Tcaron" horiz-adv-x="465" unicode="&#356;" /><glyph d="M206 0V543H14V589H451V543H259V0ZM279 -145Q279 -232 183 -232V-206Q210 -205 224.5 -195Q239 -185 240 -159Q240 -153 239 -151Q236 -153 233 -154Q230 -155 225 -155Q210 -155 201.5 -145.5Q193 -136 193 -122Q193 -105 203.5 -95.5Q214 -86 232 -86Q249 -86 264 -101Q279 -116 279 -145Z" glyph-name="Tcommaaccent" horiz-adv-x="465" unicode="&#354;" /><glyph d="M140 171H242Q321 171 355.5 204Q390 237 390 305Q390 434 241 434H140ZM87 0V589H140V478H243Q349 478 397 434Q445 390 445 308Q445 218 395 172.5Q345 127 247 127H140V0Z" glyph-name="Thorn" horiz-adv-x="475" unicode="&#222;" /><glyph d="M506 589V201Q506 144 488 104Q470 64 439.5 39Q409 14 369.5 2.5Q330 -9 287 -9Q244 -9 204.5 2.5Q165 14 134.5 39Q104 64 86 104Q68 144 68 201V589H121V212Q121 164 134 130.5Q147 97 169.5 75.5Q192 54 222 44.5Q252 35 287 35Q321 35 351.5 44.5Q382 54 405 75Q428 96 441 129.5Q454 163 454 210V589Z" glyph-name="U" horiz-adv-x="574" unicode="U" /><glyph d="M506 589V201Q506 144 488 104Q470 64 439.5 39Q409 14 369.5 2.5Q330 -9 287 -9Q244 -9 204.5 2.5Q165 14 134.5 39Q104 64 86 104Q68 144 68 201V589H121V212Q121 164 134 130.5Q147 97 169.5 75.5Q192 54 222 44.5Q252 35 287 35Q321 35 351.5 44.5Q382 54 405 75Q428 96 441 129.5Q454 163 454 210V589ZM262 642 326 763H396L307 642Z" glyph-name="Uacute" horiz-adv-x="574" unicode="&#218;" /><glyph d="M506 589V201Q506 144 488 104Q470 64 439.5 39Q409 14 369.5 2.5Q330 -9 287 -9Q244 -9 204.5 2.5Q165 14 134.5 39Q104 64 86 104Q68 144 68 201V589H121V212Q121 164 134 130.5Q147 97 169.5 75.5Q192 54 222 44.5Q252 35 287 35Q321 35 351.5 44.5Q382 54 405 75Q428 96 441 129.5Q454 163 454 210V589ZM287 638Q230 638 198.5 670Q167 702 167 761H209Q213 678 287 678Q326 678 345 698.5Q364 719 366 761H407Q407 702 375.5 670Q344 638 287 638Z" glyph-name="Ubreve" horiz-adv-x="574" unicode="&#364;" /><glyph d="M506 589V201Q506 144 488 104Q470 64 439.5 39Q409 14 369.5 2.5Q330 -9 287 -9Q244 -9 204.5 2.5Q165 14 134.5 39Q104 64 86 104Q68 144 68 201V589H121V212Q121 164 134 130.5Q147 97 169.5 75.5Q192 54 222 44.5Q252 35 287 35Q321 35 351.5 44.5Q382 54 405 75Q428 96 441 129.5Q454 163 454 210V589ZM302 767 417 642H359L317 689Q309 697 304 704.5Q299 712 295 717Q291 723 288 728H286Q283 723 279 717Q275 712 270 704.5Q265 697 257 689L214 642H156L271 767Z" glyph-name="Ucircumflex" horiz-adv-x="574" unicode="&#219;" /><glyph d="M506 589V201Q506 144 488 104Q470 64 439.5 39Q409 14 369.5 2.5Q330 -9 287 -9Q244 -9 204.5 2.5Q165 14 134.5 39Q104 64 86 104Q68 144 68 201V589H121V212Q121 164 134 130.5Q147 97 169.5 75.5Q192 54 222 44.5Q252 35 287 35Q321 35 351.5 44.5Q382 54 405 75Q428 96 441 129.5Q454 163 454 210V589ZM163 690Q163 706 174 717Q185 728 201 728Q218 728 228.5 717Q239 706 239 690Q239 674 228.5 663Q218 652 201 652Q185 652 174 663Q163 674 163 690ZM335 689Q335 706 346 716.5Q357 727 373 727Q389 727 400 716.5Q411 706 411 689Q411 673 400 662Q389 651 373 651Q357 651 346 662Q335 673 335 689Z" glyph-name="Udieresis" horiz-adv-x="574" unicode="&#220;" /><glyph d="M506 589V201Q506 144 488 104Q470 64 439.5 39Q409 14 369.5 2.5Q330 -9 287 -9Q244 -9 204.5 2.5Q165 14 134.5 39Q104 64 86 104Q68 144 68 201V589H121V212Q121 164 134 130.5Q147 97 169.5 75.5Q192 54 222 44.5Q252 35 287 35Q321 35 351.5 44.5Q382 54 405 75Q428 96 441 129.5Q454 163 454 210V589ZM267 642 178 763H248L312 642Z" glyph-name="Ugrave" horiz-adv-x="574" unicode="&#217;" /><glyph d="M506 589V201Q506 144 488 104Q470 64 439.5 39Q409 14 369.5 2.5Q330 -9 287 -9Q244 -9 204.5 2.5Q165 14 134.5 39Q104 64 86 104Q68 144 68 201V589H121V212Q121 164 134 130.5Q147 97 169.5 75.5Q192 54 222 44.5Q252 35 287 35Q321 35 351.5 44.5Q382 54 405 75Q428 96 441 129.5Q454 163 454 210V589ZM201 642 267 763H334L240 642ZM324 642 395 763H462L363 642Z" glyph-name="Uhungarumlaut" horiz-adv-x="574" unicode="&#368;" /><glyph d="M506 589V201Q506 144 488 104Q470 64 439.5 39Q409 14 369.5 2.5Q330 -9 287 -9Q244 -9 204.5 2.5Q165 14 134.5 39Q104 64 86 104Q68 144 68 201V589H121V212Q121 164 134 130.5Q147 97 169.5 75.5Q192 54 222 44.5Q252 35 287 35Q321 35 351.5 44.5Q382 54 405 75Q428 96 441 129.5Q454 163 454 210V589ZM176 667V708H398V667Z" glyph-name="Umacron" horiz-adv-x="574" unicode="&#362;" /><glyph d="M216 -114Q216 -80 232 -53Q248 -26 274 -6Q265 -5 255.5 -4.5Q246 -4 237 -2Q202 3 171 17Q140 31 117 56Q94 81 81 117Q68 153 68 201V589H121V212Q121 164 134 130.5Q147 97 169.5 75.5Q192 54 222 44.5Q252 35 287 35Q321 35 351.5 44.5Q382 54 405 75Q428 96 441 129.5Q454 163 454 210V589H506V201Q506 152 492.5 116Q479 80 456 55.5Q433 31 402.5 16.5Q372 2 338 -4Q307 -21 285.5 -47.5Q264 -74 264 -108Q264 -134 276.5 -149Q289 -164 314 -164Q336 -164 350.5 -153.5Q365 -143 376 -126L397 -151Q386 -171 364.5 -186Q343 -201 307 -201Q265 -201 240.5 -178.5Q216 -156 216 -114Z" glyph-name="Uogonek" horiz-adv-x="574" unicode="&#370;" /><glyph d="M506 589V201Q506 144 488 104Q470 64 439.5 39Q409 14 369.5 2.5Q330 -9 287 -9Q244 -9 204.5 2.5Q165 14 134.5 39Q104 64 86 104Q68 144 68 201V589H121V212Q121 164 134 130.5Q147 97 169.5 75.5Q192 54 222 44.5Q252 35 287 35Q321 35 351.5 44.5Q382 54 405 75Q428 96 441 129.5Q454 163 454 210V589ZM292 629Q249 629 225.5 654Q202 679 202 716Q202 750 226 775Q250 800 292 800Q334 800 357.5 775Q381 750 381 716Q381 679 357.5 654Q334 629 292 629ZM292 773Q265 773 250 756.5Q235 740 235 714Q235 690 249.5 674.5Q264 659 292 659Q320 659 334.5 674.5Q349 690 349 714Q349 740 334 756.5Q319 773 292 773Z" glyph-name="Uring" horiz-adv-x="574" unicode="&#366;" /><glyph d="M506 589V201Q506 144 488 104Q470 64 439.5 39Q409 14 369.5 2.5Q330 -9 287 -9Q244 -9 204.5 2.5Q165 14 134.5 39Q104 64 86 104Q68 144 68 201V589H121V212Q121 164 134 130.5Q147 97 169.5 75.5Q192 54 222 44.5Q252 35 287 35Q321 35 351.5 44.5Q382 54 405 75Q428 96 441 129.5Q454 163 454 210V589ZM355 647Q332 647 316 656.5Q300 666 283 677Q264 690 251 698Q238 706 222 706Q202 706 192 692.5Q182 679 188 647H155Q147 669 148 688Q149 707 157.5 721Q166 735 181.5 743.5Q197 752 217 752Q242 752 259 743Q276 734 295 721Q313 707 325 700Q337 693 352 693Q371 693 380.5 707Q390 721 385 754H420Q435 708 417 677.5Q399 647 355 647Z" glyph-name="Utilde" horiz-adv-x="574" unicode="&#360;" /><glyph d="M220 159Q231 127 237.5 104Q244 81 249 66Q254 48 257 36H260Q263 47 267 65Q271 80 277.5 103Q284 126 295 158L445 589H499L292 0H221L14 589H71Z" glyph-name="V" horiz-adv-x="514" unicode="V" /><glyph d="M536 186Q545 152 551.5 124.5Q558 97 563 77Q568 53 572 34H576Q580 52 585 75Q590 95 596 122.5Q602 150 612 185L722 589H775L610 0H536L429 391Q419 425 413 452Q407 479 403 499Q399 522 396 539H393Q390 522 386 500Q378 460 360 391L253 0H179L14 589H70L180 187Q189 152 195.5 124Q202 96 207 76Q212 52 216 34H219Q223 52 228 76Q233 96 239 124Q245 152 255 186L368 589H426Z" glyph-name="W" horiz-adv-x="789" unicode="W" /><glyph d="M536 186Q545 152 551.5 124.5Q558 97 563 77Q568 53 572 34H576Q580 52 585 75Q590 95 596 122.5Q602 150 612 185L722 589H775L610 0H536L429 391Q419 425 413 452Q407 479 403 499Q399 522 396 539H393Q390 522 386 500Q378 460 360 391L253 0H179L14 589H70L180 187Q189 152 195.5 124Q202 96 207 76Q212 52 216 34H219Q223 52 228 76Q233 96 239 124Q245 152 255 186L368 589H426ZM370 642 434 763H504L415 642Z" glyph-name="Wacute" horiz-adv-x="789" unicode="&#7810;" /><glyph d="M536 186Q545 152 551.5 124.5Q558 97 563 77Q568 53 572 34H576Q580 52 585 75Q590 95 596 122.5Q602 150 612 185L722 589H775L610 0H536L429 391Q419 425 413 452Q407 479 403 499Q399 522 396 539H393Q390 522 386 500Q378 460 360 391L253 0H179L14 589H70L180 187Q189 152 195.5 124Q202 96 207 76Q212 52 216 34H219Q223 52 228 76Q233 96 239 124Q245 152 255 186L368 589H426ZM410 767 525 642H467L425 689Q417 697 412 704.5Q407 712 403 717Q399 723 396 728H394Q391 723 387 717Q383 712 378 704.5Q373 697 365 689L322 642H264L379 767Z" glyph-name="Wcircumflex" horiz-adv-x="789" unicode="&#372;" /><glyph d="M536 186Q545 152 551.5 124.5Q558 97 563 77Q568 53 572 34H576Q580 52 585 75Q590 95 596 122.5Q602 150 612 185L722 589H775L610 0H536L429 391Q419 425 413 452Q407 479 403 499Q399 522 396 539H393Q390 522 386 500Q378 460 360 391L253 0H179L14 589H70L180 187Q189 152 195.5 124Q202 96 207 76Q212 52 216 34H219Q223 52 228 76Q233 96 239 124Q245 152 255 186L368 589H426ZM270 690Q270 706 281 717Q292 728 308 728Q325 728 335.5 717Q346 706 346 690Q346 674 335.5 663Q325 652 308 652Q292 652 281 663Q270 674 270 690ZM442 689Q442 706 453 716.5Q464 727 480 727Q496 727 507 716.5Q518 706 518 689Q518 673 507 662Q496 651 480 651Q464 651 453 662Q442 673 442 689Z" glyph-name="Wdieresis" horiz-adv-x="789" unicode="&#7812;" /><glyph d="M536 186Q545 152 551.5 124.5Q558 97 563 77Q568 53 572 34H576Q580 52 585 75Q590 95 596 122.5Q602 150 612 185L722 589H775L610 0H536L429 391Q419 425 413 452Q407 479 403 499Q399 522 396 539H393Q390 522 386 500Q378 460 360 391L253 0H179L14 589H70L180 187Q189 152 195.5 124Q202 96 207 76Q212 52 216 34H219Q223 52 228 76Q233 96 239 124Q245 152 255 186L368 589H426ZM375 642 286 763H356L420 642Z" glyph-name="Wgrave" horiz-adv-x="789" unicode="&#7808;" /><glyph d="M293 200Q279 219 271.5 231.5Q264 244 259 252Q254 261 252 266H249Q246 261 241 252Q236 244 228 231.5Q220 219 207 199L73 0H14L221 301L26 589H87L209 406Q223 385 230.5 372Q238 359 243 351Q248 342 250 338H253Q255 343 260 352Q265 360 272.5 372.5Q280 385 294 405L416 589H473L280 306L487 0H429Z" glyph-name="X" horiz-adv-x="502" unicode="X" /><glyph d="M192 373Q206 348 214.5 330.5Q223 313 228 302Q234 289 238 280H241Q244 289 250 302Q255 313 263 330.5Q271 348 285 373L399 589H454L264 236V0H212V236L14 589H74Z" glyph-name="Y" horiz-adv-x="469" unicode="Y" /><glyph d="M192 373Q206 348 214.5 330.5Q223 313 228 302Q234 289 238 280H241Q244 289 250 302Q255 313 263 330.5Q271 348 285 373L399 589H454L264 236V0H212V236L14 589H74ZM209 642 273 763H343L254 642Z" glyph-name="Yacute" horiz-adv-x="469" unicode="&#221;" /><glyph d="M192 373Q206 348 214.5 330.5Q223 313 228 302Q234 289 238 280H241Q244 289 250 302Q255 313 263 330.5Q271 348 285 373L399 589H454L264 236V0H212V236L14 589H74ZM249 767 364 642H306L264 689Q256 697 251 704.5Q246 712 242 717Q238 723 235 728H233Q230 723 226 717Q222 712 217 704.5Q212 697 204 689L161 642H103L218 767Z" glyph-name="Ycircumflex" horiz-adv-x="469" unicode="&#374;" /><glyph d="M192 373Q206 348 214.5 330.5Q223 313 228 302Q234 289 238 280H241Q244 289 250 302Q255 313 263 330.5Q271 348 285 373L399 589H454L264 236V0H212V236L14 589H74ZM110 690Q110 706 121 717Q132 728 148 728Q165 728 175.5 717Q186 706 186 690Q186 674 175.5 663Q165 652 148 652Q132 652 121 663Q110 674 110 690ZM282 689Q282 706 293 716.5Q304 727 320 727Q336 727 347 716.5Q358 706 358 689Q358 673 347 662Q336 651 320 651Q304 651 293 662Q282 673 282 689Z" glyph-name="Ydieresis" horiz-adv-x="469" unicode="&#376;" /><glyph d="M192 373Q206 348 214.5 330.5Q223 313 228 302Q234 289 238 280H241Q244 289 250 302Q255 313 263 330.5Q271 348 285 373L399 589H454L264 236V0H212V236L14 589H74ZM214 642 125 763H195L259 642Z" glyph-name="Ygrave" horiz-adv-x="469" unicode="&#7922;" /><glyph d="M145 120Q133 101 123.5 87.5Q114 74 107 65Q99 54 93 47V44Q100 44 111 45Q121 45 137 45.5Q153 46 177 46H441V0H28V31L318 469Q330 487 339.5 501Q349 515 356 524Q364 535 370 542V545Q363 544 352 544Q342 543 325.5 543Q309 543 286 543H39V589H435V553Z" glyph-name="Z" horiz-adv-x="465" unicode="Z" /><glyph d="M145 120Q133 101 123.5 87.5Q114 74 107 65Q99 54 93 47V44Q100 44 111 45Q121 45 137 45.5Q153 46 177 46H441V0H28V31L318 469Q330 487 339.5 501Q349 515 356 524Q364 535 370 542V545Q363 544 352 544Q342 543 325.5 543Q309 543 286 543H39V589H435V553ZM214 642 278 763H348L259 642Z" glyph-name="Zacute" horiz-adv-x="465" unicode="&#377;" /><glyph d="M145 120Q133 101 123.5 87.5Q114 74 107 65Q99 54 93 47V44Q100 44 111 45Q121 45 137 45.5Q153 46 177 46H441V0H28V31L318 469Q330 487 339.5 501Q349 515 356 524Q364 535 370 542V545Q363 544 352 544Q342 543 325.5 543Q309 543 286 543H39V589H435V553ZM223 639 108 765H166L209 717Q223 700 231 689Q235 683 238 679H240Q243 683 247 689Q255 700 269 717L311 765H369L254 639Z" glyph-name="Zcaron" horiz-adv-x="465" unicode="&#381;" /><glyph d="M145 120Q133 101 123.5 87.5Q114 74 107 65Q99 54 93 47V44Q100 44 111 45Q121 45 137 45.5Q153 46 177 46H441V0H28V31L318 469Q330 487 339.5 501Q349 515 356 524Q364 535 370 542V545Q363 544 352 544Q342 543 325.5 543Q309 543 286 543H39V589H435V553ZM200 698Q200 715 211 725.5Q222 736 238 736Q255 736 265.5 725.5Q276 715 276 698Q276 682 265.5 671Q255 660 238 660Q222 660 211 671Q200 682 200 698Z" glyph-name="Zdotaccent" horiz-adv-x="465" unicode="&#379;" /><glyph d="M319 221Q307 223 296 223.5Q285 224 271 224Q183 224 137 199Q91 174 91 120Q91 80 116 56Q141 32 190 32Q214 32 237 39.5Q260 47 278.5 61Q297 75 308 96.5Q319 118 319 145ZM370 96Q370 64 379.5 51Q389 38 407 38Q420 38 428 42V0Q422 -2 414.5 -3Q407 -4 397 -4Q362 -4 343 15Q324 34 322 78Q305 33 266 12Q227 -9 180 -9Q116 -9 78 23.5Q40 56 40 115Q40 186 94.5 224Q149 262 261 262Q275 262 289 261.5Q303 261 319 259V323Q319 382 288.5 405Q258 428 211 428Q166 428 137 407Q108 386 103 335L56 342Q59 379 73.5 403.5Q88 428 110 443Q132 458 159.5 464.5Q187 471 216 471Q247 471 275 464Q303 457 324 440.5Q345 424 357.5 396.5Q370 369 370 329Z" glyph-name="a" horiz-adv-x="453" unicode="a" /><glyph d="M319 221Q307 223 296 223.5Q285 224 271 224Q183 224 137 199Q91 174 91 120Q91 80 116 56Q141 32 190 32Q214 32 237 39.5Q260 47 278.5 61Q297 75 308 96.5Q319 118 319 145ZM370 96Q370 64 379.5 51Q389 38 407 38Q420 38 428 42V0Q422 -2 414.5 -3Q407 -4 397 -4Q362 -4 343 15Q324 34 322 78Q305 33 266 12Q227 -9 180 -9Q116 -9 78 23.5Q40 56 40 115Q40 186 94.5 224Q149 262 261 262Q275 262 289 261.5Q303 261 319 259V323Q319 382 288.5 405Q258 428 211 428Q166 428 137 407Q108 386 103 335L56 342Q59 379 73.5 403.5Q88 428 110 443Q132 458 159.5 464.5Q187 471 216 471Q247 471 275 464Q303 457 324 440.5Q345 424 357.5 396.5Q370 369 370 329ZM193 533 264 669H334L235 533Z" glyph-name="aacute" horiz-adv-x="453" unicode="&#225;" /><glyph d="M319 221Q307 223 296 223.5Q285 224 271 224Q183 224 137 199Q91 174 91 120Q91 80 116 56Q141 32 190 32Q214 32 237 39.5Q260 47 278.5 61Q297 75 308 96.5Q319 118 319 145ZM370 96Q370 64 379.5 51Q389 38 407 38Q420 38 428 42V0Q422 -2 414.5 -3Q407 -4 397 -4Q362 -4 343 15Q324 34 322 78Q305 33 266 12Q227 -9 180 -9Q116 -9 78 23.5Q40 56 40 115Q40 186 94.5 224Q149 262 261 262Q275 262 289 261.5Q303 261 319 259V323Q319 382 288.5 405Q258 428 211 428Q166 428 137 407Q108 386 103 335L56 342Q59 379 73.5 403.5Q88 428 110 443Q132 458 159.5 464.5Q187 471 216 471Q247 471 275 464Q303 457 324 440.5Q345 424 357.5 396.5Q370 369 370 329ZM219 529Q162 529 130 562.5Q98 596 98 658H140Q142 615 160 592Q178 569 219 569Q260 569 277.5 592Q295 615 297 658H339Q339 596 307.5 562.5Q276 529 219 529Z" glyph-name="abreve" horiz-adv-x="453" unicode="&#259;" /><glyph d="M319 221Q307 223 296 223.5Q285 224 271 224Q183 224 137 199Q91 174 91 120Q91 80 116 56Q141 32 190 32Q214 32 237 39.5Q260 47 278.5 61Q297 75 308 96.5Q319 118 319 145ZM370 96Q370 64 379.5 51Q389 38 407 38Q420 38 428 42V0Q422 -2 414.5 -3Q407 -4 397 -4Q362 -4 343 15Q324 34 322 78Q305 33 266 12Q227 -9 180 -9Q116 -9 78 23.5Q40 56 40 115Q40 186 94.5 224Q149 262 261 262Q275 262 289 261.5Q303 261 319 259V323Q319 382 288.5 405Q258 428 211 428Q166 428 137 407Q108 386 103 335L56 342Q59 379 73.5 403.5Q88 428 110 443Q132 458 159.5 464.5Q187 471 216 471Q247 471 275 464Q303 457 324 440.5Q345 424 357.5 396.5Q370 369 370 329ZM232 669 348 533H293L249 586Q241 595 236 602.5Q231 610 227 615Q223 621 220 627H216Q213 621 209 615Q205 610 200 602.5Q195 595 188 586L143 533H88L204 669Z" glyph-name="acircumflex" horiz-adv-x="453" unicode="&#226;" /><glyph d="M87 533 158 669H228L129 533Z" glyph-name="acute" horiz-adv-x="313" unicode="&#180;" /><glyph d="M84 642 148 763H218L129 642Z" glyph-name="acute.cap" horiz-adv-x="303" unicode="&#58402;" /><glyph d="M319 221Q307 223 296 223.5Q285 224 271 224Q183 224 137 199Q91 174 91 120Q91 80 116 56Q141 32 190 32Q214 32 237 39.5Q260 47 278.5 61Q297 75 308 96.5Q319 118 319 145ZM370 96Q370 64 379.5 51Q389 38 407 38Q420 38 428 42V0Q422 -2 414.5 -3Q407 -4 397 -4Q362 -4 343 15Q324 34 322 78Q305 33 266 12Q227 -9 180 -9Q116 -9 78 23.5Q40 56 40 115Q40 186 94.5 224Q149 262 261 262Q275 262 289 261.5Q303 261 319 259V323Q319 382 288.5 405Q258 428 211 428Q166 428 137 407Q108 386 103 335L56 342Q59 379 73.5 403.5Q88 428 110 443Q132 458 159.5 464.5Q187 471 216 471Q247 471 275 464Q303 457 324 440.5Q345 424 357.5 396.5Q370 369 370 329ZM95 595Q95 611 106 622Q117 633 133 633Q150 633 160.5 622Q171 611 171 595Q171 579 160.5 568Q150 557 133 557Q117 557 106 568Q95 579 95 595ZM267 594Q267 611 278 621.5Q289 632 305 632Q321 632 332 621.5Q343 611 343 594Q343 579 332 568Q321 557 305 557Q289 557 278 568Q267 579 267 594Z" glyph-name="adieresis" horiz-adv-x="453" unicode="&#228;" /><glyph d="M512 32Q562 32 591.5 53.5Q621 75 634 123L679 113Q666 47 620.5 19Q575 -9 509 -9Q396 -9 345 82Q328 42 285 16.5Q242 -9 182 -9Q116 -9 78 23Q40 55 40 117Q40 196 107.5 232Q175 268 315 270Q318 304 327 332Q322 385 291.5 406.5Q261 428 216 428Q171 428 139.5 407Q108 386 103 335L56 342Q59 379 73.5 403.5Q88 428 110 443Q132 458 159.5 464.5Q187 471 216 471Q265 471 302 452.5Q339 434 355 389Q380 429 419.5 450Q459 471 511 471Q553 471 584.5 457Q616 443 637.5 418.5Q659 394 669.5 360.5Q680 327 680 287Q680 270 678 254.5Q676 239 674 228H362Q362 134 402 83Q442 32 512 32ZM629 270Q630 277 630 283Q630 289 630 297Q630 325 622 349Q614 373 598.5 391Q583 409 560.5 419Q538 429 508 429Q443 429 407 387Q371 345 364 270ZM187 32Q235 32 273.5 56.5Q312 81 326 130Q315 167 313 219V228Q204 227 147.5 203.5Q91 180 91 119Q91 81 115.5 56.5Q140 32 187 32Z" glyph-name="ae" horiz-adv-x="726" unicode="&#230;" /><glyph d="M512 32Q562 32 591.5 53.5Q621 75 634 123L679 113Q666 47 620.5 19Q575 -9 509 -9Q396 -9 345 82Q328 42 285 16.5Q242 -9 182 -9Q116 -9 78 23Q40 55 40 117Q40 196 107.5 232Q175 268 315 270Q318 304 327 332Q322 385 291.5 406.5Q261 428 216 428Q171 428 139.5 407Q108 386 103 335L56 342Q59 379 73.5 403.5Q88 428 110 443Q132 458 159.5 464.5Q187 471 216 471Q265 471 302 452.5Q339 434 355 389Q380 429 419.5 450Q459 471 511 471Q553 471 584.5 457Q616 443 637.5 418.5Q659 394 669.5 360.5Q680 327 680 287Q680 270 678 254.5Q676 239 674 228H362Q362 134 402 83Q442 32 512 32ZM629 270Q630 277 630 283Q630 289 630 297Q630 325 622 349Q614 373 598.5 391Q583 409 560.5 419Q538 429 508 429Q443 429 407 387Q371 345 364 270ZM187 32Q235 32 273.5 56.5Q312 81 326 130Q315 167 313 219V228Q204 227 147.5 203.5Q91 180 91 119Q91 81 115.5 56.5Q140 32 187 32ZM331 533 402 669H472L373 533Z" glyph-name="aeacute" horiz-adv-x="726" unicode="&#509;" /><glyph d="M319 221Q307 223 296 223.5Q285 224 271 224Q183 224 137 199Q91 174 91 120Q91 80 116 56Q141 32 190 32Q214 32 237 39.5Q260 47 278.5 61Q297 75 308 96.5Q319 118 319 145ZM370 96Q370 64 379.5 51Q389 38 407 38Q420 38 428 42V0Q422 -2 414.5 -3Q407 -4 397 -4Q362 -4 343 15Q324 34 322 78Q305 33 266 12Q227 -9 180 -9Q116 -9 78 23.5Q40 56 40 115Q40 186 94.5 224Q149 262 261 262Q275 262 289 261.5Q303 261 319 259V323Q319 382 288.5 405Q258 428 211 428Q166 428 137 407Q108 386 103 335L56 342Q59 379 73.5 403.5Q88 428 110 443Q132 458 159.5 464.5Q187 471 216 471Q247 471 275 464Q303 457 324 440.5Q345 424 357.5 396.5Q370 369 370 329ZM202 533 103 669H174L245 533Z" glyph-name="agrave" horiz-adv-x="453" unicode="&#224;" /><glyph d="M319 221Q307 223 296 223.5Q285 224 271 224Q183 224 137 199Q91 174 91 120Q91 80 116 56Q141 32 190 32Q214 32 237 39.5Q260 47 278.5 61Q297 75 308 96.5Q319 118 319 145ZM370 96Q370 64 379.5 51Q389 38 407 38Q420 38 428 42V0Q422 -2 414.5 -3Q407 -4 397 -4Q362 -4 343 15Q324 34 322 78Q305 33 266 12Q227 -9 180 -9Q116 -9 78 23.5Q40 56 40 115Q40 186 94.5 224Q149 262 261 262Q275 262 289 261.5Q303 261 319 259V323Q319 382 288.5 405Q258 428 211 428Q166 428 137 407Q108 386 103 335L56 342Q59 379 73.5 403.5Q88 428 110 443Q132 458 159.5 464.5Q187 471 216 471Q247 471 275 464Q303 457 324 440.5Q345 424 357.5 396.5Q370 369 370 329ZM106 564V607H328V564Z" glyph-name="amacron" horiz-adv-x="453" unicode="&#257;" /><glyph d="M478 -9 401 71Q366 32 317.5 11.5Q269 -9 212 -9Q131 -9 80 28.5Q29 66 29 143Q29 203 64.5 245Q100 287 164 316L140 342Q119 364 100 394Q81 424 81 466Q81 527 120.5 562.5Q160 598 225 598Q295 598 332 561.5Q369 525 369 469Q369 412 336.5 375.5Q304 339 239 307L398 141Q415 168 425.5 206.5Q436 245 438 288L486 277Q481 231 468 187.5Q455 144 431 109L514 24ZM79 144Q79 90 116.5 61Q154 32 212 32Q264 32 304 50.5Q344 69 373 101L193 286Q141 262 110 230Q79 198 79 144ZM225 558Q181 558 155 534Q129 510 129 468Q129 440 142 416.5Q155 393 183 364L210 335Q264 361 292 389.5Q320 418 320 466Q320 505 297.5 531.5Q275 558 225 558Z" glyph-name="ampersand" horiz-adv-x="530" unicode="&amp;" /><glyph d="M260 -114Q260 -92 268 -73Q276 -54 289 -38.5Q302 -23 319 -11Q336 1 354 9Q323 23 322 78Q306 34 266.5 12.5Q227 -9 180 -9Q116 -9 78 23.5Q40 56 40 115Q40 186 94.5 224Q149 262 261 262Q275 262 289 261.5Q303 261 319 259V323Q319 382 288.5 405Q258 428 211 428Q166 428 137 407Q108 386 103 335L56 342Q59 379 73.5 403.5Q88 428 110 443Q132 458 159.5 464.5Q187 471 216 471Q247 471 275 464Q303 457 324 440.5Q345 424 357.5 396.5Q370 369 370 329V96Q370 64 379.5 51Q389 38 407 38Q420 38 428 42V0Q407 -4 385.5 -12.5Q364 -21 346.5 -34.5Q329 -48 318.5 -66Q308 -84 308 -108Q308 -134 320.5 -149Q333 -164 358 -164Q380 -164 394.5 -153.5Q409 -143 420 -126L441 -151Q430 -171 408.5 -186Q387 -201 351 -201Q308 -201 284 -178.5Q260 -156 260 -114ZM319 221Q307 223 296 223.5Q285 224 271 224Q183 224 137 199Q91 174 91 120Q91 80 116 56Q141 32 190 32Q214 32 237 39.5Q260 47 278.5 61Q297 75 308 96.5Q319 118 319 145Z" glyph-name="aogonek" horiz-adv-x="453" unicode="&#261;" /><glyph d="M365 264Q336 264 308 272Q280 280 252.5 289Q225 298 197.5 306Q170 314 142 314Q117 314 93 302.5Q69 291 49 266V305Q66 329 91.5 339.5Q117 350 140 350Q168 350 196.5 342Q225 334 253.5 324.5Q282 315 310.5 307Q339 299 367 299Q390 299 413.5 312Q437 325 457 349V305Q422 264 365 264ZM365 144Q336 144 308 152Q280 160 252.5 170Q225 180 197.5 188Q170 196 142 196Q117 196 93 184Q69 172 49 146V187Q66 210 91.5 220.5Q117 231 140 231Q168 231 196.5 223Q225 215 253.5 205.5Q282 196 310.5 188Q339 180 367 180Q390 180 413.5 192.5Q437 205 457 230V185Q421 144 365 144Z" glyph-name="approxequal" horiz-adv-x="507" unicode="&#8776;" /><glyph d="M319 221Q307 223 296 223.5Q285 224 271 224Q183 224 137 199Q91 174 91 120Q91 80 116 56Q141 32 190 32Q214 32 237 39.5Q260 47 278.5 61Q297 75 308 96.5Q319 118 319 145ZM370 96Q370 64 379.5 51Q389 38 407 38Q420 38 428 42V0Q422 -2 414.5 -3Q407 -4 397 -4Q362 -4 343 15Q324 34 322 78Q305 33 266 12Q227 -9 180 -9Q116 -9 78 23.5Q40 56 40 115Q40 186 94.5 224Q149 262 261 262Q275 262 289 261.5Q303 261 319 259V323Q319 382 288.5 405Q258 428 211 428Q166 428 137 407Q108 386 103 335L56 342Q59 379 73.5 403.5Q88 428 110 443Q132 458 159.5 464.5Q187 471 216 471Q247 471 275 464Q303 457 324 440.5Q345 424 357.5 396.5Q370 369 370 329ZM220 527Q177 527 153.5 552Q130 577 130 613Q130 648 154 672.5Q178 697 220 697Q262 697 285.5 672.5Q309 648 309 613Q309 577 285.5 552Q262 527 220 527ZM220 670Q193 670 178 653.5Q163 637 163 612Q163 588 177.5 572Q192 556 220 556Q248 556 262.5 572Q277 588 277 612Q277 637 262 653.5Q247 670 220 670Z" glyph-name="aring" horiz-adv-x="453" unicode="&#229;" /><glyph d="M289 519Q275 545 266 565Q257 585 252 599Q246 615 242 627H239Q235 615 229 599Q224 585 214.5 565Q205 545 191 519L91 330H39L220 668H260L441 330H387Z" glyph-name="asciicircum" horiz-adv-x="480" unicode="^" /><glyph d="M288 207Q266 207 249 216.5Q232 226 214 237Q195 249 181 257.5Q167 266 150 266Q130 266 121 252.5Q112 239 118 207H84Q76 229 77 248.5Q78 268 86.5 282Q95 296 110 304.5Q125 313 145 313Q171 313 188.5 303.5Q206 294 226 281Q244 268 257 260.5Q270 253 285 253Q305 253 314 267Q323 281 318 314H353Q369 268 350.5 237.5Q332 207 288 207Z" glyph-name="asciitilde" horiz-adv-x="436" unicode="~" /><glyph d="M186 483 283 524 297 480 193 457 263 374 225 348 170 438 115 347 78 375 147 457 43 480 58 523 155 483 147 589H193Z" glyph-name="asterisk" horiz-adv-x="340" unicode="*" /><glyph d="M546 244Q546 277 535.5 300.5Q525 324 507.5 339Q490 354 468.5 361Q447 368 425 368Q396 368 371.5 358.5Q347 349 329.5 328Q312 307 302 274Q292 241 292 194Q292 112 327 71.5Q362 31 421 31Q443 31 465.5 38.5Q488 46 505.5 62.5Q523 79 534.5 103.5Q546 128 546 163ZM593 97Q593 63 609 46.5Q625 30 654 30Q685 30 707 45.5Q729 61 743 90Q757 119 763.5 159Q770 199 770 249Q770 321 745.5 378Q721 435 677.5 474Q634 513 573.5 534Q513 555 440 555Q367 555 304 531.5Q241 508 194 462.5Q147 417 120 349.5Q93 282 93 195Q93 99 124.5 31.5Q156 -36 208 -78Q260 -120 328 -139.5Q396 -159 470 -159Q518 -159 564 -152.5Q610 -146 654 -129L664 -170Q621 -184 573.5 -192Q526 -200 469 -200Q389 -200 313 -180Q237 -160 177.5 -113.5Q118 -67 82 8.5Q46 84 46 195Q46 283 73 357Q100 431 151 484Q202 537 275.5 566.5Q349 596 442 596Q537 596 607.5 568.5Q678 541 724.5 494Q771 447 793.5 384Q816 321 816 250Q816 190 807 142.5Q798 95 778 62Q758 29 727 11Q696 -7 651 -7Q606 -7 577 15Q548 37 546 83Q531 35 494.5 13Q458 -9 407 -9Q373 -9 343 3.5Q313 16 291 41Q269 66 256 104Q243 142 243 193Q243 298 290 353Q337 408 422 408Q472 408 504 384.5Q536 361 546 330L562 401H593Z" glyph-name="at" horiz-adv-x="866" unicode="@" /><glyph d="M319 221Q307 223 296 223.5Q285 224 271 224Q183 224 137 199Q91 174 91 120Q91 80 116 56Q141 32 190 32Q214 32 237 39.5Q260 47 278.5 61Q297 75 308 96.5Q319 118 319 145ZM370 96Q370 64 379.5 51Q389 38 407 38Q420 38 428 42V0Q422 -2 414.5 -3Q407 -4 397 -4Q362 -4 343 15Q324 34 322 78Q305 33 266 12Q227 -9 180 -9Q116 -9 78 23.5Q40 56 40 115Q40 186 94.5 224Q149 262 261 262Q275 262 289 261.5Q303 261 319 259V323Q319 382 288.5 405Q258 428 211 428Q166 428 137 407Q108 386 103 335L56 342Q59 379 73.5 403.5Q88 428 110 443Q132 458 159.5 464.5Q187 471 216 471Q247 471 275 464Q303 457 324 440.5Q345 424 357.5 396.5Q370 369 370 329ZM287 539Q264 539 248 548Q232 557 215 568Q196 581 183 589Q170 597 154 597Q134 597 124 583.5Q114 570 120 538H87Q79 560 80 579Q81 598 89.5 612Q98 626 113.5 634Q129 642 149 642Q174 642 191 632.5Q208 623 227 610Q245 597 257 590Q269 583 284 583Q303 583 312.5 597Q322 611 317 644H352Q367 597 349 568Q331 539 287 539Z" glyph-name="atilde" horiz-adv-x="453" unicode="&#227;" /><glyph d="M127 181Q127 142 139 113.5Q151 85 170.5 66.5Q190 48 214 39.5Q238 31 263 31Q295 31 322.5 43Q350 55 370.5 80.5Q391 106 403 144.5Q415 183 415 236Q415 333 376 380Q337 427 273 427Q244 427 217.5 417Q191 407 171 387Q151 367 139 337Q127 307 127 267ZM110 0H76V668H127V360Q142 414 184.5 442.5Q227 471 282 471Q366 471 416.5 412.5Q467 354 467 240Q467 184 453.5 138Q440 92 414.5 59.5Q389 27 352.5 9Q316 -9 270 -9Q207 -9 171 19Q135 47 122 85Z" glyph-name="b" horiz-adv-x="513" unicode="b" /><glyph d="M364 -203H316L42 669H90Z" glyph-name="backslash" horiz-adv-x="379" unicode="\" /><glyph d="M104 -203V669H150V-203Z" glyph-name="bar" horiz-adv-x="255" unicode="|" /><glyph d="M93 256Q107 256 120 259.5Q133 263 142.5 272.5Q152 282 158 298.5Q164 315 164 341V542Q164 603 189.5 639.5Q215 676 280 676Q305 676 325 672Q345 668 368 659L357 620Q343 627 326.5 632Q310 637 287 637Q250 637 230.5 614Q211 591 211 540V336Q211 282 191 261.5Q171 241 137 237V234Q171 230 191 209Q211 188 211 135V-69Q211 -120 230.5 -143Q250 -166 287 -166Q310 -166 326.5 -161Q343 -156 357 -149L368 -188Q345 -197 325 -201Q305 -205 280 -205Q248 -205 225.5 -195.5Q203 -186 189.5 -168.5Q176 -151 170 -126.5Q164 -102 164 -71V130Q164 156 158 172.5Q152 189 142.5 198.5Q133 208 120 211.5Q107 215 93 215H49V256H93Z" glyph-name="braceleft" horiz-adv-x="393" unicode="{" /><glyph d="M343 256V215H300Q286 215 273 211.5Q260 208 250 198.5Q240 189 234.5 172.5Q229 156 229 130V-71Q229 -133 203 -169Q177 -205 113 -205Q88 -205 68 -201Q48 -197 25 -188L36 -149Q50 -156 66.5 -161Q83 -166 106 -166Q143 -166 162.5 -143Q182 -120 182 -69V135Q182 188 202 209Q222 230 256 234V237Q222 241 202 261.5Q182 282 182 336V540Q182 591 162.5 614Q143 637 106 637Q83 637 66.5 632Q50 627 36 620L25 659Q48 668 68 672Q88 676 113 676Q145 676 167.5 666.5Q190 657 203.5 639.5Q217 622 223 597.5Q229 573 229 542V341Q229 315 234.5 298.5Q240 282 250 272.5Q260 263 273 259.5Q286 256 300 256Z" glyph-name="braceright" horiz-adv-x="393" unicode="}" /><glyph d="M137 -163H283V-203H89V669H283V629H137Z" glyph-name="bracketleft" horiz-adv-x="314" unicode="[" /><glyph d="M177 629H31V669H225V-203H31V-163H177Z" glyph-name="bracketright" horiz-adv-x="314" unicode="]" /><glyph d="M205 529Q148 529 116 562.5Q84 596 84 658H126Q128 615 146 592Q164 569 205 569Q246 569 263.5 592Q281 615 283 658H325Q325 596 293.5 562.5Q262 529 205 529Z" glyph-name="breve" horiz-adv-x="409" unicode="&#728;" /><glyph d="M204 638Q147 638 115.5 670Q84 702 84 761H126Q130 678 204 678Q243 678 262 698.5Q281 719 283 761H324Q324 702 292.5 670Q261 638 204 638Z" glyph-name="breve.cap" horiz-adv-x="409" unicode="&#58406;" /><glyph d="M87 251Q87 277 105 295.5Q123 314 149 314Q175 314 193 295.5Q211 277 211 251Q211 226 193 208Q175 190 149 190Q123 190 105 208Q87 226 87 251Z" glyph-name="bullet" horiz-adv-x="298" unicode="&#8226;" /><glyph d="M411 119Q399 50 352 20.5Q305 -9 238 -9Q150 -9 98 51Q46 111 46 229Q46 345 98.5 408Q151 471 244 471Q318 471 359 434Q400 397 406 324L359 317Q345 427 241 427Q169 427 132 373.5Q95 320 95 228Q95 137 134 85Q173 33 242 33Q344 33 368 128Z" glyph-name="c" horiz-adv-x="447" unicode="c" /><glyph d="M411 119Q399 50 352 20.5Q305 -9 238 -9Q150 -9 98 51Q46 111 46 229Q46 345 98.5 408Q151 471 244 471Q318 471 359 434Q400 397 406 324L359 317Q345 427 241 427Q169 427 132 373.5Q95 320 95 228Q95 137 134 85Q173 33 242 33Q344 33 368 128ZM221 533 292 669H362L263 533Z" glyph-name="cacute" horiz-adv-x="447" unicode="&#263;" /><glyph d="M200 533 84 669H139L184 614Q191 605 196 597Q201 589 205 584Q209 578 212 573H216Q219 578 223 584Q227 589 232 597Q237 605 245 614L289 669H344L228 533Z" glyph-name="caron" horiz-adv-x="428" unicode="&#711;" /><glyph d="M199 639 84 765H142L185 717Q199 700 207 689Q211 683 214 679H216Q219 683 223 689Q231 700 245 717L287 765H345L230 639Z" glyph-name="caron.cap" horiz-adv-x="429" unicode="&#58413;" /><glyph d="M118 493H81L97 668H157Z" glyph-name="caronSlovak" horiz-adv-x="236" unicode="&#58387;" /><glyph d="M411 119Q399 50 352 20.5Q305 -9 238 -9Q150 -9 98 51Q46 111 46 229Q46 345 98.5 408Q151 471 244 471Q318 471 359 434Q400 397 406 324L359 317Q345 427 241 427Q169 427 132 373.5Q95 320 95 228Q95 137 134 85Q173 33 242 33Q344 33 368 128ZM231 533 115 669H170L215 614Q222 605 227 597Q232 589 236 584Q240 578 243 573H247Q250 578 254 584Q258 589 263 597Q268 605 276 614L320 669H375L259 533Z" glyph-name="ccaron" horiz-adv-x="447" unicode="&#269;" /><glyph d="M337 -126Q337 -167 310 -186Q283 -205 244 -205Q213 -205 191.5 -193.5Q170 -182 156 -165L175 -132Q189 -151 205 -161Q221 -171 244 -171Q266 -171 279.5 -160.5Q293 -150 293 -126Q293 -77 213 -74L221 -8Q140 -3 93 56.5Q46 116 46 229Q46 345 98.5 408Q151 471 244 471Q318 471 359 434Q400 397 406 324L359 317Q345 427 241 427Q169 427 132 373.5Q95 320 95 228Q95 137 134 85Q173 33 242 33Q344 33 368 128L411 119Q400 54 356 24Q312 -6 251 -9L246 -46Q289 -50 313 -70.5Q337 -91 337 -126Z" glyph-name="ccedilla" horiz-adv-x="447" unicode="&#231;" /><glyph d="M411 119Q399 50 352 20.5Q305 -9 238 -9Q150 -9 98 51Q46 111 46 229Q46 345 98.5 408Q151 471 244 471Q318 471 359 434Q400 397 406 324L359 317Q345 427 241 427Q169 427 132 373.5Q95 320 95 228Q95 137 134 85Q173 33 242 33Q344 33 368 128ZM258 669 374 533H319L275 586Q267 595 262 602.5Q257 610 253 615Q249 621 246 627H242Q239 621 235 615Q231 610 226 602.5Q221 595 214 586L169 533H114L230 669Z" glyph-name="ccircumflex" horiz-adv-x="447" unicode="&#265;" /><glyph d="M411 119Q399 50 352 20.5Q305 -9 238 -9Q150 -9 98 51Q46 111 46 229Q46 345 98.5 408Q151 471 244 471Q318 471 359 434Q400 397 406 324L359 317Q345 427 241 427Q169 427 132 373.5Q95 320 95 228Q95 137 134 85Q173 33 242 33Q344 33 368 128ZM206 593Q206 610 217 621Q228 632 244 632Q261 632 271.5 621Q282 610 282 593Q282 577 271.5 566.5Q261 556 244 556Q228 556 217 566.5Q206 577 206 593Z" glyph-name="cdotaccent" horiz-adv-x="447" unicode="&#267;" /><glyph d="M247 31Q203 34 167 51.5Q131 69 105 99.5Q79 130 64.5 175Q50 220 50 279Q50 394 103.5 457.5Q157 521 247 529V614H283V530Q347 528 388.5 499.5Q430 471 454 415L407 390Q373 480 283 486V74Q330 76 361 97Q392 118 414 161L454 134Q400 35 283 31V-66H247ZM102 282Q102 192 139.5 138Q177 84 247 76V485Q175 477 138.5 423Q102 369 102 282Z" glyph-name="cent" horiz-adv-x="489" unicode="&#162;" /><glyph d="M228 669 344 533H289L245 586Q237 595 232 602.5Q227 610 223 615Q219 621 216 627H212Q209 621 205 615Q201 610 196 602.5Q191 595 184 586L139 533H84L200 669Z" glyph-name="circumflex" horiz-adv-x="428" unicode="&#710;" /><glyph d="M230 767 345 642H287L245 689Q237 697 232 704.5Q227 712 223 717Q219 723 216 728H214Q211 723 207 717Q203 712 198 704.5Q193 697 185 689L142 642H84L199 767Z" glyph-name="circumflex.cap" horiz-adv-x="429" unicode="&#58403;" /><glyph d="M81 39Q81 57 93 69Q105 81 123 81Q141 81 153 69Q165 57 165 39Q165 21 153 9Q141 -3 123 -3Q105 -3 93 9Q81 21 81 39ZM81 392Q81 410 93 422Q105 434 123 434Q141 434 153 422Q165 410 165 392Q165 374 153 362Q141 350 123 350Q105 350 93 362Q81 374 81 392Z" glyph-name="colon" horiz-adv-x="246" unicode=":" /><glyph d="M171 11Q171 -41 142 -67Q113 -93 60 -96V-68Q91 -65 109 -50Q127 -35 128 -5Q128 2 127 4Q120 -1 112 -1Q95 -1 85.5 9.5Q76 20 76 36Q76 55 87.5 65.5Q99 76 119 76Q139 76 155 59.5Q171 43 171 11Z" glyph-name="comma" horiz-adv-x="245" unicode="," /><glyph d="M186 -145Q186 -232 90 -232V-206Q117 -205 131.5 -195Q146 -185 147 -159Q147 -153 146 -151Q143 -153 140 -154Q137 -155 132 -155Q117 -155 108.5 -145.5Q100 -136 100 -122Q100 -105 110.5 -95.5Q121 -86 139 -86Q156 -86 171 -101Q186 -116 186 -145Z" glyph-name="commaaccent" horiz-adv-x="269" unicode="&#63171;" /><glyph d="M84 713Q84 800 180 800V774Q153 773 138.5 763Q124 753 123 727Q123 720 124 718Q131 723 138 723Q153 723 161.5 713.5Q170 704 170 690Q170 673 159.5 663.5Q149 654 131 654Q114 654 99 669Q84 684 84 713Z" glyph-name="commaaccent.cap" horiz-adv-x="264" unicode="&#58414;" /><glyph d="M503 181Q479 141 443.5 121.5Q408 102 355 102Q317 102 285 114Q253 126 229.5 150Q206 174 193 210.5Q180 247 180 295Q180 389 229.5 439Q279 489 358 489Q414 489 448.5 467Q483 445 503 400L462 377Q434 449 357 449Q294 449 260.5 409Q227 369 227 295Q227 222 260.5 182Q294 142 359 142Q399 142 424 157.5Q449 173 469 206ZM49 294Q49 360 73 416Q97 472 138 512.5Q179 553 234.5 575.5Q290 598 353 598Q416 598 471 575.5Q526 553 567.5 512.5Q609 472 633 416Q657 360 657 294Q657 228 633 172Q609 116 567.5 76Q526 36 471 13.5Q416 -9 353 -9Q290 -9 234.5 13.5Q179 36 138 76Q97 116 73 172Q49 228 49 294ZM75 294Q75 233 97 181.5Q119 130 156.5 93Q194 56 245 35.5Q296 15 353 15Q411 15 461.5 35.5Q512 56 550 93Q588 130 610 181.5Q632 233 632 294Q632 355 610 406.5Q588 458 550 495Q512 532 461.5 553Q411 574 353 574Q296 574 245 553Q194 532 156.5 495Q119 458 97 406.5Q75 355 75 294Z" glyph-name="copyright" horiz-adv-x="706" unicode="&#169;" /><glyph d="M386 282Q386 321 373.5 348.5Q361 376 341.5 394Q322 412 297 420.5Q272 429 248 429Q216 429 188 417.5Q160 406 140 381.5Q120 357 108.5 318.5Q97 280 97 225Q97 128 137 80.5Q177 33 243 33Q268 33 293.5 42Q319 51 339.5 70Q360 89 373 118.5Q386 148 386 188ZM386 668H437V0H393L386 97Q369 43 327 17Q285 -9 230 -9Q192 -9 158.5 5.5Q125 20 100 49Q75 78 60.5 121.5Q46 165 46 224Q46 345 99 408Q152 471 247 471Q274 471 297 463.5Q320 456 338 443.5Q356 431 368.5 414Q381 397 386 379Z" glyph-name="d" horiz-adv-x="513" unicode="d" /><glyph d="M46 318V373L246 365L239 589H295L287 365L488 373V318L288 327L296 -149H239L246 327Z" glyph-name="dagger" horiz-adv-x="534" unicode="&#8224;" /><glyph d="M287 107 488 115V62L287 71L296 -150H239L246 71L46 62V115L246 107V332L46 324V377L246 369L239 589H296L287 369L488 377V324L287 332Z" glyph-name="daggerdbl" horiz-adv-x="533" unicode="&#8225;" /><glyph d="M386 282Q386 321 373.5 348.5Q361 376 341.5 394Q322 412 297 420.5Q272 429 248 429Q216 429 188 417.5Q160 406 140 381.5Q120 357 108.5 318.5Q97 280 97 225Q97 128 137 80.5Q177 33 243 33Q268 33 293.5 42Q319 51 339.5 70Q360 89 373 118.5Q386 148 386 188ZM386 668H437V0H393L386 97Q369 43 327 17Q285 -9 230 -9Q192 -9 158.5 5.5Q125 20 100 49Q75 78 60.5 121.5Q46 165 46 224Q46 345 99 408Q152 471 247 471Q274 471 297 463.5Q320 456 338 443.5Q356 431 368.5 414Q381 397 386 379ZM535 493H498L514 668H574Z" glyph-name="dcaron" horiz-adv-x="513" unicode="&#271;" /><glyph d="M228 582H385V668H437V582H508V541H437V0H393L386 97Q369 43 327 17Q285 -9 230 -9Q192 -9 158.5 5.5Q125 20 100 49Q75 78 60.5 121.5Q46 165 46 224Q46 345 99 408Q152 471 247 471Q301 471 337.5 443.5Q374 416 385 379V541H228ZM386 282Q386 321 373.5 348.5Q361 376 341.5 394Q322 412 297 420.5Q272 429 248 429Q216 429 188 417.5Q160 406 140 381.5Q120 357 108.5 318.5Q97 280 97 225Q97 128 137 80.5Q177 33 243 33Q268 33 293.5 42Q319 51 339.5 70Q360 89 373 118.5Q386 148 386 188Z" glyph-name="dcroat" horiz-adv-x="513" unicode="&#273;" /><glyph d="M40 510Q40 548 65 574.5Q90 601 130 601Q170 601 195.5 574.5Q221 548 221 510Q221 472 195.5 446Q170 420 130 420Q90 420 65 446Q40 472 40 510ZM73 510Q73 484 88.5 467Q104 450 130 450Q156 450 171.5 467Q187 484 187 510Q187 536 171.5 553.5Q156 571 130 571Q104 571 88.5 553.5Q73 536 73 510Z" glyph-name="degree" horiz-adv-x="261" unicode="&#176;" /><glyph d="M84 595Q84 611 95 622Q106 633 122 633Q139 633 149.5 622Q160 611 160 595Q160 579 149.5 568Q139 557 122 557Q106 557 95 568Q84 579 84 595ZM256 594Q256 611 267 621.5Q278 632 294 632Q310 632 321 621.5Q332 611 332 594Q332 579 321 568Q310 557 294 557Q278 557 267 568Q256 579 256 594Z" glyph-name="dieresis" horiz-adv-x="417" unicode="&#168;" /><glyph d="M84 690Q84 706 95 717Q106 728 122 728Q139 728 149.5 717Q160 706 160 690Q160 674 149.5 663Q139 652 122 652Q106 652 95 663Q84 674 84 690ZM256 689Q256 706 267 716.5Q278 727 294 727Q310 727 321 716.5Q332 706 332 689Q332 673 321 662Q310 651 294 651Q278 651 267 662Q256 673 256 689Z" glyph-name="dieresis.cap" horiz-adv-x="417" unicode="&#58409;" /><glyph d="M49 231V265H457V231ZM216 74Q216 88 226 98.5Q236 109 250 109Q264 109 274.5 98.5Q285 88 285 74Q285 60 274.5 50Q264 40 250 40Q236 40 226 50Q216 60 216 74ZM216 415Q216 430 226 440.5Q236 451 250 451Q264 451 274.5 440.5Q285 430 285 415Q285 401 274.5 391Q264 381 250 381Q236 381 226 391Q216 401 216 415Z" glyph-name="divide" horiz-adv-x="507" unicode="&#247;" /><glyph d="M212 -9Q134 -6 88 33Q42 72 31 148L81 158Q90 98 124 68Q158 38 212 33V280Q180 290 151 302.5Q122 315 99.5 333.5Q77 352 64 378Q51 404 51 443Q51 483 64.5 512Q78 541 100.5 559.5Q123 578 152 587Q181 596 212 598V684H248V598Q317 593 361 557.5Q405 522 414 444L363 436Q355 492 326 521Q297 550 248 555V323Q283 311 314 297.5Q345 284 368 264.5Q391 245 404.5 217.5Q418 190 418 150Q418 75 370.5 36Q323 -3 248 -8V-106H212ZM365 144Q365 168 358 186Q351 204 337 218.5Q323 233 301 245Q279 257 248 268V33Q302 38 333.5 65.5Q365 93 365 144ZM103 447Q103 400 131 377Q159 354 212 336V555Q165 551 134 525.5Q103 500 103 447Z" glyph-name="dollar" horiz-adv-x="471" unicode="$" /><glyph d="M84 604Q84 621 95 632Q106 643 122 643Q139 643 149.5 632Q160 621 160 604Q160 588 149.5 577.5Q139 567 122 567Q106 567 95 577.5Q84 588 84 604Z" glyph-name="dotaccent" horiz-adv-x="245" unicode="&#729;" /><glyph d="M84 698Q84 715 95 725.5Q106 736 122 736Q139 736 149.5 725.5Q160 715 160 698Q160 682 149.5 671Q139 660 122 660Q106 660 95 671Q84 682 84 698Z" glyph-name="dotaccent.cap" horiz-adv-x="245" unicode="&#58408;" /><glyph d="M128 462V0H77V462Z" glyph-name="dotlessi" horiz-adv-x="205" unicode="&#305;" /><glyph d="M128 462V-40Q128 -131 84.5 -168Q41 -205 -42 -203V-160Q18 -163 47.5 -136Q77 -109 77 -45V462Z" glyph-name="dotlessj" horiz-adv-x="205" unicode="&#567;" /><glyph d="M245 32Q295 32 324.5 53.5Q354 75 367 123L412 113Q399 47 353 19Q307 -9 241 -9Q151 -9 98.5 51Q46 111 46 230Q46 345 99 408Q152 471 244 471Q286 471 317.5 457Q349 443 370.5 418.5Q392 394 402.5 360.5Q413 327 413 287Q413 270 411 254.5Q409 239 407 228H95Q95 134 134.5 83Q174 32 245 32ZM362 270Q363 277 363 283Q363 289 363 297Q363 325 355 349Q347 373 331.5 391Q316 409 293.5 419Q271 429 241 429Q176 429 140 387Q104 345 97 270Z" glyph-name="e" horiz-adv-x="458" unicode="e" /><glyph d="M245 32Q295 32 324.5 53.5Q354 75 367 123L412 113Q399 47 353 19Q307 -9 241 -9Q151 -9 98.5 51Q46 111 46 230Q46 345 99 408Q152 471 244 471Q286 471 317.5 457Q349 443 370.5 418.5Q392 394 402.5 360.5Q413 327 413 287Q413 270 411 254.5Q409 239 407 228H95Q95 134 134.5 83Q174 32 245 32ZM362 270Q363 277 363 283Q363 289 363 297Q363 325 355 349Q347 373 331.5 391Q316 409 293.5 419Q271 429 241 429Q176 429 140 387Q104 345 97 270ZM219 533 290 669H360L261 533Z" glyph-name="eacute" horiz-adv-x="458" unicode="&#233;" /><glyph d="M245 32Q295 32 324.5 53.5Q354 75 367 123L412 113Q399 47 353 19Q307 -9 241 -9Q151 -9 98.5 51Q46 111 46 230Q46 345 99 408Q152 471 244 471Q286 471 317.5 457Q349 443 370.5 418.5Q392 394 402.5 360.5Q413 327 413 287Q413 270 411 254.5Q409 239 407 228H95Q95 134 134.5 83Q174 32 245 32ZM362 270Q363 277 363 283Q363 289 363 297Q363 325 355 349Q347 373 331.5 391Q316 409 293.5 419Q271 429 241 429Q176 429 140 387Q104 345 97 270ZM243 529Q186 529 154 562.5Q122 596 122 658H164Q166 615 184 592Q202 569 243 569Q284 569 301.5 592Q319 615 321 658H363Q363 596 331.5 562.5Q300 529 243 529Z" glyph-name="ebreve" horiz-adv-x="458" unicode="&#277;" /><glyph d="M245 32Q295 32 324.5 53.5Q354 75 367 123L412 113Q399 47 353 19Q307 -9 241 -9Q151 -9 98.5 51Q46 111 46 230Q46 345 99 408Q152 471 244 471Q286 471 317.5 457Q349 443 370.5 418.5Q392 394 402.5 360.5Q413 327 413 287Q413 270 411 254.5Q409 239 407 228H95Q95 134 134.5 83Q174 32 245 32ZM362 270Q363 277 363 283Q363 289 363 297Q363 325 355 349Q347 373 331.5 391Q316 409 293.5 419Q271 429 241 429Q176 429 140 387Q104 345 97 270ZM230 533 114 669H169L214 614Q221 605 226 597Q231 589 235 584Q239 578 242 573H246Q249 578 253 584Q257 589 262 597Q267 605 275 614L319 669H374L258 533Z" glyph-name="ecaron" horiz-adv-x="458" unicode="&#283;" /><glyph d="M245 32Q295 32 324.5 53.5Q354 75 367 123L412 113Q399 47 353 19Q307 -9 241 -9Q151 -9 98.5 51Q46 111 46 230Q46 345 99 408Q152 471 244 471Q286 471 317.5 457Q349 443 370.5 418.5Q392 394 402.5 360.5Q413 327 413 287Q413 270 411 254.5Q409 239 407 228H95Q95 134 134.5 83Q174 32 245 32ZM362 270Q363 277 363 283Q363 289 363 297Q363 325 355 349Q347 373 331.5 391Q316 409 293.5 419Q271 429 241 429Q176 429 140 387Q104 345 97 270ZM258 669 374 533H319L275 586Q267 595 262 602.5Q257 610 253 615Q249 621 246 627H242Q239 621 235 615Q231 610 226 602.5Q221 595 214 586L169 533H114L230 669Z" glyph-name="ecircumflex" horiz-adv-x="458" unicode="&#234;" /><glyph d="M245 32Q295 32 324.5 53.5Q354 75 367 123L412 113Q399 47 353 19Q307 -9 241 -9Q151 -9 98.5 51Q46 111 46 230Q46 345 99 408Q152 471 244 471Q286 471 317.5 457Q349 443 370.5 418.5Q392 394 402.5 360.5Q413 327 413 287Q413 270 411 254.5Q409 239 407 228H95Q95 134 134.5 83Q174 32 245 32ZM362 270Q363 277 363 283Q363 289 363 297Q363 325 355 349Q347 373 331.5 391Q316 409 293.5 419Q271 429 241 429Q176 429 140 387Q104 345 97 270ZM120 595Q120 611 131 622Q142 633 158 633Q175 633 185.5 622Q196 611 196 595Q196 579 185.5 568Q175 557 158 557Q142 557 131 568Q120 579 120 595ZM292 594Q292 611 303 621.5Q314 632 330 632Q346 632 357 621.5Q368 611 368 594Q368 579 357 568Q346 557 330 557Q314 557 303 568Q292 579 292 594Z" glyph-name="edieresis" horiz-adv-x="458" unicode="&#235;" /><glyph d="M245 32Q295 32 324.5 53.5Q354 75 367 123L412 113Q399 47 353 19Q307 -9 241 -9Q151 -9 98.5 51Q46 111 46 230Q46 345 99 408Q152 471 244 471Q286 471 317.5 457Q349 443 370.5 418.5Q392 394 402.5 360.5Q413 327 413 287Q413 270 411 254.5Q409 239 407 228H95Q95 134 134.5 83Q174 32 245 32ZM362 270Q363 277 363 283Q363 289 363 297Q363 325 355 349Q347 373 331.5 391Q316 409 293.5 419Q271 429 241 429Q176 429 140 387Q104 345 97 270ZM206 593Q206 610 217 621Q228 632 244 632Q261 632 271.5 621Q282 610 282 593Q282 577 271.5 566.5Q261 556 244 556Q228 556 217 566.5Q206 577 206 593Z" glyph-name="edotaccent" horiz-adv-x="458" unicode="&#279;" /><glyph d="M245 32Q295 32 324.5 53.5Q354 75 367 123L412 113Q399 47 353 19Q307 -9 241 -9Q151 -9 98.5 51Q46 111 46 230Q46 345 99 408Q152 471 244 471Q286 471 317.5 457Q349 443 370.5 418.5Q392 394 402.5 360.5Q413 327 413 287Q413 270 411 254.5Q409 239 407 228H95Q95 134 134.5 83Q174 32 245 32ZM362 270Q363 277 363 283Q363 289 363 297Q363 325 355 349Q347 373 331.5 391Q316 409 293.5 419Q271 429 241 429Q176 429 140 387Q104 345 97 270ZM228 533 129 669H200L271 533Z" glyph-name="egrave" horiz-adv-x="458" unicode="&#232;" /><glyph d="M238 -9Q196 -9 160.5 2Q125 13 99.5 33Q74 53 60 82.5Q46 112 46 150Q46 207 78.5 245.5Q111 284 165 297V301Q116 315 88 350.5Q60 386 60 442Q60 477 73 506Q86 535 109.5 555.5Q133 576 165.5 587Q198 598 238 598Q278 598 311 587Q344 576 367.5 555.5Q391 535 404 506Q417 477 417 442Q417 386 389 350.5Q361 315 312 301V297Q366 284 398.5 245.5Q431 207 431 150Q431 112 417 82.5Q403 53 377.5 33Q352 13 316.5 2Q281 -9 238 -9ZM238 558Q178 558 144.5 527Q111 496 111 442Q111 381 146 351Q181 321 238 321Q295 321 330 351Q365 381 365 442Q365 496 332 527Q299 558 238 558ZM238 279Q177 279 137 247.5Q97 216 97 155Q97 96 135.5 63.5Q174 31 238 31Q303 31 341.5 63.5Q380 96 380 155Q380 216 339.5 247.5Q299 279 238 279Z" glyph-name="eight" horiz-adv-x="477" unicode="8" /><glyph d="M81 39Q81 57 93 69Q105 81 123 81Q141 81 153 69Q165 57 165 39Q165 21 153 9Q141 -3 123 -3Q105 -3 93 9Q81 21 81 39ZM341 39Q341 57 353 69Q365 81 383 81Q402 81 414 69Q426 57 426 39Q426 21 414 9Q402 -3 383 -3Q365 -3 353 9Q341 21 341 39ZM601 39Q601 57 613 69Q625 81 644 81Q662 81 674 69Q686 57 686 39Q686 21 674 9Q662 -3 644 -3Q625 -3 613 9Q601 21 601 39Z" glyph-name="ellipsis" horiz-adv-x="767" unicode="&#8230;" /><glyph d="M245 32Q295 32 324.5 53.5Q354 75 367 123L412 113Q399 47 353 19Q307 -9 241 -9Q151 -9 98.5 51Q46 111 46 230Q46 345 99 408Q152 471 244 471Q286 471 317.5 457Q349 443 370.5 418.5Q392 394 402.5 360.5Q413 327 413 287Q413 270 411 254.5Q409 239 407 228H95Q95 134 134.5 83Q174 32 245 32ZM362 270Q363 277 363 283Q363 289 363 297Q363 325 355 349Q347 373 331.5 391Q316 409 293.5 419Q271 429 241 429Q176 429 140 387Q104 345 97 270ZM133 564V607H355V564Z" glyph-name="emacron" horiz-adv-x="458" unicode="&#275;" /><glyph d="M74 279H934V240H74Z" glyph-name="emdash" horiz-adv-x="1009" unicode="&#8212;" /><glyph d="M74 279H434V240H74Z" glyph-name="endash" horiz-adv-x="509" unicode="&#8211;" /><glyph d="M77 0V462H116L123 356Q139 409 179 440Q219 471 278 471Q308 471 334 462.5Q360 454 378.5 436.5Q397 419 408 391.5Q419 364 419 325V-40Q419 -131 376 -168Q333 -205 249 -203V-160Q309 -163 338.5 -136Q368 -109 368 -46V312Q368 367 342 396.5Q316 426 266 426Q239 426 214 416.5Q189 407 170 386.5Q151 366 139.5 335Q128 304 128 262V0Z" glyph-name="eng" horiz-adv-x="492" unicode="&#331;" /><glyph d="M188 -114Q188 -79 203 -53Q218 -27 243 -8Q236 -8 229.5 -8Q223 -8 215 -7Q137 1 91.5 60.5Q46 120 46 230Q46 345 99 408Q152 471 244 471Q286 471 317.5 457Q349 443 370.5 418.5Q392 394 402.5 360.5Q413 327 413 287Q413 270 411 254.5Q409 239 407 228H95Q95 134 134.5 83Q174 32 245 32Q295 32 324.5 53.5Q354 75 367 123L412 113Q402 63 375.5 39.5Q349 16 316 2Q275 -15 255.5 -44.5Q236 -74 236 -108Q236 -134 248.5 -149Q261 -164 286 -164Q308 -164 322.5 -153.5Q337 -143 348 -126L370 -151Q358 -171 336.5 -186Q315 -201 279 -201Q237 -201 212.5 -178.5Q188 -156 188 -114ZM362 270Q363 277 363 283Q363 289 363 297Q363 325 355 349Q347 373 331.5 391Q316 409 293.5 419Q271 429 241 429Q176 429 140 387Q104 345 97 270Z" glyph-name="eogonek" horiz-adv-x="458" unicode="&#281;" /><glyph d="M49 164V198H457V164ZM49 291V326H457V291Z" glyph-name="equal" horiz-adv-x="507" unicode="=" /><glyph d="M118 538 250 570Q227 591 193.5 611Q160 631 127 645L164 672Q202 656 236.5 633.5Q271 611 300 584L403 609L412 578L327 557Q382 494 412 413Q442 332 442 246Q442 115 388.5 53Q335 -9 243 -9Q152 -9 99 51.5Q46 112 46 229Q46 346 98 405.5Q150 465 235 465Q280 465 312.5 447Q345 429 365 400H368Q354 439 331 476Q308 513 276 545L127 508ZM390 229Q390 325 352 374.5Q314 424 242 424Q170 424 133 374.5Q96 325 96 229Q96 134 133.5 83Q171 32 243 32Q316 32 353 83Q390 134 390 229Z" glyph-name="eth" horiz-adv-x="488" unicode="&#240;" /><glyph d="M145 589 130 166H95L79 589ZM73 36Q73 53 84 64.5Q95 76 112 76Q129 76 140.5 64.5Q152 53 152 36Q152 19 140.5 8Q129 -3 112 -3Q95 -3 84 8Q73 19 73 36Z" glyph-name="exclam" horiz-adv-x="225" unicode="!" /><glyph d="M79 -124 95 299H130L145 -124ZM73 429Q73 446 84 457.5Q95 469 112 469Q129 469 140.5 457.5Q152 446 152 429Q152 412 140.5 401Q129 390 112 390Q95 390 84 401Q73 412 73 429Z" glyph-name="exclamdown" horiz-adv-x="225" unicode="&#161;" /><glyph d="M22 420V462H89V527Q89 567 99.5 595Q110 623 128.5 641Q147 659 171.5 667Q196 675 224 675Q275 675 311 653L297 609Q280 620 263 626.5Q246 633 225 633Q184 633 162 608Q140 583 140 526V462H258V420H140V0H89V420Z" glyph-name="f" horiz-adv-x="257" unicode="f" /><glyph d="M333 0V607Q314 618 291 625.5Q268 633 241 633Q198 633 169 606.5Q140 580 140 516V462H248V420H140V0H89V420H22V462H89V518Q89 561 102 591Q115 621 136.5 640Q158 659 185 667Q212 675 240 675Q272 675 297 668Q322 661 341 650L372 668H384V360Q398 414 441 442.5Q484 471 539 471Q623 471 673.5 412.5Q724 354 724 240Q724 184 710.5 138Q697 92 671.5 59.5Q646 27 609.5 9Q573 -9 527 -9Q464 -9 428 19Q392 47 379 85L366 0ZM384 181Q384 142 396 113.5Q408 85 427.5 66.5Q447 48 471 39.5Q495 31 520 31Q552 31 579.5 43Q607 55 627.5 80.5Q648 106 660 144.5Q672 183 672 236Q672 333 633 380Q594 427 530 427Q501 427 474.5 417Q448 407 428 387Q408 367 396 337Q384 307 384 267Z" glyph-name="f_b" horiz-adv-x="769" unicode="&#58241;" /><glyph d="M628 181Q628 142 640 113.5Q652 85 671.5 66.5Q691 48 715 39.5Q739 31 764 31Q796 31 823.5 43Q851 55 871.5 80.5Q892 106 904 144.5Q916 183 916 236Q916 333 877 380Q838 427 774 427Q745 427 718.5 417Q692 407 672 387Q652 367 640 337Q628 307 628 267ZM628 668V360Q643 414 685.5 442.5Q728 471 783 471Q867 471 917.5 412.5Q968 354 968 240Q968 184 954.5 138Q941 92 915.5 59.5Q890 27 853.5 9Q817 -9 771 -9Q708 -9 672 19Q636 47 623 85L611 0H577V607Q558 618 535 625.5Q512 633 485 633Q442 633 413 606.5Q384 580 384 516V462H492V420H384V0H333V420H140V0H89V420H22V462H89V520Q89 559 99 587Q109 615 127 632.5Q145 650 169 658Q193 666 220 666Q247 666 266 660.5Q285 655 302 644L288 600Q271 612 254.5 617Q238 622 218 622Q181 622 160.5 597Q140 572 140 521V462H333V518Q333 561 346 591Q359 621 380.5 640Q402 659 429 667Q456 675 484 675Q516 675 541.5 668Q567 661 585 650L616 668Z" glyph-name="f_f_b" horiz-adv-x="1014" unicode="&#58242;" /><glyph d="M628 668V357Q642 408 680 439.5Q718 471 777 471Q838 471 878.5 436.5Q919 402 919 325V0H868V312Q868 367 841.5 396.5Q815 426 766 426Q738 426 713 416.5Q688 407 669 386.5Q650 366 639 335Q628 304 628 262V0H577V607Q558 618 535 625.5Q512 633 485 633Q442 633 413 606.5Q384 580 384 516V462H492V420H384V0H333V420H140V0H89V420H22V462H89V520Q89 559 99 587Q109 615 127 632.5Q145 650 169 658Q193 666 220 666Q247 666 266 660.5Q285 655 302 644L288 600Q271 612 254.5 617Q238 622 218 622Q181 622 160.5 597Q140 572 140 521V462H333V518Q333 561 346 591Q359 621 380.5 640Q402 659 429 667Q456 675 484 675Q516 675 541.5 668Q567 661 585 650L616 668Z" glyph-name="f_f_h" horiz-adv-x="991" unicode="&#58243;" /><glyph d="M384 0H333V420H140V0H89V420H22V462H89V520Q89 559 99 587Q109 615 127 632.5Q145 650 169 658Q193 666 220 666Q247 666 266 660.5Q285 655 302 644L288 600Q271 612 254.5 617Q238 622 218 622Q181 622 160.5 597Q140 572 140 521V462H333V514Q333 559 345.5 589.5Q358 620 379 639Q400 658 426.5 666.5Q453 675 481 675Q513 675 541.5 668Q570 661 593 644L573 602Q556 614 533.5 623Q511 632 481 632Q437 632 410.5 604.5Q384 577 384 511V462H628V-40Q628 -131 584.5 -168Q541 -205 458 -203V-160Q518 -163 547.5 -136Q577 -109 577 -45V420H384Z" glyph-name="f_f_j" horiz-adv-x="705" unicode="&#58244;" /><glyph d="M628 668V263H664L841 462H904L708 246L923 0H858L668 221H628V0H577V607Q558 618 535 625.5Q512 633 485 633Q442 633 413 606.5Q384 580 384 516V462H492V420H384V0H333V420H140V0H89V420H22V462H89V520Q89 559 99 587Q109 615 127 632.5Q145 650 169 658Q193 666 220 666Q247 666 266 660.5Q285 655 302 644L288 600Q271 612 254.5 617Q238 622 218 622Q181 622 160.5 597Q140 572 140 521V462H333V518Q333 561 346 591Q359 621 380.5 640Q402 659 429 667Q456 675 484 675Q516 675 541.5 668Q567 661 585 650L616 668Z" glyph-name="f_f_k" horiz-adv-x="930" unicode="&#58245;" /><glyph d="M384 668V357Q398 408 436 439.5Q474 471 533 471Q594 471 634.5 436.5Q675 402 675 325V0H624V312Q624 367 597.5 396.5Q571 426 522 426Q494 426 469 416.5Q444 407 425 386.5Q406 366 395 335Q384 304 384 262V0H333V607Q314 618 291 625.5Q268 633 241 633Q198 633 169 606.5Q140 580 140 516V462H248V420H140V0H89V420H22V462H89V518Q89 561 102 591Q115 621 136.5 640Q158 659 185 667Q212 675 240 675Q272 675 297 668Q322 661 341 650L372 668Z" glyph-name="f_h" horiz-adv-x="747" unicode="&#58246;" /><glyph d="M333 420H140V0H89V420H22V462H89V514Q89 559 101.5 589.5Q114 620 135 639Q156 658 182.5 666.5Q209 675 237 675Q301 675 348 642L329 600Q312 613 289.5 622Q267 631 237 631Q193 631 166.5 604Q140 577 140 511V462H384V-40Q384 -131 340.5 -168Q297 -205 214 -203V-160Q274 -163 303.5 -136Q333 -109 333 -45Z" glyph-name="f_j" horiz-adv-x="461" unicode="&#58247;" /><glyph d="M384 668V263H420L597 462H660L464 246L679 0H614L424 221H384V0H333V607Q314 618 291 625.5Q268 633 241 633Q198 633 169 606.5Q140 580 140 516V462H248V420H140V0H89V420H22V462H89V518Q89 561 102 591Q115 621 136.5 640Q158 659 185 667Q212 675 240 675Q272 675 297 668Q322 661 341 650L372 668Z" glyph-name="f_k" horiz-adv-x="686" unicode="&#58248;" /><glyph d="M140 420V0H89V420H22V462H89V520Q89 559 99 587Q109 615 127 632.5Q145 650 169 658Q193 666 220 666Q247 666 266 660.5Q285 655 302 644L288 600Q271 612 254.5 617Q238 622 218 622Q181 622 160.5 597Q140 572 140 521V462H333V527Q333 567 343.5 595Q354 623 372.5 641Q391 659 415.5 667Q440 675 468 675Q519 675 555 653L542 609Q525 620 507.5 625.5Q490 631 469 631Q428 631 406 606Q384 581 384 524V462H502V420H384V0H333V420Z" glyph-name="ff" horiz-adv-x="501" unicode="&#58249;" /><glyph d="M333 514Q333 559 345.5 589.5Q358 620 379 639Q400 658 426.5 666.5Q453 675 481 675Q513 675 541.5 668Q570 661 593 644L573 602Q556 614 533.5 623Q511 632 481 632Q437 632 410.5 604.5Q384 577 384 511V462H628V0H577V420H384V0H333V420H140V0H89V420H22V462H89V520Q89 559 99 587Q109 615 127 632.5Q145 650 169 658Q193 666 220 666Q247 666 266 660.5Q285 655 302 644L288 600Q271 612 254.5 617Q238 622 218 622Q181 622 160.5 597Q140 572 140 521V462H333Z" glyph-name="ffi" horiz-adv-x="705" unicode="&#58250;" /><glyph d="M628 668V89Q628 61 640 50Q652 39 671 39Q681 39 687.5 40.5Q694 42 702 44V0Q689 -3 680 -4Q671 -5 661 -5Q623 -5 600 16.5Q577 38 577 82V607Q558 618 535 625.5Q512 633 485 633Q442 633 413 606.5Q384 580 384 516V462H492V420H384V0H333V420H140V0H89V420H22V462H89V520Q89 559 99 587Q109 615 127 632.5Q145 650 169 658Q193 666 220 666Q247 666 266 660.5Q285 655 302 644L288 600Q271 612 254.5 617Q238 622 218 622Q181 622 160.5 597Q140 572 140 521V462H333V518Q333 561 346 591Q359 621 380.5 640Q402 659 429 667Q456 675 484 675Q516 675 541.5 668Q567 661 585 650L616 668Z" glyph-name="ffl" horiz-adv-x="730" unicode="&#58251;" /><glyph d="M22 420V462H89V514Q89 559 101.5 589.5Q114 620 135 639Q156 658 182.5 666.5Q209 675 237 675Q301 675 348 642L329 600Q312 613 289.5 622Q267 631 237 631Q193 631 166.5 604Q140 577 140 511V462H384V0H333V420H140V0H89V420Z" glyph-name="fi" horiz-adv-x="461" unicode="&#58252;" /><glyph d="M88 589H376V543H133L124 323Q140 340 165.5 353Q191 366 230 366Q266 366 297.5 354Q329 342 351.5 319Q374 296 387 261.5Q400 227 400 181Q400 134 385.5 98.5Q371 63 344.5 39Q318 15 282 3Q246 -9 203 -9Q118 -9 73.5 30Q29 69 22 132L68 142Q76 85 112 58Q148 31 205 31Q236 31 262 40Q288 49 307.5 67Q327 85 338 113Q349 141 349 179Q349 249 313 287.5Q277 326 217 326Q182 326 158.5 313Q135 300 117 283H76Z" glyph-name="five" horiz-adv-x="440" unicode="5" /><glyph d="M384 668V89Q384 61 396 50Q408 39 427 39Q437 39 443.5 40.5Q450 42 457 44V0Q445 -3 436 -4Q427 -5 417 -5Q379 -5 356 16.5Q333 38 333 82V607Q314 618 291 625.5Q268 633 241 633Q198 633 169 606.5Q140 580 140 516V462H248V420H140V0H89V420H22V462H89V518Q89 561 102 591Q115 621 136.5 640Q158 659 185 667Q212 675 240 675Q272 675 297 668Q322 661 341 650L372 668Z" glyph-name="fl" horiz-adv-x="486" unicode="&#58253;" /><glyph d="M113 307H36L44 353H121L140 459Q154 535 189.5 566.5Q225 598 277 598Q313 598 340 584Q367 570 380 550L350 512Q333 535 315.5 544.5Q298 554 272 554Q240 554 220.5 532Q201 510 192 459L172 353H295L286 307H164L110 0H59Z" glyph-name="florin" horiz-adv-x="365" unicode="&#402;" /><glyph d="M315 161H16V198L315 589H365V203H464V161H365V0H315ZM315 435Q315 458 315.5 475.5Q316 493 317 505Q318 519 319 530H316Q310 520 302 507Q294 496 283.5 479.5Q273 463 257 442L128 272Q114 254 104 240.5Q94 227 86 219Q77 209 71 203V200Q79 200 90 201Q99 202 112.5 202.5Q126 203 145 203H315Z" glyph-name="four" horiz-adv-x="488" unicode="4" /><glyph d="M198 -108H15V-75L196 150H241V-74H301V-108H241V-203H198ZM199 50Q199 64 199 74.5Q199 85 200 93Q201 102 202 110H199Q195 104 191 95Q186 87 180 77Q174 67 164 55L95 -31Q86 -42 78 -50.5Q70 -59 65 -64Q59 -70 54 -74V-77Q59 -77 66 -76Q72 -76 81 -75.5Q90 -75 103 -75H199Z" glyph-name="four.inf" horiz-adv-x="323" unicode="&#58741;" /><glyph d="M233 590H274L-50 0H-91Z" glyph-name="fraction" horiz-adv-x="183" unicode="&#8260;" /><glyph d="M222 471Q308 471 356 420Q392 440 397 502L443 487Q439 448 420.5 426Q402 404 376 394Q396 359 396 310Q396 272 382.5 242.5Q369 213 346 193Q323 173 291.5 162.5Q260 152 223 152Q184 152 156 162Q117 144 117 108Q117 60 184 60H289Q323 60 351 53Q379 46 399 31Q419 16 430 -7Q441 -30 441 -63Q441 -107 420 -135.5Q399 -164 366 -180.5Q333 -197 291.5 -204Q250 -211 209 -211Q171 -211 136 -205Q101 -199 73 -184Q45 -169 28.5 -144.5Q12 -120 12 -83Q12 -31 46.5 -0.5Q81 30 135 33Q105 35 88.5 53.5Q72 72 72 100Q72 126 86.5 144.5Q101 163 130 172Q92 191 70.5 226Q49 261 49 310Q49 385 96.5 428Q144 471 222 471ZM61 -79Q61 -105 73 -122.5Q85 -140 105.5 -151Q126 -162 153.5 -167Q181 -172 213 -172Q248 -172 280.5 -167Q313 -162 337.5 -150Q362 -138 377 -118Q392 -98 392 -68Q392 -30 367 -8Q342 14 288 14H190Q133 14 97 -7.5Q61 -29 61 -79ZM99 311Q99 256 132 223.5Q165 191 222 191Q278 191 311.5 222Q345 253 345 311Q345 369 311.5 400Q278 431 222 431Q165 430 132 399Q99 368 99 311Z" glyph-name="g" horiz-adv-x="460" unicode="g" /><glyph d="M222 471Q308 471 356 420Q392 440 397 502L443 487Q439 448 420.5 426Q402 404 376 394Q396 359 396 310Q396 272 382.5 242.5Q369 213 346 193Q323 173 291.5 162.5Q260 152 223 152Q184 152 156 162Q117 144 117 108Q117 60 184 60H289Q323 60 351 53Q379 46 399 31Q419 16 430 -7Q441 -30 441 -63Q441 -107 420 -135.5Q399 -164 366 -180.5Q333 -197 291.5 -204Q250 -211 209 -211Q171 -211 136 -205Q101 -199 73 -184Q45 -169 28.5 -144.5Q12 -120 12 -83Q12 -31 46.5 -0.5Q81 30 135 33Q105 35 88.5 53.5Q72 72 72 100Q72 126 86.5 144.5Q101 163 130 172Q92 191 70.5 226Q49 261 49 310Q49 385 96.5 428Q144 471 222 471ZM61 -79Q61 -105 73 -122.5Q85 -140 105.5 -151Q126 -162 153.5 -167Q181 -172 213 -172Q248 -172 280.5 -167Q313 -162 337.5 -150Q362 -138 377 -118Q392 -98 392 -68Q392 -30 367 -8Q342 14 288 14H190Q133 14 97 -7.5Q61 -29 61 -79ZM99 311Q99 256 132 223.5Q165 191 222 191Q278 191 311.5 222Q345 253 345 311Q345 369 311.5 400Q278 431 222 431Q165 430 132 399Q99 368 99 311ZM228 529Q171 529 139 562.5Q107 596 107 658H149Q151 615 169 592Q187 569 228 569Q269 569 286.5 592Q304 615 306 658H348Q348 596 316.5 562.5Q285 529 228 529Z" glyph-name="gbreve" horiz-adv-x="460" unicode="&#287;" /><glyph d="M222 471Q308 471 356 420Q392 440 397 502L443 487Q439 448 420.5 426Q402 404 376 394Q396 359 396 310Q396 272 382.5 242.5Q369 213 346 193Q323 173 291.5 162.5Q260 152 223 152Q184 152 156 162Q117 144 117 108Q117 60 184 60H289Q323 60 351 53Q379 46 399 31Q419 16 430 -7Q441 -30 441 -63Q441 -107 420 -135.5Q399 -164 366 -180.5Q333 -197 291.5 -204Q250 -211 209 -211Q171 -211 136 -205Q101 -199 73 -184Q45 -169 28.5 -144.5Q12 -120 12 -83Q12 -31 46.5 -0.5Q81 30 135 33Q105 35 88.5 53.5Q72 72 72 100Q72 126 86.5 144.5Q101 163 130 172Q92 191 70.5 226Q49 261 49 310Q49 385 96.5 428Q144 471 222 471ZM61 -79Q61 -105 73 -122.5Q85 -140 105.5 -151Q126 -162 153.5 -167Q181 -172 213 -172Q248 -172 280.5 -167Q313 -162 337.5 -150Q362 -138 377 -118Q392 -98 392 -68Q392 -30 367 -8Q342 14 288 14H190Q133 14 97 -7.5Q61 -29 61 -79ZM99 311Q99 256 132 223.5Q165 191 222 191Q278 191 311.5 222Q345 253 345 311Q345 369 311.5 400Q278 431 222 431Q165 430 132 399Q99 368 99 311ZM244 669 360 533H305L261 586Q253 595 248 602.5Q243 610 239 615Q235 621 232 627H228Q225 621 221 615Q217 610 212 602.5Q207 595 200 586L155 533H100L216 669Z" glyph-name="gcircumflex" horiz-adv-x="460" unicode="&#285;" /><glyph d="M222 471Q308 471 356 420Q392 440 397 502L443 487Q439 448 420.5 426Q402 404 376 394Q396 359 396 310Q396 272 382.5 242.5Q369 213 346 193Q323 173 291.5 162.5Q260 152 223 152Q184 152 156 162Q117 144 117 108Q117 60 184 60H289Q323 60 351 53Q379 46 399 31Q419 16 430 -7Q441 -30 441 -63Q441 -107 420 -135.5Q399 -164 366 -180.5Q333 -197 291.5 -204Q250 -211 209 -211Q171 -211 136 -205Q101 -199 73 -184Q45 -169 28.5 -144.5Q12 -120 12 -83Q12 -31 46.5 -0.5Q81 30 135 33Q105 35 88.5 53.5Q72 72 72 100Q72 126 86.5 144.5Q101 163 130 172Q92 191 70.5 226Q49 261 49 310Q49 385 96.5 428Q144 471 222 471ZM61 -79Q61 -105 73 -122.5Q85 -140 105.5 -151Q126 -162 153.5 -167Q181 -172 213 -172Q248 -172 280.5 -167Q313 -162 337.5 -150Q362 -138 377 -118Q392 -98 392 -68Q392 -30 367 -8Q342 14 288 14H190Q133 14 97 -7.5Q61 -29 61 -79ZM99 311Q99 256 132 223.5Q165 191 222 191Q278 191 311.5 222Q345 253 345 311Q345 369 311.5 400Q278 431 222 431Q165 430 132 399Q99 368 99 311ZM173 603Q173 690 269 690V664Q242 663 227.5 653Q213 643 212 617Q212 610 213 608Q220 613 227 613Q242 613 250.5 603.5Q259 594 259 580Q259 563 248.5 553.5Q238 544 220 544Q203 544 188 559Q173 574 173 603Z" glyph-name="gcommaaccent" horiz-adv-x="460" unicode="&#291;" /><glyph d="M222 471Q308 471 356 420Q392 440 397 502L443 487Q439 448 420.5 426Q402 404 376 394Q396 359 396 310Q396 272 382.5 242.5Q369 213 346 193Q323 173 291.5 162.5Q260 152 223 152Q184 152 156 162Q117 144 117 108Q117 60 184 60H289Q323 60 351 53Q379 46 399 31Q419 16 430 -7Q441 -30 441 -63Q441 -107 420 -135.5Q399 -164 366 -180.5Q333 -197 291.5 -204Q250 -211 209 -211Q171 -211 136 -205Q101 -199 73 -184Q45 -169 28.5 -144.5Q12 -120 12 -83Q12 -31 46.5 -0.5Q81 30 135 33Q105 35 88.5 53.5Q72 72 72 100Q72 126 86.5 144.5Q101 163 130 172Q92 191 70.5 226Q49 261 49 310Q49 385 96.5 428Q144 471 222 471ZM61 -79Q61 -105 73 -122.5Q85 -140 105.5 -151Q126 -162 153.5 -167Q181 -172 213 -172Q248 -172 280.5 -167Q313 -162 337.5 -150Q362 -138 377 -118Q392 -98 392 -68Q392 -30 367 -8Q342 14 288 14H190Q133 14 97 -7.5Q61 -29 61 -79ZM99 311Q99 256 132 223.5Q165 191 222 191Q278 191 311.5 222Q345 253 345 311Q345 369 311.5 400Q278 431 222 431Q165 430 132 399Q99 368 99 311ZM187 594Q187 611 198 622Q209 633 225 633Q242 633 252.5 622Q263 611 263 594Q263 578 252.5 567.5Q242 557 225 557Q209 557 198 567.5Q187 578 187 594Z" glyph-name="gdotaccent" horiz-adv-x="460" unicode="&#289;" /><glyph d="M77 460Q77 569 127 622Q177 675 265 675Q350 675 392 632.5Q434 590 434 524Q434 489 423.5 463.5Q413 438 395.5 420.5Q378 403 355 392.5Q332 382 306 379V376Q341 374 372 360Q403 346 425.5 322Q448 298 461 264.5Q474 231 474 189Q474 95 435 43Q396 -9 312 -9Q264 -9 229.5 10.5Q195 30 177 69L211 99Q240 31 312 31Q367 31 394.5 70Q422 109 422 190Q422 265 376.5 309.5Q331 354 248 354H205V396H240Q303 396 342.5 425.5Q382 455 382 517Q382 571 353 602.5Q324 634 264 634Q203 634 165.5 593Q128 552 128 455V0H77Z" glyph-name="germandbls" horiz-adv-x="518" unicode="&#223;" /><glyph d="M183 533 84 669H155L226 533Z" glyph-name="grave" horiz-adv-x="313" unicode="`" /><glyph d="M173 642 84 763H154L218 642Z" glyph-name="grave.cap" horiz-adv-x="303" unicode="&#58401;" /><glyph d="M59 432 80 459 332 247 80 34 58 60 280 247Z" glyph-name="greater" horiz-adv-x="388" unicode="&gt;" /><glyph d="M73 460 97 488 353 289 97 89 73 117 294 289ZM49 21V55H355V21Z" glyph-name="greaterequal" horiz-adv-x="405" unicode="&#8805;" /><glyph d="M236 231Q240 228 247 222Q258 212 286 180L393 53L363 27L188 233L363 439L394 409L286 284Q271 267 261.5 257.5Q252 248 246 243Q239 237 236 235ZM92 231Q96 228 103 222Q109 217 118 207Q127 197 141 180L249 53L218 27L43 233L218 439L249 409L141 284Q127 267 117 257.5Q107 248 102 243Q95 237 92 235Z" glyph-name="guillemotleft" horiz-adv-x="437" unicode="&#171;" /><glyph d="M201 235Q197 237 191 243Q185 248 175.5 257.5Q166 267 152 284L44 409L75 439L250 233L75 27L44 53L152 180Q166 197 175 207Q184 217 190 222Q197 228 201 231ZM346 235Q342 237 335 243Q329 248 319.5 257.5Q310 267 296 284L188 409L219 439L394 233L219 27L189 53L296 180Q324 212 335 222Q342 228 346 231Z" glyph-name="guillemotright" horiz-adv-x="437" unicode="&#187;" /><glyph d="M92 231Q96 228 103 222Q109 217 118 207Q127 197 141 180L249 53L218 27L43 233L218 439L249 409L141 284Q127 267 117 257.5Q107 248 102 243Q95 237 92 235Z" glyph-name="guilsinglleft" horiz-adv-x="293" unicode="&#8249;" /><glyph d="M201 235Q197 237 191 243Q185 248 175.5 257.5Q166 267 152 284L44 409L75 439L250 233L75 27L44 53L152 180Q166 197 175 207Q184 217 190 222Q197 228 201 231Z" glyph-name="guilsinglright" horiz-adv-x="293" unicode="&#8250;" /><glyph d="M128 357Q142 408 180 439.5Q218 471 277 471Q338 471 378.5 436.5Q419 402 419 325V0H368V312Q368 367 341.5 396.5Q315 426 266 426Q238 426 213 416.5Q188 407 169 386.5Q150 366 139 335Q128 304 128 262V0H77V668H128Z" glyph-name="h" horiz-adv-x="490" unicode="h" /><glyph d="M127 582H284V541H127V357Q141 408 179 439.5Q217 471 276 471Q337 471 377.5 436.5Q418 402 418 325V0H367V312Q367 367 340.5 396.5Q314 426 265 426Q237 426 212 416.5Q187 407 168 386.5Q149 366 138 335Q127 304 127 262V0H76V541H4V582H76V668H127Z" glyph-name="hbar" horiz-adv-x="490" unicode="&#295;" /><glyph d="M127 357Q141 408 179 439.5Q217 471 276 471Q337 471 377.5 436.5Q418 402 418 325V0H367V312Q367 367 340.5 396.5Q314 426 265 426Q237 426 212 416.5Q187 407 168 386.5Q149 366 138 335Q127 304 127 262V0H76V668H127ZM118 823 233 698H175L133 745Q125 753 120 760.5Q115 768 111 773Q107 779 104 784H102Q99 779 95 773Q91 768 86 760.5Q81 753 73 745L30 698H-28L87 823Z" glyph-name="hcircumflex" horiz-adv-x="490" unicode="&#293;" /><glyph d="M84 533 150 669H217L123 533ZM207 533 278 669H345L246 533Z" glyph-name="hungarumlaut" horiz-adv-x="430" unicode="&#733;" /><glyph d="M84 642 150 763H217L123 642ZM207 642 278 763H345L246 642Z" glyph-name="hungarumlaut.cap" horiz-adv-x="430" unicode="&#58411;" /><glyph d="M74 288H298V244H74Z" glyph-name="hyphen" horiz-adv-x="373" unicode="-" /><glyph d="M65 604Q65 621 75.5 632Q86 643 102 643Q119 643 130 632Q141 621 141 604Q141 588 130 577.5Q119 567 102 567Q86 567 75.5 577.5Q65 588 65 604ZM128 462V0H77V462Z" glyph-name="i" horiz-adv-x="205" unicode="i" /><glyph d="M128 462V0H77V462ZM78 533 149 669H219L120 533Z" glyph-name="iacute" horiz-adv-x="205" unicode="&#237;" /><glyph d="M128 462V0H77V462ZM103 529Q46 529 14 562.5Q-18 596 -18 658H24Q26 615 44 592Q62 569 103 569Q144 569 161.5 592Q179 615 181 658H223Q223 596 191.5 562.5Q160 529 103 529Z" glyph-name="ibreve" horiz-adv-x="205" unicode="&#301;" /><glyph d="M128 462V0H77V462ZM117 669 233 533H178L134 586Q126 595 121 602.5Q116 610 112 615Q108 621 105 627H101Q98 621 94 615Q90 610 85 602.5Q80 595 73 586L28 533H-27L89 669Z" glyph-name="icircumflex" horiz-adv-x="205" unicode="&#238;" /><glyph d="M128 462V0H77V462ZM-21 595Q-21 611 -10 622Q1 633 17 633Q34 633 44.5 622Q55 611 55 595Q55 579 44.5 568Q34 557 17 557Q1 557 -10 568Q-21 579 -21 595ZM151 594Q151 611 162 621.5Q173 632 189 632Q205 632 216 621.5Q227 611 227 594Q227 579 216 568Q205 557 189 557Q173 557 162 568Q151 579 151 594Z" glyph-name="idieresis" horiz-adv-x="205" unicode="&#239;" /><glyph d="M128 462V0H77V462ZM65 604Q65 621 76 632Q87 643 103 643Q120 643 130.5 632Q141 621 141 604Q141 588 130.5 577.5Q120 567 103 567Q87 567 76 577.5Q65 588 65 604Z" glyph-name="idotaccent" horiz-adv-x="205" /><glyph d="M128 462V0H77V462ZM85 533 -14 669H57L128 533Z" glyph-name="igrave" horiz-adv-x="205" unicode="&#236;" /><glyph d="M1 564V607H204V564ZM128 462V0H77V462Z" glyph-name="imacron" horiz-adv-x="205" unicode="&#299;" /><glyph d="M-23 -114Q-23 -66 7.5 -34Q38 -2 77 16V462H128V0Q109 -5 90.5 -14.5Q72 -24 57.5 -37.5Q43 -51 34 -68.5Q25 -86 25 -108Q25 -134 38 -149Q51 -164 75 -164Q97 -164 111.5 -153.5Q126 -143 137 -126L159 -151Q147 -171 126 -186Q105 -201 68 -201Q26 -201 1.5 -178.5Q-23 -156 -23 -114ZM65 604Q65 621 75.5 632Q86 643 102 643Q119 643 130 632Q141 621 141 604Q141 588 130 577.5Q119 567 102 567Q86 567 75.5 577.5Q65 588 65 604Z" glyph-name="iogonek" horiz-adv-x="205" unicode="&#303;" /><glyph d="M128 462V0H77V462ZM171 539Q148 539 132 548Q116 557 99 568Q80 581 67 589Q54 597 38 597Q18 597 8 583.5Q-2 570 4 538H-29Q-37 560 -36 579Q-35 598 -26.5 612Q-18 626 -2.5 634Q13 642 33 642Q58 642 75 632.5Q92 623 111 610Q129 597 141 590Q153 583 168 583Q187 583 196.5 597Q206 611 201 644H236Q251 597 233 568Q215 539 171 539Z" glyph-name="itilde" horiz-adv-x="205" unicode="&#297;" /><glyph d="M128 462V-40Q128 -131 84.5 -168Q41 -205 -42 -203V-160Q18 -163 47.5 -136Q77 -109 77 -45V462ZM65 604Q65 621 76 632Q87 643 103 643Q119 643 130 632Q141 621 141 604Q141 588 130 577.5Q119 567 103 567Q87 567 76 577.5Q65 588 65 604Z" glyph-name="j" horiz-adv-x="205" unicode="j" /><glyph d="M128 462V-40Q128 -131 84.5 -168Q41 -205 -42 -203V-160Q18 -163 47.5 -136Q77 -109 77 -45V462ZM117 669 233 533H178L134 586Q126 595 121 602.5Q116 610 112 615Q108 621 105 627H101Q98 621 94 615Q90 610 85 602.5Q80 595 73 586L28 533H-27L89 669Z" glyph-name="jcircumflex" horiz-adv-x="205" unicode="&#309;" /><glyph d="M423 0H358L168 221H128V0H77V668H128V263H164L341 462H404L208 246Z" glyph-name="k" horiz-adv-x="429" unicode="k" /><glyph d="M422 0H357L167 221H127V0H76V668H127V263H163L340 462H403L207 246ZM274 -145Q274 -232 178 -232V-206Q205 -205 219.5 -195Q234 -185 235 -159Q235 -153 234 -151Q231 -153 228 -154Q225 -155 220 -155Q205 -155 196.5 -145.5Q188 -136 188 -122Q188 -105 198.5 -95.5Q209 -86 227 -86Q244 -86 259 -101Q274 -116 274 -145Z" glyph-name="kcommaaccent" horiz-adv-x="429" unicode="&#311;" /><glyph d="M422 0H357L167 221H127V0H76V462H126V263H163L340 462H403L207 246Z" glyph-name="kgreenlandic" horiz-adv-x="429" unicode="&#312;" /><glyph d="M195 0Q182 -3 173 -4Q164 -5 155 -5Q116 -5 93 16.5Q70 38 70 82V668H121V89Q121 61 133 50Q145 39 164 39Q174 39 180.5 40.5Q187 42 195 44Z" glyph-name="l" horiz-adv-x="225" unicode="l" /><glyph d="M195 0Q182 -3 173 -4Q164 -5 155 -5Q116 -5 93 16.5Q70 38 70 82V668H121V89Q121 61 133 50Q145 39 164 39Q174 39 180.5 40.5Q187 42 195 44ZM72 712 136 833H206L117 712Z" glyph-name="lacute" horiz-adv-x="225" unicode="&#314;" /><glyph d="M195 0Q182 -3 173 -4Q164 -5 155 -5Q116 -5 93 16.5Q70 38 70 82V668H121V89Q121 61 133 50Q145 39 164 39Q174 39 180.5 40.5Q187 42 195 44ZM219 493H182L198 668H258Z" glyph-name="lcaron" horiz-adv-x="225" unicode="&#318;" /><glyph d="M195 0Q182 -3 173 -4Q164 -5 155 -5Q116 -5 93 16.5Q70 38 70 82V668H121V89Q121 61 133 50Q145 39 164 39Q174 39 180.5 40.5Q187 42 195 44ZM182 -145Q182 -232 86 -232V-206Q113 -205 127.5 -195Q142 -185 143 -159Q143 -153 142 -151Q139 -153 136 -154Q133 -155 128 -155Q113 -155 104.5 -145.5Q96 -136 96 -122Q96 -105 106.5 -95.5Q117 -86 135 -86Q152 -86 167 -101Q182 -116 182 -145Z" glyph-name="lcommaaccent" horiz-adv-x="225" unicode="&#316;" /><glyph d="M185 323Q185 341 197.5 353Q210 365 228 365Q246 365 258 353Q270 341 270 323Q270 304 258 292Q246 280 228 280Q210 280 197.5 292Q185 304 185 323ZM195 0Q182 -3 173 -4Q164 -5 155 -5Q116 -5 93 16.5Q70 38 70 82V668H121V89Q121 61 133 50Q145 39 164 39Q174 39 180.5 40.5Q187 42 195 44Z" glyph-name="ldot" horiz-adv-x="261" unicode="&#320;" /><glyph d="M102 247 324 60 302 34 49 247 302 459 324 432Z" glyph-name="less" horiz-adv-x="388" unicode="&lt;" /><glyph d="M111 289 332 117 308 89 52 289 308 488 332 460ZM49 21V55H355V21Z" glyph-name="lessequal" horiz-adv-x="405" unicode="&#8804;" /><glyph d="M20 345 76 375V668H127V402L202 442V392L127 353V89Q127 61 139 50Q151 39 171 39Q180 39 186.5 40.5Q193 42 201 44V0Q188 -3 179 -4Q170 -5 161 -5Q122 -5 99 16.5Q76 38 76 82V327L20 298Z" glyph-name="lslash" horiz-adv-x="229" unicode="&#322;" /><glyph d="M400 356Q415 412 455 441.5Q495 471 549 471Q610 471 648 437Q686 403 686 328V0H635V312Q635 367 610.5 396.5Q586 426 538 426Q512 426 488 415.5Q464 405 446 384.5Q428 364 417.5 333Q407 302 407 262V0H356V312Q356 367 332 396.5Q308 426 260 426Q233 426 209 415.5Q185 405 167 384.5Q149 364 138.5 333Q128 302 128 262V0H77V462H116L123 357Q138 412 177.5 441.5Q217 471 271 471Q326 471 359.5 444Q393 417 400 356Z" glyph-name="m" horiz-adv-x="758" unicode="m" /><glyph d="M93 564V607H315V564Z" glyph-name="macron" horiz-adv-x="409" unicode="&#175;" /><glyph d="M93 667V708H315V667Z" glyph-name="macron.cap" horiz-adv-x="409" unicode="&#58405;" /><glyph d="M49 265H457V231H49Z" glyph-name="minus" horiz-adv-x="507" unicode="&#8722;" /><glyph d="M198 249 58 388 82 413 223 273 367 416 391 392 247 249 393 104 369 79 223 224 80 82 56 107Z" glyph-name="multiply" horiz-adv-x="449" unicode="&#215;" /><glyph d="M123 356Q139 409 179 440Q219 471 278 471Q308 471 334 462.5Q360 454 378.5 436.5Q397 419 408 391.5Q419 364 419 325V0H368V312Q368 367 342 396.5Q316 426 266 426Q239 426 214 416.5Q189 407 170 386.5Q151 366 139.5 335Q128 304 128 262V0H77V462H116Z" glyph-name="n" horiz-adv-x="492" unicode="n" /><glyph d="M123 356Q139 409 179 440Q219 471 278 471Q308 471 334 462.5Q360 454 378.5 436.5Q397 419 408 391.5Q419 364 419 325V0H368V312Q368 367 342 396.5Q316 426 266 426Q239 426 214 416.5Q189 407 170 386.5Q151 366 139.5 335Q128 304 128 262V0H77V462H116ZM226 533 297 669H367L268 533Z" glyph-name="nacute" horiz-adv-x="492" unicode="&#324;" /><glyph d="M123 356Q139 409 179 440Q219 471 278 471Q308 471 334 462.5Q360 454 378.5 436.5Q397 419 408 391.5Q419 364 419 325V0H368V312Q368 367 342 396.5Q316 426 266 426Q239 426 214 416.5Q189 407 170 386.5Q151 366 139.5 335Q128 304 128 262V0H77V462H116ZM236 533 120 669H175L220 614Q227 605 232 597Q237 589 241 584Q245 578 248 573H252Q255 578 259 584Q263 589 268 597Q273 605 281 614L325 669H380L264 533Z" glyph-name="ncaron" horiz-adv-x="492" unicode="&#328;" /><glyph d="M123 356Q139 409 179 440Q219 471 278 471Q308 471 334 462.5Q360 454 378.5 436.5Q397 419 408 391.5Q419 364 419 325V0H368V312Q368 367 342 396.5Q316 426 266 426Q239 426 214 416.5Q189 407 170 386.5Q151 366 139.5 335Q128 304 128 262V0H77V462H116ZM299 -145Q299 -232 203 -232V-206Q230 -205 244.5 -195Q259 -185 260 -159Q260 -153 259 -151Q256 -153 253 -154Q250 -155 245 -155Q230 -155 221.5 -145.5Q213 -136 213 -122Q213 -105 223.5 -95.5Q234 -86 252 -86Q269 -86 284 -101Q299 -116 299 -145Z" glyph-name="ncommaaccent" horiz-adv-x="492" unicode="&#326;" /><glyph d="M91 124Q107 79 138.5 55.5Q170 32 221 32Q265 32 298.5 52.5Q332 73 354.5 110Q377 147 388 199Q399 251 399 314V358H396Q387 286 341.5 249Q296 212 232 212Q188 212 153 226.5Q118 241 93.5 266.5Q69 292 56 326.5Q43 361 43 402Q43 441 55 476.5Q67 512 91 539Q115 566 151.5 582Q188 598 237 598Q290 598 331 577.5Q372 557 399 514Q422 479 435 429.5Q448 380 448 314Q448 152 386 71.5Q324 -9 220 -9Q151 -9 108.5 20Q66 49 46 105ZM380 406Q380 439 369.5 466.5Q359 494 340 514Q321 534 294.5 545Q268 556 237 556Q171 556 131.5 514.5Q92 473 92 406Q92 338 131.5 296Q171 254 237 254Q268 254 294.5 265Q321 276 340 296Q359 316 369.5 344Q380 372 380 406Z" glyph-name="nine" horiz-adv-x="497" unicode="9" /><glyph glyph-name="nonmarkingreturn" horiz-adv-x="207" unicode="" /><glyph d="M320 291 242 198H457V164H213L114 45L88 68L168 164H49V198H197L275 291H49V326H303L397 438L424 415L349 326H457V291Z" glyph-name="notequal" horiz-adv-x="507" unicode="&#8800;" /><glyph d="M123 356Q139 409 179 440Q219 471 278 471Q308 471 334 462.5Q360 454 378.5 436.5Q397 419 408 391.5Q419 364 419 325V0H368V312Q368 367 342 396.5Q316 426 266 426Q239 426 214 416.5Q189 407 170 386.5Q151 366 139.5 335Q128 304 128 262V0H77V462H116ZM319 539Q296 539 280 548Q264 557 247 568Q228 581 215 589Q202 597 186 597Q166 597 156 583.5Q146 570 152 538H119Q111 560 112 579Q113 598 121.5 612Q130 626 145.5 634Q161 642 181 642Q206 642 223 632.5Q240 623 259 610Q277 597 289 590Q301 583 316 583Q335 583 344.5 597Q354 611 349 644H384Q399 597 381 568Q363 539 319 539Z" glyph-name="ntilde" horiz-adv-x="492" unicode="&#241;" /><glyph d="M359 213 297 0H254L316 213H190L128 0H85L147 213H25V254H159L190 357H45V398H201L257 588H300L245 398H370L426 588H469L414 398H530V357H401L371 254H510V213ZM202 254H328L359 357H232Z" glyph-name="numbersign" horiz-adv-x="555" unicode="#" /><glyph d="M243 -9Q152 -9 99 53Q46 115 46 233Q46 351 99 411Q152 471 243 471Q336 471 388.5 411Q441 351 441 233Q441 115 388.5 53Q336 -9 243 -9ZM243 428Q171 428 133.5 379.5Q96 331 96 233Q96 133 133.5 82.5Q171 32 243 32Q315 32 353 82.5Q391 133 391 233Q391 331 353 379.5Q315 428 243 428Z" glyph-name="o" horiz-adv-x="487" unicode="o" /><glyph d="M243 -9Q152 -9 99 53Q46 115 46 233Q46 351 99 411Q152 471 243 471Q336 471 388.5 411Q441 351 441 233Q441 115 388.5 53Q336 -9 243 -9ZM243 428Q171 428 133.5 379.5Q96 331 96 233Q96 133 133.5 82.5Q171 32 243 32Q315 32 353 82.5Q391 133 391 233Q391 331 353 379.5Q315 428 243 428ZM218 533 289 669H359L260 533Z" glyph-name="oacute" horiz-adv-x="487" unicode="&#243;" /><glyph d="M243 -9Q152 -9 99 53Q46 115 46 233Q46 351 99 411Q152 471 243 471Q336 471 388.5 411Q441 351 441 233Q441 115 388.5 53Q336 -9 243 -9ZM243 428Q171 428 133.5 379.5Q96 331 96 233Q96 133 133.5 82.5Q171 32 243 32Q315 32 353 82.5Q391 133 391 233Q391 331 353 379.5Q315 428 243 428ZM244 529Q187 529 155 562.5Q123 596 123 658H165Q167 615 185 592Q203 569 244 569Q285 569 302.5 592Q320 615 322 658H364Q364 596 332.5 562.5Q301 529 244 529Z" glyph-name="obreve" horiz-adv-x="487" unicode="&#335;" /><glyph d="M243 -9Q152 -9 99 53Q46 115 46 233Q46 351 99 411Q152 471 243 471Q336 471 388.5 411Q441 351 441 233Q441 115 388.5 53Q336 -9 243 -9ZM243 428Q171 428 133.5 379.5Q96 331 96 233Q96 133 133.5 82.5Q171 32 243 32Q315 32 353 82.5Q391 133 391 233Q391 331 353 379.5Q315 428 243 428ZM257 669 373 533H318L274 586Q266 595 261 602.5Q256 610 252 615Q248 621 245 627H241Q238 621 234 615Q230 610 225 602.5Q220 595 213 586L168 533H113L229 669Z" glyph-name="ocircumflex" horiz-adv-x="487" unicode="&#244;" /><glyph d="M243 -9Q152 -9 99 53Q46 115 46 233Q46 351 99 411Q152 471 243 471Q336 471 388.5 411Q441 351 441 233Q441 115 388.5 53Q336 -9 243 -9ZM243 428Q171 428 133.5 379.5Q96 331 96 233Q96 133 133.5 82.5Q171 32 243 32Q315 32 353 82.5Q391 133 391 233Q391 331 353 379.5Q315 428 243 428ZM119 595Q119 611 130 622Q141 633 157 633Q174 633 184.5 622Q195 611 195 595Q195 579 184.5 568Q174 557 157 557Q141 557 130 568Q119 579 119 595ZM291 594Q291 611 302 621.5Q313 632 329 632Q345 632 356 621.5Q367 611 367 594Q367 579 356 568Q345 557 329 557Q313 557 302 568Q291 579 291 594Z" glyph-name="odieresis" horiz-adv-x="487" unicode="&#246;" /><glyph d="M590 32Q641 32 670.5 53.5Q700 75 713 123L758 113Q745 47 699 19Q653 -9 587 -9Q526 -9 480.5 19.5Q435 48 415 111Q397 50 352 20.5Q307 -9 243 -9Q152 -9 99 53Q46 115 46 233Q46 351 99 411Q152 471 243 471Q306 471 352.5 441.5Q399 412 416 351Q436 410 481.5 440.5Q527 471 589 471Q631 471 663 457Q695 443 716.5 418.5Q738 394 748.5 360.5Q759 327 759 287Q759 270 757 254.5Q755 239 752 228H441Q440 134 480 83Q520 32 590 32ZM243 428Q171 428 133.5 379.5Q96 331 96 233Q96 133 133.5 82.5Q171 32 243 32Q315 32 353 82.5Q391 133 391 233Q391 331 353 379.5Q315 428 243 428ZM708 270Q709 277 709 283Q709 289 709 297Q709 325 701 349Q693 373 677.5 391Q662 409 639.5 419Q617 429 587 429Q522 429 485.5 387Q449 345 442 270Z" glyph-name="oe" horiz-adv-x="804" unicode="&#339;" /><glyph d="M243 -9Q152 -9 99 53Q46 115 46 233Q46 351 99 411Q152 471 243 471Q336 471 388.5 411Q441 351 441 233Q441 115 388.5 53Q336 -9 243 -9ZM243 428Q171 428 133.5 379.5Q96 331 96 233Q96 133 133.5 82.5Q171 32 243 32Q315 32 353 82.5Q391 133 391 233Q391 331 353 379.5Q315 428 243 428ZM227 533 128 669H199L270 533Z" glyph-name="ograve" horiz-adv-x="487" unicode="&#242;" /><glyph d="M243 -9Q152 -9 99 53Q46 115 46 233Q46 351 99 411Q152 471 243 471Q336 471 388.5 411Q441 351 441 233Q441 115 388.5 53Q336 -9 243 -9ZM243 428Q171 428 133.5 379.5Q96 331 96 233Q96 133 133.5 82.5Q171 32 243 32Q315 32 353 82.5Q391 133 391 233Q391 331 353 379.5Q315 428 243 428ZM157 533 223 669H290L196 533ZM280 533 351 669H418L319 533Z" glyph-name="ohungarumlaut" horiz-adv-x="487" unicode="&#337;" /><glyph d="M243 -9Q152 -9 99 53Q46 115 46 233Q46 351 99 411Q152 471 243 471Q336 471 388.5 411Q441 351 441 233Q441 115 388.5 53Q336 -9 243 -9ZM243 428Q171 428 133.5 379.5Q96 331 96 233Q96 133 133.5 82.5Q171 32 243 32Q315 32 353 82.5Q391 133 391 233Q391 331 353 379.5Q315 428 243 428ZM133 564V607H355V564Z" glyph-name="omacron" horiz-adv-x="487" unicode="&#333;" /><glyph d="M149 0V532L13 502V550L200 592V0Z" glyph-name="one" horiz-adv-x="304" unicode="1" /><glyph d="M29 -203V-168H136V106L26 89V126L181 152V-168H276V-203Z" glyph-name="one.inf" horiz-adv-x="287" unicode="&#58738;" /><glyph d="M41 236V271H148V545L38 528V565L193 591V271H288V236ZM551 590H592L268 0H227ZM751 0H505V34Q541 59 574.5 84Q608 109 633.5 135Q659 161 674.5 189Q690 217 690 247Q690 283 670.5 302Q651 321 618 321Q580 321 562.5 297Q545 273 545 244L507 259Q507 278 514.5 296Q522 314 537 328Q552 342 573.5 351Q595 360 624 360Q669 360 702 333Q735 306 735 250Q735 212 716 179Q697 146 670 119Q643 92 613 71.5Q583 51 561 39V36H751Z" glyph-name="onehalf" horiz-adv-x="800" unicode="&#189;" /><glyph d="M41 236V271H148V545L38 528V565L193 591V271H288V236ZM551 590H592L268 0H227ZM649 95H466V128L647 353H692V129H752V95H692V0H649ZM650 253Q650 267 650 277.5Q650 288 651 296Q652 305 653 313H650Q646 307 642 298Q637 290 631 280Q625 270 615 258L546 172Q537 161 529 152.5Q521 144 516 139Q510 133 505 129V126Q510 126 517 127Q523 127 532 127.5Q541 128 554 128H650Z" glyph-name="onequarter" horiz-adv-x="781" unicode="&#188;" /><glyph d="M29 236V271H136V545L26 528V565L181 591V271H276V236Z" glyph-name="onesuperior" horiz-adv-x="287" unicode="&#185;" /><glyph d="M218 432Q212 433 206 433.5Q200 434 193 434Q137 434 109 419Q81 404 81 369Q81 344 96 329.5Q111 315 141 315Q170 315 194 332.5Q218 350 218 384ZM263 355Q263 336 269 328.5Q275 321 286 321Q292 321 296.5 323Q301 325 305 327V292Q300 288 291.5 286.5Q283 285 274 285Q251 285 236.5 296.5Q222 308 219 337Q209 308 183.5 295Q158 282 128 282Q86 282 60.5 303.5Q35 325 35 364Q35 411 71.5 437Q108 463 185 463Q193 463 201 462.5Q209 462 218 461V496Q218 534 200.5 549Q183 564 153 564Q127 564 108.5 551Q90 538 88 509L46 514Q48 538 58 555Q68 572 83.5 582Q99 592 117.5 596.5Q136 601 156 601Q177 601 196.5 596Q216 591 231 580Q246 569 254.5 551Q263 533 263 506Z" glyph-name="ordfeminine" horiz-adv-x="339" unicode="&#170;" /><glyph d="M178 282Q115 282 79 323Q43 364 43 442Q43 521 79 561Q115 601 178 601Q241 601 277.5 561Q314 521 314 442Q314 364 277.5 323Q241 282 178 282ZM178 566Q89 566 89 443Q89 316 178 316Q267 316 267 443Q267 566 178 566Z" glyph-name="ordmasculine" horiz-adv-x="357" unicode="&#186;" /><glyph d="M34 16 84 74Q46 133 46 233Q46 351 99 411Q152 471 243 471Q330 471 381 417L426 470L458 444L406 384Q441 326 441 233Q441 115 388.5 53Q336 -9 243 -9Q161 -9 110 40L66 -10ZM243 428Q171 428 133.5 379.5Q96 331 96 233Q96 160 119 112L350 383Q311 428 243 428ZM391 233Q391 267 385.5 295Q380 323 370 344L140 75Q178 32 243 32Q315 32 353 82.5Q391 133 391 233Z" glyph-name="oslash" horiz-adv-x="487" unicode="&#248;" /><glyph d="M34 16 84 74Q46 133 46 233Q46 351 99 411Q152 471 243 471Q330 471 381 417L426 470L458 444L406 384Q441 326 441 233Q441 115 388.5 53Q336 -9 243 -9Q161 -9 110 40L66 -10ZM243 428Q171 428 133.5 379.5Q96 331 96 233Q96 160 119 112L350 383Q311 428 243 428ZM391 233Q391 267 385.5 295Q380 323 370 344L140 75Q178 32 243 32Q315 32 353 82.5Q391 133 391 233ZM223 533 294 669H364L265 533Z" glyph-name="oslashacute" horiz-adv-x="487" unicode="&#511;" /><glyph d="M243 -9Q152 -9 99 53Q46 115 46 233Q46 351 99 411Q152 471 243 471Q336 471 388.5 411Q441 351 441 233Q441 115 388.5 53Q336 -9 243 -9ZM243 428Q171 428 133.5 379.5Q96 331 96 233Q96 133 133.5 82.5Q171 32 243 32Q315 32 353 82.5Q391 133 391 233Q391 331 353 379.5Q315 428 243 428ZM311 539Q288 539 272 548Q256 557 239 568Q220 581 207 589Q194 597 178 597Q158 597 148 583.5Q138 570 144 538H111Q103 560 104 579Q105 598 113.5 612Q122 626 137.5 634Q153 642 173 642Q198 642 215 632.5Q232 623 251 610Q269 597 281 590Q293 583 308 583Q327 583 336.5 597Q346 611 341 644H376Q391 597 373 568Q355 539 311 539Z" glyph-name="otilde" horiz-adv-x="487" unicode="&#245;" /><glyph d="M128 181Q128 142 140 113.5Q152 85 171.5 66.5Q191 48 215.5 39.5Q240 31 265 31Q297 31 324.5 43Q352 55 372.5 80.5Q393 106 404.5 144.5Q416 183 416 236Q416 333 377 380Q338 427 274 427Q245 427 218.5 417Q192 407 172 387Q152 367 140 337Q128 307 128 267ZM128 -203H77V462H116L123 360Q132 388 148.5 409Q165 430 186.5 443.5Q208 457 233 464Q258 471 284 471Q368 471 418 413Q468 355 468 240Q468 184 454.5 138Q441 92 415.5 59.5Q390 27 353.5 9Q317 -9 271 -9Q211 -9 176 18Q141 45 128 82Z" glyph-name="p" horiz-adv-x="514" unicode="p" /><glyph d="M342 -39Q342 -103 311.5 -133Q281 -163 227 -163Q175 -163 130 -134L149 -87Q168 -104 187 -111Q206 -118 226 -118Q255 -118 272 -101.5Q289 -85 289 -46V231H249Q144 231 89 275Q34 319 34 406Q34 498 95.5 543.5Q157 589 272 589H421V547H342Z" glyph-name="paragraph" horiz-adv-x="464" unicode="&#182;" /><glyph d="M130 233Q130 164 142 106Q154 48 176.5 -3.5Q199 -55 232 -103.5Q265 -152 306 -202H247Q211 -160 180.5 -113.5Q150 -67 127.5 -13.5Q105 40 92 101Q79 162 79 233Q79 304 92 365Q105 426 127.5 479.5Q150 533 180.5 579.5Q211 626 247 668H306Q265 618 232 570Q199 522 176.5 470Q154 418 142 360Q130 302 130 233Z" glyph-name="parenleft" horiz-adv-x="322" unicode="(" /><glyph d="M193 233Q193 302 181 360Q169 418 146.5 470Q124 522 91 570Q58 618 17 668H75Q111 626 141.5 579.5Q172 533 194.5 479.5Q217 426 230 365Q243 304 243 233Q243 162 230 101Q217 40 194.5 -13.5Q172 -67 141.5 -113.5Q111 -160 75 -202H17Q58 -152 91 -103.5Q124 -55 146.5 -3.5Q169 48 181 106Q193 164 193 233Z" glyph-name="parenright" horiz-adv-x="322" unicode=")" /><glyph d="M172 230Q139 230 113.5 243.5Q88 257 71 281.5Q54 306 45.5 339.5Q37 373 37 413Q37 453 46 486.5Q55 520 72.5 544.5Q90 569 115 582.5Q140 596 172 596Q203 596 228 582.5Q253 569 270.5 544.5Q288 520 297 486.5Q306 453 306 413Q306 373 297.5 339.5Q289 306 272 281.5Q255 257 230 243.5Q205 230 172 230ZM172 557Q127 557 104 516.5Q81 476 81 412Q81 381 87 354Q93 327 104.5 307.5Q116 288 133 277Q150 266 172 266Q193 266 210 277Q227 288 238.5 307.5Q250 327 256 354Q262 381 262 412Q262 476 239 516.5Q216 557 172 557ZM551 590H592L269 0H227ZM647 -6Q614 -6 589 7.5Q564 21 546.5 45.5Q529 70 520.5 103.5Q512 137 512 177Q512 217 521 250.5Q530 284 547.5 308.5Q565 333 590 346.5Q615 360 647 360Q679 360 704 346.5Q729 333 746.5 308.5Q764 284 773 250.5Q782 217 782 177Q782 137 773 103.5Q764 70 747 45.5Q730 21 705 7.5Q680 -6 647 -6ZM647 321Q603 321 579.5 280.5Q556 240 556 176Q556 145 562 118.5Q568 92 579.5 72.5Q591 53 608 42Q625 31 647 31Q669 31 686 42Q703 53 714.5 72.5Q726 92 732 118.5Q738 145 738 176Q738 240 714.5 280.5Q691 321 647 321Z" glyph-name="percent" horiz-adv-x="818" unicode="%" /><glyph d="M81 39Q81 57 93 69Q105 81 123 81Q141 81 153 69Q165 57 165 39Q165 21 153 9Q141 -3 123 -3Q105 -3 93 9Q81 21 81 39Z" glyph-name="period" horiz-adv-x="246" unicode="." /><glyph d="M84 266Q84 284 96.5 296Q109 308 127 308Q145 308 157 296Q169 284 169 266Q169 247 157 235Q145 223 127 223Q109 223 96.5 235Q84 247 84 266Z" glyph-name="periodcentered" horiz-adv-x="254" unicode="&#8901;" /><glyph d="M84 297Q84 316 96.5 328Q109 340 127 340Q145 340 157 328Q169 316 169 297Q169 279 157 267Q145 255 127 255Q109 255 96.5 267Q84 279 84 297Z" glyph-name="periodcentered.cap" horiz-adv-x="254" unicode="&#58497;" /><glyph d="M234 265V445H269V265H457V231H269V37H234V231H49V265Z" glyph-name="plus" horiz-adv-x="507" unicode="+" /><glyph d="M234 327V471H269V327H457V292H269V135H234V292H49V327ZM49 55V90H457V55Z" glyph-name="plusminus" horiz-adv-x="507" unicode="&#177;" /><glyph d="M386 282Q386 321 373.5 348.5Q361 376 341.5 394Q322 412 297 420.5Q272 429 248 429Q216 429 188 417.5Q160 406 140 381.5Q120 357 108.5 318.5Q97 280 97 225Q97 128 137 80.5Q177 33 243 33Q268 33 293.5 42Q319 51 339.5 70.5Q360 90 373 119Q386 148 386 189ZM402 462H437V-203H386V97Q369 43 327 17Q285 -9 230 -9Q192 -9 158.5 5.5Q125 20 100 49Q75 78 60.5 121.5Q46 165 46 224Q46 345 99 408Q152 471 247 471Q300 471 337.5 443.5Q375 416 386 380Z" glyph-name="q" horiz-adv-x="514" unicode="q" /><glyph d="M8 465Q20 522 62.5 560Q105 598 181 598Q263 598 311 551.5Q359 505 359 429Q359 384 343.5 351Q328 318 303 296Q278 274 246 263Q214 252 180 251V157H132V285H160Q191 285 217.5 293Q244 301 264 318.5Q284 336 295.5 362.5Q307 389 307 426Q307 491 271 523Q235 555 178 555Q127 555 94.5 528.5Q62 502 52 449ZM117 36Q117 53 128.5 64.5Q140 76 157 76Q174 76 185 64.5Q196 53 196 36Q196 19 185 8Q174 -3 157 -3Q140 -3 128.5 8Q117 19 117 36Z" glyph-name="question" horiz-adv-x="387" unicode="?" /><glyph d="M375 -1Q363 -58 320.5 -96Q278 -134 202 -134Q119 -134 71.5 -87Q24 -40 24 36Q24 81 39 114Q54 147 79 169Q104 191 136 202Q168 213 202 213V308H250V180H223Q192 180 165 172Q138 164 118.5 146.5Q99 129 87.5 102.5Q76 76 76 39Q76 -26 111.5 -58Q147 -90 205 -90Q256 -90 288.5 -63.5Q321 -37 330 15ZM266 428Q266 411 254.5 400Q243 389 226 389Q209 389 197.5 400Q186 411 186 428Q186 445 197.5 456.5Q209 468 226 468Q243 468 254.5 456.5Q266 445 266 428Z" glyph-name="questiondown" horiz-adv-x="387" unicode="&#191;" /><glyph d="M64 668H123L98 412H64ZM177 668H236L210 412H177Z" glyph-name="quotedbl" horiz-adv-x="289" unicode="&quot;" /><glyph d="M155 18Q155 -34 126 -60.5Q97 -87 44 -89V-61Q75 -58 93.5 -43Q112 -28 113 2Q113 8 111 10Q108 8 105 7Q102 6 97 6Q80 6 70 16.5Q60 27 60 43Q60 61 71.5 71.5Q83 82 103 82Q123 82 139 66Q155 50 155 18ZM300 18Q300 -34 270.5 -60.5Q241 -87 189 -89V-61Q220 -58 238 -43Q256 -28 257 2Q257 8 255 10Q252 8 249 7Q246 6 241 6Q224 6 214.5 16.5Q205 27 205 43Q205 61 216.5 71.5Q228 82 248 82Q268 82 284 66Q300 50 300 18Z" glyph-name="quotedblbase" horiz-adv-x="357" unicode="&#8222;" /><glyph d="M64 566Q64 618 93 644.5Q122 671 175 673V645Q144 642 126 627Q108 612 107 582Q107 580 107.5 577.5Q108 575 108 574Q112 576 115 577Q118 578 123 578Q140 578 149.5 567.5Q159 557 159 541Q159 523 147.5 512.5Q136 502 116 502Q96 502 80 518Q64 534 64 566ZM208 566Q208 618 237 644.5Q266 671 319 673V645Q288 642 270 627Q252 612 251 582Q251 576 253 574Q256 576 259 577Q262 578 267 578Q284 578 293.5 567.5Q303 557 303 541Q303 523 291.5 512.5Q280 502 260 502Q240 502 224 518Q208 534 208 566Z" glyph-name="quotedblleft" horiz-adv-x="357" unicode="&#8220;" /><glyph d="M155 609Q155 557 126 530.5Q97 504 44 502V530Q75 533 93.5 547.5Q112 562 113 593Q113 597 111 601Q108 599 105 598Q102 597 97 597Q80 597 70 607.5Q60 618 60 634Q60 652 71.5 662.5Q83 673 103 673Q123 673 139 656.5Q155 640 155 609ZM300 609Q300 557 270.5 530.5Q241 504 189 502V530Q220 533 238 547.5Q256 562 257 593Q257 597 255 601Q252 599 249 598Q246 597 241 597Q224 597 214.5 607.5Q205 618 205 634Q205 652 216.5 662.5Q228 673 248 673Q268 673 284 656.5Q300 640 300 609Z" glyph-name="quotedblright" horiz-adv-x="357" unicode="&#8221;" /><glyph d="M64 566Q64 618 93 644.5Q122 671 175 673V645Q144 642 126 627Q108 612 107 582Q107 580 107.5 577.5Q108 575 108 574Q112 576 115 577Q118 578 123 578Q140 578 149.5 567.5Q159 557 159 541Q159 523 147.5 512.5Q136 502 116 502Q96 502 80 518Q64 534 64 566Z" glyph-name="quoteleft" horiz-adv-x="213" unicode="&#8216;" /><glyph d="M155 609Q155 557 126 530.5Q97 504 44 502V530Q75 533 93.5 547.5Q112 562 113 593Q113 597 111 601Q108 599 105 598Q102 597 97 597Q80 597 70 607.5Q60 618 60 634Q60 652 71.5 662.5Q83 673 103 673Q123 673 139 656.5Q155 640 155 609Z" glyph-name="quoteright" horiz-adv-x="213" unicode="&#8217;" /><glyph d="M155 18Q155 -34 126 -60.5Q97 -87 44 -89V-61Q75 -58 93.5 -43Q112 -28 113 2Q113 8 111 10Q108 8 105 7Q102 6 97 6Q80 6 70 16.5Q60 27 60 43Q60 61 71.5 71.5Q83 82 103 82Q123 82 139 66Q155 50 155 18Z" glyph-name="quotesinglbase" horiz-adv-x="213" unicode="&#8218;" /><glyph d="M64 668H123L98 412H64Z" glyph-name="quotesingle" horiz-adv-x="177" unicode="'" /><glyph d="M304 409Q289 416 261 416Q232 416 207.5 402.5Q183 389 165.5 365.5Q148 342 138 309.5Q128 277 128 240V0H77V462H119L126 331Q137 394 175.5 432Q214 470 278 470Q296 470 309 465Z" glyph-name="r" horiz-adv-x="329" unicode="r" /><glyph d="M304 409Q289 416 261 416Q232 416 207.5 402.5Q183 389 165.5 365.5Q148 342 138 309.5Q128 277 128 240V0H77V462H119L126 331Q137 394 175.5 432Q214 470 278 470Q296 470 309 465ZM159 533 230 669H300L201 533Z" glyph-name="racute" horiz-adv-x="329" unicode="&#341;" /><glyph d="M304 409Q289 416 261 416Q232 416 207.5 402.5Q183 389 165.5 365.5Q148 342 138 309.5Q128 277 128 240V0H77V462H119L126 331Q137 394 175.5 432Q214 470 278 470Q296 470 309 465ZM168 533 52 669H107L152 614Q159 605 164 597Q169 589 173 584Q177 578 180 573H184Q187 578 191 584Q195 589 200 597Q205 605 213 614L257 669H312L196 533Z" glyph-name="rcaron" horiz-adv-x="329" unicode="&#345;" /><glyph d="M304 409Q289 416 261 416Q232 416 207.5 402.5Q183 389 165.5 365.5Q148 342 138 309.5Q128 277 128 240V0H77V462H119L126 331Q137 394 175.5 432Q214 470 278 470Q296 470 309 465ZM148 -145Q148 -232 52 -232V-206Q79 -205 93.5 -195Q108 -185 109 -159Q109 -153 108 -151Q105 -153 102 -154Q99 -155 94 -155Q79 -155 70.5 -145.5Q62 -136 62 -122Q62 -105 72.5 -95.5Q83 -86 101 -86Q118 -86 133 -101Q148 -116 148 -145Z" glyph-name="rcommaaccent" horiz-adv-x="329" unicode="&#343;" /><glyph d="M457 120Q450 128 446 137Q442 146 438 160L425 215Q418 244 397 257Q376 270 341 270H279V120H234V481H364Q423 481 456 455.5Q489 430 489 376Q489 331 462 309Q435 287 393 285Q422 281 441 268Q460 255 468 224L483 165Q490 138 505 120ZM279 305H352Q403 305 424 323.5Q445 342 445 375Q445 444 357 444H279ZM49 294Q49 360 73 416Q97 472 138 512.5Q179 553 234.5 575.5Q290 598 353 598Q416 598 471 575.5Q526 553 567.5 512.5Q609 472 633 416Q657 360 657 294Q657 228 633 172Q609 116 567.5 76Q526 36 471 13.5Q416 -9 353 -9Q290 -9 234.5 13.5Q179 36 138 76Q97 116 73 172Q49 228 49 294ZM76 294Q76 233 98 181.5Q120 130 157.5 93Q195 56 245.5 35.5Q296 15 353 15Q411 15 461.5 35.5Q512 56 549.5 93Q587 130 609 181.5Q631 233 631 294Q631 355 609 406.5Q587 458 549.5 495Q512 532 461.5 553Q411 574 353 574Q296 574 245.5 553Q195 532 157.5 495Q120 458 98 406.5Q76 355 76 294Z" glyph-name="registered" horiz-adv-x="706" unicode="&#174;" /><glyph d="M174 527Q131 527 107.5 552Q84 577 84 613Q84 648 108 672.5Q132 697 174 697Q216 697 239.5 672.5Q263 648 263 613Q263 577 239.5 552Q216 527 174 527ZM174 670Q147 670 132 653.5Q117 637 117 612Q117 588 131.5 572Q146 556 174 556Q202 556 216.5 572Q231 588 231 612Q231 637 216 653.5Q201 670 174 670Z" glyph-name="ring" horiz-adv-x="347" unicode="&#730;" /><glyph d="M174 629Q131 629 107.5 654Q84 679 84 716Q84 750 108 775Q132 800 174 800Q216 800 239.5 775Q263 750 263 716Q263 679 239.5 654Q216 629 174 629ZM174 773Q147 773 132 756.5Q117 740 117 714Q117 690 131.5 674.5Q146 659 174 659Q202 659 216.5 674.5Q231 690 231 714Q231 740 216 756.5Q201 773 174 773Z" glyph-name="ring.cap" horiz-adv-x="347" unicode="&#58410;" /><glyph d="M77 121Q85 74 117 52.5Q149 31 198 31Q251 31 282 50Q313 69 313 113Q313 151 291 172.5Q269 194 221 205L161 220Q104 234 75 261.5Q46 289 46 343Q46 378 59 402.5Q72 427 93.5 442Q115 457 142.5 464Q170 471 200 471Q267 471 307.5 443Q348 415 357 349L308 343Q302 389 275.5 410Q249 431 200 431Q152 431 123 410.5Q94 390 94 348Q94 311 113.5 293Q133 275 177 264L236 249Q264 241 287.5 231Q311 221 327 206Q343 191 352 169.5Q361 148 361 118Q361 85 349 61Q337 37 315 21.5Q293 6 263.5 -1.5Q234 -9 198 -9Q127 -9 85 19Q43 47 29 107Z" glyph-name="s" horiz-adv-x="399" unicode="s" /><glyph d="M77 121Q85 74 117 52.5Q149 31 198 31Q251 31 282 50Q313 69 313 113Q313 151 291 172.5Q269 194 221 205L161 220Q104 234 75 261.5Q46 289 46 343Q46 378 59 402.5Q72 427 93.5 442Q115 457 142.5 464Q170 471 200 471Q267 471 307.5 443Q348 415 357 349L308 343Q302 389 275.5 410Q249 431 200 431Q152 431 123 410.5Q94 390 94 348Q94 311 113.5 293Q133 275 177 264L236 249Q264 241 287.5 231Q311 221 327 206Q343 191 352 169.5Q361 148 361 118Q361 85 349 61Q337 37 315 21.5Q293 6 263.5 -1.5Q234 -9 198 -9Q127 -9 85 19Q43 47 29 107ZM182 533 253 669H323L224 533Z" glyph-name="sacute" horiz-adv-x="399" unicode="&#347;" /><glyph d="M77 121Q85 74 117 52.5Q149 31 198 31Q251 31 282 50Q313 69 313 113Q313 151 291 172.5Q269 194 221 205L161 220Q104 234 75 261.5Q46 289 46 343Q46 378 59 402.5Q72 427 93.5 442Q115 457 142.5 464Q170 471 200 471Q267 471 307.5 443Q348 415 357 349L308 343Q302 389 275.5 410Q249 431 200 431Q152 431 123 410.5Q94 390 94 348Q94 311 113.5 293Q133 275 177 264L236 249Q264 241 287.5 231Q311 221 327 206Q343 191 352 169.5Q361 148 361 118Q361 85 349 61Q337 37 315 21.5Q293 6 263.5 -1.5Q234 -9 198 -9Q127 -9 85 19Q43 47 29 107ZM190 533 74 669H129L174 614Q181 605 186 597Q191 589 195 584Q199 578 202 573H206Q209 578 213 584Q217 589 222 597Q227 605 235 614L279 669H334L218 533Z" glyph-name="scaron" horiz-adv-x="399" unicode="&#353;" /><glyph d="M77 121Q85 74 117 52.5Q149 31 198 31Q251 31 282 50Q313 69 313 113Q313 151 291 172.5Q269 194 221 205L161 220Q104 234 75 261.5Q46 289 46 343Q46 378 59 402.5Q72 427 93.5 442Q115 457 142.5 464Q170 471 200 471Q267 471 307.5 443Q348 415 357 349L308 343Q302 389 275.5 410Q249 431 200 431Q152 431 123 410.5Q94 390 94 348Q94 311 113.5 293Q133 275 177 264L236 249Q264 241 287.5 231Q311 221 327 206Q343 191 352 169.5Q361 148 361 118Q361 86 349.5 62.5Q338 39 317.5 23.5Q297 8 269 0Q241 -8 207 -9L202 -46Q244 -50 268 -70.5Q292 -91 292 -126Q292 -167 265 -186Q238 -205 200 -205Q169 -205 147.5 -193.5Q126 -182 112 -165L131 -132Q144 -151 160.5 -161Q177 -171 200 -171Q222 -171 235.5 -160.5Q249 -150 249 -126Q249 -77 168 -74L177 -8Q115 -4 78 23.5Q41 51 29 107Z" glyph-name="scedilla" horiz-adv-x="399" unicode="&#351;" /><glyph d="M77 121Q85 74 117 52.5Q149 31 198 31Q251 31 282 50Q313 69 313 113Q313 151 291 172.5Q269 194 221 205L161 220Q104 234 75 261.5Q46 289 46 343Q46 378 59 402.5Q72 427 93.5 442Q115 457 142.5 464Q170 471 200 471Q267 471 307.5 443Q348 415 357 349L308 343Q302 389 275.5 410Q249 431 200 431Q152 431 123 410.5Q94 390 94 348Q94 311 113.5 293Q133 275 177 264L236 249Q264 241 287.5 231Q311 221 327 206Q343 191 352 169.5Q361 148 361 118Q361 85 349 61Q337 37 315 21.5Q293 6 263.5 -1.5Q234 -9 198 -9Q127 -9 85 19Q43 47 29 107ZM222 669 338 533H283L239 586Q231 595 226 602.5Q221 610 217 615Q213 621 210 627H206Q203 621 199 615Q195 610 190 602.5Q185 595 178 586L133 533H78L194 669Z" glyph-name="scircumflex" horiz-adv-x="399" unicode="&#349;" /><glyph d="M77 121Q85 74 117 52.5Q149 31 198 31Q251 31 282 50Q313 69 313 113Q313 151 291 172.5Q269 194 221 205L161 220Q104 234 75 261.5Q46 289 46 343Q46 378 59 402.5Q72 427 93.5 442Q115 457 142.5 464Q170 471 200 471Q267 471 307.5 443Q348 415 357 349L308 343Q302 389 275.5 410Q249 431 200 431Q152 431 123 410.5Q94 390 94 348Q94 311 113.5 293Q133 275 177 264L236 249Q264 241 287.5 231Q311 221 327 206Q343 191 352 169.5Q361 148 361 118Q361 85 349 61Q337 37 315 21.5Q293 6 263.5 -1.5Q234 -9 198 -9Q127 -9 85 19Q43 47 29 107ZM253 -145Q253 -232 157 -232V-206Q184 -205 198.5 -195Q213 -185 214 -159Q214 -153 213 -151Q210 -153 207 -154Q204 -155 199 -155Q184 -155 175.5 -145.5Q167 -136 167 -122Q167 -105 177.5 -95.5Q188 -86 206 -86Q223 -86 238 -101Q253 -116 253 -145Z" glyph-name="scommaaccent" horiz-adv-x="399" unicode="&#537;" /><glyph d="M106 22Q114 -26 144.5 -46Q175 -66 224 -66Q245 -66 264 -61.5Q283 -57 298 -47Q313 -37 321.5 -21.5Q330 -6 330 15Q330 51 309 72.5Q288 94 245 106L178 124Q121 140 91.5 168.5Q62 197 62 247Q62 288 84.5 315Q107 342 142 355Q105 371 84.5 399Q64 427 64 469Q64 504 77 528.5Q90 553 111.5 568.5Q133 584 160 591Q187 598 215 598Q286 598 326.5 570.5Q367 543 376 477L325 471Q319 516 291.5 536.5Q264 557 216 557Q170 557 141.5 536.5Q113 516 113 473Q113 438 132.5 418.5Q152 399 193 387L256 367Q282 359 304 349.5Q326 340 342.5 325.5Q359 311 368.5 290.5Q378 270 378 241Q378 202 356.5 174Q335 146 299 135Q332 123 355 93Q378 63 378 20Q378 -14 365 -38Q352 -62 330 -77.5Q308 -93 279 -100Q250 -107 218 -107Q149 -107 106 -78Q63 -49 53 15ZM330 234Q330 274 302.5 293.5Q275 313 230 327L174 343Q148 332 129.5 309.5Q111 287 111 254Q111 214 135.5 195Q160 176 208 162Q211 161 219.5 159Q228 157 237.5 154.5Q247 152 256 150Q265 148 268 147Q291 156 310.5 178.5Q330 201 330 234Z" glyph-name="section" horiz-adv-x="432" unicode="&#167;" /><glyph d="M76 392Q76 410 88 422Q100 434 119 434Q137 434 149 422Q161 410 161 392Q161 374 149 362Q137 350 119 350Q100 350 88 362Q76 374 76 392ZM171 11Q171 -41 142 -67Q113 -93 60 -96V-68Q91 -65 109 -50Q127 -35 128 -5Q128 2 127 4Q120 -1 112 -1Q95 -1 85.5 9.5Q76 20 76 36Q76 55 87.5 65.5Q99 76 119 76Q139 76 155 59.5Q171 43 171 11Z" glyph-name="semicolon" horiz-adv-x="245" unicode=";" /><glyph d="M66 545V458H17V589H400V552L183 0H131L345 545Z" glyph-name="seven" horiz-adv-x="420" unicode="7" /><glyph d="M393 465Q362 555 271 555Q196 555 148 486Q100 417 98 278V236H100Q111 304 154.5 339.5Q198 375 262 375Q306 375 341 361Q376 347 400 321.5Q424 296 437 261Q450 226 450 184Q450 145 437.5 110Q425 75 400.5 48.5Q376 22 340 6.5Q304 -9 256 -9Q204 -9 163.5 11.5Q123 32 96 76Q73 111 61 161Q49 211 49 278Q49 360 67 420Q85 480 115.5 519.5Q146 559 187 578.5Q228 598 274 598Q398 598 439 483ZM114 181Q114 148 124.5 121Q135 94 154 74Q173 54 199 43Q225 32 256 32Q322 32 361 73.5Q400 115 400 181Q400 248 361 289.5Q322 331 256 331Q224 331 198 320Q172 309 153.5 289.5Q135 270 124.5 242Q114 214 114 181Z" glyph-name="six" horiz-adv-x="490" unicode="6" /><glyph d="M288 669H337L62 -203H14Z" glyph-name="slash" horiz-adv-x="379" unicode="/" /><glyph glyph-name="space" horiz-adv-x="207" unicode=" " /><glyph d="M167 269Q175 242 181 215.5Q187 189 187 164Q187 109 165 80Q143 51 119 43H313Q345 43 367.5 53.5Q390 64 398 98L439 76Q428 35 398.5 17.5Q369 0 319 0H33V45H60Q75 45 88.5 53Q102 61 113 76Q124 91 130.5 113Q137 135 137 162Q137 187 130.5 213.5Q124 240 115 269H37V305H104Q94 337 86.5 370Q79 403 79 437Q79 480 92.5 510.5Q106 541 129 560.5Q152 580 181.5 589Q211 598 243 598Q307 598 346.5 568Q386 538 397 471L349 460Q341 508 316 531Q291 554 241 554Q193 554 162.5 525.5Q132 497 132 437Q132 403 139.5 370Q147 337 157 305H313V269Z" glyph-name="sterling" horiz-adv-x="443" unicode="&#163;" /><glyph d="M290 22Q272 6 246.5 -1.5Q221 -9 191 -9Q137 -9 108 21Q79 51 79 108V420H12V462H79V560L130 567V462H268V420H129V117Q129 73 147.5 54Q166 35 197 35Q222 35 239.5 41.5Q257 48 276 63Z" glyph-name="t" horiz-adv-x="307" unicode="t" /><glyph d="M12 307H79V420H12V462H79V560L131 567V462H268V420H130V307H268V266H130V117Q130 73 148 54Q166 35 197 35Q222 35 239.5 41.5Q257 48 276 63L290 22Q272 6 246.5 -1.5Q221 -9 191 -9Q137 -9 108 21Q79 51 79 108V266H12Z" glyph-name="tbar" horiz-adv-x="307" unicode="&#359;" /><glyph d="M290 22Q272 6 246.5 -1.5Q221 -9 191 -9Q137 -9 108 21Q79 51 79 108V420H12V462H79V560L130 567V462H268V420H129V117Q129 73 147.5 54Q166 35 197 35Q222 35 239.5 41.5Q257 48 276 63ZM215 504H178L194 679H254Z" glyph-name="tcaron" horiz-adv-x="307" unicode="&#357;" /><glyph d="M290 22Q272 6 246.5 -1.5Q221 -9 191 -9Q137 -9 108 21Q79 51 79 108V420H12V462H79V560L130 567V462H268V420H129V117Q129 73 147.5 54Q166 35 197 35Q222 35 239.5 41.5Q257 48 276 63ZM215 -145Q215 -232 119 -232V-206Q146 -205 160.5 -195Q175 -185 176 -159Q176 -153 175 -151Q172 -153 169 -154Q166 -155 161 -155Q146 -155 137.5 -145.5Q129 -136 129 -122Q129 -105 139.5 -95.5Q150 -86 168 -86Q185 -86 200 -101Q215 -116 215 -145Z" glyph-name="tcommaaccent" horiz-adv-x="307" unicode="&#355;" /><glyph d="M128 181Q128 142 140 113.5Q152 85 171.5 66.5Q191 48 215.5 39.5Q240 31 265 31Q297 31 324.5 43Q352 55 372.5 80.5Q393 106 404.5 144.5Q416 183 416 236Q416 333 377 380Q338 427 274 427Q245 427 218.5 417Q192 407 172 387Q152 367 140 337Q128 307 128 267ZM128 -203H77V668H128V366Q144 419 187 445Q230 471 284 471Q368 471 418 413Q468 355 468 240Q468 184 454.5 138Q441 92 415.5 59.5Q390 27 353.5 9Q317 -9 271 -9Q211 -9 176 18Q141 45 128 82Z" glyph-name="thorn" horiz-adv-x="514" unicode="&#254;" /><glyph d="M218 305Q294 302 341.5 261.5Q389 221 389 149Q389 111 374 82Q359 53 333.5 32.5Q308 12 274 1.5Q240 -9 202 -9Q116 -9 66.5 28Q17 65 9 128L60 137Q69 83 105.5 57Q142 31 201 31Q261 31 299 62.5Q337 94 337 150Q337 212 291 246.5Q245 281 142 284V326Q235 334 277.5 364Q320 394 320 457Q320 507 286.5 531Q253 555 203 555Q103 555 82 453L32 464Q43 522 86 560Q129 598 206 598Q240 598 270.5 589.5Q301 581 323.5 564Q346 547 359.5 520Q373 493 373 457Q373 393 331.5 354Q290 315 218 309Z" glyph-name="three" horiz-adv-x="424" unicode="3" /><glyph d="M157 -21Q205 -24 231 -48Q257 -72 257 -113Q257 -159 222.5 -184Q188 -209 136 -209Q80 -209 48.5 -185.5Q17 -162 11 -127L51 -113Q57 -142 79.5 -158.5Q102 -175 136 -175Q170 -175 191.5 -158.5Q213 -142 213 -110Q213 -76 186 -57Q159 -38 96 -37V-5Q149 -3 175.5 13.5Q202 30 202 63Q202 92 183.5 106.5Q165 121 136 121Q108 121 89 106.5Q70 92 64 63L25 76Q33 111 61 134Q89 157 138 157Q160 157 179.5 152Q199 147 213.5 136Q228 125 236.5 108Q245 91 245 68Q245 33 223.5 9.5Q202 -14 157 -18Z" glyph-name="three.inf" horiz-adv-x="290" unicode="&#58740;" /><glyph d="M174 418Q222 415 248 391Q274 367 274 326Q274 280 239.5 255Q205 230 153 230Q97 230 65.5 253.5Q34 277 28 312L68 326Q74 297 96.5 280.5Q119 264 153 264Q187 264 208.5 280.5Q230 297 230 329Q230 363 203 382Q176 401 113 402V434Q166 436 192.5 452.5Q219 469 219 502Q219 531 200.5 545.5Q182 560 153 560Q125 560 106 545.5Q87 531 81 502L42 515Q50 550 78 573Q106 596 155 596Q177 596 196.5 591Q216 586 230.5 575Q245 564 253.5 547Q262 530 262 507Q262 472 240.5 448.5Q219 425 174 421ZM530 590H571L247 0H206ZM628 95H445V128L626 353H671V129H731V95H671V0H628ZM629 253Q629 267 629 277.5Q629 288 630 296Q631 305 632 313H629Q625 307 621 298Q616 290 610 280Q604 270 594 258L525 172Q516 161 508 152.5Q500 144 495 139Q489 133 484 129V126Q489 126 496 127Q502 127 511 127.5Q520 128 533 128H629Z" glyph-name="threequarters" horiz-adv-x="759" unicode="&#190;" /><glyph d="M157 418Q205 415 231 391Q257 367 257 326Q257 280 222.5 255Q188 230 136 230Q80 230 48.5 253.5Q17 277 11 312L51 326Q57 297 79.5 280.5Q102 264 136 264Q170 264 191.5 280.5Q213 297 213 329Q213 363 186 382Q159 401 96 402V434Q149 436 175.5 452.5Q202 469 202 502Q202 531 183.5 545.5Q165 560 136 560Q108 560 89 545.5Q70 531 64 502L25 515Q33 550 61 573Q89 596 138 596Q160 596 179.5 591Q199 586 213.5 575Q228 564 236.5 547Q245 530 245 507Q245 472 223.5 448.5Q202 425 157 421Z" glyph-name="threesuperior" horiz-adv-x="290" unicode="&#179;" /><glyph d="M295 539Q272 539 256 548Q240 557 223 568Q204 581 191 589Q178 597 162 597Q142 597 132 583.5Q122 570 128 538H95Q87 560 88 579Q89 598 97.5 612Q106 626 121.5 634Q137 642 157 642Q182 642 199 632.5Q216 623 235 610Q253 597 265 590Q277 583 292 583Q311 583 320.5 597Q330 611 325 644H360Q375 597 357 568Q339 539 295 539Z" glyph-name="tilde" horiz-adv-x="454" unicode="&#732;" /><glyph d="M295 647Q272 647 256 656.5Q240 666 223 677Q204 690 191 698Q178 706 162 706Q142 706 132 692.5Q122 679 128 647H95Q87 669 88 688Q89 707 97.5 721Q106 735 121.5 743.5Q137 752 157 752Q182 752 199 743Q216 734 235 721Q253 707 265 700Q277 693 292 693Q311 693 320.5 707Q330 721 325 754H360Q375 708 357 677.5Q339 647 295 647Z" glyph-name="tilde.cap" horiz-adv-x="454" unicode="&#58404;" /><glyph d="M101 341V557H20V589H219V557H138V341ZM484 341V532H481L414 391H383L314 532H311V341H274V589H323L397 435H400L474 589H520V341Z" glyph-name="trademark" horiz-adv-x="589" unicode="&#8482;" /><glyph d="M408 0H37V40Q91 79 145 121.5Q199 164 243 210.5Q287 257 314.5 307.5Q342 358 342 414Q342 483 304 519Q266 555 206 555Q174 555 150.5 545.5Q127 536 111 519.5Q95 503 87 481.5Q79 460 79 435Q79 399 95 370.5Q111 342 136 324L96 301Q84 309 72.5 322Q61 335 51 352Q41 369 35 390Q29 411 29 435Q29 466 40 495.5Q51 525 73 547.5Q95 570 129 584Q163 598 208 598Q245 598 279 587.5Q313 577 338.5 554.5Q364 532 379 497.5Q394 463 394 415Q394 373 379.5 333.5Q365 294 341 257.5Q317 221 286 189Q255 157 223 130.5Q191 104 159.5 83.5Q128 63 103 50V46H408Z" glyph-name="two" horiz-adv-x="437" unicode="2" /><glyph d="M268 -203H22V-169Q58 -144 91.5 -119Q125 -94 150.5 -68Q176 -42 191.5 -14Q207 14 207 44Q207 80 187.5 99Q168 118 135 118Q97 118 79.5 94Q62 70 62 41L24 56Q24 75 31.5 93Q39 111 54 125Q69 139 90.5 148Q112 157 141 157Q186 157 219 130Q252 103 252 47Q252 9 233 -24Q214 -57 187 -84Q160 -111 130 -131.5Q100 -152 78 -164V-167H268Z" glyph-name="two.inf" horiz-adv-x="290" unicode="&#58739;" /><glyph d="M268 236H22V270Q58 295 91.5 320Q125 345 150.5 371Q176 397 191.5 425Q207 453 207 483Q207 519 187.5 538Q168 557 135 557Q97 557 79.5 533Q62 509 62 480L24 495Q24 514 31.5 532Q39 550 54 564Q69 578 90.5 587Q112 596 141 596Q186 596 219 569Q252 542 252 486Q252 448 233 415Q214 382 187 355Q160 328 130 307.5Q100 287 78 275V272H268Z" glyph-name="twosuperior" horiz-adv-x="290" unicode="&#178;" /><glyph d="M360 101Q345 47 306 19Q267 -9 210 -9Q147 -9 108 26Q69 61 69 143V462H120V149Q120 87 146 58.5Q172 30 223 30Q250 30 274.5 41Q299 52 317.5 73Q336 94 347.5 124.5Q359 155 359 194V462H410V0H367Z" glyph-name="u" horiz-adv-x="487" unicode="u" /><glyph d="M360 101Q345 47 306 19Q267 -9 210 -9Q147 -9 108 26Q69 61 69 143V462H120V149Q120 87 146 58.5Q172 30 223 30Q250 30 274.5 41Q299 52 317.5 73Q336 94 347.5 124.5Q359 155 359 194V462H410V0H367ZM214 533 285 669H355L256 533Z" glyph-name="uacute" horiz-adv-x="487" unicode="&#250;" /><glyph d="M360 101Q345 47 306 19Q267 -9 210 -9Q147 -9 108 26Q69 61 69 143V462H120V149Q120 87 146 58.5Q172 30 223 30Q250 30 274.5 41Q299 52 317.5 73Q336 94 347.5 124.5Q359 155 359 194V462H410V0H367ZM240 529Q183 529 151 562.5Q119 596 119 658H161Q163 615 181 592Q199 569 240 569Q281 569 298.5 592Q316 615 318 658H360Q360 596 328.5 562.5Q297 529 240 529Z" glyph-name="ubreve" horiz-adv-x="487" unicode="&#365;" /><glyph d="M360 101Q345 47 306 19Q267 -9 210 -9Q147 -9 108 26Q69 61 69 143V462H120V149Q120 87 146 58.5Q172 30 223 30Q250 30 274.5 41Q299 52 317.5 73Q336 94 347.5 124.5Q359 155 359 194V462H410V0H367ZM253 669 369 533H314L270 586Q262 595 257 602.5Q252 610 248 615Q244 621 241 627H237Q234 621 230 615Q226 610 221 602.5Q216 595 209 586L164 533H109L225 669Z" glyph-name="ucircumflex" horiz-adv-x="487" unicode="&#251;" /><glyph d="M360 101Q345 47 306 19Q267 -9 210 -9Q147 -9 108 26Q69 61 69 143V462H120V149Q120 87 146 58.5Q172 30 223 30Q250 30 274.5 41Q299 52 317.5 73Q336 94 347.5 124.5Q359 155 359 194V462H410V0H367ZM115 595Q115 611 126 622Q137 633 153 633Q170 633 180.5 622Q191 611 191 595Q191 579 180.5 568Q170 557 153 557Q137 557 126 568Q115 579 115 595ZM287 594Q287 611 298 621.5Q309 632 325 632Q341 632 352 621.5Q363 611 363 594Q363 579 352 568Q341 557 325 557Q309 557 298 568Q287 579 287 594Z" glyph-name="udieresis" horiz-adv-x="487" unicode="&#252;" /><glyph d="M360 101Q345 47 306 19Q267 -9 210 -9Q147 -9 108 26Q69 61 69 143V462H120V149Q120 87 146 58.5Q172 30 223 30Q250 30 274.5 41Q299 52 317.5 73Q336 94 347.5 124.5Q359 155 359 194V462H410V0H367ZM223 533 124 669H195L266 533Z" glyph-name="ugrave" horiz-adv-x="487" unicode="&#249;" /><glyph d="M360 101Q345 47 306 19Q267 -9 210 -9Q147 -9 108 26Q69 61 69 143V462H120V149Q120 87 146 58.5Q172 30 223 30Q250 30 274.5 41Q299 52 317.5 73Q336 94 347.5 124.5Q359 155 359 194V462H410V0H367ZM153 533 219 669H286L192 533ZM276 533 347 669H414L315 533Z" glyph-name="uhungarumlaut" horiz-adv-x="487" unicode="&#369;" /><glyph d="M360 101Q345 47 306 19Q267 -9 210 -9Q147 -9 108 26Q69 61 69 143V462H120V149Q120 87 146 58.5Q172 30 223 30Q250 30 274.5 41Q299 52 317.5 73Q336 94 347.5 124.5Q359 155 359 194V462H410V0H367ZM129 564V607H351V564Z" glyph-name="umacron" horiz-adv-x="487" unicode="&#363;" /><glyph d="M54 -44H400V-87H54Z" glyph-name="underscore" horiz-adv-x="454" unicode="_" /><glyph d="M262 -116Q262 -94 270.5 -74.5Q279 -55 293.5 -38.5Q308 -22 326.5 -9Q345 4 365 14L360 104Q346 53 306.5 22Q267 -9 210 -9Q147 -9 108 26Q69 61 69 143V462H120V149Q120 87 146 58.5Q172 30 222 30Q249 30 274 41.5Q299 53 317.5 74Q336 95 347.5 126Q359 157 359 196V462H410V0Q369 -11 339.5 -39.5Q310 -68 310 -110Q310 -135 321 -149.5Q332 -164 357 -164Q379 -164 393.5 -153.5Q408 -143 419 -126L441 -151Q429 -171 407.5 -186Q386 -201 350 -201Q308 -201 285 -178Q262 -155 262 -116Z" glyph-name="uogonek" horiz-adv-x="487" unicode="&#371;" /><glyph d="M360 101Q345 47 306 19Q267 -9 210 -9Q147 -9 108 26Q69 61 69 143V462H120V149Q120 87 146 58.5Q172 30 223 30Q250 30 274.5 41Q299 52 317.5 73Q336 94 347.5 124.5Q359 155 359 194V462H410V0H367ZM241 527Q198 527 174.5 552Q151 577 151 613Q151 648 175 672.5Q199 697 241 697Q283 697 306.5 672.5Q330 648 330 613Q330 577 306.5 552Q283 527 241 527ZM241 670Q214 670 199 653.5Q184 637 184 612Q184 588 198.5 572Q213 556 241 556Q269 556 283.5 572Q298 588 298 612Q298 637 283 653.5Q268 670 241 670Z" glyph-name="uring" horiz-adv-x="487" unicode="&#367;" /><glyph d="M360 101Q345 47 306 19Q267 -9 210 -9Q147 -9 108 26Q69 61 69 143V462H120V149Q120 87 146 58.5Q172 30 223 30Q250 30 274.5 41Q299 52 317.5 73Q336 94 347.5 124.5Q359 155 359 194V462H410V0H367ZM307 539Q284 539 268 548Q252 557 235 568Q216 581 203 589Q190 597 174 597Q154 597 144 583.5Q134 570 140 538H107Q99 560 100 579Q101 598 109.5 612Q118 626 133.5 634Q149 642 169 642Q194 642 211 632.5Q228 623 247 610Q265 597 277 590Q289 583 304 583Q323 583 332.5 597Q342 611 337 644H372Q387 597 369 568Q351 539 307 539Z" glyph-name="utilde" horiz-adv-x="487" unicode="&#361;" /><glyph d="M12 462H68L179 146Q188 120 193.5 99.5Q199 79 203 64Q207 46 210 33H213L219 63Q222 77 227.5 98Q233 119 242 145L351 462H404L240 0H180Z" glyph-name="v" horiz-adv-x="417" unicode="v" /><glyph d="M426 172Q436 137 442 111.5Q448 86 451 69Q455 49 456 36H459Q460 50 464 69Q467 86 472.5 111.5Q478 137 488 172L567 462H619L489 0H427L348 275Q338 310 332 335Q326 360 323 377Q319 396 317 410H314L308 377Q304 360 298.5 335Q293 310 283 275L206 0H144L12 462H65L145 172Q154 138 160 112.5Q166 87 170 70Q174 50 176 36H179Q180 50 184 70Q187 87 192.5 112Q198 137 208 172L290 462H344Z" glyph-name="w" horiz-adv-x="631" unicode="w" /><glyph d="M426 172Q436 137 442 111.5Q448 86 451 69Q455 49 456 36H459Q460 50 464 69Q467 86 472.5 111.5Q478 137 488 172L567 462H619L489 0H427L348 275Q338 310 332 335Q326 360 323 377Q319 396 317 410H314L308 377Q304 360 298.5 335Q293 310 283 275L206 0H144L12 462H65L145 172Q154 138 160 112.5Q166 87 170 70Q174 50 176 36H179Q180 50 184 70Q187 87 192.5 112Q198 137 208 172L290 462H344ZM290 533 361 669H431L332 533Z" glyph-name="wacute" horiz-adv-x="631" unicode="&#7811;" /><glyph d="M426 172Q436 137 442 111.5Q448 86 451 69Q455 49 456 36H459Q460 50 464 69Q467 86 472.5 111.5Q478 137 488 172L567 462H619L489 0H427L348 275Q338 310 332 335Q326 360 323 377Q319 396 317 410H314L308 377Q304 360 298.5 335Q293 310 283 275L206 0H144L12 462H65L145 172Q154 138 160 112.5Q166 87 170 70Q174 50 176 36H179Q180 50 184 70Q187 87 192.5 112Q198 137 208 172L290 462H344ZM329 669 445 533H390L346 586Q338 595 333 602.5Q328 610 324 615Q320 621 317 627H313Q310 621 306 615Q302 610 297 602.5Q292 595 285 586L240 533H185L301 669Z" glyph-name="wcircumflex" horiz-adv-x="631" unicode="&#373;" /><glyph d="M426 172Q436 137 442 111.5Q448 86 451 69Q455 49 456 36H459Q460 50 464 69Q467 86 472.5 111.5Q478 137 488 172L567 462H619L489 0H427L348 275Q338 310 332 335Q326 360 323 377Q319 396 317 410H314L308 377Q304 360 298.5 335Q293 310 283 275L206 0H144L12 462H65L145 172Q154 138 160 112.5Q166 87 170 70Q174 50 176 36H179Q180 50 184 70Q187 87 192.5 112Q198 137 208 172L290 462H344ZM191 595Q191 611 202 622Q213 633 229 633Q246 633 256.5 622Q267 611 267 595Q267 579 256.5 568Q246 557 229 557Q213 557 202 568Q191 579 191 595ZM363 594Q363 611 374 621.5Q385 632 401 632Q417 632 428 621.5Q439 611 439 594Q439 579 428 568Q417 557 401 557Q385 557 374 568Q363 579 363 594Z" glyph-name="wdieresis" horiz-adv-x="631" unicode="&#7813;" /><glyph d="M426 172Q436 137 442 111.5Q448 86 451 69Q455 49 456 36H459Q460 50 464 69Q467 86 472.5 111.5Q478 137 488 172L567 462H619L489 0H427L348 275Q338 310 332 335Q326 360 323 377Q319 396 317 410H314L308 377Q304 360 298.5 335Q293 310 283 275L206 0H144L12 462H65L145 172Q154 138 160 112.5Q166 87 170 70Q174 50 176 36H179Q180 50 184 70Q187 87 192.5 112Q198 137 208 172L290 462H344ZM299 533 200 669H271L342 533Z" glyph-name="wgrave" horiz-adv-x="631" unicode="&#7809;" /><glyph d="M240 137Q227 156 220 168Q213 180 209 188Q205 197 204 201H200Q198 197 194 188Q190 180 182.5 168Q175 156 161 136L69 0H14L174 235L23 462H82L164 336Q177 316 184 303.5Q191 291 196 283Q200 274 203 270H206Q208 274 212 283Q216 291 223 303Q230 315 243 335L326 462H382L231 236L390 0H333Z" glyph-name="x" horiz-adv-x="404" unicode="x" /><glyph d="M178 144Q194 95 202 64Q206 47 209 34H212Q215 46 219 63Q223 77 229 97Q235 117 243 142L352 462H405L234 -24Q217 -74 199 -108.5Q181 -143 160.5 -165.5Q140 -188 116 -198Q92 -208 63 -208Q46 -208 28.5 -204Q11 -200 -2 -194L4 -150Q32 -166 64 -166Q85 -166 101 -158Q117 -150 131.5 -133Q146 -116 159 -88Q172 -60 186 -19L12 462H67Z" glyph-name="y" horiz-adv-x="417" unicode="y" /><glyph d="M178 144Q194 95 202 64Q206 47 209 34H212Q215 46 219 63Q223 77 229 97Q235 117 243 142L352 462H405L234 -24Q217 -74 199 -108.5Q181 -143 160.5 -165.5Q140 -188 116 -198Q92 -208 63 -208Q46 -208 28.5 -204Q11 -200 -2 -194L4 -150Q32 -166 64 -166Q85 -166 101 -158Q117 -150 131.5 -133Q146 -116 159 -88Q172 -60 186 -19L12 462H67ZM185 533 256 669H326L227 533Z" glyph-name="yacute" horiz-adv-x="417" unicode="&#253;" /><glyph d="M178 144Q194 95 202 64Q206 47 209 34H212Q215 46 219 63Q223 77 229 97Q235 117 243 142L352 462H405L234 -24Q217 -74 199 -108.5Q181 -143 160.5 -165.5Q140 -188 116 -198Q92 -208 63 -208Q46 -208 28.5 -204Q11 -200 -2 -194L4 -150Q32 -166 64 -166Q85 -166 101 -158Q117 -150 131.5 -133Q146 -116 159 -88Q172 -60 186 -19L12 462H67ZM225 669 341 533H286L242 586Q234 595 229 602.5Q224 610 220 615Q216 621 213 627H209Q206 621 202 615Q198 610 193 602.5Q188 595 181 586L136 533H81L197 669Z" glyph-name="ycircumflex" horiz-adv-x="417" unicode="&#375;" /><glyph d="M178 144Q194 95 202 64Q206 47 209 34H212Q215 46 219 63Q223 77 229 97Q235 117 243 142L352 462H405L234 -24Q217 -74 199 -108.5Q181 -143 160.5 -165.5Q140 -188 116 -198Q92 -208 63 -208Q46 -208 28.5 -204Q11 -200 -2 -194L4 -150Q32 -166 64 -166Q85 -166 101 -158Q117 -150 131.5 -133Q146 -116 159 -88Q172 -60 186 -19L12 462H67ZM87 595Q87 611 98 622Q109 633 125 633Q142 633 152.5 622Q163 611 163 595Q163 579 152.5 568Q142 557 125 557Q109 557 98 568Q87 579 87 595ZM259 594Q259 611 270 621.5Q281 632 297 632Q313 632 324 621.5Q335 611 335 594Q335 579 324 568Q313 557 297 557Q281 557 270 568Q259 579 259 594Z" glyph-name="ydieresis" horiz-adv-x="417" unicode="&#255;" /><glyph d="M180 302H69V338H160L20 589H79L197 373Q211 348 219.5 330.5Q228 313 233 302Q239 289 243 280H246Q249 289 255 302Q260 313 268.5 330.5Q277 348 290 373L404 589H460L324 338H422V302H305L270 238H422V202H270V0H217V202H69V238H215Z" glyph-name="yen" horiz-adv-x="480" unicode="&#165;" /><glyph d="M178 144Q194 95 202 64Q206 47 209 34H212Q215 46 219 63Q223 77 229 97Q235 117 243 142L352 462H405L234 -24Q217 -74 199 -108.5Q181 -143 160.5 -165.5Q140 -188 116 -198Q92 -208 63 -208Q46 -208 28.5 -204Q11 -200 -2 -194L4 -150Q32 -166 64 -166Q85 -166 101 -158Q117 -150 131.5 -133Q146 -116 159 -88Q172 -60 186 -19L12 462H67ZM195 533 96 669H167L238 533Z" glyph-name="ygrave" horiz-adv-x="417" unicode="&#7923;" /><glyph d="M138 117Q125 99 115.5 85Q106 71 99 62Q91 51 84 44V41Q92 41 104 42Q115 42 131 42.5Q147 43 171 43H363V0H24V29L240 344Q252 362 262 376Q272 390 279 399Q287 410 294 417V420Q286 419 274 419Q263 418 246.5 418Q230 418 207 418H35V462H353V427Z" glyph-name="z" horiz-adv-x="387" unicode="z" /><glyph d="M138 117Q125 99 115.5 85Q106 71 99 62Q91 51 84 44V41Q92 41 104 42Q115 42 131 42.5Q147 43 171 43H363V0H24V29L240 344Q252 362 262 376Q272 390 279 399Q287 410 294 417V420Q286 419 274 419Q263 418 246.5 418Q230 418 207 418H35V462H353V427ZM174 533 245 669H315L216 533Z" glyph-name="zacute" horiz-adv-x="387" unicode="&#378;" /><glyph d="M138 117Q125 99 115.5 85Q106 71 99 62Q91 51 84 44V41Q92 41 104 42Q115 42 131 42.5Q147 43 171 43H363V0H24V29L240 344Q252 362 262 376Q272 390 279 399Q287 410 294 417V420Q286 419 274 419Q263 418 246.5 418Q230 418 207 418H35V462H353V427ZM185 533 69 669H124L169 614Q176 605 181 597Q186 589 190 584Q194 578 197 573H201Q204 578 208 584Q212 589 217 597Q222 605 230 614L274 669H329L213 533Z" glyph-name="zcaron" horiz-adv-x="387" unicode="&#382;" /><glyph d="M138 117Q125 99 115.5 85Q106 71 99 62Q91 51 84 44V41Q92 41 104 42Q115 42 131 42.5Q147 43 171 43H363V0H24V29L240 344Q252 362 262 376Q272 390 279 399Q287 410 294 417V420Q286 419 274 419Q263 418 246.5 418Q230 418 207 418H35V462H353V427ZM161 604Q161 621 172 632Q183 643 199 643Q216 643 226.5 632Q237 621 237 604Q237 588 226.5 577.5Q216 567 199 567Q183 567 172 577.5Q161 588 161 604Z" glyph-name="zdotaccent" horiz-adv-x="387" unicode="&#380;" /><glyph d="M271 -9Q217 -9 175.5 14Q134 37 106 78Q78 119 63.5 174Q49 229 49 294Q49 357 63.5 412.5Q78 468 106.5 509Q135 550 176.5 574Q218 598 271 598Q324 598 365 574Q406 550 434.5 509Q463 468 477.5 412.5Q492 357 492 294Q492 229 477.5 174Q463 119 435.5 78Q408 37 366.5 14Q325 -9 271 -9ZM270 553Q231 553 199.5 533.5Q168 514 146 479.5Q124 445 112.5 397.5Q101 350 101 293Q101 237 112.5 189.5Q124 142 146 107.5Q168 73 199.5 53Q231 33 270 33Q310 33 341 53Q372 73 394 107.5Q416 142 427.5 189.5Q439 237 439 293Q439 350 427.5 397.5Q416 445 394 479.5Q372 514 341 533.5Q310 553 270 553Z" glyph-name="zero" horiz-adv-x="541" unicode="0" /></font>
</defs>
</svg>
