<?xml version="1.0" standalone="no"?><!DOCTYPE svg PUBLIC "-//W3C//DTD SVG 1.1//EN" "http://www.w3.org/Graphics/SVG/1.1/DTD/svg11.dtd" ><svg version="1.1" xmlns="http://www.w3.org/2000/svg"><defs><font horiz-adv-x="0" id="font"><font-face ascent="766" bbox="-102 -247 1006 841" cap-height="589" descent="-234" font-family="Copyright Klim Type Foundry" font-stretch="normal" font-style="normal" font-weight="500" units-per-em="1000" x-height="462" /><missing-glyph horiz-adv-x="221" /><glyph d="M403 161H162L106 0H10L225 589H346L559 0H460ZM188 237H376L331 369Q318 404 309.5 432.5Q301 461 296 481Q290 505 285 524H281Q276 505 270 481Q264 461 255.5 433Q247 405 235 370Z" glyph-name="A" horiz-adv-x="569" unicode="A" /><glyph d="M420 0V161H206L108 0H8L369 589H783V509H512V335H752V255H512V80H783V0ZM250 237H420V372Q419 410 420 437.5Q421 465 423 484Q425 506 426 522H422Z" glyph-name="AE" horiz-adv-x="833" unicode="&#198;" /><glyph d="M420 0V161H206L108 0H8L369 589H783V509H512V335H752V255H512V80H783V0ZM250 237H420V372Q419 410 420 437.5Q421 465 423 484Q425 506 426 522H422ZM496 653 559 776H679L578 653Z" glyph-name="AEacute" horiz-adv-x="833" unicode="&#508;" /><glyph d="M403 161H162L106 0H10L225 589H346L559 0H460ZM188 237H376L331 369Q318 404 309.5 432.5Q301 461 296 481Q290 505 285 524H281Q276 505 270 481Q264 461 255.5 433Q247 405 235 370ZM240 653 303 776H423L322 653Z" glyph-name="Aacute" horiz-adv-x="569" unicode="&#193;" /><glyph d="M403 161H162L106 0H10L225 589H346L559 0H460ZM188 237H376L331 369Q318 404 309.5 432.5Q301 461 296 481Q290 505 285 524H281Q276 505 270 481Q264 461 255.5 433Q247 405 235 370ZM283 650Q217 650 182.5 685.5Q148 721 148 781H219Q221 750 234.5 733Q248 716 283 716Q318 716 332 733Q346 750 348 781H419Q419 721 384 685.5Q349 650 283 650Z" glyph-name="Abreve" horiz-adv-x="569" unicode="&#258;" /><glyph d="M403 161H162L106 0H10L225 589H346L559 0H460ZM188 237H376L331 369Q318 404 309.5 432.5Q301 461 296 481Q290 505 285 524H281Q276 505 270 481Q264 461 255.5 433Q247 405 235 370ZM310 782 435 653H338L307 686Q293 700 288 710Q285 715 284 720H281Q280 715 277 710Q275 705 270 699.5Q265 694 258 686L226 653H130L254 782Z" glyph-name="Acircumflex" horiz-adv-x="569" unicode="&#194;" /><glyph d="M403 161H162L106 0H10L225 589H346L559 0H460ZM188 237H376L331 369Q318 404 309.5 432.5Q301 461 296 481Q290 505 285 524H281Q276 505 270 481Q264 461 255.5 433Q247 405 235 370ZM126 713Q126 739 143.5 756Q161 773 185 773Q210 773 227.5 756Q245 739 245 713Q245 687 227.5 670.5Q210 654 185 654Q161 654 143.5 670.5Q126 687 126 713ZM322 712Q322 738 339.5 755Q357 772 381 772Q407 772 424 755Q441 738 441 712Q441 687 424 670Q407 653 381 653Q357 653 339.5 670Q322 687 322 712Z" glyph-name="Adieresis" horiz-adv-x="569" unicode="&#196;" /><glyph d="M403 161H162L106 0H10L225 589H346L559 0H460ZM188 237H376L331 369Q318 404 309.5 432.5Q301 461 296 481Q290 505 285 524H281Q276 505 270 481Q264 461 255.5 433Q247 405 235 370ZM248 653 148 776H268L331 653Z" glyph-name="Agrave" horiz-adv-x="569" unicode="&#192;" /><glyph d="M403 161H162L106 0H10L225 589H346L559 0H460ZM188 237H376L331 369Q318 404 309.5 432.5Q301 461 296 481Q290 505 285 524H281Q276 505 270 481Q264 461 255.5 433Q247 405 235 370ZM151 674V745H415V674Z" glyph-name="Amacron" horiz-adv-x="569" unicode="&#256;" /><glyph d="M322 -106Q322 -75 334 -51.5Q346 -28 364 -11.5Q382 5 404.5 15.5Q427 26 448 32L403 161H162L106 0H10L225 589H346L559 0H505Q487 -1 468.5 -7.5Q450 -14 435.5 -25.5Q421 -37 411.5 -54Q402 -71 402 -93Q402 -119 415 -134.5Q428 -150 454 -150Q479 -150 496 -138.5Q513 -127 524 -108L553 -152Q538 -178 510.5 -194.5Q483 -211 438 -211Q387 -211 354.5 -185Q322 -159 322 -106ZM188 237H376L331 369Q318 404 309.5 432.5Q301 461 296 481Q290 505 285 524H281Q276 505 270 481Q264 461 255.5 433Q247 405 235 370Z" glyph-name="Aogonek" horiz-adv-x="569" unicode="&#260;" /><glyph d="M403 161H162L106 0H10L225 589H346L559 0H460ZM188 237H376L331 369Q318 404 309.5 432.5Q301 461 296 481Q290 505 285 524H281Q276 505 270 481Q264 461 255.5 433Q247 405 235 370ZM283 635Q233 635 206.5 664Q180 693 180 735Q180 774 208 803Q236 832 283 832Q330 832 358 803Q386 774 386 735Q386 693 359.5 664Q333 635 283 635ZM283 790Q257 790 242.5 774Q228 758 228 733Q228 710 242 695Q256 680 283 680Q310 680 324 695Q338 710 338 733Q338 758 323.5 774Q309 790 283 790Z" glyph-name="Aring" horiz-adv-x="569" unicode="&#197;" /><glyph d="M403 161H162L106 0H10L225 589H346L559 0H460ZM188 237H376L331 369Q318 404 309.5 432.5Q301 461 296 481Q290 505 285 524H281Q276 505 270 481Q264 461 255.5 433Q247 405 235 370ZM354 653Q331 653 316 660Q301 667 282 677Q262 688 249.5 695Q237 702 222 702Q206 702 197.5 691.5Q189 681 192 655H137Q128 679 129 701.5Q130 724 140 742Q150 760 168.5 770.5Q187 781 211 781Q237 781 254 773.5Q271 766 290 755Q310 742 321 736.5Q332 731 345 731Q359 731 367.5 742Q376 753 374 780H431Q440 754 439 730.5Q438 707 428 690Q418 673 399.5 663Q381 653 354 653Z" glyph-name="Atilde" horiz-adv-x="569" unicode="&#195;" /><glyph d="M353 301Q408 296 445.5 261.5Q483 227 483 165Q483 89 432.5 44.5Q382 0 274 0H83V589H276Q366 589 412.5 551.5Q459 514 459 439Q459 381 429.5 346.5Q400 312 353 304ZM266 331Q312 331 339 352.5Q366 374 366 422Q366 470 338.5 491Q311 512 260 512H175V331ZM175 77H281Q332 77 361 99.5Q390 122 390 173Q390 211 365 234.5Q340 258 280 258H175Z" glyph-name="B" horiz-adv-x="528" unicode="B" /><glyph d="M539 110Q519 79 496 56Q473 33 444.5 18Q416 3 381 -4.5Q346 -12 302 -12Q245 -12 197.5 8Q150 28 116 67Q82 106 63 162.5Q44 219 44 293Q44 367 64 424.5Q84 482 120 521Q156 560 206.5 580.5Q257 601 319 601Q480 601 540 459L454 417Q436 470 400 496Q364 522 314 522Q231 522 185.5 460.5Q140 399 140 293Q140 188 182 129Q224 70 309 70Q363 70 400.5 91.5Q438 113 468 162Z" glyph-name="C" horiz-adv-x="563" unicode="C" /><glyph d="M539 110Q519 79 496 56Q473 33 444.5 18Q416 3 381 -4.5Q346 -12 302 -12Q245 -12 197.5 8Q150 28 116 67Q82 106 63 162.5Q44 219 44 293Q44 367 64 424.5Q84 482 120 521Q156 560 206.5 580.5Q257 601 319 601Q480 601 540 459L454 417Q436 470 400 496Q364 522 314 522Q231 522 185.5 460.5Q140 399 140 293Q140 188 182 129Q224 70 309 70Q363 70 400.5 91.5Q438 113 468 162ZM264 653 327 776H447L346 653Z" glyph-name="Cacute" horiz-adv-x="563" unicode="&#262;" /><glyph d="M539 110Q519 79 496 56Q473 33 444.5 18Q416 3 381 -4.5Q346 -12 302 -12Q245 -12 197.5 8Q150 28 116 67Q82 106 63 162.5Q44 219 44 293Q44 367 64 424.5Q84 482 120 521Q156 560 206.5 580.5Q257 601 319 601Q480 601 540 459L454 417Q436 470 400 496Q364 522 314 522Q231 522 185.5 460.5Q140 399 140 293Q140 188 182 129Q224 70 309 70Q363 70 400.5 91.5Q438 113 468 162ZM279 649 155 778H251L283 745Q298 729 302 720Q305 715 306 711H309Q310 715 313 720Q315 725 319.5 731Q324 737 332 745L363 778H460L335 649Z" glyph-name="Ccaron" horiz-adv-x="563" unicode="&#268;" /><glyph d="M413 -124Q413 -169 382.5 -190Q352 -211 308 -211Q246 -211 218 -173L242 -122Q267 -158 305 -158Q322 -158 331.5 -149.5Q341 -141 341 -124Q341 -105 325.5 -94Q310 -83 275 -82L280 -11Q227 -7 183.5 14.5Q140 36 109 74.5Q78 113 61 168Q44 223 44 293Q44 367 64 424.5Q84 482 120 521Q156 560 206.5 580.5Q257 601 319 601Q480 601 540 459L454 417Q436 470 400 496Q364 522 314 522Q231 522 185.5 460.5Q140 399 140 293Q140 188 182 129Q224 70 309 70Q363 70 400.5 91.5Q438 113 468 162L539 110Q501 52 452 22.5Q403 -7 327 -11L325 -41Q372 -45 392.5 -66.5Q413 -88 413 -124Z" glyph-name="Ccedilla" horiz-adv-x="563" unicode="&#199;" /><glyph d="M539 110Q519 79 496 56Q473 33 444.5 18Q416 3 381 -4.5Q346 -12 302 -12Q245 -12 197.5 8Q150 28 116 67Q82 106 63 162.5Q44 219 44 293Q44 367 64 424.5Q84 482 120 521Q156 560 206.5 580.5Q257 601 319 601Q480 601 540 459L454 417Q436 470 400 496Q364 522 314 522Q231 522 185.5 460.5Q140 399 140 293Q140 188 182 129Q224 70 309 70Q363 70 400.5 91.5Q438 113 468 162ZM344 782 469 653H372L341 686Q327 700 322 710Q319 715 318 720H315Q314 715 311 710Q309 705 304 699.5Q299 694 292 686L260 653H164L288 782Z" glyph-name="Ccircumflex" horiz-adv-x="563" unicode="&#264;" /><glyph d="M539 110Q519 79 496 56Q473 33 444.5 18Q416 3 381 -4.5Q346 -12 302 -12Q245 -12 197.5 8Q150 28 116 67Q82 106 63 162.5Q44 219 44 293Q44 367 64 424.5Q84 482 120 521Q156 560 206.5 580.5Q257 601 319 601Q480 601 540 459L454 417Q436 470 400 496Q364 522 314 522Q231 522 185.5 460.5Q140 399 140 293Q140 188 182 129Q224 70 309 70Q363 70 400.5 91.5Q438 113 468 162ZM249 713Q249 740 266.5 756.5Q284 773 309 773Q335 773 353 756.5Q371 740 371 713Q371 687 353 670Q335 653 309 653Q284 653 266.5 670Q249 687 249 713Z" glyph-name="Cdotaccent" horiz-adv-x="563" unicode="&#266;" /><glyph d="M254 77Q297 77 334 89Q371 101 397 127.5Q423 154 438 196Q453 238 453 297Q453 359 438 400.5Q423 442 397 466.5Q371 491 336.5 501.5Q302 512 263 512H175V77ZM83 0V589H266Q328 589 380 573Q432 557 470 522.5Q508 488 529 433.5Q550 379 550 301Q550 219 527 162Q504 105 465 69Q426 33 374 16.5Q322 0 263 0Z" glyph-name="D" horiz-adv-x="594" unicode="D" /><glyph d="M254 77Q297 77 334 89Q371 101 397 127.5Q423 154 438 196Q453 238 453 297Q453 359 438 400.5Q423 442 397 466.5Q371 491 336.5 501.5Q302 512 263 512H175V77ZM83 0V589H266Q328 589 380 573Q432 557 470 522.5Q508 488 529 433.5Q550 379 550 301Q550 219 527 162Q504 105 465 69Q426 33 374 16.5Q322 0 263 0ZM236 649 112 778H208L240 745Q255 729 259 720Q262 715 263 711H266Q267 715 270 720Q272 725 276.5 731Q281 737 289 745L320 778H417L292 649Z" glyph-name="Dcaron" horiz-adv-x="594" unicode="&#270;" /><glyph d="M83 0V256H24V334H83V589H266Q328 589 380 573Q432 557 470 522.5Q508 488 529 433.5Q550 379 550 301Q550 219 527 162Q504 105 465 69Q426 33 374 16.5Q322 0 263 0ZM254 77Q297 77 334 89Q371 101 397 127.5Q423 154 438 196Q453 238 453 297Q453 359 438 400.5Q423 442 397 466.5Q371 491 336.5 501.5Q302 512 263 512H175V334H286V256H175V77Z" glyph-name="Dcroat" horiz-adv-x="594" unicode="&#272;" /><glyph d="M446 0H83V589H446V509H175V335H415V255H175V80H446Z" glyph-name="E" horiz-adv-x="496" unicode="E" /><glyph d="M446 0H83V589H446V509H175V335H415V255H175V80H446ZM220 653 283 776H403L302 653Z" glyph-name="Eacute" horiz-adv-x="496" unicode="&#201;" /><glyph d="M446 0H83V589H446V509H175V335H415V255H175V80H446ZM259 650Q193 650 158.5 685.5Q124 721 124 781H195Q197 750 210.5 733Q224 716 259 716Q294 716 308 733Q322 750 324 781H395Q395 721 360 685.5Q325 650 259 650Z" glyph-name="Ebreve" horiz-adv-x="496" unicode="&#276;" /><glyph d="M446 0H83V589H446V509H175V335H415V255H175V80H446ZM234 649 110 778H206L238 745Q253 729 257 720Q260 715 261 711H264Q265 715 268 720Q270 725 274.5 731Q279 737 287 745L318 778H415L290 649Z" glyph-name="Ecaron" horiz-adv-x="496" unicode="&#282;" /><glyph d="M446 0H83V589H446V509H175V335H415V255H175V80H446ZM292 782 417 653H320L289 686Q275 700 270 710Q267 715 266 720H263Q262 715 259 710Q257 705 252 699.5Q247 694 240 686L208 653H112L236 782Z" glyph-name="Ecircumflex" horiz-adv-x="496" unicode="&#202;" /><glyph d="M446 0H83V589H446V509H175V335H415V255H175V80H446ZM106 713Q106 739 123.5 756Q141 773 165 773Q190 773 207.5 756Q225 739 225 713Q225 687 207.5 670.5Q190 654 165 654Q141 654 123.5 670.5Q106 687 106 713ZM302 712Q302 738 319.5 755Q337 772 361 772Q387 772 404 755Q421 738 421 712Q421 687 404 670Q387 653 361 653Q337 653 319.5 670Q302 687 302 712Z" glyph-name="Edieresis" horiz-adv-x="496" unicode="&#203;" /><glyph d="M446 0H83V589H446V509H175V335H415V255H175V80H446ZM199 713Q199 740 216.5 756.5Q234 773 259 773Q285 773 303 756.5Q321 740 321 713Q321 687 303 670Q285 653 259 653Q234 653 216.5 670Q199 687 199 713Z" glyph-name="Edotaccent" horiz-adv-x="496" unicode="&#278;" /><glyph d="M446 0H83V589H446V509H175V335H415V255H175V80H446ZM228 653 128 776H248L311 653Z" glyph-name="Egrave" horiz-adv-x="496" unicode="&#200;" /><glyph d="M446 0H83V589H446V509H175V335H415V255H175V80H446ZM133 674V745H397V674Z" glyph-name="Emacron" horiz-adv-x="496" unicode="&#274;" /><glyph d="M567 -28Q567 -80 551.5 -115Q536 -150 509.5 -171.5Q483 -193 448.5 -202Q414 -211 376 -211Q326 -211 289 -193Q252 -175 226 -149L280 -79Q299 -103 325.5 -118Q352 -133 381 -133Q409 -133 427.5 -124Q446 -115 456.5 -98.5Q467 -82 471 -59Q475 -36 475 -7V0L241 336Q227 356 214.5 376Q202 396 193 413Q182 432 173 450H169Q170 431 172 409Q173 390 174 365Q175 340 175 311V0H83V589H177L409 252Q422 232 434.5 212Q447 192 456 176Q467 157 476 140H480Q478 159 477 181Q476 200 475.5 224.5Q475 249 475 277V589H567Z" glyph-name="Eng" horiz-adv-x="650" unicode="&#330;" /><glyph d="M446 0H428Q380 0 349.5 -23Q319 -46 319 -92Q319 -119 332 -134.5Q345 -150 371 -150Q396 -150 413 -138.5Q430 -127 441 -108L470 -152Q455 -178 427.5 -194.5Q400 -211 355 -211Q304 -211 271.5 -185Q239 -159 239 -106Q239 -65 259 -39.5Q279 -14 309 0H83V589H446V509H175V335H415V255H175V80H446Z" glyph-name="Eogonek" horiz-adv-x="496" unicode="&#280;" /><glyph d="M83 0V256H24V334H83V589H266Q328 589 380 573Q432 557 470 522.5Q508 488 529 433.5Q550 379 550 301Q550 219 527 162Q504 105 465 69Q426 33 374 16.5Q322 0 263 0ZM254 77Q297 77 334 89Q371 101 397 127.5Q423 154 438 196Q453 238 453 297Q453 359 438 400.5Q423 442 397 466.5Q371 491 336.5 501.5Q302 512 263 512H175V334H286V256H175V77Z" glyph-name="Eth" horiz-adv-x="594" unicode="&#208;" /><glyph d="M190 212Q203 144 239 107Q275 70 335 70Q385 70 418 91.5Q451 113 480 162L550 110Q512 48 461 18Q410 -12 328 -12Q234 -12 171.5 45.5Q109 103 91 212H38V263H85V293Q85 301 85 308Q85 315 86 323H38V373H91Q110 484 177 542.5Q244 601 344 601Q494 601 552 459L467 417Q450 470 417 496Q384 522 339 522Q279 522 241.5 482.5Q204 443 190 373H394L384 323H184Q183 315 183 308Q183 301 183 293Q183 285 183 277.5Q183 270 184 263H377L367 212Z" glyph-name="Euro" horiz-adv-x="570" unicode="&#8364;" /><glyph d="M83 0V589H430V509H175V329H399V249H175V0Z" glyph-name="F" horiz-adv-x="461" unicode="F" /><glyph d="M547 304V0H474L462 76Q453 54 436 37.5Q419 21 397.5 10Q376 -1 350.5 -6.5Q325 -12 300 -12Q243 -12 196 7.5Q149 27 115.5 65.5Q82 104 63 160.5Q44 217 44 292Q44 366 64 423.5Q84 481 120 520.5Q156 560 206.5 580.5Q257 601 319 601Q485 601 540 459L454 417Q436 471 399 496.5Q362 522 314 522Q275 522 243 507Q211 492 188 463Q165 434 152.5 391Q140 348 140 292Q140 242 150 200Q160 158 181 128Q202 98 234 81Q266 64 309 64Q339 64 365.5 71Q392 78 412 92.5Q432 107 444 128.5Q456 150 456 180V224H313V304Z" glyph-name="G" horiz-adv-x="610" unicode="G" /><glyph d="M547 304V0H474L462 76Q453 54 436 37.5Q419 21 397.5 10Q376 -1 350.5 -6.5Q325 -12 300 -12Q243 -12 196 7.5Q149 27 115.5 65.5Q82 104 63 160.5Q44 217 44 292Q44 366 64 423.5Q84 481 120 520.5Q156 560 206.5 580.5Q257 601 319 601Q485 601 540 459L454 417Q436 471 399 496.5Q362 522 314 522Q275 522 243 507Q211 492 188 463Q165 434 152.5 391Q140 348 140 292Q140 242 150 200Q160 158 181 128Q202 98 234 81Q266 64 309 64Q339 64 365.5 71Q392 78 412 92.5Q432 107 444 128.5Q456 150 456 180V224H313V304ZM320 650Q254 650 219.5 685.5Q185 721 185 781H256Q258 750 271.5 733Q285 716 320 716Q355 716 369 733Q383 750 385 781H456Q456 721 421 685.5Q386 650 320 650Z" glyph-name="Gbreve" horiz-adv-x="610" unicode="&#286;" /><glyph d="M547 304V0H474L462 76Q453 54 436 37.5Q419 21 397.5 10Q376 -1 350.5 -6.5Q325 -12 300 -12Q243 -12 196 7.5Q149 27 115.5 65.5Q82 104 63 160.5Q44 217 44 292Q44 366 64 423.5Q84 481 120 520.5Q156 560 206.5 580.5Q257 601 319 601Q485 601 540 459L454 417Q436 471 399 496.5Q362 522 314 522Q275 522 243 507Q211 492 188 463Q165 434 152.5 391Q140 348 140 292Q140 242 150 200Q160 158 181 128Q202 98 234 81Q266 64 309 64Q339 64 365.5 71Q392 78 412 92.5Q432 107 444 128.5Q456 150 456 180V224H313V304ZM347 782 472 653H375L344 686Q330 700 325 710Q322 715 321 720H318Q317 715 314 710Q312 705 307 699.5Q302 694 295 686L263 653H167L291 782Z" glyph-name="Gcircumflex" horiz-adv-x="610" unicode="&#284;" /><glyph d="M547 304V0H474L462 76Q453 54 436 37.5Q419 21 397.5 10Q376 -1 350.5 -6.5Q325 -12 300 -12Q243 -12 196 7.5Q149 27 115.5 65.5Q82 104 63 160.5Q44 217 44 292Q44 366 64 423.5Q84 481 120 520.5Q156 560 206.5 580.5Q257 601 319 601Q485 601 540 459L454 417Q436 471 399 496.5Q362 522 314 522Q275 522 243 507Q211 492 188 463Q165 434 152.5 391Q140 348 140 292Q140 242 150 200Q160 158 181 128Q202 98 234 81Q266 64 309 64Q339 64 365.5 71Q392 78 412 92.5Q432 107 444 128.5Q456 150 456 180V224H313V304ZM390 -142Q390 -199 359 -223Q328 -247 269 -247V-210Q298 -208 313.5 -199.5Q329 -191 329 -167Q302 -172 285 -158.5Q268 -145 268 -120Q268 -94 283.5 -80.5Q299 -67 325 -67Q351 -67 370.5 -87Q390 -107 390 -142Z" glyph-name="Gcommaaccent" horiz-adv-x="610" unicode="&#290;" /><glyph d="M547 304V0H474L462 76Q453 54 436 37.5Q419 21 397.5 10Q376 -1 350.5 -6.5Q325 -12 300 -12Q243 -12 196 7.5Q149 27 115.5 65.5Q82 104 63 160.5Q44 217 44 292Q44 366 64 423.5Q84 481 120 520.5Q156 560 206.5 580.5Q257 601 319 601Q485 601 540 459L454 417Q436 471 399 496.5Q362 522 314 522Q275 522 243 507Q211 492 188 463Q165 434 152.5 391Q140 348 140 292Q140 242 150 200Q160 158 181 128Q202 98 234 81Q266 64 309 64Q339 64 365.5 71Q392 78 412 92.5Q432 107 444 128.5Q456 150 456 180V224H313V304ZM259 726Q259 753 276.5 769.5Q294 786 319 786Q345 786 363 769.5Q381 753 381 726Q381 700 363 683Q345 666 319 666Q294 666 276.5 683Q259 700 259 726Z" glyph-name="Gdotaccent" horiz-adv-x="610" unicode="&#288;" /><glyph d="M83 0V589H175V339H456V589H548V0H456V259H175V0Z" glyph-name="H" horiz-adv-x="631" unicode="H" /><glyph d="M13 494H89V589H181V494H461V589H554V494H633V417H554V0H461V257H181V0H89V417H13ZM461 335V417H181V335Z" glyph-name="Hbar" horiz-adv-x="646" unicode="&#294;" /><glyph d="M83 0V589H175V339H456V589H548V0H456V259H175V0ZM343 782 468 653H371L340 686Q326 700 321 710Q318 715 317 720H314Q313 715 310 710Q308 705 303 699.5Q298 694 291 686L259 653H163L287 782Z" glyph-name="Hcircumflex" horiz-adv-x="631" unicode="&#292;" /><glyph d="M175 589V0H83V589Z" glyph-name="I" horiz-adv-x="258" unicode="I" /><glyph d="M175 589V0H83V589ZM85 653 148 776H268L167 653Z" glyph-name="Iacute" horiz-adv-x="258" unicode="&#205;" /><glyph d="M175 589V0H83V589ZM129 650Q63 650 28.5 685.5Q-6 721 -6 781H65Q67 750 80.5 733Q94 716 129 716Q164 716 178 733Q192 750 194 781H265Q265 721 230 685.5Q195 650 129 650Z" glyph-name="Ibreve" horiz-adv-x="258" unicode="&#300;" /><glyph d="M175 589V0H83V589ZM157 782 282 653H185L154 686Q140 700 135 710Q132 715 131 720H128Q127 715 124 710Q122 705 117 699.5Q112 694 105 686L73 653H-23L101 782Z" glyph-name="Icircumflex" horiz-adv-x="258" unicode="&#206;" /><glyph d="M175 589V0H83V589ZM-29 713Q-29 739 -11.5 756Q6 773 30 773Q55 773 72.5 756Q90 739 90 713Q90 687 72.5 670.5Q55 654 30 654Q6 654 -11.5 670.5Q-29 687 -29 713ZM167 712Q167 738 184.5 755Q202 772 226 772Q252 772 269 755Q286 738 286 712Q286 687 269 670Q252 653 226 653Q202 653 184.5 670Q167 687 167 712Z" glyph-name="Idieresis" horiz-adv-x="258" unicode="&#207;" /><glyph d="M175 589V0H83V589ZM68 713Q68 740 85.5 756.5Q103 773 128 773Q154 773 172 756.5Q190 740 190 713Q190 687 172 670Q154 653 128 653Q103 653 85.5 670Q68 687 68 713Z" glyph-name="Idotaccent" horiz-adv-x="258" unicode="&#304;" /><glyph d="M175 589V0H83V589ZM92 653 -8 776H112L175 653Z" glyph-name="Igrave" horiz-adv-x="258" unicode="&#204;" /><glyph d="M175 589V0H83V589ZM-2 674V745H262V674Z" glyph-name="Imacron" horiz-adv-x="258" unicode="&#298;" /><glyph d="M-15 -106Q-15 -80 -6.5 -59.5Q2 -39 15.5 -23.5Q29 -8 47 3Q65 14 83 21V589H175V0Q157 0 137 -5.5Q117 -11 101 -22.5Q85 -34 74.5 -51.5Q64 -69 64 -93Q64 -119 77.5 -134.5Q91 -150 117 -150Q142 -150 159 -138.5Q176 -127 187 -108L216 -152Q200 -178 173 -194.5Q146 -211 101 -211Q50 -211 17.5 -185Q-15 -159 -15 -106Z" glyph-name="Iogonek" horiz-adv-x="258" unicode="&#302;" /><glyph d="M175 589V0H83V589ZM200 653Q177 653 162 660Q147 667 128 677Q108 688 95.5 695Q83 702 68 702Q52 702 43.5 691.5Q35 681 38 655H-17Q-26 679 -25 701.5Q-24 724 -14 742Q-4 760 14.5 770.5Q33 781 57 781Q83 781 100 773.5Q117 766 136 755Q156 742 167 736.5Q178 731 191 731Q205 731 213.5 742Q222 753 220 780H277Q286 754 285 730.5Q284 707 274 690Q264 673 245.5 663Q227 653 200 653Z" glyph-name="Itilde" horiz-adv-x="258" unicode="&#296;" /><glyph d="M373 589V171Q373 120 357.5 85Q342 50 316.5 28.5Q291 7 257.5 -2.5Q224 -12 187 -12Q113 -12 68.5 20.5Q24 53 0 103L72 157Q95 106 120.5 85.5Q146 65 188 65Q216 65 234 74Q252 83 262 99.5Q272 116 276 139.5Q280 163 280 192V589Z" glyph-name="J" horiz-adv-x="437" unicode="J" /><glyph d="M373 589V171Q373 120 357.5 85Q342 50 316.5 28.5Q291 7 257.5 -2.5Q224 -12 187 -12Q113 -12 68.5 20.5Q24 53 0 103L72 157Q95 106 120.5 85.5Q146 65 188 65Q216 65 234 74Q252 83 262 99.5Q272 116 276 139.5Q280 163 280 192V589ZM353 782 478 653H381L350 686Q336 700 331 710Q328 715 327 720H324Q323 715 320 710Q318 705 313 699.5Q308 694 301 686L269 653H173L297 782Z" glyph-name="Jcircumflex" horiz-adv-x="437" unicode="&#308;" /><glyph d="M406 0 221 259H175V0H83V589H175V339H224L396 589H504L299 303L519 0Z" glyph-name="K" horiz-adv-x="537" unicode="K" /><glyph d="M406 0 221 259H175V0H83V589H175V339H224L396 589H504L299 303L519 0ZM330 -142Q330 -199 299 -223Q268 -247 209 -247V-210Q238 -208 253.5 -199.5Q269 -191 269 -167Q242 -172 225 -158.5Q208 -145 208 -120Q208 -94 223.5 -80.5Q239 -67 265 -67Q291 -67 310.5 -87Q330 -107 330 -142Z" glyph-name="Kcommaaccent" horiz-adv-x="537" unicode="&#310;" /><glyph d="M175 589V80H439V0H83V589Z" glyph-name="L" horiz-adv-x="461" unicode="L" /><glyph d="M175 589V80H439V0H83V589ZM93 653 156 776H276L175 653Z" glyph-name="Lacute" horiz-adv-x="461" unicode="&#313;" /><glyph d="M175 589V80H439V0H83V589ZM361 433H295L311 613H413Z" glyph-name="Lcaron" horiz-adv-x="461" unicode="&#317;" /><glyph d="M175 589V80H439V0H83V589ZM332 -142Q332 -199 301 -223Q270 -247 211 -247V-210Q240 -208 255.5 -199.5Q271 -191 271 -167Q244 -172 227 -158.5Q210 -145 210 -120Q210 -94 225.5 -80.5Q241 -67 267 -67Q293 -67 312.5 -87Q332 -107 332 -142Z" glyph-name="Lcommaaccent" horiz-adv-x="461" unicode="&#315;" /><glyph d="M175 589V80H439V0H83V589ZM262 316Q262 345 281.5 364.5Q301 384 330 384Q359 384 378.5 364.5Q398 345 398 316Q398 287 378.5 267.5Q359 248 330 248Q301 248 281.5 267.5Q262 287 262 316Z" glyph-name="Ldot" horiz-adv-x="461" unicode="&#319;" /><glyph d="M30 288 90 310V589H182V344L325 397V323L182 271V80H446V0H90V238L30 217Z" glyph-name="Lslash" horiz-adv-x="468" unicode="&#321;" /><glyph d="M329 144 218 348Q205 372 196.5 390.5Q188 409 183 422Q177 437 174 449H170Q171 438 172 422Q173 408 174 388.5Q175 369 175 343V0H83V589H190L330 317Q338 300 344 286.5Q350 273 354 264Q358 253 360 245H364Q366 253 370 264Q376 283 394 317L533 589H636V0H543V343Q543 395 546 422Q547 438 549 449H545Q542 437 536 422Q525 394 500 348L390 144Z" glyph-name="M" horiz-adv-x="719" unicode="M" /><glyph d="M409 252Q422 232 434.5 212Q447 192 456 176Q467 157 476 140H480Q478 159 477 181Q476 200 475.5 224.5Q475 249 475 277V589H567V0H476L241 336Q227 356 214.5 376Q202 396 193 413Q182 432 173 450H169Q170 431 172 409Q173 390 174 365Q175 340 175 311V0H83V589H177Z" glyph-name="N" horiz-adv-x="650" unicode="N" /><glyph glyph-name="NULL" horiz-adv-x="0" /><glyph d="M409 252Q422 232 434.5 212Q447 192 456 176Q467 157 476 140H480Q478 159 477 181Q476 200 475.5 224.5Q475 249 475 277V589H567V0H476L241 336Q227 356 214.5 376Q202 396 193 413Q182 432 173 450H169Q170 431 172 409Q173 390 174 365Q175 340 175 311V0H83V589H177ZM281 653 344 776H464L363 653Z" glyph-name="Nacute" horiz-adv-x="650" unicode="&#323;" /><glyph d="M409 252Q422 232 434.5 212Q447 192 456 176Q467 157 476 140H480Q478 159 477 181Q476 200 475.5 224.5Q475 249 475 277V589H567V0H476L241 336Q227 356 214.5 376Q202 396 193 413Q182 432 173 450H169Q170 431 172 409Q173 390 174 365Q175 340 175 311V0H83V589H177ZM297 649 173 778H269L301 745Q316 729 320 720Q323 715 324 711H327Q328 715 331 720Q333 725 337.5 731Q342 737 350 745L381 778H478L353 649Z" glyph-name="Ncaron" horiz-adv-x="650" unicode="&#327;" /><glyph d="M409 252Q422 232 434.5 212Q447 192 456 176Q467 157 476 140H480Q478 159 477 181Q476 200 475.5 224.5Q475 249 475 277V589H567V0H476L241 336Q227 356 214.5 376Q202 396 193 413Q182 432 173 450H169Q170 431 172 409Q173 390 174 365Q175 340 175 311V0H83V589H177ZM396 -142Q396 -199 365 -223Q334 -247 275 -247V-210Q304 -208 319.5 -199.5Q335 -191 335 -167Q308 -172 291 -158.5Q274 -145 274 -120Q274 -94 289.5 -80.5Q305 -67 331 -67Q357 -67 376.5 -87Q396 -107 396 -142Z" glyph-name="Ncommaaccent" horiz-adv-x="650" unicode="&#325;" /><glyph d="M409 252Q422 232 434.5 212Q447 192 456 176Q467 157 476 140H480Q478 159 477 181Q476 200 475.5 224.5Q475 249 475 277V589H567V0H476L241 336Q227 356 214.5 376Q202 396 193 413Q182 432 173 450H169Q170 431 172 409Q173 390 174 365Q175 340 175 311V0H83V589H177ZM395 653Q372 653 357 660Q342 667 323 677Q303 688 290.5 695Q278 702 263 702Q247 702 238.5 691.5Q230 681 233 655H178Q169 679 170 701.5Q171 724 181 742Q191 760 209.5 770.5Q228 781 252 781Q278 781 295 773.5Q312 766 331 755Q351 742 362 736.5Q373 731 386 731Q400 731 408.5 742Q417 753 415 780H472Q481 754 480 730.5Q479 707 469 690Q459 673 440.5 663Q422 653 395 653Z" glyph-name="Ntilde" horiz-adv-x="650" unicode="&#209;" /><glyph d="M310 -12Q249 -12 200 8Q151 28 116.5 67Q82 106 63 163Q44 220 44 294Q44 368 63 425Q82 482 116.5 521Q151 560 200 580.5Q249 601 310 601Q371 601 420 580.5Q469 560 503.5 521Q538 482 556.5 425Q575 368 575 294Q575 220 556.5 163Q538 106 503.5 67Q469 28 420 8Q371 -12 310 -12ZM310 520Q226 520 183.5 460Q141 400 141 294Q141 188 183.5 128Q226 68 310 68Q394 68 436 128Q478 188 478 294Q478 400 435.5 460Q393 520 310 520Z" glyph-name="O" horiz-adv-x="619" unicode="O" /><glyph d="M310 -12Q249 -12 200 8Q151 28 116.5 67Q82 106 63 163Q44 220 44 294Q44 368 63 425Q82 482 116.5 521Q151 560 200 580.5Q249 601 310 601Q355 601 396 589H794V509H512Q564 443 573 335H763V255H573Q568 200 553 156Q538 112 512 80H794V0H396Q355 -12 310 -12ZM310 520Q226 520 184.5 460Q143 400 143 294Q143 188 184.5 128Q226 68 310 68Q394 68 435 128Q476 188 476 294Q476 400 434.5 460Q393 520 310 520Z" glyph-name="OE" horiz-adv-x="844" unicode="&#338;" /><glyph d="M310 -12Q249 -12 200 8Q151 28 116.5 67Q82 106 63 163Q44 220 44 294Q44 368 63 425Q82 482 116.5 521Q151 560 200 580.5Q249 601 310 601Q371 601 420 580.5Q469 560 503.5 521Q538 482 556.5 425Q575 368 575 294Q575 220 556.5 163Q538 106 503.5 67Q469 28 420 8Q371 -12 310 -12ZM310 520Q226 520 183.5 460Q141 400 141 294Q141 188 183.5 128Q226 68 310 68Q394 68 436 128Q478 188 478 294Q478 400 435.5 460Q393 520 310 520ZM265 653 328 776H448L347 653Z" glyph-name="Oacute" horiz-adv-x="619" unicode="&#211;" /><glyph d="M310 -12Q249 -12 200 8Q151 28 116.5 67Q82 106 63 163Q44 220 44 294Q44 368 63 425Q82 482 116.5 521Q151 560 200 580.5Q249 601 310 601Q371 601 420 580.5Q469 560 503.5 521Q538 482 556.5 425Q575 368 575 294Q575 220 556.5 163Q538 106 503.5 67Q469 28 420 8Q371 -12 310 -12ZM310 520Q226 520 183.5 460Q141 400 141 294Q141 188 183.5 128Q226 68 310 68Q394 68 436 128Q478 188 478 294Q478 400 435.5 460Q393 520 310 520ZM310 650Q244 650 209.5 685.5Q175 721 175 781H246Q248 750 261.5 733Q275 716 310 716Q345 716 359 733Q373 750 375 781H446Q446 721 411 685.5Q376 650 310 650Z" glyph-name="Obreve" horiz-adv-x="619" unicode="&#334;" /><glyph d="M310 -12Q249 -12 200 8Q151 28 116.5 67Q82 106 63 163Q44 220 44 294Q44 368 63 425Q82 482 116.5 521Q151 560 200 580.5Q249 601 310 601Q371 601 420 580.5Q469 560 503.5 521Q538 482 556.5 425Q575 368 575 294Q575 220 556.5 163Q538 106 503.5 67Q469 28 420 8Q371 -12 310 -12ZM310 520Q226 520 183.5 460Q141 400 141 294Q141 188 183.5 128Q226 68 310 68Q394 68 436 128Q478 188 478 294Q478 400 435.5 460Q393 520 310 520ZM337 782 462 653H365L334 686Q320 700 315 710Q312 715 311 720H308Q307 715 304 710Q302 705 297 699.5Q292 694 285 686L253 653H157L281 782Z" glyph-name="Ocircumflex" horiz-adv-x="619" unicode="&#212;" /><glyph d="M310 -12Q249 -12 200 8Q151 28 116.5 67Q82 106 63 163Q44 220 44 294Q44 368 63 425Q82 482 116.5 521Q151 560 200 580.5Q249 601 310 601Q371 601 420 580.5Q469 560 503.5 521Q538 482 556.5 425Q575 368 575 294Q575 220 556.5 163Q538 106 503.5 67Q469 28 420 8Q371 -12 310 -12ZM310 520Q226 520 183.5 460Q141 400 141 294Q141 188 183.5 128Q226 68 310 68Q394 68 436 128Q478 188 478 294Q478 400 435.5 460Q393 520 310 520ZM151 713Q151 739 168.5 756Q186 773 210 773Q235 773 252.5 756Q270 739 270 713Q270 687 252.5 670.5Q235 654 210 654Q186 654 168.5 670.5Q151 687 151 713ZM347 712Q347 738 364.5 755Q382 772 406 772Q432 772 449 755Q466 738 466 712Q466 687 449 670Q432 653 406 653Q382 653 364.5 670Q347 687 347 712Z" glyph-name="Odieresis" horiz-adv-x="619" unicode="&#214;" /><glyph d="M310 -12Q249 -12 200 8Q151 28 116.5 67Q82 106 63 163Q44 220 44 294Q44 368 63 425Q82 482 116.5 521Q151 560 200 580.5Q249 601 310 601Q371 601 420 580.5Q469 560 503.5 521Q538 482 556.5 425Q575 368 575 294Q575 220 556.5 163Q538 106 503.5 67Q469 28 420 8Q371 -12 310 -12ZM310 520Q226 520 183.5 460Q141 400 141 294Q141 188 183.5 128Q226 68 310 68Q394 68 436 128Q478 188 478 294Q478 400 435.5 460Q393 520 310 520ZM273 653 173 776H293L356 653Z" glyph-name="Ograve" horiz-adv-x="619" unicode="&#210;" /><glyph d="M310 -12Q249 -12 200 8Q151 28 116.5 67Q82 106 63 163Q44 220 44 294Q44 368 63 425Q82 482 116.5 521Q151 560 200 580.5Q249 601 310 601Q371 601 420 580.5Q469 560 503.5 521Q538 482 556.5 425Q575 368 575 294Q575 220 556.5 163Q538 106 503.5 67Q469 28 420 8Q371 -12 310 -12ZM310 520Q226 520 183.5 460Q141 400 141 294Q141 188 183.5 128Q226 68 310 68Q394 68 436 128Q478 188 478 294Q478 400 435.5 460Q393 520 310 520ZM198 653 260 776H369L265 653ZM344 653 418 776H531L415 653Z" glyph-name="Ohungarumlaut" horiz-adv-x="619" unicode="&#336;" /><glyph d="M310 -12Q249 -12 200 8Q151 28 116.5 67Q82 106 63 163Q44 220 44 294Q44 368 63 425Q82 482 116.5 521Q151 560 200 580.5Q249 601 310 601Q371 601 420 580.5Q469 560 503.5 521Q538 482 556.5 425Q575 368 575 294Q575 220 556.5 163Q538 106 503.5 67Q469 28 420 8Q371 -12 310 -12ZM310 520Q226 520 183.5 460Q141 400 141 294Q141 188 183.5 128Q226 68 310 68Q394 68 436 128Q478 188 478 294Q478 400 435.5 460Q393 520 310 520ZM178 674V745H442V674Z" glyph-name="Omacron" horiz-adv-x="619" unicode="&#332;" /><glyph d="M31 26 94 96Q44 172 44 294Q44 368 63 425Q82 482 116.5 521Q151 560 200 580.5Q249 601 310 601Q419 601 488 537L542 597L588 556L527 489Q575 412 575 294Q575 220 556.5 163Q538 106 503.5 67Q469 28 420 8Q371 -12 310 -12Q256 -12 211 3.5Q166 19 132 51L74 -14ZM310 520Q226 520 184.5 460Q143 400 143 294Q143 220 162 172L427 468Q406 493 377 506.5Q348 520 310 520ZM476 294Q476 362 458 412L193 118Q234 68 310 68Q394 68 435 128Q476 188 476 294Z" glyph-name="Oslash" horiz-adv-x="619" unicode="&#216;" /><glyph d="M31 26 94 96Q44 172 44 294Q44 368 63 425Q82 482 116.5 521Q151 560 200 580.5Q249 601 310 601Q419 601 488 537L542 597L588 556L527 489Q575 412 575 294Q575 220 556.5 163Q538 106 503.5 67Q469 28 420 8Q371 -12 310 -12Q256 -12 211 3.5Q166 19 132 51L74 -14ZM310 520Q226 520 184.5 460Q143 400 143 294Q143 220 162 172L427 468Q406 493 377 506.5Q348 520 310 520ZM476 294Q476 362 458 412L193 118Q234 68 310 68Q394 68 435 128Q476 188 476 294ZM265 653 328 776H448L347 653Z" glyph-name="Oslashacute" horiz-adv-x="619" unicode="&#510;" /><glyph d="M310 -12Q249 -12 200 8Q151 28 116.5 67Q82 106 63 163Q44 220 44 294Q44 368 63 425Q82 482 116.5 521Q151 560 200 580.5Q249 601 310 601Q371 601 420 580.5Q469 560 503.5 521Q538 482 556.5 425Q575 368 575 294Q575 220 556.5 163Q538 106 503.5 67Q469 28 420 8Q371 -12 310 -12ZM310 520Q226 520 183.5 460Q141 400 141 294Q141 188 183.5 128Q226 68 310 68Q394 68 436 128Q478 188 478 294Q478 400 435.5 460Q393 520 310 520ZM379 653Q356 653 341 660Q326 667 307 677Q287 688 274.5 695Q262 702 247 702Q231 702 222.5 691.5Q214 681 217 655H162Q153 679 154 701.5Q155 724 165 742Q175 760 193.5 770.5Q212 781 236 781Q262 781 279 773.5Q296 766 315 755Q335 742 346 736.5Q357 731 370 731Q384 731 392.5 742Q401 753 399 780H456Q465 754 464 730.5Q463 707 453 690Q443 673 424.5 663Q406 653 379 653Z" glyph-name="Otilde" horiz-adv-x="619" unicode="&#213;" /><glyph d="M175 292H260Q325 292 349.5 322.5Q374 353 374 403Q374 512 259 512H175ZM83 0V589H261Q371 589 420 541Q469 493 469 408Q469 319 419.5 267.5Q370 216 270 216H175V0Z" glyph-name="P" horiz-adv-x="499" unicode="P" /><glyph d="M486 -149Q437 -150 398.5 -139Q360 -128 331 -109Q302 -90 282.5 -63.5Q263 -37 252 -7Q155 10 99.5 87Q44 164 44 294Q44 368 63 425Q82 482 116.5 521Q151 560 200 580.5Q249 601 310 601Q371 601 420 580.5Q469 560 503.5 521Q538 482 556.5 425Q575 368 575 294Q575 159 514.5 81Q454 3 350 -9Q381 -42 424 -56Q467 -70 515 -66ZM310 520Q226 520 183.5 460Q141 400 141 294Q141 188 183.5 128Q226 68 310 68Q394 68 436 128Q478 188 478 294Q478 400 435.5 460Q393 520 310 520Z" glyph-name="Q" horiz-adv-x="619" unicode="Q" /><glyph d="M414 0Q403 12 397.5 25Q392 38 388 55L364 157Q358 183 348 199Q338 215 324.5 224Q311 233 293.5 236Q276 239 254 239H175V0H83V589H287Q488 589 488 421Q488 386 477 359.5Q466 333 447.5 314.5Q429 296 404.5 286Q380 276 352 275V272Q394 267 418 246.5Q442 226 454 178L484 62Q489 44 496.5 29Q504 14 515 0ZM175 316H283Q392 316 392 414Q392 460 365.5 486Q339 512 284 512H175Z" glyph-name="R" horiz-adv-x="550" unicode="R" /><glyph d="M414 0Q403 12 397.5 25Q392 38 388 55L364 157Q358 183 348 199Q338 215 324.5 224Q311 233 293.5 236Q276 239 254 239H175V0H83V589H287Q488 589 488 421Q488 386 477 359.5Q466 333 447.5 314.5Q429 296 404.5 286Q380 276 352 275V272Q394 267 418 246.5Q442 226 454 178L484 62Q489 44 496.5 29Q504 14 515 0ZM175 316H283Q392 316 392 414Q392 460 365.5 486Q339 512 284 512H175ZM217 653 280 776H400L299 653Z" glyph-name="Racute" horiz-adv-x="550" unicode="&#340;" /><glyph d="M414 0Q403 12 397.5 25Q392 38 388 55L364 157Q358 183 348 199Q338 215 324.5 224Q311 233 293.5 236Q276 239 254 239H175V0H83V589H287Q488 589 488 421Q488 386 477 359.5Q466 333 447.5 314.5Q429 296 404.5 286Q380 276 352 275V272Q394 267 418 246.5Q442 226 454 178L484 62Q489 44 496.5 29Q504 14 515 0ZM175 316H283Q392 316 392 414Q392 460 365.5 486Q339 512 284 512H175ZM233 649 109 778H205L237 745Q252 729 256 720Q259 715 260 711H263Q264 715 267 720Q269 725 273.5 731Q278 737 286 745L317 778H414L289 649Z" glyph-name="Rcaron" horiz-adv-x="550" unicode="&#344;" /><glyph d="M414 0Q403 12 397.5 25Q392 38 388 55L364 157Q358 183 348 199Q338 215 324.5 224Q311 233 293.5 236Q276 239 254 239H175V0H83V589H287Q488 589 488 421Q488 386 477 359.5Q466 333 447.5 314.5Q429 296 404.5 286Q380 276 352 275V272Q394 267 418 246.5Q442 226 454 178L484 62Q489 44 496.5 29Q504 14 515 0ZM175 316H283Q392 316 392 414Q392 460 365.5 486Q339 512 284 512H175ZM332 -142Q332 -199 301 -223Q270 -247 211 -247V-210Q240 -208 255.5 -199.5Q271 -191 271 -167Q244 -172 227 -158.5Q210 -145 210 -120Q210 -94 225.5 -80.5Q241 -67 267 -67Q293 -67 312.5 -87Q332 -107 332 -142Z" glyph-name="Rcommaaccent" horiz-adv-x="550" unicode="&#342;" /><glyph d="M114 164Q123 110 156 84.5Q189 59 237 59Q285 59 314 80Q343 101 343 143Q343 162 337.5 177.5Q332 193 318 205.5Q304 218 280.5 230Q257 242 221 256Q186 268 155 282Q124 296 100.5 316.5Q77 337 63 365.5Q49 394 49 435Q49 481 65.5 513Q82 545 108.5 564.5Q135 584 168.5 593Q202 602 237 602Q277 602 312 593.5Q347 585 373.5 566.5Q400 548 416.5 518.5Q433 489 437 447L346 429Q341 478 312 503Q283 528 238 528Q196 528 169.5 506.5Q143 485 143 443Q143 421 151.5 405.5Q160 390 176.5 378Q193 366 217 355.5Q241 345 272 334Q306 322 336 308Q366 294 388.5 273.5Q411 253 424 224.5Q437 196 437 155Q437 111 421 79.5Q405 48 377 28Q349 8 311.5 -2Q274 -12 232 -12Q144 -12 93 24Q42 60 28 141Z" glyph-name="S" horiz-adv-x="478" unicode="S" /><glyph d="M114 164Q123 110 156 84.5Q189 59 237 59Q285 59 314 80Q343 101 343 143Q343 162 337.5 177.5Q332 193 318 205.5Q304 218 280.5 230Q257 242 221 256Q186 268 155 282Q124 296 100.5 316.5Q77 337 63 365.5Q49 394 49 435Q49 481 65.5 513Q82 545 108.5 564.5Q135 584 168.5 593Q202 602 237 602Q277 602 312 593.5Q347 585 373.5 566.5Q400 548 416.5 518.5Q433 489 437 447L346 429Q341 478 312 503Q283 528 238 528Q196 528 169.5 506.5Q143 485 143 443Q143 421 151.5 405.5Q160 390 176.5 378Q193 366 217 355.5Q241 345 272 334Q306 322 336 308Q366 294 388.5 273.5Q411 253 424 224.5Q437 196 437 155Q437 111 421 79.5Q405 48 377 28Q349 8 311.5 -2Q274 -12 232 -12Q144 -12 93 24Q42 60 28 141ZM200 653 263 776H383L282 653Z" glyph-name="Sacute" horiz-adv-x="478" unicode="&#346;" /><glyph d="M114 164Q123 110 156 84.5Q189 59 237 59Q285 59 314 80Q343 101 343 143Q343 162 337.5 177.5Q332 193 318 205.5Q304 218 280.5 230Q257 242 221 256Q186 268 155 282Q124 296 100.5 316.5Q77 337 63 365.5Q49 394 49 435Q49 481 65.5 513Q82 545 108.5 564.5Q135 584 168.5 593Q202 602 237 602Q277 602 312 593.5Q347 585 373.5 566.5Q400 548 416.5 518.5Q433 489 437 447L346 429Q341 478 312 503Q283 528 238 528Q196 528 169.5 506.5Q143 485 143 443Q143 421 151.5 405.5Q160 390 176.5 378Q193 366 217 355.5Q241 345 272 334Q306 322 336 308Q366 294 388.5 273.5Q411 253 424 224.5Q437 196 437 155Q437 111 421 79.5Q405 48 377 28Q349 8 311.5 -2Q274 -12 232 -12Q144 -12 93 24Q42 60 28 141ZM216 649 92 778H188L220 745Q235 729 239 720Q242 715 243 711H246Q247 715 250 720Q252 725 256.5 731Q261 737 269 745L300 778H397L272 649Z" glyph-name="Scaron" horiz-adv-x="478" unicode="&#352;" /><glyph d="M341 -124Q341 -169 310.5 -190Q280 -211 236 -211Q174 -211 146 -173L170 -122Q195 -158 233 -158Q250 -158 259.5 -149.5Q269 -141 269 -124Q269 -105 253.5 -94Q238 -83 203 -82L208 -11Q131 -6 86 30Q41 66 28 141L114 164Q123 110 156 84.5Q189 59 237 59Q285 59 314 80Q343 101 343 143Q343 162 337.5 177.5Q332 193 318 205.5Q304 218 280.5 230Q257 242 221 256Q186 268 155 282Q124 296 100.5 316.5Q77 337 63 365.5Q49 394 49 435Q49 481 65.5 513Q82 545 108.5 564.5Q135 584 168.5 593Q202 602 237 602Q277 602 312 593.5Q347 585 373.5 566.5Q400 548 416.5 518.5Q433 489 437 447L346 429Q341 478 312 503Q283 528 238 528Q196 528 169.5 506.5Q143 485 143 443Q143 421 151.5 405.5Q160 390 176.5 378Q193 366 217 355.5Q241 345 272 334Q306 322 336 308Q366 294 388.5 273.5Q411 253 424 224.5Q437 196 437 155Q437 114 423 84Q409 54 384.5 34Q360 14 326.5 3Q293 -8 255 -11L253 -41Q300 -45 320.5 -66.5Q341 -88 341 -124Z" glyph-name="Scedilla" horiz-adv-x="478" unicode="&#350;" /><glyph d="M114 164Q123 110 156 84.5Q189 59 237 59Q285 59 314 80Q343 101 343 143Q343 162 337.5 177.5Q332 193 318 205.5Q304 218 280.5 230Q257 242 221 256Q186 268 155 282Q124 296 100.5 316.5Q77 337 63 365.5Q49 394 49 435Q49 481 65.5 513Q82 545 108.5 564.5Q135 584 168.5 593Q202 602 237 602Q277 602 312 593.5Q347 585 373.5 566.5Q400 548 416.5 518.5Q433 489 437 447L346 429Q341 478 312 503Q283 528 238 528Q196 528 169.5 506.5Q143 485 143 443Q143 421 151.5 405.5Q160 390 176.5 378Q193 366 217 355.5Q241 345 272 334Q306 322 336 308Q366 294 388.5 273.5Q411 253 424 224.5Q437 196 437 155Q437 111 421 79.5Q405 48 377 28Q349 8 311.5 -2Q274 -12 232 -12Q144 -12 93 24Q42 60 28 141ZM272 782 397 653H300L269 686Q255 700 250 710Q247 715 246 720H243Q242 715 239 710Q237 705 232 699.5Q227 694 220 686L188 653H92L216 782Z" glyph-name="Scircumflex" horiz-adv-x="478" unicode="&#348;" /><glyph d="M114 164Q123 110 156 84.5Q189 59 237 59Q285 59 314 80Q343 101 343 143Q343 162 337.5 177.5Q332 193 318 205.5Q304 218 280.5 230Q257 242 221 256Q186 268 155 282Q124 296 100.5 316.5Q77 337 63 365.5Q49 394 49 435Q49 481 65.5 513Q82 545 108.5 564.5Q135 584 168.5 593Q202 602 237 602Q277 602 312 593.5Q347 585 373.5 566.5Q400 548 416.5 518.5Q433 489 437 447L346 429Q341 478 312 503Q283 528 238 528Q196 528 169.5 506.5Q143 485 143 443Q143 421 151.5 405.5Q160 390 176.5 378Q193 366 217 355.5Q241 345 272 334Q306 322 336 308Q366 294 388.5 273.5Q411 253 424 224.5Q437 196 437 155Q437 111 421 79.5Q405 48 377 28Q349 8 311.5 -2Q274 -12 232 -12Q144 -12 93 24Q42 60 28 141ZM315 -142Q315 -199 284 -223Q253 -247 194 -247V-210Q223 -208 238.5 -199.5Q254 -191 254 -167Q227 -172 210 -158.5Q193 -145 193 -120Q193 -94 208.5 -80.5Q224 -67 250 -67Q276 -67 295.5 -87Q315 -107 315 -142Z" glyph-name="Scommaaccent" horiz-adv-x="478" unicode="&#536;" /><glyph d="M181 0V509H10V589H446V509H274V0Z" glyph-name="T" horiz-adv-x="456" unicode="T" /><glyph d="M181 0V253H70V329H181V509H10V589H446V509H274V329H388V253H274V0Z" glyph-name="Tbar" horiz-adv-x="456" unicode="&#358;" /><glyph d="M181 0V509H10V589H446V509H274V0ZM200 649 76 778H172L204 745Q219 729 223 720Q226 715 227 711H230Q231 715 234 720Q236 725 240.5 731Q245 737 253 745L284 778H381L256 649Z" glyph-name="Tcaron" horiz-adv-x="456" unicode="&#356;" /><glyph d="M181 0V509H10V589H446V509H274V0ZM287 -142Q287 -199 256 -223Q225 -247 166 -247V-210Q195 -208 210.5 -199.5Q226 -191 226 -167Q199 -172 182 -158.5Q165 -145 165 -120Q165 -94 180.5 -80.5Q196 -67 222 -67Q248 -67 267.5 -87Q287 -107 287 -142Z" glyph-name="Tcommaaccent" horiz-adv-x="456" unicode="&#354;" /><glyph d="M175 197H260Q325 197 349.5 225Q374 253 374 303Q374 406 259 406H175ZM83 0V589H175V484H261Q371 484 420 438.5Q469 393 469 308Q469 219 419.5 170Q370 121 270 121H175V0Z" glyph-name="Thorn" horiz-adv-x="497" unicode="&#222;" /><glyph d="M518 589V193Q518 136 498.5 96.5Q479 57 447.5 33Q416 9 375 -1.5Q334 -12 291 -12Q247 -12 206.5 -1.5Q166 9 134 33Q102 57 83 96.5Q64 136 64 193V589H156V217Q156 137 191 100.5Q226 64 291 64Q355 64 390 100.5Q425 137 425 215V589Z" glyph-name="U" horiz-adv-x="582" unicode="U" /><glyph d="M518 589V193Q518 136 498.5 96.5Q479 57 447.5 33Q416 9 375 -1.5Q334 -12 291 -12Q247 -12 206.5 -1.5Q166 9 134 33Q102 57 83 96.5Q64 136 64 193V589H156V217Q156 137 191 100.5Q226 64 291 64Q355 64 390 100.5Q425 137 425 215V589ZM246 653 309 776H429L328 653Z" glyph-name="Uacute" horiz-adv-x="582" unicode="&#218;" /><glyph d="M518 589V193Q518 136 498.5 96.5Q479 57 447.5 33Q416 9 375 -1.5Q334 -12 291 -12Q247 -12 206.5 -1.5Q166 9 134 33Q102 57 83 96.5Q64 136 64 193V589H156V217Q156 137 191 100.5Q226 64 291 64Q355 64 390 100.5Q425 137 425 215V589ZM290 650Q224 650 189.5 685.5Q155 721 155 781H226Q228 750 241.5 733Q255 716 290 716Q325 716 339 733Q353 750 355 781H426Q426 721 391 685.5Q356 650 290 650Z" glyph-name="Ubreve" horiz-adv-x="582" unicode="&#364;" /><glyph d="M518 589V193Q518 136 498.5 96.5Q479 57 447.5 33Q416 9 375 -1.5Q334 -12 291 -12Q247 -12 206.5 -1.5Q166 9 134 33Q102 57 83 96.5Q64 136 64 193V589H156V217Q156 137 191 100.5Q226 64 291 64Q355 64 390 100.5Q425 137 425 215V589ZM318 782 443 653H346L315 686Q301 700 296 710Q293 715 292 720H289Q288 715 285 710Q283 705 278 699.5Q273 694 266 686L234 653H138L262 782Z" glyph-name="Ucircumflex" horiz-adv-x="582" unicode="&#219;" /><glyph d="M518 589V193Q518 136 498.5 96.5Q479 57 447.5 33Q416 9 375 -1.5Q334 -12 291 -12Q247 -12 206.5 -1.5Q166 9 134 33Q102 57 83 96.5Q64 136 64 193V589H156V217Q156 137 191 100.5Q226 64 291 64Q355 64 390 100.5Q425 137 425 215V589ZM132 713Q132 739 149.5 756Q167 773 191 773Q216 773 233.5 756Q251 739 251 713Q251 687 233.5 670.5Q216 654 191 654Q167 654 149.5 670.5Q132 687 132 713ZM328 712Q328 738 345.5 755Q363 772 387 772Q413 772 430 755Q447 738 447 712Q447 687 430 670Q413 653 387 653Q363 653 345.5 670Q328 687 328 712Z" glyph-name="Udieresis" horiz-adv-x="582" unicode="&#220;" /><glyph d="M518 589V193Q518 136 498.5 96.5Q479 57 447.5 33Q416 9 375 -1.5Q334 -12 291 -12Q247 -12 206.5 -1.5Q166 9 134 33Q102 57 83 96.5Q64 136 64 193V589H156V217Q156 137 191 100.5Q226 64 291 64Q355 64 390 100.5Q425 137 425 215V589ZM254 653 154 776H274L337 653Z" glyph-name="Ugrave" horiz-adv-x="582" unicode="&#217;" /><glyph d="M518 589V193Q518 136 498.5 96.5Q479 57 447.5 33Q416 9 375 -1.5Q334 -12 291 -12Q247 -12 206.5 -1.5Q166 9 134 33Q102 57 83 96.5Q64 136 64 193V589H156V217Q156 137 191 100.5Q226 64 291 64Q355 64 390 100.5Q425 137 425 215V589ZM178 653 240 776H349L245 653ZM324 653 398 776H511L395 653Z" glyph-name="Uhungarumlaut" horiz-adv-x="582" unicode="&#368;" /><glyph d="M518 589V193Q518 136 498.5 96.5Q479 57 447.5 33Q416 9 375 -1.5Q334 -12 291 -12Q247 -12 206.5 -1.5Q166 9 134 33Q102 57 83 96.5Q64 136 64 193V589H156V217Q156 137 191 100.5Q226 64 291 64Q355 64 390 100.5Q425 137 425 215V589ZM159 674V745H423V674Z" glyph-name="Umacron" horiz-adv-x="582" unicode="&#362;" /><glyph d="M186 -106Q186 -73 199.5 -48.5Q213 -24 233 -7Q198 -1 167.5 13Q137 27 114 51Q91 75 77.5 110Q64 145 64 193V589H156V217Q156 137 191 100.5Q226 64 291 64Q355 64 390 100.5Q425 137 425 215V589H518V193Q518 141 502 104Q486 67 459.5 43Q433 19 398 6Q363 -7 324 -10Q300 -21 283 -41Q266 -61 266 -93Q266 -119 279 -134.5Q292 -150 318 -150Q343 -150 360 -138.5Q377 -127 388 -108L417 -152Q402 -178 374.5 -194.5Q347 -211 302 -211Q251 -211 218.5 -185Q186 -159 186 -106Z" glyph-name="Uogonek" horiz-adv-x="582" unicode="&#370;" /><glyph d="M518 589V193Q518 136 498.5 96.5Q479 57 447.5 33Q416 9 375 -1.5Q334 -12 291 -12Q247 -12 206.5 -1.5Q166 9 134 33Q102 57 83 96.5Q64 136 64 193V589H156V217Q156 137 191 100.5Q226 64 291 64Q355 64 390 100.5Q425 137 425 215V589ZM299 635Q249 635 222.5 664Q196 693 196 735Q196 774 224 803Q252 832 299 832Q346 832 374 803Q402 774 402 735Q402 693 375.5 664Q349 635 299 635ZM299 790Q273 790 258.5 774Q244 758 244 733Q244 710 258 695Q272 680 299 680Q326 680 340 695Q354 710 354 733Q354 758 339.5 774Q325 790 299 790Z" glyph-name="Uring" horiz-adv-x="582" unicode="&#366;" /><glyph d="M518 589V193Q518 136 498.5 96.5Q479 57 447.5 33Q416 9 375 -1.5Q334 -12 291 -12Q247 -12 206.5 -1.5Q166 9 134 33Q102 57 83 96.5Q64 136 64 193V589H156V217Q156 137 191 100.5Q226 64 291 64Q355 64 390 100.5Q425 137 425 215V589ZM360 653Q337 653 322 660Q307 667 288 677Q268 688 255.5 695Q243 702 228 702Q212 702 203.5 691.5Q195 681 198 655H143Q134 679 135 701.5Q136 724 146 742Q156 760 174.5 770.5Q193 781 217 781Q243 781 260 773.5Q277 766 296 755Q316 742 327 736.5Q338 731 351 731Q365 731 373.5 742Q382 753 380 780H437Q446 754 445 730.5Q444 707 434 690Q424 673 405.5 663Q387 653 360 653Z" glyph-name="Utilde" horiz-adv-x="582" unicode="&#360;" /><glyph d="M227 216Q238 182 244.5 155Q251 128 256 108Q261 85 265 67H269Q272 85 276 108Q280 128 286.5 154.5Q293 181 304 215L422 589H519L324 0H203L10 589H109Z" glyph-name="V" horiz-adv-x="529" unicode="V" /><glyph d="M562 220Q570 185 576.5 156Q583 127 587 106Q591 81 594 61H598Q601 81 605 106Q609 127 614.5 156Q620 185 628 219L721 589H814L661 0H530L440 347Q431 381 425.5 410Q420 439 418 460Q415 485 415 505H411Q410 485 406 460Q403 439 397.5 410.5Q392 382 384 347L295 0H164L12 589H110L202 222Q210 187 216 158Q222 129 226 107Q230 81 233 61H237Q239 81 243 107Q247 129 253 157.5Q259 186 268 221L363 589H470Z" glyph-name="W" horiz-adv-x="826" unicode="W" /><glyph d="M562 220Q570 185 576.5 156Q583 127 587 106Q591 81 594 61H598Q601 81 605 106Q609 127 614.5 156Q620 185 628 219L721 589H814L661 0H530L440 347Q431 381 425.5 410Q420 439 418 460Q415 485 415 505H411Q410 485 406 460Q403 439 397.5 410.5Q392 382 384 347L295 0H164L12 589H110L202 222Q210 187 216 158Q222 129 226 107Q230 81 233 61H237Q239 81 243 107Q247 129 253 157.5Q259 186 268 221L363 589H470ZM368 653 431 776H551L450 653Z" glyph-name="Wacute" horiz-adv-x="826" unicode="&#7810;" /><glyph d="M562 220Q570 185 576.5 156Q583 127 587 106Q591 81 594 61H598Q601 81 605 106Q609 127 614.5 156Q620 185 628 219L721 589H814L661 0H530L440 347Q431 381 425.5 410Q420 439 418 460Q415 485 415 505H411Q410 485 406 460Q403 439 397.5 410.5Q392 382 384 347L295 0H164L12 589H110L202 222Q210 187 216 158Q222 129 226 107Q230 81 233 61H237Q239 81 243 107Q247 129 253 157.5Q259 186 268 221L363 589H470ZM441 782 566 653H469L438 686Q424 700 419 710Q416 715 415 720H412Q411 715 408 710Q406 705 401 699.5Q396 694 389 686L357 653H261L385 782Z" glyph-name="Wcircumflex" horiz-adv-x="826" unicode="&#372;" /><glyph d="M562 220Q570 185 576.5 156Q583 127 587 106Q591 81 594 61H598Q601 81 605 106Q609 127 614.5 156Q620 185 628 219L721 589H814L661 0H530L440 347Q431 381 425.5 410Q420 439 418 460Q415 485 415 505H411Q410 485 406 460Q403 439 397.5 410.5Q392 382 384 347L295 0H164L12 589H110L202 222Q210 187 216 158Q222 129 226 107Q230 81 233 61H237Q239 81 243 107Q247 129 253 157.5Q259 186 268 221L363 589H470ZM254 713Q254 739 271.5 756Q289 773 313 773Q338 773 355.5 756Q373 739 373 713Q373 687 355.5 670.5Q338 654 313 654Q289 654 271.5 670.5Q254 687 254 713ZM450 712Q450 738 467.5 755Q485 772 509 772Q535 772 552 755Q569 738 569 712Q569 687 552 670Q535 653 509 653Q485 653 467.5 670Q450 687 450 712Z" glyph-name="Wdieresis" horiz-adv-x="826" unicode="&#7812;" /><glyph d="M562 220Q570 185 576.5 156Q583 127 587 106Q591 81 594 61H598Q601 81 605 106Q609 127 614.5 156Q620 185 628 219L721 589H814L661 0H530L440 347Q431 381 425.5 410Q420 439 418 460Q415 485 415 505H411Q410 485 406 460Q403 439 397.5 410.5Q392 382 384 347L295 0H164L12 589H110L202 222Q210 187 216 158Q222 129 226 107Q230 81 233 61H237Q239 81 243 107Q247 129 253 157.5Q259 186 268 221L363 589H470ZM376 653 276 776H396L459 653Z" glyph-name="Wgrave" horiz-adv-x="826" unicode="&#7808;" /><glyph d="M309 165Q294 186 286 200.5Q278 215 273 223Q268 233 267 239H263Q261 234 256 224Q251 216 242.5 201Q234 186 220 164L114 0H10L213 298L20 589H128L222 440Q238 415 246.5 400Q255 385 260 376Q265 365 266 361H269Q270 365 275 376Q283 393 312 440L405 589H506L319 306L522 0H418Z" glyph-name="X" horiz-adv-x="532" unicode="X" /><glyph d="M207 402Q220 376 227.5 358Q235 340 240 327Q245 312 248 302H252Q254 312 259 327Q266 351 290 402L377 589H474L294 223V0H202V223L10 589H115Z" glyph-name="Y" horiz-adv-x="484" unicode="Y" /><glyph d="M207 402Q220 376 227.5 358Q235 340 240 327Q245 312 248 302H252Q254 312 259 327Q266 351 290 402L377 589H474L294 223V0H202V223L10 589H115ZM198 653 261 776H381L280 653Z" glyph-name="Yacute" horiz-adv-x="484" unicode="&#221;" /><glyph d="M207 402Q220 376 227.5 358Q235 340 240 327Q245 312 248 302H252Q254 312 259 327Q266 351 290 402L377 589H474L294 223V0H202V223L10 589H115ZM270 782 395 653H298L267 686Q253 700 248 710Q245 715 244 720H241Q240 715 237 710Q235 705 230 699.5Q225 694 218 686L186 653H90L214 782Z" glyph-name="Ycircumflex" horiz-adv-x="484" unicode="&#374;" /><glyph d="M207 402Q220 376 227.5 358Q235 340 240 327Q245 312 248 302H252Q254 312 259 327Q266 351 290 402L377 589H474L294 223V0H202V223L10 589H115ZM84 713Q84 739 101.5 756Q119 773 143 773Q168 773 185.5 756Q203 739 203 713Q203 687 185.5 670.5Q168 654 143 654Q119 654 101.5 670.5Q84 687 84 713ZM280 712Q280 738 297.5 755Q315 772 339 772Q365 772 382 755Q399 738 399 712Q399 687 382 670Q365 653 339 653Q315 653 297.5 670Q280 687 280 712Z" glyph-name="Ydieresis" horiz-adv-x="484" unicode="&#376;" /><glyph d="M207 402Q220 376 227.5 358Q235 340 240 327Q245 312 248 302H252Q254 312 259 327Q266 351 290 402L377 589H474L294 223V0H202V223L10 589H115ZM205 653 105 776H225L288 653Z" glyph-name="Ygrave" horiz-adv-x="484" unicode="&#7922;" /><glyph d="M196 154Q183 135 173 121.5Q163 108 155 99Q146 88 139 81V77Q147 77 159 78Q170 79 186 79.5Q202 80 225 80H453V0H22V55L275 435Q287 453 297 467Q307 481 315 490Q324 501 332 508V512Q323 511 311 510Q300 509 284.5 509Q269 509 246 509H34V589H448V527Z" glyph-name="Z" horiz-adv-x="475" unicode="Z" /><glyph d="M196 154Q183 135 173 121.5Q163 108 155 99Q146 88 139 81V77Q147 77 159 78Q170 79 186 79.5Q202 80 225 80H453V0H22V55L275 435Q287 453 297 467Q307 481 315 490Q324 501 332 508V512Q323 511 311 510Q300 509 284.5 509Q269 509 246 509H34V589H448V527ZM193 653 256 776H376L275 653Z" glyph-name="Zacute" horiz-adv-x="475" unicode="&#377;" /><glyph d="M196 154Q183 135 173 121.5Q163 108 155 99Q146 88 139 81V77Q147 77 159 78Q170 79 186 79.5Q202 80 225 80H453V0H22V55L275 435Q287 453 297 467Q307 481 315 490Q324 501 332 508V512Q323 511 311 510Q300 509 284.5 509Q269 509 246 509H34V589H448V527ZM209 649 85 778H181L213 745Q228 729 232 720Q235 715 236 711H239Q240 715 243 720Q245 725 249.5 731Q254 737 262 745L293 778H390L265 649Z" glyph-name="Zcaron" horiz-adv-x="475" unicode="&#381;" /><glyph d="M196 154Q183 135 173 121.5Q163 108 155 99Q146 88 139 81V77Q147 77 159 78Q170 79 186 79.5Q202 80 225 80H453V0H22V55L275 435Q287 453 297 467Q307 481 315 490Q324 501 332 508V512Q323 511 311 510Q300 509 284.5 509Q269 509 246 509H34V589H448V527ZM176 727Q176 754 193.5 770.5Q211 787 236 787Q262 787 280 770.5Q298 754 298 727Q298 701 280 684Q262 667 236 667Q211 667 193.5 684Q176 701 176 727Z" glyph-name="Zdotaccent" horiz-adv-x="475" unicode="&#379;" /><glyph d="M305 206Q211 208 169 187.5Q127 167 127 123Q127 94 145.5 75Q164 56 201 56Q219 56 237.5 61.5Q256 67 271 77.5Q286 88 295.5 103.5Q305 119 305 139ZM396 109Q396 83 406 74.5Q416 66 430 66Q444 66 456 71V1Q435 -7 407 -7Q367 -7 342.5 10.5Q318 28 312 67Q294 23 257 5.5Q220 -12 175 -12Q114 -12 75.5 20.5Q37 53 37 113Q37 151 52.5 181Q68 211 100.5 230.5Q133 250 183.5 259Q234 268 305 265V322Q305 365 282 383Q259 401 222 401Q184 401 162.5 382Q141 363 138 327L52 340Q55 377 71 402Q87 427 111.5 443Q136 459 167 466Q198 473 230 473Q264 473 294 465.5Q324 458 346.5 441.5Q369 425 382.5 398Q396 371 396 331Z" glyph-name="a" horiz-adv-x="479" unicode="a" /><glyph d="M305 206Q211 208 169 187.5Q127 167 127 123Q127 94 145.5 75Q164 56 201 56Q219 56 237.5 61.5Q256 67 271 77.5Q286 88 295.5 103.5Q305 119 305 139ZM396 109Q396 83 406 74.5Q416 66 430 66Q444 66 456 71V1Q435 -7 407 -7Q367 -7 342.5 10.5Q318 28 312 67Q294 23 257 5.5Q220 -12 175 -12Q114 -12 75.5 20.5Q37 53 37 113Q37 151 52.5 181Q68 211 100.5 230.5Q133 250 183.5 259Q234 268 305 265V322Q305 365 282 383Q259 401 222 401Q184 401 162.5 382Q141 363 138 327L52 340Q55 377 71 402Q87 427 111.5 443Q136 459 167 466Q198 473 230 473Q264 473 294 465.5Q324 458 346.5 441.5Q369 425 382.5 398Q396 371 396 331ZM185 529 259 675H380L264 529Z" glyph-name="aacute" horiz-adv-x="479" unicode="&#225;" /><glyph d="M305 206Q211 208 169 187.5Q127 167 127 123Q127 94 145.5 75Q164 56 201 56Q219 56 237.5 61.5Q256 67 271 77.5Q286 88 295.5 103.5Q305 119 305 139ZM396 109Q396 83 406 74.5Q416 66 430 66Q444 66 456 71V1Q435 -7 407 -7Q367 -7 342.5 10.5Q318 28 312 67Q294 23 257 5.5Q220 -12 175 -12Q114 -12 75.5 20.5Q37 53 37 113Q37 151 52.5 181Q68 211 100.5 230.5Q133 250 183.5 259Q234 268 305 265V322Q305 365 282 383Q259 401 222 401Q184 401 162.5 382Q141 363 138 327L52 340Q55 377 71 402Q87 427 111.5 443Q136 459 167 466Q198 473 230 473Q264 473 294 465.5Q324 458 346.5 441.5Q369 425 382.5 398Q396 371 396 331ZM232 526Q166 526 131 565Q96 604 96 667H167Q169 634 181.5 613.5Q194 593 232 593Q269 593 282 613.5Q295 634 297 667H368Q368 604 333 565Q298 526 232 526Z" glyph-name="abreve" horiz-adv-x="479" unicode="&#259;" /><glyph d="M305 206Q211 208 169 187.5Q127 167 127 123Q127 94 145.5 75Q164 56 201 56Q219 56 237.5 61.5Q256 67 271 77.5Q286 88 295.5 103.5Q305 119 305 139ZM396 109Q396 83 406 74.5Q416 66 430 66Q444 66 456 71V1Q435 -7 407 -7Q367 -7 342.5 10.5Q318 28 312 67Q294 23 257 5.5Q220 -12 175 -12Q114 -12 75.5 20.5Q37 53 37 113Q37 151 52.5 181Q68 211 100.5 230.5Q133 250 183.5 259Q234 268 305 265V322Q305 365 282 383Q259 401 222 401Q184 401 162.5 382Q141 363 138 327L52 340Q55 377 71 402Q87 427 111.5 443Q136 459 167 466Q198 473 230 473Q264 473 294 465.5Q324 458 346.5 441.5Q369 425 382.5 398Q396 371 396 331ZM258 675 383 528H291L257 570Q249 578 244.5 585.5Q240 593 238 598Q235 604 234 608H229Q228 604 225 598Q221 588 206 570L172 528H80L205 675Z" glyph-name="acircumflex" horiz-adv-x="479" unicode="&#226;" /><glyph d="M83 529 157 675H278L162 529Z" glyph-name="acute" horiz-adv-x="358" unicode="&#180;" /><glyph d="M80 653 143 776H263L162 653Z" glyph-name="acute.cap" horiz-adv-x="343" unicode="&#58402;" /><glyph d="M305 206Q211 208 169 187.5Q127 167 127 123Q127 94 145.5 75Q164 56 201 56Q219 56 237.5 61.5Q256 67 271 77.5Q286 88 295.5 103.5Q305 119 305 139ZM396 109Q396 83 406 74.5Q416 66 430 66Q444 66 456 71V1Q435 -7 407 -7Q367 -7 342.5 10.5Q318 28 312 67Q294 23 257 5.5Q220 -12 175 -12Q114 -12 75.5 20.5Q37 53 37 113Q37 151 52.5 181Q68 211 100.5 230.5Q133 250 183.5 259Q234 268 305 265V322Q305 365 282 383Q259 401 222 401Q184 401 162.5 382Q141 363 138 327L52 340Q55 377 71 402Q87 427 111.5 443Q136 459 167 466Q198 473 230 473Q264 473 294 465.5Q324 458 346.5 441.5Q369 425 382.5 398Q396 371 396 331ZM74 595Q74 621 91.5 638Q109 655 133 655Q158 655 175.5 638Q193 621 193 595Q193 569 175.5 552.5Q158 536 133 536Q109 536 91.5 552.5Q74 569 74 595ZM270 594Q270 620 287.5 637Q305 654 329 654Q355 654 372 637Q389 620 389 594Q389 569 372 552Q355 535 329 535Q305 535 287.5 552Q270 569 270 594Z" glyph-name="adieresis" horiz-adv-x="479" unicode="&#228;" /><glyph d="M514 59Q552 59 578 75.5Q604 92 616 134L694 113Q687 78 670 54Q653 30 628 15.5Q603 1 572.5 -5.5Q542 -12 509 -12Q456 -12 414.5 8.5Q373 29 346 68Q330 29 287 8.5Q244 -12 187 -12Q119 -12 78 20Q37 52 37 118Q37 196 102 235Q167 274 306 275Q308 290 311 304Q314 318 319 332Q314 368 288 384.5Q262 401 229 401Q191 401 166 382Q141 363 138 327L52 340Q55 377 71 402Q87 427 111.5 443Q136 459 166.5 466Q197 473 229 473Q273 473 309 459Q345 445 365 413Q422 473 514 473Q559 473 593 458Q627 443 650.5 416.5Q674 390 685.5 353.5Q697 317 697 274Q697 255 695 238.5Q693 222 689 211H390Q394 142 425 100.5Q456 59 514 59ZM609 275Q610 281 610 285.5Q610 290 610 295Q610 340 583 371Q556 402 509 402Q458 402 429 368.5Q400 335 393 275ZM201 56Q242 56 275 77Q308 98 314 139Q306 170 304 212Q216 211 171.5 191Q127 171 127 123Q127 94 145.5 75Q164 56 201 56Z" glyph-name="ae" horiz-adv-x="740" unicode="&#230;" /><glyph d="M500 61Q538 61 563.5 77Q589 93 601 135L680 113Q673 78 655.5 54Q638 30 613.5 15.5Q589 1 558.5 -5.5Q528 -12 495 -12Q388 -12 333 67Q312 30 274.5 9Q237 -12 180 -12Q116 -12 76.5 20.5Q37 53 37 113Q37 188 97 230Q157 272 291 273Q296 308 306 338Q301 372 278.5 386.5Q256 401 223 401Q144 401 138 327L53 340Q56 377 72 402Q88 427 112.5 443Q137 459 168 466Q199 473 231 473Q272 473 305 460.5Q338 448 359 421Q385 446 421 459.5Q457 473 500 473Q545 473 579 458Q613 443 636 416.5Q659 390 670.5 353Q682 316 683 273Q683 258 681.5 241.5Q680 225 677 211H379Q382 145 412 103Q442 61 500 61ZM593 273Q594 278 594 284.5Q594 291 594 296Q594 341 568 371.5Q542 402 496 402Q445 402 416.5 367.5Q388 333 381 273ZM197 57Q234 57 262 75.5Q290 94 304 126Q291 162 289 211Q202 210 165.5 190Q129 170 129 124Q129 95 147 76Q165 57 197 57ZM310 529 384 675H505L389 529Z" glyph-name="aeacute" horiz-adv-x="725" unicode="&#509;" /><glyph d="M305 206Q211 208 169 187.5Q127 167 127 123Q127 94 145.5 75Q164 56 201 56Q219 56 237.5 61.5Q256 67 271 77.5Q286 88 295.5 103.5Q305 119 305 139ZM396 109Q396 83 406 74.5Q416 66 430 66Q444 66 456 71V1Q435 -7 407 -7Q367 -7 342.5 10.5Q318 28 312 67Q294 23 257 5.5Q220 -12 175 -12Q114 -12 75.5 20.5Q37 53 37 113Q37 151 52.5 181Q68 211 100.5 230.5Q133 250 183.5 259Q234 268 305 265V322Q305 365 282 383Q259 401 222 401Q184 401 162.5 382Q141 363 138 327L52 340Q55 377 71 402Q87 427 111.5 443Q136 459 167 466Q198 473 230 473Q264 473 294 465.5Q324 458 346.5 441.5Q369 425 382.5 398Q396 371 396 331ZM200 529 85 675H206L280 529Z" glyph-name="agrave" horiz-adv-x="479" unicode="&#224;" /><glyph d="M305 206Q211 208 169 187.5Q127 167 127 123Q127 94 145.5 75Q164 56 201 56Q219 56 237.5 61.5Q256 67 271 77.5Q286 88 295.5 103.5Q305 119 305 139ZM396 109Q396 83 406 74.5Q416 66 430 66Q444 66 456 71V1Q435 -7 407 -7Q367 -7 342.5 10.5Q318 28 312 67Q294 23 257 5.5Q220 -12 175 -12Q114 -12 75.5 20.5Q37 53 37 113Q37 151 52.5 181Q68 211 100.5 230.5Q133 250 183.5 259Q234 268 305 265V322Q305 365 282 383Q259 401 222 401Q184 401 162.5 382Q141 363 138 327L52 340Q55 377 71 402Q87 427 111.5 443Q136 459 167 466Q198 473 230 473Q264 473 294 465.5Q324 458 346.5 441.5Q369 425 382.5 398Q396 371 396 331ZM99 558V631H361V558Z" glyph-name="amacron" horiz-adv-x="479" unicode="&#257;" /><glyph d="M479 -13 406 64Q368 26 318.5 7Q269 -12 210 -12Q170 -12 136 -3Q102 6 76.5 25.5Q51 45 36.5 74.5Q22 104 22 145Q22 202 53.5 246Q85 290 156 316L130 343Q110 364 92 393.5Q74 423 74 465Q74 529 118.5 565Q163 601 234 601Q306 601 350 564.5Q394 528 394 466Q394 412 365.5 375.5Q337 339 276 314L404 183Q414 203 420 232.5Q426 262 427 294L506 272Q501 235 490 196.5Q479 158 459 129L543 46ZM112 151Q112 107 142 82Q172 57 216 57Q262 57 296.5 72Q331 87 356 114L199 273Q157 254 134.5 227Q112 200 112 151ZM234 537Q200 537 180 518.5Q160 500 160 469Q160 447 170.5 429Q181 411 201 390L235 355Q277 374 293 400Q309 426 309 463Q309 498 290 517.5Q271 537 234 537Z" glyph-name="ampersand" horiz-adv-x="552" unicode="&amp;" /><glyph d="M241 -106Q241 -82 249.5 -62Q258 -42 272 -27Q286 -12 303.5 -1.5Q321 9 338 16Q315 32 312 67Q295 26 257 7Q219 -12 175 -12Q114 -12 75.5 20.5Q37 53 37 113Q37 151 52.5 181Q68 211 100.5 230.5Q133 250 183.5 259Q234 268 305 265V322Q305 365 282 383Q259 401 222 401Q184 401 162.5 382Q141 363 138 327L52 340Q55 377 71 402Q87 427 111.5 443Q136 459 167 466Q198 473 230 473Q264 473 294 465.5Q324 458 346.5 441.5Q369 425 382.5 398Q396 371 396 331V109Q396 83 406 74.5Q416 66 430 66Q444 66 456 71V1Q435 -1 411.5 -6Q388 -11 367.5 -21.5Q347 -32 333.5 -49.5Q320 -67 320 -93Q320 -119 333.5 -134.5Q347 -150 373 -150Q397 -150 414 -138.5Q431 -127 443 -108L472 -152Q456 -178 429 -194.5Q402 -211 357 -211Q306 -211 273.5 -185Q241 -159 241 -106ZM305 206Q211 208 169 187.5Q127 167 127 123Q127 94 145.5 75Q164 56 201 56Q219 56 237.5 61.5Q256 67 271 77.5Q286 88 295.5 103.5Q305 119 305 139Z" glyph-name="aogonek" horiz-adv-x="479" unicode="&#261;" /><glyph d="M361 252Q333 252 305 259.5Q277 267 249 276Q221 285 193.5 292.5Q166 300 141 300Q86 300 45 253V308Q64 333 89.5 343Q115 353 140 353Q167 353 195 345.5Q223 338 251.5 329.5Q280 321 308 313.5Q336 306 362 306Q384 306 408.5 317Q433 328 453 351V288Q420 252 361 252ZM361 134Q333 134 305 141.5Q277 149 249 158.5Q221 168 193.5 175.5Q166 183 141 183Q87 183 45 134V191Q64 214 89.5 225Q115 236 140 236Q167 236 195 228.5Q223 221 251.5 211.5Q280 202 308 194.5Q336 187 362 187Q384 187 408.5 198.5Q433 210 453 233V170Q420 134 361 134Z" glyph-name="approxequal" horiz-adv-x="498" unicode="&#8776;" /><glyph d="M305 206Q211 208 169 187.5Q127 167 127 123Q127 94 145.5 75Q164 56 201 56Q219 56 237.5 61.5Q256 67 271 77.5Q286 88 295.5 103.5Q305 119 305 139ZM396 109Q396 83 406 74.5Q416 66 430 66Q444 66 456 71V1Q435 -7 407 -7Q367 -7 342.5 10.5Q318 28 312 67Q294 23 257 5.5Q220 -12 175 -12Q114 -12 75.5 20.5Q37 53 37 113Q37 151 52.5 181Q68 211 100.5 230.5Q133 250 183.5 259Q234 268 305 265V322Q305 365 282 383Q259 401 222 401Q184 401 162.5 382Q141 363 138 327L52 340Q55 377 71 402Q87 427 111.5 443Q136 459 167 466Q198 473 230 473Q264 473 294 465.5Q324 458 346.5 441.5Q369 425 382.5 398Q396 371 396 331ZM231 520Q181 520 154.5 549Q128 578 128 620Q128 659 156 687.5Q184 716 231 716Q278 716 306 687.5Q334 659 334 620Q334 578 307.5 549Q281 520 231 520ZM231 674Q205 674 190.5 658.5Q176 643 176 618Q176 595 190 580Q204 565 231 565Q258 565 272 580Q286 595 286 618Q286 643 271.5 658.5Q257 674 231 674Z" glyph-name="aring" horiz-adv-x="479" unicode="&#229;" /><glyph d="M303 481Q286 514 277 537Q268 560 263 575Q258 593 256 604H252Q250 594 245 576Q240 561 230.5 537.5Q221 514 204 482L120 321H30L217 668H291L477 321H384Z" glyph-name="asciicircum" horiz-adv-x="507" unicode="^" /><glyph d="M306 198Q283 198 268 204.5Q253 211 234 221Q214 233 201.5 239.5Q189 246 174 246Q158 246 149.5 235.5Q141 225 144 199H89Q80 223 81 246Q82 269 92 286.5Q102 304 120.5 314.5Q139 325 163 325Q189 325 206 317.5Q223 310 242 299Q262 287 273 281.5Q284 276 297 276Q311 276 319.5 286.5Q328 297 326 325H383Q392 299 391 275.5Q390 252 380 235Q370 218 351.5 208Q333 198 306 198Z" glyph-name="asciitilde" horiz-adv-x="472" unicode="~" /><glyph d="M208 491 298 535 321 466 220 449 292 372 231 329 183 419 135 328 76 373 147 449 45 466 69 534 159 491 146 591H221Z" glyph-name="asterisk" horiz-adv-x="366" unicode="*" /><glyph d="M528 246Q528 271 519 289.5Q510 308 496 320Q482 332 465.5 337.5Q449 343 433 343Q412 343 393.5 335Q375 327 360.5 309.5Q346 292 338 263.5Q330 235 330 194Q330 127 357.5 92Q385 57 432 57Q448 57 465 63Q482 69 496 81.5Q510 94 519 113Q528 132 528 159ZM611 97Q611 67 622 55.5Q633 44 653 44Q682 44 703 60Q724 76 737.5 104.5Q751 133 757.5 172Q764 211 764 257Q764 329 738.5 381.5Q713 434 670 468.5Q627 503 570.5 520Q514 537 453 537Q388 537 327.5 516.5Q267 496 220.5 454Q174 412 145.5 348.5Q117 285 117 199Q117 110 145.5 46Q174 -18 223.5 -59.5Q273 -101 339 -121Q405 -141 479 -141Q527 -141 571.5 -134.5Q616 -128 663 -111L678 -170Q632 -185 582 -193Q532 -201 478 -201Q392 -201 313.5 -179Q235 -157 175.5 -109Q116 -61 80.5 15Q45 91 45 199Q45 286 74 359Q103 432 156.5 484.5Q210 537 286 566.5Q362 596 456 596Q551 596 622 569Q693 542 740 496.5Q787 451 810.5 390Q834 329 834 261Q834 199 823.5 148.5Q813 98 789.5 62.5Q766 27 729.5 7.5Q693 -12 641 -12Q597 -12 566 6Q535 24 530 71Q513 23 479.5 5.5Q446 -12 401 -12Q370 -12 341.5 0.5Q313 13 291 38.5Q269 64 256 102Q243 140 243 191Q243 294 289 351Q335 408 422 408Q464 408 493 390.5Q522 373 532 347L557 399H611Z" glyph-name="at" horiz-adv-x="885" unicode="@" /><glyph d="M305 206Q211 208 169 187.5Q127 167 127 123Q127 94 145.5 75Q164 56 201 56Q219 56 237.5 61.5Q256 67 271 77.5Q286 88 295.5 103.5Q305 119 305 139ZM396 109Q396 83 406 74.5Q416 66 430 66Q444 66 456 71V1Q435 -7 407 -7Q367 -7 342.5 10.5Q318 28 312 67Q294 23 257 5.5Q220 -12 175 -12Q114 -12 75.5 20.5Q37 53 37 113Q37 151 52.5 181Q68 211 100.5 230.5Q133 250 183.5 259Q234 268 305 265V322Q305 365 282 383Q259 401 222 401Q184 401 162.5 382Q141 363 138 327L52 340Q55 377 71 402Q87 427 111.5 443Q136 459 167 466Q198 473 230 473Q264 473 294 465.5Q324 458 346.5 441.5Q369 425 382.5 398Q396 371 396 331ZM302 529Q279 529 264 535.5Q249 542 230 552Q210 564 197.5 570.5Q185 577 170 577Q154 577 145.5 566.5Q137 556 140 530H85Q76 554 77 576.5Q78 599 88 616.5Q98 634 116.5 644Q135 654 159 654Q185 654 202 646Q219 638 238 627Q258 615 269 609.5Q280 604 293 604Q307 604 315.5 614.5Q324 625 322 653H379Q397 600 376.5 564.5Q356 529 302 529Z" glyph-name="atilde" horiz-adv-x="479" unicode="&#227;" /><glyph d="M162 179Q162 146 172 122.5Q182 99 198.5 84Q215 69 234.5 62.5Q254 56 274 56Q300 56 323 66.5Q346 77 363 99Q380 121 390 154.5Q400 188 400 234Q400 318 369 358.5Q338 399 284 399Q259 399 237 390Q215 381 198.5 364Q182 347 172 322Q162 297 162 265ZM131 0H72V668H162V374Q179 426 220.5 449.5Q262 473 310 473Q395 473 443.5 413.5Q492 354 492 242Q492 189 478.5 143Q465 97 439.5 62.5Q414 28 377.5 8Q341 -12 294 -12Q234 -12 200.5 11.5Q167 35 155 67Z" glyph-name="b" horiz-adv-x="534" unicode="b" /><glyph d="M386 -203H305L30 669H112Z" glyph-name="backslash" horiz-adv-x="396" unicode="\" /><glyph d="M100 -203V669H177V-203Z" glyph-name="bar" horiz-adv-x="277" unicode="|" /><glyph d="M149 233Q167 231 182 225.5Q197 220 208 208.5Q219 197 225.5 178.5Q232 160 232 132V-60Q232 -98 244 -118Q256 -138 290 -138Q310 -138 323.5 -134Q337 -130 351 -122L367 -188Q343 -198 320 -202Q297 -206 271 -206Q236 -206 212.5 -196Q189 -186 175 -168Q161 -150 155 -125Q149 -100 149 -69V124Q149 149 143 164Q137 179 127.5 187.5Q118 196 105.5 198.5Q93 201 80 201H39V270H80Q93 270 105.5 272.5Q118 275 127.5 283Q137 291 143 306Q149 321 149 347V539Q149 570 155 595Q161 620 175 638Q189 656 212.5 666Q236 676 271 676Q297 676 320 672Q343 668 367 658L351 593Q337 600 323.5 604Q310 608 290 608Q256 608 244 588.5Q232 569 232 530V338Q232 309 225.5 290.5Q219 272 208 261Q197 250 182 245Q167 240 149 237Z" glyph-name="braceleft" horiz-adv-x="393" unicode="{" /><glyph d="M244 237Q226 240 211 245Q196 250 185 261Q174 272 167.5 290.5Q161 309 161 338V530Q161 569 149 588.5Q137 608 104 608Q84 608 70 604Q56 600 42 593L26 658Q50 668 73 672Q96 676 122 676Q157 676 180.5 666Q204 656 218 638Q232 620 238 595Q244 570 244 539V347Q244 321 250 306Q256 291 265.5 283Q275 275 287.5 272.5Q300 270 313 270H354V201H313Q300 201 287.5 198.5Q275 196 265.5 187.5Q256 179 250 164Q244 149 244 124V-69Q244 -131 218 -168.5Q192 -206 122 -206Q96 -206 73 -202Q50 -198 26 -188L42 -122Q56 -130 70 -134Q84 -138 104 -138Q137 -138 149 -118Q161 -98 161 -60V132Q161 160 167.5 178.5Q174 197 185 208.5Q196 220 211 225.5Q226 231 244 233Z" glyph-name="braceright" horiz-adv-x="393" unicode="}" /><glyph d="M168 -135H293V-203H83V669H293V601H168Z" glyph-name="bracketleft" horiz-adv-x="328" unicode="[" /><glyph d="M160 601H35V669H245V-203H35V-135H160Z" glyph-name="bracketright" horiz-adv-x="328" unicode="]" /><glyph d="M216 526Q150 526 115 565Q80 604 80 667H151Q153 634 165.5 613.5Q178 593 216 593Q253 593 266 613.5Q279 634 281 667H352Q352 604 317 565Q282 526 216 526Z" glyph-name="breve" horiz-adv-x="432" unicode="&#728;" /><glyph d="M215 650Q149 650 114.5 685.5Q80 721 80 781H151Q153 750 166.5 733Q180 716 215 716Q250 716 264 733Q278 750 280 781H351Q351 721 316 685.5Q281 650 215 650Z" glyph-name="breve.cap" horiz-adv-x="431" unicode="&#58406;" /><glyph d="M79 243Q79 261 86 276.5Q93 292 104.5 303.5Q116 315 131.5 322Q147 329 164 329Q182 329 198 322Q214 315 225.5 303.5Q237 292 244 276.5Q251 261 251 243Q251 226 244 210.5Q237 195 225.5 183.5Q214 172 198 165Q182 158 164 158Q129 158 104 183Q79 208 79 243Z" glyph-name="bullet" horiz-adv-x="330" unicode="&#8226;" /><glyph d="M427 117Q421 82 405 57.5Q389 33 365 17.5Q341 2 310.5 -5Q280 -12 246 -12Q201 -12 163.5 4Q126 20 99 50.5Q72 81 57 125.5Q42 170 42 228Q42 286 57 331.5Q72 377 99.5 408.5Q127 440 166 456.5Q205 473 253 473Q327 473 371.5 435.5Q416 398 421 329L339 312Q327 399 249 399Q189 399 159 351.5Q129 304 129 228Q129 191 137.5 160.5Q146 130 162.5 107.5Q179 85 201.5 72.5Q224 60 253 60Q290 60 314 78Q338 96 349 136Z" glyph-name="c" horiz-adv-x="458" unicode="c" /><glyph d="M427 117Q421 82 405 57.5Q389 33 365 17.5Q341 2 310.5 -5Q280 -12 246 -12Q201 -12 163.5 4Q126 20 99 50.5Q72 81 57 125.5Q42 170 42 228Q42 286 57 331.5Q72 377 99.5 408.5Q127 440 166 456.5Q205 473 253 473Q327 473 371.5 435.5Q416 398 421 329L339 312Q327 399 249 399Q189 399 159 351.5Q129 304 129 228Q129 191 137.5 160.5Q146 130 162.5 107.5Q179 85 201.5 72.5Q224 60 253 60Q290 60 314 78Q338 96 349 136ZM209 529 283 675H404L288 529Z" glyph-name="cacute" horiz-adv-x="458" unicode="&#263;" /><glyph d="M205 528 80 675H172L206 632Q213 623 218 616Q223 609 225 604Q228 598 229 594H234Q235 598 238 604Q243 615 257 632L291 675H383L258 528Z" glyph-name="caron" horiz-adv-x="463" unicode="&#711;" /><glyph d="M204 649 80 778H176L208 745Q223 729 227 720Q230 715 231 711H234Q235 715 238 720Q240 725 244.5 731Q249 737 257 745L288 778H385L260 649Z" glyph-name="caron.cap" horiz-adv-x="465" unicode="&#58413;" /><glyph d="M140 488H74L90 668H192Z" glyph-name="caronSlovak" horiz-adv-x="263" unicode="&#58387;" /><glyph d="M427 117Q421 82 405 57.5Q389 33 365 17.5Q341 2 310.5 -5Q280 -12 246 -12Q201 -12 163.5 4Q126 20 99 50.5Q72 81 57 125.5Q42 170 42 228Q42 286 57 331.5Q72 377 99.5 408.5Q127 440 166 456.5Q205 473 253 473Q327 473 371.5 435.5Q416 398 421 329L339 312Q327 399 249 399Q189 399 159 351.5Q129 304 129 228Q129 191 137.5 160.5Q146 130 162.5 107.5Q179 85 201.5 72.5Q224 60 253 60Q290 60 314 78Q338 96 349 136ZM226 528 101 675H193L227 632Q234 623 239 616Q244 609 246 604Q249 598 250 594H255Q256 598 259 604Q264 615 278 632L312 675H404L279 528Z" glyph-name="ccaron" horiz-adv-x="458" unicode="&#269;" /><glyph d="M352 -124Q352 -169 321.5 -190Q291 -211 247 -211Q185 -211 157 -173L181 -122Q206 -158 244 -158Q261 -158 270.5 -149.5Q280 -141 280 -124Q280 -105 264.5 -94Q249 -83 214 -82L219 -10Q139 -2 90.5 59Q42 120 42 228Q42 286 57 331.5Q72 377 99.5 408.5Q127 440 166 456.5Q205 473 253 473Q327 473 371.5 435.5Q416 398 421 329L339 312Q327 399 249 399Q189 399 159 351.5Q129 304 129 228Q129 191 137.5 160.5Q146 130 162.5 107.5Q179 85 201.5 72.5Q224 60 253 60Q290 60 314 78Q338 96 349 136L427 117Q421 85 406.5 61.5Q392 38 371 22.5Q350 7 323 -1Q296 -9 266 -11L264 -41Q311 -45 331.5 -66.5Q352 -88 352 -124Z" glyph-name="ccedilla" horiz-adv-x="458" unicode="&#231;" /><glyph d="M427 117Q421 82 405 57.5Q389 33 365 17.5Q341 2 310.5 -5Q280 -12 246 -12Q201 -12 163.5 4Q126 20 99 50.5Q72 81 57 125.5Q42 170 42 228Q42 286 57 331.5Q72 377 99.5 408.5Q127 440 166 456.5Q205 473 253 473Q327 473 371.5 435.5Q416 398 421 329L339 312Q327 399 249 399Q189 399 159 351.5Q129 304 129 228Q129 191 137.5 160.5Q146 130 162.5 107.5Q179 85 201.5 72.5Q224 60 253 60Q290 60 314 78Q338 96 349 136ZM278 675 403 528H311L277 570Q269 578 264.5 585.5Q260 593 258 598Q255 604 254 608H249Q248 604 245 598Q241 588 226 570L192 528H100L225 675Z" glyph-name="ccircumflex" horiz-adv-x="458" unicode="&#265;" /><glyph d="M427 117Q421 82 405 57.5Q389 33 365 17.5Q341 2 310.5 -5Q280 -12 246 -12Q201 -12 163.5 4Q126 20 99 50.5Q72 81 57 125.5Q42 170 42 228Q42 286 57 331.5Q72 377 99.5 408.5Q127 440 166 456.5Q205 473 253 473Q327 473 371.5 435.5Q416 398 421 329L339 312Q327 399 249 399Q189 399 159 351.5Q129 304 129 228Q129 191 137.5 160.5Q146 130 162.5 107.5Q179 85 201.5 72.5Q224 60 253 60Q290 60 314 78Q338 96 349 136ZM190 593Q190 619 207.5 636Q225 653 250 653Q276 653 294 636Q312 619 312 593Q312 567 294 550Q276 533 250 533Q225 533 207.5 550Q190 567 190 593Z" glyph-name="cdotaccent" horiz-adv-x="458" unicode="&#267;" /><glyph d="M248 32Q204 36 167.5 53Q131 70 104.5 101.5Q78 133 63 178Q48 223 48 282Q48 338 62.5 382Q77 426 103.5 458Q130 490 166.5 509Q203 528 248 534V617H298V535Q365 533 407 504Q449 475 473 418L392 374Q378 411 355.5 433Q333 455 298 460V105Q333 109 357.5 126.5Q382 144 403 181L473 132Q443 82 400.5 59Q358 36 298 32V-63H248ZM141 286Q141 211 168 165Q195 119 248 108V459Q196 448 168.5 403Q141 358 141 286Z" glyph-name="cent" horiz-adv-x="506" unicode="&#162;" /><glyph d="M258 675 383 528H291L257 570Q249 578 244.5 585.5Q240 593 238 598Q235 604 234 608H229Q228 604 225 598Q221 588 206 570L172 528H80L205 675Z" glyph-name="circumflex" horiz-adv-x="463" unicode="&#710;" /><glyph d="M260 782 385 653H288L257 686Q243 700 238 710Q235 715 234 720H231Q230 715 227 710Q225 705 220 699.5Q215 694 208 686L176 653H80L204 782Z" glyph-name="circumflex.cap" horiz-adv-x="465" unicode="&#58403;" /><glyph d="M75 62Q75 91 94.5 110.5Q114 130 143 130Q172 130 191.5 110.5Q211 91 211 62Q211 33 191.5 13.5Q172 -6 143 -6Q114 -6 94.5 13.5Q75 33 75 62ZM75 395Q75 424 94.5 443.5Q114 463 143 463Q172 463 191.5 443.5Q211 424 211 395Q211 366 191.5 346.5Q172 327 143 327Q114 327 94.5 346.5Q75 366 75 395Z" glyph-name="colon" horiz-adv-x="286" unicode=":" /><glyph d="M209 33Q209 -42 167.5 -76Q126 -110 57 -114V-71Q94 -66 116 -48.5Q138 -31 138 3Q107 -3 86.5 13.5Q66 30 66 59Q66 89 85 105Q104 121 133 121Q164 121 186.5 98Q209 75 209 33Z" glyph-name="comma" horiz-adv-x="283" unicode="," /><glyph d="M214 -142Q214 -199 183 -223Q152 -247 93 -247V-210Q122 -208 137.5 -199.5Q153 -191 153 -167Q126 -172 109 -158.5Q92 -145 92 -120Q92 -94 107.5 -80.5Q123 -67 149 -67Q175 -67 194.5 -87Q214 -107 214 -142Z" glyph-name="commaaccent" horiz-adv-x="283" unicode="&#63171;" /><glyph d="M80 727Q80 784 111 808Q142 832 201 832V795Q172 793 156.5 784.5Q141 776 141 752Q168 757 185 743.5Q202 730 202 705Q202 679 186 665.5Q170 652 145 652Q119 652 99.5 672Q80 692 80 727Z" glyph-name="commaaccent.cap" horiz-adv-x="282" unicode="&#58414;" /><glyph d="M510 178Q482 139 444.5 120Q407 101 351 101Q312 101 279 113Q246 125 221.5 149Q197 173 183 209.5Q169 246 169 295Q169 341 183 377.5Q197 414 222.5 438.5Q248 463 282.5 476Q317 489 359 489Q418 489 453 466.5Q488 444 510 399L441 361Q418 423 356 423Q307 423 278 390.5Q249 358 249 295Q249 235 277 201.5Q305 168 358 168Q390 168 411 181Q432 194 451 223ZM45 294Q45 361 69 417Q93 473 134.5 514Q176 555 232 578Q288 601 351 601Q414 601 470 578Q526 555 568 514Q610 473 634 417Q658 361 658 294Q658 227 634 171Q610 115 568 74.5Q526 34 470 11Q414 -12 351 -12Q288 -12 232 11Q176 34 134.5 74.5Q93 115 69 171Q45 227 45 294ZM76 294Q76 233 97.5 182Q119 131 156.5 94.5Q194 58 244.5 37.5Q295 17 352 17Q409 17 459 37.5Q509 58 546.5 94.5Q584 131 606 182Q628 233 628 294Q628 355 606 406Q584 457 546.5 494Q509 531 459 551.5Q409 572 352 572Q295 572 244.5 551.5Q194 531 156.5 494Q119 457 97.5 406Q76 355 76 294Z" glyph-name="copyright" horiz-adv-x="703" unicode="&#169;" /><glyph d="M372 286Q372 317 361.5 339Q351 361 334.5 375Q318 389 297.5 396Q277 403 257 403Q231 403 208.5 393.5Q186 384 169.5 363Q153 342 143 308.5Q133 275 133 226Q133 144 166 101.5Q199 59 256 59Q275 59 295.5 66.5Q316 74 333 90Q350 106 361 129Q372 152 372 184ZM371 668H462V0H382L372 80Q352 27 313.5 7.5Q275 -12 225 -12Q189 -12 155.5 3Q122 18 97 47Q72 76 57 120Q42 164 42 223Q42 341 95.5 407Q149 473 249 473Q294 473 327.5 451.5Q361 430 371 400Z" glyph-name="d" horiz-adv-x="534" unicode="d" /><glyph d="M48 277V366L236 356L226 589H321L311 356L498 366V277L311 288L321 -149H226L236 288Z" glyph-name="dagger" horiz-adv-x="546" unicode="&#8224;" /><glyph d="M310 137 498 148V60L311 71L321 -150H226L236 71L48 60V148L236 137V306L48 295V382L236 371L226 589H321L310 371L498 382V295L311 306Z" glyph-name="daggerdbl" horiz-adv-x="546" unicode="&#8225;" /><glyph d="M587 498H521L537 674H639ZM372 286Q372 317 361.5 339Q351 361 334.5 375Q318 389 297.5 396Q277 403 257 403Q231 403 208.5 393.5Q186 384 169.5 363Q153 342 143 308.5Q133 275 133 226Q133 144 166 101.5Q199 59 256 59Q275 59 295.5 66.5Q316 74 333 90Q350 106 361 129Q372 152 372 184ZM371 668H462V0H382L372 80Q352 27 313.5 7.5Q275 -12 225 -12Q189 -12 155.5 3Q122 18 97 47Q72 76 57 120Q42 164 42 223Q42 341 95.5 407Q149 473 249 473Q294 473 327.5 451.5Q361 430 371 400Z" glyph-name="dcaron" horiz-adv-x="534" unicode="&#271;" /><glyph d="M226 594H371V668H462V594H529V529H462V0H382L372 80Q352 27 313.5 7.5Q275 -12 225 -12Q189 -12 155.5 3Q122 18 97 47Q72 76 57 120Q42 164 42 223Q42 341 95.5 407Q149 473 249 473Q294 473 327.5 451.5Q361 430 371 400V529H226ZM372 286Q372 317 361.5 339Q351 361 334.5 375Q318 389 297.5 396Q277 403 257 403Q231 403 208.5 393.5Q186 384 169.5 363Q153 342 143 308.5Q133 275 133 226Q133 144 166 101.5Q199 59 256 59Q275 59 295.5 66.5Q316 74 333 90Q350 106 361 129Q372 152 372 184Z" glyph-name="dcroat" horiz-adv-x="534" unicode="&#273;" /><glyph d="M36 505Q36 545 62.5 573Q89 601 131 601Q173 601 199.5 573Q226 545 226 505Q226 466 199.5 438.5Q173 411 131 411Q89 411 62.5 438.5Q36 466 36 505ZM85 505Q85 485 97.5 470.5Q110 456 131 456Q152 456 164.5 470.5Q177 485 177 505Q177 526 164.5 540.5Q152 555 131 555Q110 555 97.5 540.5Q85 526 85 505Z" glyph-name="degree" horiz-adv-x="262" unicode="&#176;" /><glyph d="M80 595Q80 621 97.5 638Q115 655 139 655Q164 655 181.5 638Q199 621 199 595Q199 569 181.5 552.5Q164 536 139 536Q115 536 97.5 552.5Q80 569 80 595ZM276 594Q276 620 293.5 637Q311 654 335 654Q361 654 378 637Q395 620 395 594Q395 569 378 552Q361 535 335 535Q311 535 293.5 552Q276 569 276 594Z" glyph-name="dieresis" horiz-adv-x="476" unicode="&#168;" /><glyph d="M80 713Q80 739 97.5 756Q115 773 139 773Q164 773 181.5 756Q199 739 199 713Q199 687 181.5 670.5Q164 654 139 654Q115 654 97.5 670.5Q80 687 80 713ZM276 712Q276 738 293.5 755Q311 772 335 772Q361 772 378 755Q395 738 395 712Q395 687 378 670Q361 653 335 653Q311 653 293.5 670Q276 687 276 712Z" glyph-name="dieresis.cap" horiz-adv-x="476" unicode="&#58409;" /><glyph d="M45 221V275H453V221ZM199 74Q199 94 212.5 107Q226 120 246 120Q265 120 278.5 107Q292 94 292 74Q292 55 278.5 42Q265 29 246 29Q226 29 212.5 42Q199 55 199 74ZM199 415Q199 435 212.5 449Q226 463 246 463Q265 463 278.5 449Q292 435 292 415Q292 397 278.5 383.5Q265 370 246 370Q226 370 212.5 383.5Q199 397 199 415Z" glyph-name="divide" horiz-adv-x="498" unicode="&#247;" /><glyph d="M215 -11Q136 -7 90 29Q44 65 30 141L116 164Q124 116 150 91Q176 66 215 60V259Q182 271 152 285Q122 299 99.5 319Q77 339 64 367Q51 395 51 435Q51 477 65 507Q79 537 101.5 557Q124 577 153.5 587.5Q183 598 215 601V684H265V601Q337 596 384.5 560.5Q432 525 439 447L348 429Q344 471 322 496Q300 521 265 528V337L274 334Q308 322 338 308Q368 294 390.5 273.5Q413 253 426 224.5Q439 196 439 155Q439 116 425.5 86.5Q412 57 388.5 36.5Q365 16 333.5 4.5Q302 -7 265 -10V-106H215ZM346 143Q346 176 329 197Q312 218 265 239V61Q302 66 324 86.5Q346 107 346 143ZM144 443Q144 410 162 391Q180 372 215 357V527Q183 521 163.5 499.5Q144 478 144 443Z" glyph-name="dollar" horiz-adv-x="489" unicode="$" /><glyph d="M80 609Q80 635 97.5 652Q115 669 140 669Q166 669 184 652Q202 635 202 609Q202 583 184 566Q166 549 140 549Q115 549 97.5 566Q80 583 80 609Z" glyph-name="dotaccent" horiz-adv-x="282" unicode="&#729;" /><glyph d="M80 727Q80 754 97.5 770.5Q115 787 140 787Q166 787 184 770.5Q202 754 202 727Q202 701 184 684Q166 667 140 667Q115 667 97.5 684Q80 701 80 727Z" glyph-name="dotaccent.cap" horiz-adv-x="282" unicode="&#58408;" /><glyph d="M162 462V0H72V462Z" glyph-name="dotlessi" horiz-adv-x="234" unicode="&#305;" /><glyph d="M162 462V-7Q162 -64 147 -102.5Q132 -141 103.5 -164Q75 -187 34 -196Q-7 -205 -58 -203V-127Q10 -133 41 -106Q72 -79 72 -11V462Z" glyph-name="dotlessj" horiz-adv-x="234" unicode="&#567;" /><glyph d="M253 59Q291 59 316.5 75.5Q342 92 354 134L433 113Q426 78 408.5 54Q391 30 366.5 15.5Q342 1 311.5 -5.5Q281 -12 248 -12Q202 -12 164 3.5Q126 19 99 49.5Q72 80 57 124.5Q42 169 42 227Q42 344 99 408.5Q156 473 253 473Q298 473 332 458.5Q366 444 389 417.5Q412 391 424 355Q436 319 436 276Q436 256 433.5 239.5Q431 223 427 212H129Q132 144 163 101.5Q194 59 253 59ZM347 277Q348 282 348 286.5Q348 291 348 296Q348 341 321.5 371.5Q295 402 248 402Q198 402 168 369.5Q138 337 131 277Z" glyph-name="e" horiz-adv-x="478" unicode="e" /><glyph d="M253 59Q291 59 316.5 75.5Q342 92 354 134L433 113Q426 78 408.5 54Q391 30 366.5 15.5Q342 1 311.5 -5.5Q281 -12 248 -12Q202 -12 164 3.5Q126 19 99 49.5Q72 80 57 124.5Q42 169 42 227Q42 344 99 408.5Q156 473 253 473Q298 473 332 458.5Q366 444 389 417.5Q412 391 424 355Q436 319 436 276Q436 256 433.5 239.5Q431 223 427 212H129Q132 144 163 101.5Q194 59 253 59ZM347 277Q348 282 348 286.5Q348 291 348 296Q348 341 321.5 371.5Q295 402 248 402Q198 402 168 369.5Q138 337 131 277ZM204 529 278 675H399L283 529Z" glyph-name="eacute" horiz-adv-x="478" unicode="&#233;" /><glyph d="M253 59Q291 59 316.5 75.5Q342 92 354 134L433 113Q426 78 408.5 54Q391 30 366.5 15.5Q342 1 311.5 -5.5Q281 -12 248 -12Q202 -12 164 3.5Q126 19 99 49.5Q72 80 57 124.5Q42 169 42 227Q42 344 99 408.5Q156 473 253 473Q298 473 332 458.5Q366 444 389 417.5Q412 391 424 355Q436 319 436 276Q436 256 433.5 239.5Q431 223 427 212H129Q132 144 163 101.5Q194 59 253 59ZM347 277Q348 282 348 286.5Q348 291 348 296Q348 341 321.5 371.5Q295 402 248 402Q198 402 168 369.5Q138 337 131 277ZM250 526Q184 526 149 565Q114 604 114 667H185Q187 634 199.5 613.5Q212 593 250 593Q287 593 300 613.5Q313 634 315 667H386Q386 604 351 565Q316 526 250 526Z" glyph-name="ebreve" horiz-adv-x="478" unicode="&#277;" /><glyph d="M253 59Q291 59 316.5 75.5Q342 92 354 134L433 113Q426 78 408.5 54Q391 30 366.5 15.5Q342 1 311.5 -5.5Q281 -12 248 -12Q202 -12 164 3.5Q126 19 99 49.5Q72 80 57 124.5Q42 169 42 227Q42 344 99 408.5Q156 473 253 473Q298 473 332 458.5Q366 444 389 417.5Q412 391 424 355Q436 319 436 276Q436 256 433.5 239.5Q431 223 427 212H129Q132 144 163 101.5Q194 59 253 59ZM347 277Q348 282 348 286.5Q348 291 348 296Q348 341 321.5 371.5Q295 402 248 402Q198 402 168 369.5Q138 337 131 277ZM225 528 100 675H192L226 632Q233 623 238 616Q243 609 245 604Q248 598 249 594H254Q255 598 258 604Q263 615 277 632L311 675H403L278 528Z" glyph-name="ecaron" horiz-adv-x="478" unicode="&#283;" /><glyph d="M253 59Q291 59 316.5 75.5Q342 92 354 134L433 113Q426 78 408.5 54Q391 30 366.5 15.5Q342 1 311.5 -5.5Q281 -12 248 -12Q202 -12 164 3.5Q126 19 99 49.5Q72 80 57 124.5Q42 169 42 227Q42 344 99 408.5Q156 473 253 473Q298 473 332 458.5Q366 444 389 417.5Q412 391 424 355Q436 319 436 276Q436 256 433.5 239.5Q431 223 427 212H129Q132 144 163 101.5Q194 59 253 59ZM347 277Q348 282 348 286.5Q348 291 348 296Q348 341 321.5 371.5Q295 402 248 402Q198 402 168 369.5Q138 337 131 277ZM280 675 405 528H313L279 570Q271 578 266.5 585.5Q262 593 260 598Q257 604 256 608H251Q250 604 247 598Q243 588 228 570L194 528H102L227 675Z" glyph-name="ecircumflex" horiz-adv-x="478" unicode="&#234;" /><glyph d="M253 59Q291 59 316.5 75.5Q342 92 354 134L433 113Q426 78 408.5 54Q391 30 366.5 15.5Q342 1 311.5 -5.5Q281 -12 248 -12Q202 -12 164 3.5Q126 19 99 49.5Q72 80 57 124.5Q42 169 42 227Q42 344 99 408.5Q156 473 253 473Q298 473 332 458.5Q366 444 389 417.5Q412 391 424 355Q436 319 436 276Q436 256 433.5 239.5Q431 223 427 212H129Q132 144 163 101.5Q194 59 253 59ZM347 277Q348 282 348 286.5Q348 291 348 296Q348 341 321.5 371.5Q295 402 248 402Q198 402 168 369.5Q138 337 131 277ZM95 595Q95 621 112.5 638Q130 655 154 655Q179 655 196.5 638Q214 621 214 595Q214 569 196.5 552.5Q179 536 154 536Q130 536 112.5 552.5Q95 569 95 595ZM291 594Q291 620 308.5 637Q326 654 350 654Q376 654 393 637Q410 620 410 594Q410 569 393 552Q376 535 350 535Q326 535 308.5 552Q291 569 291 594Z" glyph-name="edieresis" horiz-adv-x="478" unicode="&#235;" /><glyph d="M253 59Q291 59 316.5 75.5Q342 92 354 134L433 113Q426 78 408.5 54Q391 30 366.5 15.5Q342 1 311.5 -5.5Q281 -12 248 -12Q202 -12 164 3.5Q126 19 99 49.5Q72 80 57 124.5Q42 169 42 227Q42 344 99 408.5Q156 473 253 473Q298 473 332 458.5Q366 444 389 417.5Q412 391 424 355Q436 319 436 276Q436 256 433.5 239.5Q431 223 427 212H129Q132 144 163 101.5Q194 59 253 59ZM347 277Q348 282 348 286.5Q348 291 348 296Q348 341 321.5 371.5Q295 402 248 402Q198 402 168 369.5Q138 337 131 277ZM190 593Q190 619 207.5 636Q225 653 250 653Q276 653 294 636Q312 619 312 593Q312 567 294 550Q276 533 250 533Q225 533 207.5 550Q190 567 190 593Z" glyph-name="edotaccent" horiz-adv-x="478" unicode="&#279;" /><glyph d="M253 59Q291 59 316.5 75.5Q342 92 354 134L433 113Q426 78 408.5 54Q391 30 366.5 15.5Q342 1 311.5 -5.5Q281 -12 248 -12Q202 -12 164 3.5Q126 19 99 49.5Q72 80 57 124.5Q42 169 42 227Q42 344 99 408.5Q156 473 253 473Q298 473 332 458.5Q366 444 389 417.5Q412 391 424 355Q436 319 436 276Q436 256 433.5 239.5Q431 223 427 212H129Q132 144 163 101.5Q194 59 253 59ZM347 277Q348 282 348 286.5Q348 291 348 296Q348 341 321.5 371.5Q295 402 248 402Q198 402 168 369.5Q138 337 131 277ZM218 529 103 675H224L298 529Z" glyph-name="egrave" horiz-adv-x="478" unicode="&#232;" /><glyph d="M247 -12Q153 -12 98.5 31Q44 74 44 149Q44 206 75 243.5Q106 281 155 297V302Q102 319 79 355.5Q56 392 56 441Q56 477 69.5 506.5Q83 536 108 557Q133 578 168.5 589.5Q204 601 247 601Q290 601 325 589.5Q360 578 385 557Q410 536 424 506.5Q438 477 438 441Q438 392 415 355.5Q392 319 338 302V297Q388 281 419 243.5Q450 206 450 149Q450 74 395.5 31Q341 -12 247 -12ZM247 535Q197 535 171.5 508.5Q146 482 146 439Q146 385 174.5 360.5Q203 336 247 336Q291 336 319.5 360.5Q348 385 348 439Q348 482 322.5 508.5Q297 535 247 535ZM247 265Q224 265 203 258.5Q182 252 166.5 239Q151 226 142 206.5Q133 187 133 161Q133 112 163 83.5Q193 55 247 55Q301 55 330.5 83.5Q360 112 360 161Q360 213 327 239Q294 265 247 265Z" glyph-name="eight" horiz-adv-x="494" unicode="8" /><glyph d="M75 62Q75 91 94.5 110.5Q114 130 143 130Q172 130 191.5 110.5Q211 91 211 62Q211 33 191.5 13.5Q172 -6 143 -6Q114 -6 94.5 13.5Q75 33 75 62ZM361 62Q361 91 380.5 110.5Q400 130 429 130Q458 130 477.5 110.5Q497 91 497 62Q497 33 477.5 13.5Q458 -6 429 -6Q400 -6 380.5 13.5Q361 33 361 62ZM647 62Q647 91 666.5 110.5Q686 130 715 130Q744 130 763.5 110.5Q783 91 783 62Q783 33 763.5 13.5Q744 -6 715 -6Q686 -6 666.5 13.5Q647 33 647 62Z" glyph-name="ellipsis" horiz-adv-x="858" unicode="&#8230;" /><glyph d="M253 59Q291 59 316.5 75.5Q342 92 354 134L433 113Q426 78 408.5 54Q391 30 366.5 15.5Q342 1 311.5 -5.5Q281 -12 248 -12Q202 -12 164 3.5Q126 19 99 49.5Q72 80 57 124.5Q42 169 42 227Q42 344 99 408.5Q156 473 253 473Q298 473 332 458.5Q366 444 389 417.5Q412 391 424 355Q436 319 436 276Q436 256 433.5 239.5Q431 223 427 212H129Q132 144 163 101.5Q194 59 253 59ZM347 277Q348 282 348 286.5Q348 291 348 296Q348 341 321.5 371.5Q295 402 248 402Q198 402 168 369.5Q138 337 131 277ZM120 558V631H382V558Z" glyph-name="emacron" horiz-adv-x="478" unicode="&#275;" /><glyph d="M68 284H932V220H68Z" glyph-name="emdash" horiz-adv-x="1000" unicode="&#8212;" /><glyph d="M68 284H432V220H68Z" glyph-name="endash" horiz-adv-x="500" unicode="&#8211;" /><glyph d="M72 0V462H143L154 373Q173 425 211 449Q249 473 302 473Q330 473 355.5 465Q381 457 400.5 439.5Q420 422 431 395Q442 368 442 330V-7Q442 -64 427 -102.5Q412 -141 383.5 -164Q355 -187 314 -196Q273 -205 222 -203V-127Q290 -133 321 -106Q352 -79 352 -12V303Q352 346 332.5 370.5Q313 395 271 395Q250 395 230.5 388.5Q211 382 195.5 367Q180 352 171 327Q162 302 162 265V0Z" glyph-name="eng" horiz-adv-x="509" unicode="&#331;" /><glyph d="M177 -106Q177 -74 189 -50.5Q201 -27 221 -10Q139 -2 90.5 58.5Q42 119 42 227Q42 344 99 408.5Q156 473 253 473Q298 473 332 458.5Q366 444 389 417.5Q412 391 424 355Q436 319 436 276Q436 256 433.5 239.5Q431 223 427 212H129Q132 144 163 101.5Q194 59 253 59Q291 59 316.5 75.5Q342 92 354 134L433 113Q427 85 416 66Q405 47 390.5 34Q376 21 359 13Q342 5 326 -1Q285 -15 271 -39Q257 -63 257 -92Q257 -119 270 -134.5Q283 -150 309 -150Q334 -150 351 -138.5Q368 -127 379 -108L408 -152Q393 -178 365.5 -194.5Q338 -211 293 -211Q242 -211 209.5 -185Q177 -159 177 -106ZM347 277Q348 282 348 286.5Q348 291 348 296Q348 341 321.5 371.5Q295 402 248 402Q198 402 168 369.5Q138 337 131 277Z" glyph-name="eogonek" horiz-adv-x="478" unicode="&#281;" /><glyph d="M45 154V207H453V154ZM45 285V338H453V285Z" glyph-name="equal" horiz-adv-x="498" unicode="=" /><glyph d="M114 538 238 563Q227 572 212.5 582Q198 592 181.5 601.5Q165 611 148.5 619.5Q132 628 118 635L195 674Q232 658 265 635.5Q298 613 325 587L428 609L440 564L363 547Q411 487 438 411.5Q465 336 465 260Q465 189 449.5 137.5Q434 86 406.5 53Q379 20 340 4.5Q301 -11 253 -11Q157 -11 99.5 50Q42 111 42 229Q42 288 57 332Q72 376 98 405Q124 434 159 448.5Q194 463 233 463Q276 463 305 446.5Q334 430 354 402H358Q332 472 276 526L125 495ZM374 227Q374 308 342 350.5Q310 393 250 393Q190 393 161 350.5Q132 308 132 227Q132 147 162 103.5Q192 60 252 60Q315 60 344.5 103.5Q374 147 374 227Z" glyph-name="eth" horiz-adv-x="507" unicode="&#240;" /><glyph d="M172 589 145 174H84L57 589ZM51 56Q51 83 69.5 100.5Q88 118 114 118Q141 118 159.5 100.5Q178 83 178 56Q178 30 159.5 12Q141 -6 114 -6Q88 -6 69.5 12Q51 30 51 56Z" glyph-name="exclam" horiz-adv-x="229" unicode="!" /><glyph d="M57 -126 84 289H145L172 -126ZM51 407Q51 433 69.5 451Q88 469 114 469Q141 469 159.5 451Q178 433 178 407Q178 380 159.5 362.5Q141 345 114 345Q88 345 69.5 362.5Q51 380 51 407Z" glyph-name="exclamdown" horiz-adv-x="229" unicode="&#161;" /><glyph d="M14 390V462H81V514Q81 559 94.5 590Q108 621 130 640Q152 659 180.5 667Q209 675 240 675Q268 675 292 669.5Q316 664 336 656L319 579Q301 589 284.5 594Q268 599 245 599Q210 599 191 579.5Q172 560 172 510V462H290V390H172V0H81V390Z" glyph-name="f" horiz-adv-x="284" unicode="f" /><glyph d="M424 179Q424 146 434 122.5Q444 99 460.5 84Q477 69 496.5 62.5Q516 56 536 56Q562 56 584.5 66.5Q607 77 624 99Q641 121 651 154.5Q661 188 661 234Q661 318 630.5 358.5Q600 399 546 399Q521 399 499 390Q477 381 460.5 364Q444 347 434 322Q424 297 424 266ZM334 581Q316 592 297 597.5Q278 603 254 603Q216 603 194 582.5Q172 562 172 512V462H269V390H172V0H81V390H14V462H81V511Q81 557 96 588.5Q111 620 134.5 639.5Q158 659 188 667Q218 675 248 675Q278 675 303 669.5Q328 664 348 654L424 668V374Q441 426 482 449.5Q523 473 572 473Q657 473 705.5 413.5Q754 354 754 242Q754 189 740.5 143Q727 97 701.5 62.5Q676 28 639.5 8Q603 -12 556 -12Q496 -12 462.5 11.5Q429 35 417 67L393 0H334Z" glyph-name="f_b" horiz-adv-x="796" unicode="&#58241;" /><glyph d="M677 179Q677 146 687 122.5Q697 99 713 84Q729 69 749 62.5Q769 56 788 56Q814 56 837 66.5Q860 77 877 99Q894 121 904 154.5Q914 188 914 234Q914 318 883 358.5Q852 399 798 399Q773 399 751 390Q729 381 712.5 364Q696 347 686.5 322Q677 297 677 266ZM677 374Q694 426 735 449.5Q776 473 824 473Q909 473 957.5 413.5Q1006 354 1006 242Q1006 189 992.5 143Q979 97 953.5 62.5Q928 28 891.5 8Q855 -12 808 -12Q748 -12 714.5 11.5Q681 35 669 67L646 0H586V581Q568 592 549.5 597.5Q531 603 506 603Q469 603 446.5 582.5Q424 562 424 512V462H522V390H424V0H334V390H172V0H81V390H14V462H81V510Q81 555 94 585Q107 615 128 633Q149 651 176 658.5Q203 666 230 666Q260 666 277.5 661.5Q295 657 314 648L297 570Q280 581 266 585.5Q252 590 234 590Q204 590 188 571.5Q172 553 172 512V462H334V511Q334 557 348.5 588.5Q363 620 387 639.5Q411 659 441 667Q471 675 501 675Q531 675 556 669.5Q581 664 601 654L677 668Z" glyph-name="f_f_b" horiz-adv-x="1048" unicode="&#58242;" /><glyph d="M677 374Q710 473 816 473Q845 473 870.5 465Q896 457 915.5 439.5Q935 422 946 395Q957 368 957 330V0H866V304Q866 346 846.5 370.5Q827 395 786 395Q765 395 745 389Q725 383 710 368Q695 353 686 328Q677 303 677 265V0H586V581Q568 592 549.5 597.5Q531 603 506 603Q469 603 446.5 582.5Q424 562 424 512V462H522V390H424V0H334V390H172V0H81V390H14V462H81V510Q81 555 94 585Q107 615 128 633Q149 651 176 658.5Q203 666 230 666Q260 666 277.5 661.5Q295 657 314 648L297 570Q280 581 266 585.5Q252 590 234 590Q204 590 188 571.5Q172 553 172 512V462H334V511Q334 557 348.5 588.5Q363 620 387 639.5Q411 659 441 667Q471 675 501 675Q531 675 556 669.5Q581 664 601 654L677 668Z" glyph-name="f_f_h" horiz-adv-x="1024" unicode="&#58243;" /><glyph d="M424 0H334V390H172V0H81V390H14V462H81V510Q81 555 94 585Q107 615 128 633Q149 651 176 658.5Q203 666 230 666Q260 666 277.5 661.5Q295 657 314 648L297 570Q280 581 266 585.5Q252 590 234 590Q204 590 188 571.5Q172 553 172 512V462H334V507Q334 555 349.5 587.5Q365 620 390 639.5Q415 659 445.5 667Q476 675 506 675Q540 675 572.5 667.5Q605 660 633 642L601 568Q584 581 561 590Q538 599 509 599Q471 599 447.5 578.5Q424 558 424 504V462H677V-7Q677 -64 662 -102.5Q647 -141 618.5 -164Q590 -187 549 -196Q508 -205 457 -203V-127Q524 -133 555 -106Q586 -79 586 -11V390H424Z" glyph-name="f_f_j" horiz-adv-x="749" unicode="&#58244;" /><glyph d="M677 277H699L852 462H961L776 247L976 0H865L704 207H677V0H586V581Q568 592 549.5 597.5Q531 603 506 603Q469 603 446.5 582.5Q424 562 424 512V462H522V390H424V0H334V390H172V0H81V390H14V462H81V510Q81 555 94 585Q107 615 128 633Q149 651 176 658.5Q203 666 230 666Q260 666 277.5 661.5Q295 657 314 648L297 570Q280 581 266 585.5Q252 590 234 590Q204 590 188 571.5Q172 553 172 512V462H334V511Q334 557 348.5 588.5Q363 620 387 639.5Q411 659 441 667Q471 675 501 675Q531 675 556 669.5Q581 664 601 654L677 668Z" glyph-name="f_f_k" horiz-adv-x="982" unicode="&#58245;" /><glyph d="M424 374Q457 473 564 473Q592 473 617.5 465Q643 457 662.5 439.5Q682 422 693 395Q704 368 704 330V0H614V304Q614 346 594.5 370.5Q575 395 533 395Q512 395 492.5 389Q473 383 457.5 368Q442 353 433 328Q424 303 424 265V0H334V581Q316 592 297 597.5Q278 603 254 603Q216 603 194 582.5Q172 562 172 512V462H269V390H172V0H81V390H14V462H81V511Q81 557 96 588.5Q111 620 134.5 639.5Q158 659 188 667Q218 675 248 675Q278 675 303 669.5Q328 664 348 654L424 668Z" glyph-name="f_h" horiz-adv-x="771" unicode="&#58246;" /><glyph d="M334 390H172V0H81V390H14V462H81V507Q81 555 97 587.5Q113 620 137.5 639.5Q162 659 193 667Q224 675 254 675Q287 675 319.5 667.5Q352 660 380 642L348 568Q331 581 308 590Q285 599 256 599Q218 599 195 578.5Q172 558 172 504V462H424V-7Q424 -64 409 -102.5Q394 -141 365.5 -164Q337 -187 296 -196Q255 -205 204 -203V-127Q272 -133 303 -106Q334 -79 334 -11Z" glyph-name="f_j" horiz-adv-x="496" unicode="&#58247;" /><glyph d="M424 277H446L600 462H709L523 247L724 0H613L451 207H424V0H334V581Q316 592 297 597.5Q278 603 254 603Q216 603 194 582.5Q172 562 172 512V462H269V390H172V0H81V390H14V462H81V511Q81 557 96 588.5Q111 620 134.5 639.5Q158 659 188 667Q218 675 248 675Q278 675 303 669.5Q328 664 348 654L424 668Z" glyph-name="f_k" horiz-adv-x="730" unicode="&#58248;" /><glyph d="M172 390V0H81V390H14V462H81V510Q81 555 94 585Q107 615 128 633Q149 651 176 658.5Q203 666 230 666Q260 666 277.5 661.5Q295 657 314 648L297 570Q280 581 266 585.5Q252 590 234 590Q204 590 188 571.5Q172 553 172 512V462H334V514Q334 559 347.5 590Q361 621 383 640Q405 659 434 667Q463 675 493 675Q520 675 544 670Q568 665 588 657L571 577Q553 588 536.5 593Q520 598 498 598Q464 598 444 578.5Q424 559 424 509V462H542V390H424V0H334V390Z" glyph-name="ff" horiz-adv-x="536" unicode="&#58249;" /><glyph d="M334 507Q334 555 349.5 587.5Q365 620 390 639.5Q415 659 445.5 667Q476 675 506 675Q540 675 572.5 667.5Q605 660 633 642L601 568Q584 581 561 590Q538 599 509 599Q471 599 447.5 578.5Q424 558 424 504V462H677V0H586V390H424V0H334V390H172V0H81V390H14V462H81V510Q81 555 94 585Q107 615 128 633Q149 651 176 658.5Q203 666 230 666Q260 666 277.5 661.5Q295 657 314 648L297 570Q280 581 266 585.5Q252 590 234 590Q204 590 188 571.5Q172 553 172 512V462H334Z" glyph-name="ffi" horiz-adv-x="749" unicode="&#58250;" /><glyph d="M334 511Q334 557 348.5 588.5Q363 620 387 639.5Q411 659 441 667Q471 675 501 675Q531 675 556 669.5Q581 664 601 654L677 668V111Q677 89 688 79.5Q699 70 717 70Q728 70 735 71.5Q742 73 750 75L748 0Q730 -5 717.5 -6.5Q705 -8 692 -8Q648 -8 617 16Q586 40 586 92V581Q568 592 549.5 597.5Q531 603 506 603Q469 603 446.5 582.5Q424 562 424 512V462H522V390H424V0H334V390H172V0H81V390H14V462H81V510Q81 555 94 585Q107 615 128 633Q149 651 176 658.5Q203 666 230 666Q260 666 277.5 661.5Q295 657 314 648L297 570Q280 581 266 585.5Q252 590 234 590Q204 590 188 571.5Q172 553 172 512V462H334Z" glyph-name="ffl" horiz-adv-x="782" unicode="&#58251;" /><glyph d="M14 390V462H81V507Q81 555 97 587.5Q113 620 137.5 639.5Q162 659 193 667Q224 675 254 675Q287 675 319.5 667.5Q352 660 380 642L348 568Q331 581 308 590Q285 599 256 599Q218 599 195 578.5Q172 558 172 504V462H424V0H334V390H172V0H81V390Z" glyph-name="fi" horiz-adv-x="496" unicode="&#58252;" /><glyph d="M89 589H392V509H165L159 335Q174 349 194 357Q214 365 243 365Q280 365 311 353.5Q342 342 364.5 319Q387 296 399.5 261.5Q412 227 412 182Q412 134 397 97.5Q382 61 354.5 36.5Q327 12 289.5 0Q252 -12 207 -12Q117 -12 71.5 25.5Q26 63 18 128L98 152Q113 55 211 55Q260 55 292.5 84Q325 113 325 177Q325 237 296 267.5Q267 298 216 298Q192 298 176 290Q160 282 146 272H78Z" glyph-name="five" horiz-adv-x="457" unicode="5" /><glyph d="M495 0Q478 -5 465 -6.5Q452 -8 439 -8Q395 -8 364.5 16Q334 40 334 92V581Q316 592 297 597.5Q278 603 254 603Q216 603 194 582.5Q172 562 172 512V462H269V390H172V0H81V390H14V462H81V511Q81 557 96 588.5Q111 620 134.5 639.5Q158 659 188 667Q218 675 248 675Q278 675 303 669.5Q328 664 348 654L424 668V111Q424 89 435.5 79.5Q447 70 465 70Q475 70 482 71.5Q489 73 497 75Z" glyph-name="fl" horiz-adv-x="529" unicode="&#58253;" /><glyph d="M104 286H36L49 361H117L133 447Q140 490 157 519.5Q174 549 197.5 567Q221 585 249 593Q277 601 307 601Q346 601 379.5 587Q413 573 431 547L378 480Q362 503 342 513.5Q322 524 299 524Q272 524 252.5 504.5Q233 485 225 445L208 361H326L313 286H195L141 0H51Z" glyph-name="florin" horiz-adv-x="403" unicode="&#402;" /><glyph d="M300 154H16V215L301 589H391V226H487V154H391V0H300ZM300 374Q300 400 300.5 421Q301 442 302 457Q303 475 304 488H300Q295 477 286 463Q278 451 267 433.5Q256 416 241 395L163 289Q151 272 141 260.5Q131 249 123 241L108 226V222Q114 223 125 224Q134 225 148.5 225.5Q163 226 185 226H300Z" glyph-name="four" horiz-adv-x="513" unicode="4" /><glyph d="M193 -117H14V-63L190 150H265V-63H322V-117H265V-203H193ZM195 20Q195 35 195.5 47.5Q196 60 197 70Q198 81 199 91H195Q192 84 187 74Q182 66 175.5 55Q169 44 160 32L118 -18Q109 -29 100.5 -37.5Q92 -46 85 -52Q77 -59 70 -64V-68Q75 -67 83 -66Q90 -65 100 -64.5Q110 -64 126 -64H195Z" glyph-name="four.inf" horiz-adv-x="342" unicode="&#58741;" /><glyph d="M204 590H266L-40 0H-102Z" glyph-name="fraction" horiz-adv-x="164" unicode="&#8260;" /><glyph d="M229 473Q313 473 363 436Q380 445 386.5 462.5Q393 480 398 506L476 479Q471 446 449.5 424.5Q428 403 399 396Q420 360 420 309Q420 269 405 239Q390 209 364 189Q338 169 303.5 159Q269 149 230 149Q213 149 196.5 151Q180 153 170 157Q153 148 146 136Q139 124 139 109Q139 71 188 71H301Q380 71 421 38Q462 5 462 -58Q462 -103 440 -133Q418 -163 382 -180Q346 -197 301 -204Q256 -211 211 -211Q173 -211 136.5 -205.5Q100 -200 71.5 -186Q43 -172 26 -149Q9 -126 9 -90Q9 -45 40 -17Q71 11 128 16Q96 20 80 40Q64 60 64 88Q64 116 79.5 137.5Q95 159 132 169Q90 188 66 223Q42 258 42 309Q42 348 55.5 378.5Q69 409 94 430Q119 451 153 462Q187 473 229 473ZM94 -80Q94 -117 129.5 -132Q165 -147 220 -147Q290 -147 332.5 -131Q375 -115 375 -71Q375 -45 358.5 -27.5Q342 -10 297 -10H197Q147 -10 120.5 -27Q94 -44 94 -80ZM132 310Q132 266 157 239.5Q182 213 229 213Q275 213 302.5 237Q330 261 330 310Q330 359 302.5 383.5Q275 408 229 407Q183 407 157.5 382Q132 357 132 310Z" glyph-name="g" horiz-adv-x="485" unicode="g" /><glyph d="M229 473Q313 473 363 436Q380 445 386.5 462.5Q393 480 398 506L476 479Q471 446 449.5 424.5Q428 403 399 396Q420 360 420 309Q420 269 405 239Q390 209 364 189Q338 169 303.5 159Q269 149 230 149Q213 149 196.5 151Q180 153 170 157Q153 148 146 136Q139 124 139 109Q139 71 188 71H301Q380 71 421 38Q462 5 462 -58Q462 -103 440 -133Q418 -163 382 -180Q346 -197 301 -204Q256 -211 211 -211Q173 -211 136.5 -205.5Q100 -200 71.5 -186Q43 -172 26 -149Q9 -126 9 -90Q9 -45 40 -17Q71 11 128 16Q96 20 80 40Q64 60 64 88Q64 116 79.5 137.5Q95 159 132 169Q90 188 66 223Q42 258 42 309Q42 348 55.5 378.5Q69 409 94 430Q119 451 153 462Q187 473 229 473ZM94 -80Q94 -117 129.5 -132Q165 -147 220 -147Q290 -147 332.5 -131Q375 -115 375 -71Q375 -45 358.5 -27.5Q342 -10 297 -10H197Q147 -10 120.5 -27Q94 -44 94 -80ZM132 310Q132 266 157 239.5Q182 213 229 213Q275 213 302.5 237Q330 261 330 310Q330 359 302.5 383.5Q275 408 229 407Q183 407 157.5 382Q132 357 132 310ZM236 526Q170 526 135 565Q100 604 100 667H171Q173 634 185.5 613.5Q198 593 236 593Q273 593 286 613.5Q299 634 301 667H372Q372 604 337 565Q302 526 236 526Z" glyph-name="gbreve" horiz-adv-x="485" unicode="&#287;" /><glyph d="M229 473Q313 473 363 436Q380 445 386.5 462.5Q393 480 398 506L476 479Q471 446 449.5 424.5Q428 403 399 396Q420 360 420 309Q420 269 405 239Q390 209 364 189Q338 169 303.5 159Q269 149 230 149Q213 149 196.5 151Q180 153 170 157Q153 148 146 136Q139 124 139 109Q139 71 188 71H301Q380 71 421 38Q462 5 462 -58Q462 -103 440 -133Q418 -163 382 -180Q346 -197 301 -204Q256 -211 211 -211Q173 -211 136.5 -205.5Q100 -200 71.5 -186Q43 -172 26 -149Q9 -126 9 -90Q9 -45 40 -17Q71 11 128 16Q96 20 80 40Q64 60 64 88Q64 116 79.5 137.5Q95 159 132 169Q90 188 66 223Q42 258 42 309Q42 348 55.5 378.5Q69 409 94 430Q119 451 153 462Q187 473 229 473ZM94 -80Q94 -117 129.5 -132Q165 -147 220 -147Q290 -147 332.5 -131Q375 -115 375 -71Q375 -45 358.5 -27.5Q342 -10 297 -10H197Q147 -10 120.5 -27Q94 -44 94 -80ZM132 310Q132 266 157 239.5Q182 213 229 213Q275 213 302.5 237Q330 261 330 310Q330 359 302.5 383.5Q275 408 229 407Q183 407 157.5 382Q132 357 132 310ZM269 677 394 530H302L268 572Q260 580 255.5 587.5Q251 595 249 600Q246 606 245 610H240Q239 606 236 600Q232 590 217 572L183 530H91L216 677Z" glyph-name="gcircumflex" horiz-adv-x="485" unicode="&#285;" /><glyph d="M229 473Q313 473 363 436Q380 445 386.5 462.5Q393 480 398 506L476 479Q471 446 449.5 424.5Q428 403 399 396Q420 360 420 309Q420 269 405 239Q390 209 364 189Q338 169 303.5 159Q269 149 230 149Q213 149 196.5 151Q180 153 170 157Q153 148 146 136Q139 124 139 109Q139 71 188 71H301Q380 71 421 38Q462 5 462 -58Q462 -103 440 -133Q418 -163 382 -180Q346 -197 301 -204Q256 -211 211 -211Q173 -211 136.5 -205.5Q100 -200 71.5 -186Q43 -172 26 -149Q9 -126 9 -90Q9 -45 40 -17Q71 11 128 16Q96 20 80 40Q64 60 64 88Q64 116 79.5 137.5Q95 159 132 169Q90 188 66 223Q42 258 42 309Q42 348 55.5 378.5Q69 409 94 430Q119 451 153 462Q187 473 229 473ZM94 -80Q94 -117 129.5 -132Q165 -147 220 -147Q290 -147 332.5 -131Q375 -115 375 -71Q375 -45 358.5 -27.5Q342 -10 297 -10H197Q147 -10 120.5 -27Q94 -44 94 -80ZM132 310Q132 266 157 239.5Q182 213 229 213Q275 213 302.5 237Q330 261 330 310Q330 359 302.5 383.5Q275 408 229 407Q183 407 157.5 382Q132 357 132 310ZM166 606Q166 663 197 687Q228 711 287 711V674Q258 672 242.5 663.5Q227 655 227 631Q254 636 271 622.5Q288 609 288 584Q288 558 272 544.5Q256 531 231 531Q205 531 185.5 551Q166 571 166 606Z" glyph-name="gcommaaccent" horiz-adv-x="485" unicode="&#291;" /><glyph d="M229 473Q313 473 363 436Q380 445 386.5 462.5Q393 480 398 506L476 479Q471 446 449.5 424.5Q428 403 399 396Q420 360 420 309Q420 269 405 239Q390 209 364 189Q338 169 303.5 159Q269 149 230 149Q213 149 196.5 151Q180 153 170 157Q153 148 146 136Q139 124 139 109Q139 71 188 71H301Q380 71 421 38Q462 5 462 -58Q462 -103 440 -133Q418 -163 382 -180Q346 -197 301 -204Q256 -211 211 -211Q173 -211 136.5 -205.5Q100 -200 71.5 -186Q43 -172 26 -149Q9 -126 9 -90Q9 -45 40 -17Q71 11 128 16Q96 20 80 40Q64 60 64 88Q64 116 79.5 137.5Q95 159 132 169Q90 188 66 223Q42 258 42 309Q42 348 55.5 378.5Q69 409 94 430Q119 451 153 462Q187 473 229 473ZM94 -80Q94 -117 129.5 -132Q165 -147 220 -147Q290 -147 332.5 -131Q375 -115 375 -71Q375 -45 358.5 -27.5Q342 -10 297 -10H197Q147 -10 120.5 -27Q94 -44 94 -80ZM132 310Q132 266 157 239.5Q182 213 229 213Q275 213 302.5 237Q330 261 330 310Q330 359 302.5 383.5Q275 408 229 407Q183 407 157.5 382Q132 357 132 310ZM171 595Q171 621 188.5 638Q206 655 231 655Q257 655 275 638Q293 621 293 595Q293 569 275 552Q257 535 231 535Q206 535 188.5 552Q171 569 171 595Z" glyph-name="gdotaccent" horiz-adv-x="485" unicode="&#289;" /><glyph d="M72 451Q72 511 87 553.5Q102 596 129 623Q156 650 194 662.5Q232 675 278 675Q367 675 414 632Q461 589 461 520Q461 456 429 422.5Q397 389 343 381V377Q416 372 457 324.5Q498 277 498 192Q498 99 455 43.5Q412 -12 321 -12Q273 -12 244.5 4.5Q216 21 196 56L240 117Q254 88 273 73Q292 58 321 58Q363 58 385 90Q407 122 407 195Q407 261 371 300.5Q335 340 269 340H218V412H259Q319 412 344.5 438Q370 464 370 507Q370 552 345 578Q320 604 274 604Q250 604 229.5 596.5Q209 589 194 571Q179 553 170.5 523Q162 493 162 448V0H72Z" glyph-name="germandbls" horiz-adv-x="536" unicode="&#223;" /><glyph d="M195 529 80 675H201L275 529Z" glyph-name="grave" horiz-adv-x="358" unicode="`" /><glyph d="M180 653 80 776H200L263 653Z" glyph-name="grave.cap" horiz-adv-x="343" unicode="&#58401;" /><glyph d="M47 417 82 459 334 247 83 33 46 75 253 247Z" glyph-name="greater" horiz-adv-x="384" unicode="&gt;" /><glyph d="M59 438 96 483 355 291 97 98 58 144 261 292ZM45 21V74H360V21Z" glyph-name="greaterequal" horiz-adv-x="405" unicode="&#8805;" /><glyph d="M301 231Q306 228 314 222Q321 217 331.5 207Q342 197 356 180L454 64L406 21L220 234L406 447L454 398L355 284Q341 267 331 257.5Q321 248 314 243Q306 237 301 235ZM110 231Q116 228 124 222Q138 211 165 180L264 64L215 21L30 234L215 447L264 398L165 284Q151 267 140.5 257.5Q130 248 123 243Q115 237 110 235Z" glyph-name="guillemotleft" horiz-adv-x="485" unicode="&#171;" /><glyph d="M184 235Q179 237 171 243Q164 248 153.5 257.5Q143 267 129 284L30 398L79 447L264 234L79 21L31 64L129 180Q143 197 153.5 207Q164 217 171 222Q179 228 184 231ZM374 235Q369 237 361 243Q354 248 343.5 257.5Q333 267 319 284L220 398L269 447L455 234L269 21L221 64L319 180Q333 197 343.5 207Q354 217 361 222Q369 228 374 231Z" glyph-name="guillemotright" horiz-adv-x="485" unicode="&#187;" /><glyph d="M110 231Q116 228 124 222Q138 211 165 180L264 64L215 21L30 234L215 447L264 398L165 284Q151 267 140.5 257.5Q130 248 123 243Q115 237 110 235Z" glyph-name="guilsinglleft" horiz-adv-x="294" unicode="&#8249;" /><glyph d="M184 235Q179 237 171 243Q164 248 153.5 257.5Q143 267 129 284L30 398L79 447L264 234L79 21L31 64L129 180Q143 197 153.5 207Q164 217 171 222Q179 228 184 231Z" glyph-name="guilsinglright" horiz-adv-x="294" unicode="&#8250;" /><glyph d="M162 374Q195 473 302 473Q330 473 355.5 465Q381 457 400.5 439.5Q420 422 431 395Q442 368 442 330V0H352V304Q352 346 332.5 370.5Q313 395 271 395Q250 395 230.5 389Q211 383 195.5 368Q180 353 171 328Q162 303 162 265V0H72V668H162Z" glyph-name="h" horiz-adv-x="509" unicode="h" /><glyph d="M162 594H306V529H162V374Q195 473 302 473Q330 473 355.5 465Q381 457 400.5 439.5Q420 422 431 395Q442 368 442 330V0H352V304Q352 346 332.5 370.5Q313 395 271 395Q250 395 230.5 389Q211 383 195.5 368Q180 353 171 328Q162 303 162 265V0H72V529H3V594H72V668H162Z" glyph-name="hbar" horiz-adv-x="509" unicode="&#295;" /><glyph d="M162 374Q195 473 302 473Q330 473 355.5 465Q381 457 400.5 439.5Q420 422 431 395Q442 368 442 330V0H352V304Q352 346 332.5 370.5Q313 395 271 395Q250 395 230.5 389Q211 383 195.5 368Q180 353 171 328Q162 303 162 265V0H72V668H162ZM147 828 272 699H175L144 732Q130 746 125 756Q122 761 121 766H118Q117 761 114 756Q112 751 107 745.5Q102 740 95 732L63 699H-33L91 828Z" glyph-name="hcircumflex" horiz-adv-x="509" unicode="&#293;" /><glyph d="M80 529 142 675H251L147 529ZM226 529 300 675H413L297 529Z" glyph-name="hungarumlaut" horiz-adv-x="493" unicode="&#733;" /><glyph d="M80 653 142 776H251L147 653ZM226 653 300 776H413L297 653Z" glyph-name="hungarumlaut.cap" horiz-adv-x="493" unicode="&#58411;" /><glyph d="M68 295H298V219H68Z" glyph-name="hyphen" horiz-adv-x="366" unicode="-" /><glyph d="M56 610Q56 637 74 653.5Q92 670 116 670Q142 670 160.5 653.5Q179 637 179 610Q179 584 160.5 567Q142 550 116 550Q92 550 74 567Q56 584 56 610ZM162 462V0H72V462Z" glyph-name="i" horiz-adv-x="234" unicode="i" /><glyph d="M162 462V0H72V462ZM73 529 147 675H268L152 529Z" glyph-name="iacute" horiz-adv-x="234" unicode="&#237;" /><glyph d="M162 462V0H72V462ZM117 526Q51 526 16 565Q-19 604 -19 667H52Q54 634 66.5 613.5Q79 593 117 593Q154 593 167 613.5Q180 634 182 667H253Q253 604 218 565Q183 526 117 526Z" glyph-name="ibreve" horiz-adv-x="234" unicode="&#301;" /><glyph d="M162 462V0H72V462ZM144 675 269 528H177L143 570Q135 578 130.5 585.5Q126 593 124 598Q121 604 120 608H115Q114 604 111 598Q107 588 92 570L58 528H-34L91 675Z" glyph-name="icircumflex" horiz-adv-x="234" unicode="&#238;" /><glyph d="M162 462V0H72V462ZM-41 595Q-41 621 -23.5 638Q-6 655 18 655Q43 655 60.5 638Q78 621 78 595Q78 569 60.5 552.5Q43 536 18 536Q-6 536 -23.5 552.5Q-41 569 -41 595ZM155 594Q155 620 172.5 637Q190 654 214 654Q240 654 257 637Q274 620 274 594Q274 569 257 552Q240 535 214 535Q190 535 172.5 552Q155 569 155 594Z" glyph-name="idieresis" horiz-adv-x="234" unicode="&#239;" /><glyph d="M162 462V0H72V462ZM56 609Q56 635 73.5 652Q91 669 116 669Q142 669 160 652Q178 635 178 609Q178 583 160 566Q142 549 116 549Q91 549 73.5 566Q56 583 56 609Z" glyph-name="idotaccent" horiz-adv-x="234" /><glyph d="M162 462V0H72V462ZM83 529 -32 675H89L163 529Z" glyph-name="igrave" horiz-adv-x="234" unicode="&#236;" /><glyph d="M3 558V631H230V558ZM162 462V0H72V462Z" glyph-name="imacron" horiz-adv-x="234" unicode="&#299;" /><glyph d="M-28 -106Q-28 -80 -19.5 -59.5Q-11 -39 3 -23Q17 -7 35 4Q53 15 72 22V462H162V0Q144 0 124 -5.5Q104 -11 88 -22.5Q72 -34 61.5 -51.5Q51 -69 51 -93Q51 -119 64.5 -134.5Q78 -150 104 -150Q129 -150 146 -138.5Q163 -127 174 -108L203 -152Q187 -178 160 -194.5Q133 -211 88 -211Q37 -211 4.5 -185Q-28 -159 -28 -106ZM56 610Q56 637 74 653.5Q92 670 116 670Q142 670 160.5 653.5Q179 637 179 610Q179 584 160.5 567Q142 550 116 550Q92 550 74 567Q56 584 56 610Z" glyph-name="iogonek" horiz-adv-x="234" unicode="&#303;" /><glyph d="M162 462V0H72V462ZM188 529Q165 529 150 535.5Q135 542 116 552Q96 564 83.5 570.5Q71 577 56 577Q40 577 31.5 566.5Q23 556 26 530H-29Q-38 554 -37 576.5Q-36 599 -26 616.5Q-16 634 2.5 644Q21 654 45 654Q71 654 88 646Q105 638 124 627Q144 615 155 609.5Q166 604 179 604Q193 604 201.5 614.5Q210 625 208 653H265Q283 600 262.5 564.5Q242 529 188 529Z" glyph-name="itilde" horiz-adv-x="234" unicode="&#297;" /><glyph d="M162 462V-7Q162 -64 147 -102.5Q132 -141 103.5 -164Q75 -187 34 -196Q-7 -205 -58 -203V-127Q10 -133 41 -106Q72 -79 72 -11V462ZM57 610Q57 637 74.5 653.5Q92 670 117 670Q143 670 161 653.5Q179 637 179 610Q179 584 161 567Q143 550 117 550Q92 550 74.5 567Q57 584 57 610Z" glyph-name="j" horiz-adv-x="234" unicode="j" /><glyph d="M162 462V-7Q162 -64 147 -102.5Q132 -141 103.5 -164Q75 -187 34 -196Q-7 -205 -58 -203V-127Q10 -133 41 -106Q72 -79 72 -11V462ZM144 675 269 528H177L143 570Q135 578 130.5 585.5Q126 593 124 598Q121 604 120 608H115Q114 604 111 598Q107 588 92 570L58 528H-34L91 675Z" glyph-name="jcircumflex" horiz-adv-x="234" unicode="&#309;" /><glyph d="M462 0H351L190 207H162V0H72V668H162V277H185L338 462H447L261 247Z" glyph-name="k" horiz-adv-x="468" unicode="k" /><glyph d="M462 0H351L190 207H162V0H72V668H162V277H185L338 462H447L261 247ZM314 -142Q314 -199 283 -223Q252 -247 193 -247V-210Q222 -208 237.5 -199.5Q253 -191 253 -167Q226 -172 209 -158.5Q192 -145 192 -120Q192 -94 207.5 -80.5Q223 -67 249 -67Q275 -67 294.5 -87Q314 -107 314 -142Z" glyph-name="kcommaaccent" horiz-adv-x="468" unicode="&#311;" /><glyph d="M462 0H351L190 207H162V0H72V462H161V277H185L338 462H447L261 247Z" glyph-name="kgreenlandic" horiz-adv-x="468" unicode="&#312;" /><glyph d="M228 0Q210 -5 197 -6.5Q184 -8 172 -8Q128 -8 97 16Q66 40 66 92V668H156V111Q156 89 167.5 79.5Q179 70 197 70Q207 70 214 71.5Q221 73 229 75Z" glyph-name="l" horiz-adv-x="261" unicode="l" /><glyph d="M228 0Q210 -5 197 -6.5Q184 -8 172 -8Q128 -8 97 16Q66 40 66 92V668H156V111Q156 89 167.5 79.5Q179 70 197 70Q207 70 214 71.5Q221 73 229 75ZM69 718 132 841H252L151 718Z" glyph-name="lacute" horiz-adv-x="261" unicode="&#314;" /><glyph d="M282 498H217L233 674H335ZM228 0Q210 -5 197 -6.5Q184 -8 172 -8Q128 -8 97 16Q66 40 66 92V668H156V111Q156 89 167.5 79.5Q179 70 197 70Q207 70 214 71.5Q221 73 229 75Z" glyph-name="lcaron" horiz-adv-x="261" unicode="&#318;" /><glyph d="M228 0Q210 -5 197 -6.5Q184 -8 172 -8Q128 -8 97 16Q66 40 66 92V668H156V111Q156 89 167.5 79.5Q179 70 197 70Q207 70 214 71.5Q221 73 229 75ZM212 -142Q212 -199 181 -223Q150 -247 91 -247V-210Q120 -208 135.5 -199.5Q151 -191 151 -167Q124 -172 107 -158.5Q90 -145 90 -120Q90 -94 105.5 -80.5Q121 -67 147 -67Q173 -67 192.5 -87Q212 -107 212 -142Z" glyph-name="lcommaaccent" horiz-adv-x="261" unicode="&#316;" /><glyph d="M228 0Q210 -5 197 -6.5Q184 -8 172 -8Q128 -8 97 16Q66 40 66 92V668H156V111Q156 89 167.5 79.5Q179 70 197 70Q207 70 214 71.5Q221 73 229 75ZM208 319Q208 348 227.5 367.5Q247 387 276 387Q305 387 324.5 367.5Q344 348 344 319Q344 290 324.5 270.5Q305 251 276 251Q247 251 227.5 270.5Q208 290 208 319Z" glyph-name="ldot" horiz-adv-x="323" unicode="&#320;" /><glyph d="M126 247 333 75 297 33 45 247 298 459 333 417Z" glyph-name="less" horiz-adv-x="384" unicode="&lt;" /><glyph d="M144 292 347 144 308 98 49 291 310 483 346 438ZM45 21V74H360V21Z" glyph-name="lessequal" horiz-adv-x="405" unicode="&#8804;" /><glyph d="M16 344 75 374V668H165V421L239 460V382L165 344V111Q165 89 176.5 79.5Q188 70 206 70Q216 70 223 71.5Q230 73 238 75L237 0Q219 -5 206 -6.5Q193 -8 181 -8Q137 -8 106 16Q75 40 75 92V299L16 269Z" glyph-name="lslash" horiz-adv-x="271" unicode="&#322;" /><glyph d="M424 371Q433 399 448 418.5Q463 438 482 450Q501 462 523.5 467.5Q546 473 569 473Q598 473 623 465Q648 457 666.5 440Q685 423 695.5 396.5Q706 370 706 334V0H616V304Q616 347 597 371Q578 395 539 395Q519 395 500 388Q481 381 466.5 365Q452 349 443 324.5Q434 300 434 265V0H344V304Q344 347 325 371Q306 395 267 395Q247 395 228.5 387.5Q210 380 195 364.5Q180 349 171 324Q162 299 162 265V0H72V462H143L154 373Q172 426 211.5 449.5Q251 473 298 473Q348 473 381.5 449.5Q415 426 424 371Z" glyph-name="m" horiz-adv-x="773" unicode="m" /><glyph d="M80 558V631H342V558Z" glyph-name="macron" horiz-adv-x="422" unicode="&#175;" /><glyph d="M80 674V745H344V674Z" glyph-name="macron.cap" horiz-adv-x="424" unicode="&#58405;" /><glyph d="M45 221V275H453V221Z" glyph-name="minus" horiz-adv-x="498" unicode="&#8722;" /><glyph d="M181 249 49 382 86 420 219 287 359 426 396 389 257 249 400 106 363 69 219 211 82 75 45 113Z" glyph-name="multiply" horiz-adv-x="445" unicode="&#215;" /><glyph d="M154 373Q173 425 211 449Q249 473 302 473Q330 473 355.5 465Q381 457 400.5 439.5Q420 422 431 395Q442 368 442 330V0H352V303Q352 346 332.5 370.5Q313 395 271 395Q250 395 230.5 388.5Q211 382 195.5 367Q180 352 171 327Q162 302 162 265V0H72V462H143Z" glyph-name="n" horiz-adv-x="509" unicode="n" /><glyph d="M154 373Q173 425 211 449Q249 473 302 473Q330 473 355.5 465Q381 457 400.5 439.5Q420 422 431 395Q442 368 442 330V0H352V303Q352 346 332.5 370.5Q313 395 271 395Q250 395 230.5 388.5Q211 382 195.5 367Q180 352 171 327Q162 302 162 265V0H72V462H143ZM215 529 289 675H410L294 529Z" glyph-name="nacute" horiz-adv-x="509" unicode="&#324;" /><glyph d="M154 373Q173 425 211 449Q249 473 302 473Q330 473 355.5 465Q381 457 400.5 439.5Q420 422 431 395Q442 368 442 330V0H352V303Q352 346 332.5 370.5Q313 395 271 395Q250 395 230.5 388.5Q211 382 195.5 367Q180 352 171 327Q162 302 162 265V0H72V462H143ZM234 528 109 675H201L235 632Q242 623 247 616Q252 609 254 604Q257 598 258 594H263Q264 598 267 604Q272 615 286 632L320 675H412L287 528Z" glyph-name="ncaron" horiz-adv-x="509" unicode="&#328;" /><glyph d="M154 373Q173 425 211 449Q249 473 302 473Q330 473 355.5 465Q381 457 400.5 439.5Q420 422 431 395Q442 368 442 330V0H352V303Q352 346 332.5 370.5Q313 395 271 395Q250 395 230.5 388.5Q211 382 195.5 367Q180 352 171 327Q162 302 162 265V0H72V462H143ZM323 -142Q323 -199 292 -223Q261 -247 202 -247V-210Q231 -208 246.5 -199.5Q262 -191 262 -167Q235 -172 218 -158.5Q201 -145 201 -120Q201 -94 216.5 -80.5Q232 -67 258 -67Q284 -67 303.5 -87Q323 -107 323 -142Z" glyph-name="ncommaaccent" horiz-adv-x="509" unicode="&#326;" /><glyph d="M110 140Q124 102 152 80.5Q180 59 226 59Q275 59 307 82Q339 105 357 144Q375 183 381.5 234.5Q388 286 387 342H383Q372 276 331 244Q290 212 233 212Q188 212 153 227Q118 242 94 267.5Q70 293 57.5 327.5Q45 362 45 400Q45 440 58 476.5Q71 513 96.5 541Q122 569 160 585Q198 601 248 601Q350 601 410 531Q470 461 470 316Q470 150 407 69Q344 -12 223 -12Q151 -12 105 17Q59 46 37 101ZM362 408Q362 436 353 458Q344 480 328 495.5Q312 511 291.5 519.5Q271 528 247 528Q196 528 163.5 496Q131 464 131 408Q131 350 163.5 317Q196 284 247 284Q271 284 291.5 292.5Q312 301 328 317Q344 333 353 356Q362 379 362 408Z" glyph-name="nine" horiz-adv-x="519" unicode="9" /><glyph glyph-name="nonmarkingreturn" horiz-adv-x="221" unicode="" /><glyph d="M326 285 261 207H453V154H217L114 29L73 63L148 154H45V207H191L256 285H45V338H299L393 451L435 417L368 338H453V285Z" glyph-name="notequal" horiz-adv-x="498" unicode="&#8800;" /><glyph d="M154 373Q173 425 211 449Q249 473 302 473Q330 473 355.5 465Q381 457 400.5 439.5Q420 422 431 395Q442 368 442 330V0H352V303Q352 346 332.5 370.5Q313 395 271 395Q250 395 230.5 388.5Q211 382 195.5 367Q180 352 171 327Q162 302 162 265V0H72V462H143ZM332 529Q309 529 294 535.5Q279 542 260 552Q240 564 227.5 570.5Q215 577 200 577Q184 577 175.5 566.5Q167 556 170 530H115Q106 554 107 576.5Q108 599 118 616.5Q128 634 146.5 644Q165 654 189 654Q215 654 232 646Q249 638 268 627Q288 615 299 609.5Q310 604 323 604Q337 604 345.5 614.5Q354 625 352 653H409Q427 600 406.5 564.5Q386 529 332 529Z" glyph-name="ntilde" horiz-adv-x="509" unicode="&#241;" /><glyph d="M395 192 337 0H268L326 192H221L163 0H94L152 192H36V259H172L197 341H56V408H217L272 588H342L287 408H390L445 588H516L461 408H573V341H441L416 259H553V192ZM242 259H346L370 341H267Z" glyph-name="numbersign" horiz-adv-x="609" unicode="#" /><glyph d="M252 -12Q204 -12 165.5 4Q127 20 99.5 51.5Q72 83 57 129Q42 175 42 234Q42 352 99 412.5Q156 473 252 473Q348 473 405.5 412.5Q463 352 463 234Q463 115 405.5 51.5Q348 -12 252 -12ZM252 400Q131 400 131 233Q131 59 252 59Q374 59 374 233Q374 400 252 400Z" glyph-name="o" horiz-adv-x="505" unicode="o" /><glyph d="M252 -12Q204 -12 165.5 4Q127 20 99.5 51.5Q72 83 57 129Q42 175 42 234Q42 352 99 412.5Q156 473 252 473Q348 473 405.5 412.5Q463 352 463 234Q463 115 405.5 51.5Q348 -12 252 -12ZM252 400Q131 400 131 233Q131 59 252 59Q374 59 374 233Q374 400 252 400ZM205 529 279 675H400L284 529Z" glyph-name="oacute" horiz-adv-x="505" unicode="&#243;" /><glyph d="M252 -12Q204 -12 165.5 4Q127 20 99.5 51.5Q72 83 57 129Q42 175 42 234Q42 352 99 412.5Q156 473 252 473Q348 473 405.5 412.5Q463 352 463 234Q463 115 405.5 51.5Q348 -12 252 -12ZM252 400Q131 400 131 233Q131 59 252 59Q374 59 374 233Q374 400 252 400ZM253 526Q187 526 152 565Q117 604 117 667H188Q190 634 202.5 613.5Q215 593 253 593Q290 593 303 613.5Q316 634 318 667H389Q389 604 354 565Q319 526 253 526Z" glyph-name="obreve" horiz-adv-x="505" unicode="&#335;" /><glyph d="M252 -12Q204 -12 165.5 4Q127 20 99.5 51.5Q72 83 57 129Q42 175 42 234Q42 352 99 412.5Q156 473 252 473Q348 473 405.5 412.5Q463 352 463 234Q463 115 405.5 51.5Q348 -12 252 -12ZM252 400Q131 400 131 233Q131 59 252 59Q374 59 374 233Q374 400 252 400ZM279 675 404 528H312L278 570Q270 578 265.5 585.5Q261 593 259 598Q256 604 255 608H250Q249 604 246 598Q242 588 227 570L193 528H101L226 675Z" glyph-name="ocircumflex" horiz-adv-x="505" unicode="&#244;" /><glyph d="M252 -12Q204 -12 165.5 4Q127 20 99.5 51.5Q72 83 57 129Q42 175 42 234Q42 352 99 412.5Q156 473 252 473Q348 473 405.5 412.5Q463 352 463 234Q463 115 405.5 51.5Q348 -12 252 -12ZM252 400Q131 400 131 233Q131 59 252 59Q374 59 374 233Q374 400 252 400ZM94 595Q94 621 111.5 638Q129 655 153 655Q178 655 195.5 638Q213 621 213 595Q213 569 195.5 552.5Q178 536 153 536Q129 536 111.5 552.5Q94 569 94 595ZM290 594Q290 620 307.5 637Q325 654 349 654Q375 654 392 637Q409 620 409 594Q409 569 392 552Q375 535 349 535Q325 535 307.5 552Q290 569 290 594Z" glyph-name="odieresis" horiz-adv-x="505" unicode="&#246;" /><glyph d="M586 59Q624 59 649.5 75.5Q675 92 687 134L766 113Q759 78 741.5 54Q724 30 699 15.5Q674 1 643.5 -5.5Q613 -12 580 -12Q526 -12 482.5 10.5Q439 33 417 81Q397 33 353.5 10.5Q310 -12 252 -12Q204 -12 165.5 4Q127 20 99.5 51.5Q72 83 57 129Q42 175 42 234Q42 352 99 412.5Q156 473 252 473Q310 473 354.5 451Q399 429 419 379Q441 425 484.5 449Q528 473 585 473Q630 473 664 458.5Q698 444 721.5 417.5Q745 391 756.5 355Q768 319 768 276Q768 256 766 239.5Q764 223 760 212H462Q465 144 496 101.5Q527 59 586 59ZM252 400Q131 400 131 233Q131 59 252 59Q374 59 374 233Q374 400 252 400ZM680 277Q681 282 681 286.5Q681 291 681 296Q681 341 654.5 371.5Q628 402 580 402Q531 402 501 369.5Q471 337 464 277Z" glyph-name="oe" horiz-adv-x="811" unicode="&#339;" /><glyph d="M252 -12Q204 -12 165.5 4Q127 20 99.5 51.5Q72 83 57 129Q42 175 42 234Q42 352 99 412.5Q156 473 252 473Q348 473 405.5 412.5Q463 352 463 234Q463 115 405.5 51.5Q348 -12 252 -12ZM252 400Q131 400 131 233Q131 59 252 59Q374 59 374 233Q374 400 252 400ZM220 529 105 675H226L300 529Z" glyph-name="ograve" horiz-adv-x="505" unicode="&#242;" /><glyph d="M252 -12Q204 -12 165.5 4Q127 20 99.5 51.5Q72 83 57 129Q42 175 42 234Q42 352 99 412.5Q156 473 252 473Q348 473 405.5 412.5Q463 352 463 234Q463 115 405.5 51.5Q348 -12 252 -12ZM252 400Q131 400 131 233Q131 59 252 59Q374 59 374 233Q374 400 252 400ZM140 529 202 675H311L207 529ZM286 529 360 675H473L357 529Z" glyph-name="ohungarumlaut" horiz-adv-x="505" unicode="&#337;" /><glyph d="M252 -12Q204 -12 165.5 4Q127 20 99.5 51.5Q72 83 57 129Q42 175 42 234Q42 352 99 412.5Q156 473 252 473Q348 473 405.5 412.5Q463 352 463 234Q463 115 405.5 51.5Q348 -12 252 -12ZM252 400Q131 400 131 233Q131 59 252 59Q374 59 374 233Q374 400 252 400ZM122 558V631H384V558Z" glyph-name="omacron" horiz-adv-x="505" unicode="&#333;" /><glyph d="M142 0V490L15 469V551L235 590V0Z" glyph-name="one" horiz-adv-x="333" unicode="1" /><glyph d="M32 -203V-147H128V81L22 70V128L200 151V-147H286V-203Z" glyph-name="one.inf" horiz-adv-x="298" unicode="&#58738;" /><glyph d="M51 236V292H147V520L41 509V567L219 590V292H305V236ZM554 590H616L310 0H248ZM802 0H536V52Q579 82 611.5 106.5Q644 131 666 153.5Q688 176 699.5 198Q711 220 711 245Q711 271 697 284.5Q683 298 657 298Q627 298 612.5 278.5Q598 259 597 230L537 257Q537 276 546 294.5Q555 313 571.5 328Q588 343 612 352Q636 361 668 361Q692 361 713 354.5Q734 348 750.5 334.5Q767 321 776.5 300.5Q786 280 786 252Q786 214 769.5 184Q753 154 728.5 131Q704 108 676 90.5Q648 73 626 61V57H802Z" glyph-name="onehalf" horiz-adv-x="864" unicode="&#189;" /><glyph d="M51 236V292H147V520L41 509V567L219 590V292H305V236ZM707 86H528V140L704 353H779V140H836V86H779V0H707ZM709 223Q709 238 709.5 250.5Q710 263 711 273Q712 284 713 294H709Q706 287 701 277Q696 269 689.5 258Q683 247 674 235L632 185Q623 174 614.5 165.5Q606 157 599 151Q591 144 584 139V135Q589 136 597 137Q604 138 614 138.5Q624 139 640 139H709ZM554 590H616L310 0H248Z" glyph-name="onequarter" horiz-adv-x="864" unicode="&#188;" /><glyph d="M32 236V292H128V520L22 509V567L200 590V292H286V236Z" glyph-name="onesuperior" horiz-adv-x="298" unicode="&#185;" /><glyph d="M211 423Q157 424 133.5 411.5Q110 399 110 371Q110 352 120.5 341Q131 330 153 330Q173 330 192 342Q211 354 211 380ZM287 363Q287 349 293 344.5Q299 340 307 340Q315 340 320.5 342.5Q326 345 331 348V293Q323 288 309.5 285Q296 282 282 282Q256 282 238 292Q220 302 215 328Q204 301 180 290Q156 279 126 279Q86 279 60.5 300.5Q35 322 35 361Q35 412 75.5 439.5Q116 467 211 464V492Q211 520 198.5 532.5Q186 545 164 545Q142 545 129.5 533Q117 521 115 502L45 512Q47 536 58 553Q69 570 86 580.5Q103 591 124.5 596Q146 601 169 601Q192 601 213 596.5Q234 592 250.5 580.5Q267 569 277 551Q287 533 287 506Z" glyph-name="ordfeminine" horiz-adv-x="362" unicode="&#170;" /><glyph d="M191 279Q125 279 84.5 320.5Q44 362 44 442Q44 520 84.5 560.5Q125 601 191 601Q257 601 297.5 560.5Q338 520 338 442Q338 362 297.5 320.5Q257 279 191 279ZM191 548Q121 548 121 442Q121 332 191 332Q261 332 261 442Q261 548 191 548Z" glyph-name="ordmasculine" horiz-adv-x="382" unicode="&#186;" /><glyph d="M25 25 78 81Q61 111 51.5 149Q42 187 42 234Q42 352 99 412.5Q156 473 252 473Q341 473 395 422L442 472L487 434L432 375Q463 318 463 234Q463 115 405.5 51.5Q348 -12 252 -12Q169 -12 116 35L70 -14ZM252 400Q131 400 131 233Q131 182 141 149L340 363Q309 400 252 400ZM374 233Q374 272 366 304L169 92Q199 59 252 59Q374 59 374 233Z" glyph-name="oslash" horiz-adv-x="505" unicode="&#248;" /><glyph d="M25 25 78 81Q61 111 51.5 149Q42 187 42 234Q42 352 99 412.5Q156 473 252 473Q341 473 395 422L442 472L487 434L432 375Q463 318 463 234Q463 115 405.5 51.5Q348 -12 252 -12Q169 -12 116 35L70 -14ZM252 400Q131 400 131 233Q131 182 141 149L340 363Q309 400 252 400ZM374 233Q374 272 366 304L169 92Q199 59 252 59Q374 59 374 233ZM213 529 287 675H408L292 529Z" glyph-name="oslashacute" horiz-adv-x="505" unicode="&#511;" /><glyph d="M252 -12Q204 -12 165.5 4Q127 20 99.5 51.5Q72 83 57 129Q42 175 42 234Q42 352 99 412.5Q156 473 252 473Q348 473 405.5 412.5Q463 352 463 234Q463 115 405.5 51.5Q348 -12 252 -12ZM252 400Q131 400 131 233Q131 59 252 59Q374 59 374 233Q374 400 252 400ZM322 529Q299 529 284 535.5Q269 542 250 552Q230 564 217.5 570.5Q205 577 190 577Q174 577 165.5 566.5Q157 556 160 530H105Q96 554 97 576.5Q98 599 108 616.5Q118 634 136.5 644Q155 654 179 654Q205 654 222 646Q239 638 258 627Q278 615 289 609.5Q300 604 313 604Q327 604 335.5 614.5Q344 625 342 653H399Q417 600 396.5 564.5Q376 529 322 529Z" glyph-name="otilde" horiz-adv-x="505" unicode="&#245;" /><glyph d="M162 179Q162 146 172 122.5Q182 99 198.5 84Q215 69 234.5 62.5Q254 56 274 56Q300 56 323 66.5Q346 77 363 99Q380 121 390 154.5Q400 188 400 234Q400 318 369 358.5Q338 399 284 399Q259 399 237 390Q215 381 198.5 363.5Q182 346 172 321Q162 296 162 264ZM162 -203H72V462H146L157 373Q167 401 184 420Q201 439 222 451Q243 463 265.5 468Q288 473 310 473Q395 473 443.5 413.5Q492 354 492 242Q492 189 478.5 143Q465 97 439.5 62.5Q414 28 377 8Q340 -12 292 -12Q238 -12 206 9.5Q174 31 162 61Z" glyph-name="p" horiz-adv-x="534" unicode="p" /><glyph d="M401 -21Q401 -59 390.5 -86Q380 -113 361 -130Q342 -147 315.5 -155Q289 -163 258 -163Q230 -163 206 -157.5Q182 -152 153 -136L177 -54Q196 -71 216 -77.5Q236 -84 254 -84Q280 -84 294.5 -71.5Q309 -59 309 -25V174H261Q152 174 92 223Q32 272 32 375Q32 487 102 538Q172 589 300 589H480V517H401Z" glyph-name="paragraph" horiz-adv-x="523" unicode="&#182;" /><glyph d="M155 233Q155 163 167.5 105Q180 47 203 -5Q226 -57 258.5 -105Q291 -153 331 -202H231Q197 -161 167 -115.5Q137 -70 114.5 -17Q92 36 79 98Q66 160 66 233Q66 306 79 368Q92 430 114.5 483Q137 536 167 581.5Q197 627 231 668H331Q291 619 258.5 571Q226 523 203 471Q180 419 167.5 361Q155 303 155 233Z" glyph-name="parenleft" horiz-adv-x="337" unicode="(" /><glyph d="M182 233Q182 303 169.5 361Q157 419 134 471Q111 523 78.5 571Q46 619 6 668H106Q140 627 170 581.5Q200 536 222.5 483Q245 430 258 368Q271 306 271 233Q271 160 258 98Q245 36 222.5 -17Q200 -70 170 -115.5Q140 -161 106 -202H6Q46 -153 78.5 -105Q111 -57 134 -5Q157 47 169.5 105Q182 163 182 233Z" glyph-name="parenright" horiz-adv-x="337" unicode=")" /><glyph d="M175 229Q104 229 68.5 280Q33 331 33 413Q33 453 43 487Q53 521 71 545.5Q89 570 115.5 583.5Q142 597 175 597Q208 597 234 583.5Q260 570 278 545.5Q296 521 306 487Q316 453 316 413Q316 331 280.5 280Q245 229 175 229ZM175 534Q140 534 122.5 500Q105 466 105 412Q105 359 122.5 323.5Q140 288 175 288Q209 288 227 323.5Q245 359 245 412Q245 466 227.5 500Q210 534 175 534ZM554 590H616L310 0H248ZM689 -7Q618 -7 582.5 44Q547 95 547 177Q547 217 557 251Q567 285 585 309.5Q603 334 629.5 347.5Q656 361 689 361Q722 361 748 347.5Q774 334 792 309.5Q810 285 820 251Q830 217 830 177Q830 95 794.5 44Q759 -7 689 -7ZM689 298Q654 298 636.5 264Q619 230 619 176Q619 123 636.5 87.5Q654 52 689 52Q723 52 741 87.5Q759 123 759 176Q759 230 741.5 264Q724 298 689 298Z" glyph-name="percent" horiz-adv-x="863" unicode="%" /><glyph d="M75 62Q75 91 94.5 110.5Q114 130 143 130Q172 130 191.5 110.5Q211 91 211 62Q211 33 191.5 13.5Q172 -6 143 -6Q114 -6 94.5 13.5Q75 33 75 62Z" glyph-name="period" horiz-adv-x="286" unicode="." /><glyph d="M75 266Q75 295 94.5 314.5Q114 334 143 334Q172 334 191.5 314.5Q211 295 211 266Q211 237 191.5 217.5Q172 198 143 198Q114 198 94.5 217.5Q75 237 75 266Z" glyph-name="periodcentered" horiz-adv-x="286" unicode="&#8901;" /><glyph d="M75 302Q75 331 94.5 350.5Q114 370 143 370Q172 370 191.5 350.5Q211 331 211 302Q211 273 191.5 253.5Q172 234 143 234Q114 234 94.5 253.5Q75 273 75 302Z" glyph-name="periodcentered.cap" horiz-adv-x="286" unicode="&#58497;" /><glyph d="M220 275V445H274V275H453V221H274V37H220V221H45V275Z" glyph-name="plus" horiz-adv-x="498" unicode="+" /><glyph d="M220 340V474H274V340H453V286H274V138H220V286H45V340ZM45 43V96H453V43Z" glyph-name="plusminus" horiz-adv-x="498" unicode="&#177;" /><glyph d="M372 286Q372 317 361.5 339Q351 361 334.5 375Q318 389 297.5 396Q277 403 257 403Q231 403 208.5 393.5Q186 384 169.5 363Q153 342 143 308.5Q133 275 133 226Q133 144 166 101.5Q199 59 256 59Q275 59 295.5 66.5Q316 74 333 90Q350 106 361 129.5Q372 153 372 185ZM401 462H462V-203H372V80Q352 27 313.5 7.5Q275 -12 225 -12Q189 -12 155.5 3Q122 18 97 47Q72 76 57 120Q42 164 42 223Q42 341 95.5 407Q149 473 248 473Q294 473 328.5 452Q363 431 374 402Z" glyph-name="q" horiz-adv-x="534" unicode="q" /><glyph d="M0 460Q14 523 60.5 562Q107 601 189 601Q232 601 266.5 588Q301 575 325.5 552Q350 529 363.5 497Q377 465 377 426Q377 380 361.5 346.5Q346 313 321 291.5Q296 270 265.5 259Q235 248 204 247V165H122V299H158Q215 299 249.5 327Q284 355 284 419Q284 474 256 499.5Q228 525 183 525Q143 525 115.5 503Q88 481 80 431ZM100 56Q100 83 118 100.5Q136 118 163 118Q190 118 208.5 100.5Q227 83 227 56Q227 30 208.5 12Q190 -6 163 -6Q136 -6 118 12Q100 30 100 56Z" glyph-name="question" horiz-adv-x="394" unicode="?" /><glyph d="M394 2Q380 -61 333.5 -100Q287 -139 205 -139Q162 -139 127.5 -126Q93 -113 68.5 -90Q44 -67 30.5 -35Q17 -3 17 36Q17 82 32.5 115.5Q48 149 72.5 170.5Q97 192 128 203Q159 214 190 215V297H272V163H236Q179 163 144.5 135Q110 107 110 43Q110 -12 138 -37.5Q166 -63 211 -63Q251 -63 278.5 -41Q306 -19 314 31ZM294 406Q294 379 276 361.5Q258 344 231 344Q204 344 185.5 361.5Q167 379 167 406Q167 432 185.5 450Q204 468 231 468Q258 468 276 450Q294 432 294 406Z" glyph-name="questiondown" horiz-adv-x="394" unicode="&#191;" /><glyph d="M61 668H159L117 412H61ZM209 668H307L265 412H209Z" glyph-name="quotedbl" horiz-adv-x="348" unicode="&quot;" /><glyph d="M190 31Q190 -44 148.5 -78Q107 -112 38 -116V-73Q75 -68 97 -50.5Q119 -33 119 1Q88 -5 67.5 11Q47 27 47 57Q47 86 66 102.5Q85 119 114 119Q145 119 167.5 95.5Q190 72 190 31ZM383 31Q383 -44 341.5 -78Q300 -112 231 -116V-73Q268 -68 290 -50.5Q312 -33 312 1Q281 -5 260.5 11Q240 27 240 57Q240 86 259 102.5Q278 119 307 119Q338 119 360.5 95.5Q383 72 383 31Z" glyph-name="quotedblbase" horiz-adv-x="421" unicode="&#8222;" /><glyph d="M38 531Q38 606 79.5 640Q121 674 190 678V635Q153 630 131 612.5Q109 595 109 561Q140 567 160.5 551Q181 535 181 505Q181 476 162 459.5Q143 443 114 443Q83 443 60.5 466.5Q38 490 38 531ZM231 531Q231 606 272.5 640Q314 674 383 678V635Q346 630 324 612.5Q302 595 302 561Q333 567 353.5 551Q374 535 374 505Q374 476 355 459.5Q336 443 307 443Q276 443 253.5 466.5Q231 490 231 531Z" glyph-name="quotedblleft" horiz-adv-x="421" unicode="&#8220;" /><glyph d="M190 590Q190 515 148.5 481Q107 447 38 443V486Q75 491 97 508.5Q119 526 119 560Q88 554 67.5 570Q47 586 47 616Q47 645 66 661.5Q85 678 114 678Q145 678 167.5 654.5Q190 631 190 590ZM383 590Q383 515 341.5 481Q300 447 231 443V486Q268 491 290 508.5Q312 526 312 560Q281 554 260.5 570Q240 586 240 616Q240 645 259 661.5Q278 678 307 678Q338 678 360.5 654.5Q383 631 383 590Z" glyph-name="quotedblright" horiz-adv-x="421" unicode="&#8221;" /><glyph d="M38 531Q38 606 79.5 640Q121 674 190 678V635Q153 630 131 612.5Q109 595 109 561Q140 567 160.5 551Q181 535 181 505Q181 476 162 459.5Q143 443 114 443Q83 443 60.5 466.5Q38 490 38 531Z" glyph-name="quoteleft" horiz-adv-x="228" unicode="&#8216;" /><glyph d="M190 590Q190 515 148.5 481Q107 447 38 443V486Q75 491 97 508.5Q119 526 119 560Q88 554 67.5 570.5Q47 587 47 616Q47 646 66 662Q85 678 114 678Q145 678 167.5 655Q190 632 190 590Z" glyph-name="quoteright" horiz-adv-x="228" unicode="&#8217;" /><glyph d="M190 31Q190 -44 148.5 -78Q107 -112 38 -116V-73Q75 -68 97 -50.5Q119 -33 119 1Q88 -5 67.5 11.5Q47 28 47 57Q47 87 66 103Q85 119 114 119Q145 119 167.5 96Q190 73 190 31Z" glyph-name="quotesinglbase" horiz-adv-x="228" unicode="&#8218;" /><glyph d="M61 668H159L117 412H61Z" glyph-name="quotesingle" horiz-adv-x="200" unicode="'" /><glyph d="M331 371Q323 373 312 374Q301 375 290 375Q266 375 243 365.5Q220 356 202 338Q184 320 173 294Q162 268 162 234V0H72V462H148L159 337Q172 399 216.5 437.5Q261 476 338 472Z" glyph-name="r" horiz-adv-x="356" unicode="r" /><glyph d="M331 371Q323 373 312 374Q301 375 290 375Q266 375 243 365.5Q220 356 202 338Q184 320 173 294Q162 268 162 234V0H72V462H148L159 337Q172 399 216.5 437.5Q261 476 338 472ZM158 529 232 675H353L237 529Z" glyph-name="racute" horiz-adv-x="356" unicode="&#341;" /><glyph d="M331 371Q323 373 312 374Q301 375 290 375Q266 375 243 365.5Q220 356 202 338Q184 320 173 294Q162 268 162 234V0H72V462H148L159 337Q172 399 216.5 437.5Q261 476 338 472ZM169 528 44 675H136L170 632Q177 623 182 616Q187 609 189 604Q192 598 193 594H198Q199 598 202 604Q207 615 221 632L255 675H347L222 528Z" glyph-name="rcaron" horiz-adv-x="356" unicode="&#345;" /><glyph d="M331 371Q323 373 312 374Q301 375 290 375Q266 375 243 365.5Q220 356 202 338Q184 320 173 294Q162 268 162 234V0H72V462H148L159 337Q172 399 216.5 437.5Q261 476 338 472ZM178 -142Q178 -199 147 -223Q116 -247 57 -247V-210Q86 -208 101.5 -199.5Q117 -191 117 -167Q90 -172 73 -158.5Q56 -145 56 -120Q56 -94 71.5 -80.5Q87 -67 113 -67Q139 -67 158.5 -87Q178 -107 178 -142Z" glyph-name="rcommaaccent" horiz-adv-x="356" unicode="&#343;" /><glyph d="M430 120Q423 129 419 137.5Q415 146 412 160L401 205Q394 231 373.5 242Q353 253 326 253H298V120H224V481H365Q426 481 462 454Q498 427 498 369Q498 324 470 301Q442 278 398 276Q427 271 447 260Q467 249 476 219L490 165Q494 152 499 140.5Q504 129 512 120ZM298 310H346Q391 310 408 324Q425 338 425 364Q425 390 407 405Q389 420 356 420H298ZM45 294Q45 361 69 417Q93 473 134.5 514Q176 555 232 578Q288 601 351 601Q414 601 470 578Q526 555 568 514Q610 473 634 417Q658 361 658 294Q658 227 634 171Q610 115 568 74.5Q526 34 470 11Q414 -12 351 -12Q288 -12 232 11Q176 34 134.5 74.5Q93 115 69 171Q45 227 45 294ZM76 294Q76 233 97.5 182Q119 131 156.5 94.5Q194 58 244.5 37.5Q295 17 352 17Q409 17 459 37.5Q509 58 546.5 94.5Q584 131 606 182Q628 233 628 294Q628 355 606 406Q584 457 546.5 494Q509 531 459 551.5Q409 572 352 572Q295 572 244.5 551.5Q194 531 156.5 494Q119 457 97.5 406Q76 355 76 294Z" glyph-name="registered" horiz-adv-x="703" unicode="&#174;" /><glyph d="M183 520Q133 520 106.5 549Q80 578 80 620Q80 659 108 687.5Q136 716 183 716Q230 716 258 687.5Q286 659 286 620Q286 578 259.5 549Q233 520 183 520ZM183 674Q157 674 142.5 658.5Q128 643 128 618Q128 595 142 580Q156 565 183 565Q210 565 224 580Q238 595 238 618Q238 643 223.5 658.5Q209 674 183 674Z" glyph-name="ring" horiz-adv-x="366" unicode="&#730;" /><glyph d="M183 635Q133 635 106.5 664Q80 693 80 735Q80 774 108 803Q136 832 183 832Q230 832 258 803Q286 774 286 735Q286 693 259.5 664Q233 635 183 635ZM183 790Q157 790 142.5 774Q128 758 128 733Q128 710 142 695Q156 680 183 680Q210 680 224 695Q238 710 238 733Q238 758 223.5 774Q209 790 183 790Z" glyph-name="ring.cap" horiz-adv-x="366" unicode="&#58410;" /><glyph d="M107 128Q112 88 138.5 70Q165 52 207 52Q247 52 273 67Q299 82 299 114Q299 143 284 159.5Q269 176 227 187L159 203Q96 218 69.5 250.5Q43 283 43 334Q43 373 58 399.5Q73 426 97 442.5Q121 459 152.5 466Q184 473 217 473Q290 473 333 444.5Q376 416 383 348L295 338Q291 405 211 405Q173 405 151.5 388.5Q130 372 130 343Q130 318 142.5 302Q155 286 193 278L257 263Q319 248 352 216.5Q385 185 385 124Q385 87 371 61Q357 35 333 19Q309 3 276.5 -4.5Q244 -12 206 -12Q127 -12 82 14.5Q37 41 27 104Z" glyph-name="s" horiz-adv-x="419" unicode="s" /><glyph d="M107 128Q112 88 138.5 70Q165 52 207 52Q247 52 273 67Q299 82 299 114Q299 143 284 159.5Q269 176 227 187L159 203Q96 218 69.5 250.5Q43 283 43 334Q43 373 58 399.5Q73 426 97 442.5Q121 459 152.5 466Q184 473 217 473Q290 473 333 444.5Q376 416 383 348L295 338Q291 405 211 405Q173 405 151.5 388.5Q130 372 130 343Q130 318 142.5 302Q155 286 193 278L257 263Q319 248 352 216.5Q385 185 385 124Q385 87 371 61Q357 35 333 19Q309 3 276.5 -4.5Q244 -12 206 -12Q127 -12 82 14.5Q37 41 27 104ZM177 529 251 675H372L256 529Z" glyph-name="sacute" horiz-adv-x="419" unicode="&#347;" /><glyph d="M107 128Q112 88 138.5 70Q165 52 207 52Q247 52 273 67Q299 82 299 114Q299 143 284 159.5Q269 176 227 187L159 203Q96 218 69.5 250.5Q43 283 43 334Q43 373 58 399.5Q73 426 97 442.5Q121 459 152.5 466Q184 473 217 473Q290 473 333 444.5Q376 416 383 348L295 338Q291 405 211 405Q173 405 151.5 388.5Q130 372 130 343Q130 318 142.5 302Q155 286 193 278L257 263Q319 248 352 216.5Q385 185 385 124Q385 87 371 61Q357 35 333 19Q309 3 276.5 -4.5Q244 -12 206 -12Q127 -12 82 14.5Q37 41 27 104ZM189 528 64 675H156L190 632Q197 623 202 616Q207 609 209 604Q212 598 213 594H218Q219 598 222 604Q227 615 241 632L275 675H367L242 528Z" glyph-name="scaron" horiz-adv-x="419" unicode="&#353;" /><glyph d="M310 -124Q310 -169 279.5 -190Q249 -211 205 -211Q143 -211 115 -173L139 -122Q164 -158 202 -158Q219 -158 228.5 -149.5Q238 -141 238 -124Q238 -105 222.5 -94Q207 -83 172 -82L177 -11Q111 -6 73.5 20.5Q36 47 27 104L107 128Q112 88 138.5 70Q165 52 207 52Q247 52 273 67Q299 82 299 114Q299 143 284 159.5Q269 176 227 187L159 203Q96 218 69.5 250.5Q43 283 43 334Q43 373 58 399.5Q73 426 97 442.5Q121 459 152.5 466Q184 473 217 473Q290 473 333 444.5Q376 416 383 348L295 338Q291 405 211 405Q173 405 151.5 388.5Q130 372 130 343Q130 318 142.5 302Q155 286 193 278L257 263Q319 248 352 216.5Q385 185 385 124Q385 89 373 64Q361 39 339 23Q317 7 287.5 -1.5Q258 -10 224 -11L222 -41Q269 -45 289.5 -66.5Q310 -88 310 -124Z" glyph-name="scedilla" horiz-adv-x="419" unicode="&#351;" /><glyph d="M107 128Q112 88 138.5 70Q165 52 207 52Q247 52 273 67Q299 82 299 114Q299 143 284 159.5Q269 176 227 187L159 203Q96 218 69.5 250.5Q43 283 43 334Q43 373 58 399.5Q73 426 97 442.5Q121 459 152.5 466Q184 473 217 473Q290 473 333 444.5Q376 416 383 348L295 338Q291 405 211 405Q173 405 151.5 388.5Q130 372 130 343Q130 318 142.5 302Q155 286 193 278L257 263Q319 248 352 216.5Q385 185 385 124Q385 87 371 61Q357 35 333 19Q309 3 276.5 -4.5Q244 -12 206 -12Q127 -12 82 14.5Q37 41 27 104ZM250 675 375 528H283L249 570Q241 578 236.5 585.5Q232 593 230 598Q227 604 226 608H221Q220 604 217 598Q213 588 198 570L164 528H72L197 675Z" glyph-name="scircumflex" horiz-adv-x="419" unicode="&#349;" /><glyph d="M107 128Q112 88 138.5 70Q165 52 207 52Q247 52 273 67Q299 82 299 114Q299 143 284 159.5Q269 176 227 187L159 203Q96 218 69.5 250.5Q43 283 43 334Q43 373 58 399.5Q73 426 97 442.5Q121 459 152.5 466Q184 473 217 473Q290 473 333 444.5Q376 416 383 348L295 338Q291 405 211 405Q173 405 151.5 388.5Q130 372 130 343Q130 318 142.5 302Q155 286 193 278L257 263Q319 248 352 216.5Q385 185 385 124Q385 87 371 61Q357 35 333 19Q309 3 276.5 -4.5Q244 -12 206 -12Q127 -12 82 14.5Q37 41 27 104ZM279 -142Q279 -199 248 -223Q217 -247 158 -247V-210Q187 -208 202.5 -199.5Q218 -191 218 -167Q191 -172 174 -158.5Q157 -145 157 -120Q157 -94 172.5 -80.5Q188 -67 214 -67Q240 -67 259.5 -87Q279 -107 279 -142Z" glyph-name="scommaaccent" horiz-adv-x="419" unicode="&#537;" /><glyph d="M126 35Q132 -5 161 -21.5Q190 -38 228 -38Q263 -38 287.5 -24Q312 -10 312 20Q312 43 296.5 61.5Q281 80 240 92L167 113Q110 130 84 160Q58 190 58 235Q58 280 81 305Q104 330 141 341Q96 359 77 392Q58 425 58 462Q58 501 72.5 527.5Q87 554 111 570.5Q135 587 165 594Q195 601 225 601Q303 601 347 572Q391 543 397 476L308 466Q306 500 283.5 516Q261 532 225 532Q146 532 146 470Q146 447 159 431.5Q172 416 210 403L276 382Q302 374 324.5 363.5Q347 353 364 338.5Q381 324 390.5 303.5Q400 283 400 254Q400 211 377.5 183.5Q355 156 314 150Q352 136 375.5 102.5Q399 69 399 29Q399 -8 385 -34Q371 -60 347 -76Q323 -92 290.5 -99.5Q258 -107 220 -107Q143 -107 96 -76.5Q49 -46 40 17ZM312 239Q312 257 303 269Q294 281 278 290.5Q262 300 240.5 307Q219 314 194 322Q173 314 159 296.5Q145 279 145 253Q145 234 151.5 221.5Q158 209 172.5 200Q187 191 209 184Q231 177 261 169Q278 176 295 193Q312 210 312 239Z" glyph-name="section" horiz-adv-x="440" unicode="&#167;" /><glyph d="M209 33Q209 -42 167.5 -76Q126 -110 57 -114V-71Q94 -66 116 -48.5Q138 -31 138 3Q107 -3 86.5 13.5Q66 30 66 59Q66 89 85 105Q104 121 133 121Q164 121 186.5 98Q209 75 209 33ZM66 395Q66 424 85.5 443.5Q105 463 134 463Q163 463 182.5 443.5Q202 424 202 395Q202 366 182.5 346.5Q163 327 134 327Q105 327 85.5 346.5Q66 366 66 395Z" glyph-name="semicolon" horiz-adv-x="283" unicode=";" /><glyph d="M93 509V436H11V589H413V528L202 0H108L312 509Z" glyph-name="seven" horiz-adv-x="434" unicode="7" /><glyph d="M386 450Q358 527 283 527Q209 527 171.5 458Q134 389 133 255H136Q150 316 188.5 345Q227 374 282 374Q327 374 362 359Q397 344 420.5 318.5Q444 293 456.5 258.5Q469 224 469 185Q469 144 455.5 108Q442 72 416 45.5Q390 19 352 3.5Q314 -12 265 -12Q167 -12 108 60Q49 132 49 276Q49 360 68 421Q87 482 120 522Q153 562 196 581.5Q239 601 287 601Q350 601 393.5 572Q437 543 460 488ZM153 178Q153 123 186 91Q219 59 268 59Q318 59 350.5 91Q383 123 383 178Q383 235 350.5 267.5Q318 300 268 300Q219 300 186 267.5Q153 235 153 178Z" glyph-name="six" horiz-adv-x="508" unicode="6" /><glyph d="M284 669H366L90 -203H10Z" glyph-name="slash" horiz-adv-x="396" unicode="/" /><glyph glyph-name="space" horiz-adv-x="221" unicode=" " /><glyph d="M211 265Q216 245 219 226.5Q222 208 222 191Q222 141 199.5 112Q177 83 153 75H330Q353 75 373.5 83Q394 91 402 122L468 84Q458 42 425.5 21Q393 0 342 0H39V77H69Q81 77 92.5 84Q104 91 114 104.5Q124 118 130 137.5Q136 157 136 183Q136 200 132 221Q128 242 121 265H43V323H105Q97 352 91.5 380.5Q86 409 86 437Q86 482 100.5 513Q115 544 139.5 563.5Q164 583 195 592Q226 601 259 601Q323 601 364.5 572.5Q406 544 417 475L333 453Q327 486 312.5 506Q298 526 258 526Q223 526 200.5 505Q178 484 178 434Q178 408 183 380Q188 352 196 323H338V265Z" glyph-name="sterling" horiz-adv-x="470" unicode="&#163;" /><glyph d="M322 15Q277 -12 210 -12Q147 -12 112 20.5Q77 53 77 118V390H10V462H77V560L168 571V462H305V390H167V136Q167 98 183 81.5Q199 65 228 65Q251 65 268 71Q285 77 305 90Z" glyph-name="t" horiz-adv-x="337" unicode="t" /><glyph d="M10 305H77V390H10V462H77V560L168 571V462H305V390H167V305H305V236H167V136Q167 98 183 81.5Q199 65 228 65Q251 65 268 71Q285 77 305 90L322 15Q277 -12 210 -12Q147 -12 112 20.5Q77 53 77 118V236H10Z" glyph-name="tbar" horiz-adv-x="337" unicode="&#359;" /><glyph d="M322 15Q277 -12 210 -12Q147 -12 112 20.5Q77 53 77 118V390H10V462H77V560L168 571V462H305V390H167V136Q167 98 183 81.5Q199 65 228 65Q251 65 268 71Q285 77 305 90ZM281 515H215L231 695H333Z" glyph-name="tcaron" horiz-adv-x="337" unicode="&#357;" /><glyph d="M322 15Q277 -12 210 -12Q147 -12 112 20.5Q77 53 77 118V390H10V462H77V560L168 571V462H305V390H167V136Q167 98 183 81.5Q199 65 228 65Q251 65 268 71Q285 77 305 90ZM253 -142Q253 -199 222 -223Q191 -247 132 -247V-210Q161 -208 176.5 -199.5Q192 -191 192 -167Q165 -172 148 -158.5Q131 -145 131 -120Q131 -94 146.5 -80.5Q162 -67 188 -67Q214 -67 233.5 -87Q253 -107 253 -142Z" glyph-name="tcommaaccent" horiz-adv-x="337" unicode="&#355;" /><glyph d="M162 179Q162 146 172 122.5Q182 99 198.5 84Q215 69 234.5 62.5Q254 56 274 56Q300 56 323 66.5Q346 77 363 99Q380 121 390 154.5Q400 188 400 234Q400 318 369 358.5Q338 399 284 399Q259 399 237 390Q215 381 198.5 363.5Q182 346 172 321Q162 296 162 264ZM162 -203H72V668H162V381Q181 432 222.5 452.5Q264 473 310 473Q395 473 443.5 413.5Q492 354 492 242Q492 189 478.5 143Q465 97 439.5 62.5Q414 28 377 8Q340 -12 292 -12Q238 -12 206 9.5Q174 31 162 61Z" glyph-name="thorn" horiz-adv-x="534" unicode="&#254;" /><glyph d="M244 305Q324 300 365 259Q406 218 406 148Q406 110 390.5 80Q375 50 348 29.5Q321 9 284.5 -1.5Q248 -12 207 -12Q119 -12 67.5 25Q16 62 7 125L95 146Q111 56 209 56Q257 56 285.5 81.5Q314 107 314 153Q314 179 305.5 199.5Q297 220 277 235Q257 250 225 258.5Q193 267 145 269V338Q195 344 225.5 353.5Q256 363 273 377Q290 391 296 409.5Q302 428 302 452Q302 488 277.5 506.5Q253 525 212 525Q177 525 153 507Q129 489 121 447L32 467Q44 527 90.5 564Q137 601 217 601Q253 601 285.5 592.5Q318 584 342.5 566Q367 548 381.5 520.5Q396 493 396 456Q396 393 358 355Q320 317 244 310Z" glyph-name="three" horiz-adv-x="446" unicode="3" /><glyph d="M182 -22Q233 -27 256.5 -50.5Q280 -74 280 -113Q280 -160 242.5 -185Q205 -210 145 -210Q86 -210 52 -187.5Q18 -165 10 -129L72 -104Q78 -127 98 -141.5Q118 -156 146 -156Q173 -156 189.5 -145Q206 -134 206 -108Q206 -81 184 -65Q162 -49 101 -48V0Q155 2 176 16Q197 30 197 55Q197 76 183 88.5Q169 101 145 101Q124 101 107.5 89.5Q91 78 86 55L25 78Q34 114 66.5 136Q99 158 151 158Q174 158 195.5 153Q217 148 233 136.5Q249 125 258.5 107.5Q268 90 268 66Q268 33 248.5 10Q229 -13 182 -19Z" glyph-name="three.inf" horiz-adv-x="317" unicode="&#58740;" /><glyph d="M211 417Q262 412 285.5 388.5Q309 365 309 326Q309 279 271.5 254Q234 229 174 229Q115 229 81 251.5Q47 274 39 310L101 335Q107 312 127 297.5Q147 283 175 283Q202 283 218.5 294Q235 305 235 331Q235 358 213 374Q191 390 130 391V439Q184 441 205 455Q226 469 226 494Q226 515 212 527.5Q198 540 174 540Q153 540 136.5 528.5Q120 517 115 494L54 517Q63 553 95.5 575Q128 597 180 597Q203 597 224.5 592Q246 587 262 575.5Q278 564 287.5 546.5Q297 529 297 505Q297 472 277.5 449Q258 426 211 420ZM554 590H616L310 0H248ZM707 86H528V140L704 353H779V140H836V86H779V0H707ZM709 223Q709 238 709.5 250.5Q710 263 711 273Q712 284 713 294H709Q706 287 701 277Q696 269 689.5 258Q683 247 674 235L632 185Q623 174 614.5 165.5Q606 157 599 151Q591 144 584 139V135Q589 136 597 137Q604 138 614 138.5Q624 139 640 139H709Z" glyph-name="threequarters" horiz-adv-x="864" unicode="&#190;" /><glyph d="M182 417Q233 412 256.5 388.5Q280 365 280 326Q280 279 242.5 254Q205 229 145 229Q86 229 52 251.5Q18 274 10 310L72 335Q78 312 98 297.5Q118 283 146 283Q173 283 189.5 294Q206 305 206 331Q206 358 184 374Q162 390 101 391V439Q155 441 176 455Q197 469 197 494Q197 515 183 527.5Q169 540 145 540Q124 540 107.5 528.5Q91 517 86 494L25 517Q34 553 66.5 575Q99 597 151 597Q174 597 195.5 592Q217 587 233 575.5Q249 564 258.5 546.5Q268 529 268 505Q268 472 248.5 449Q229 426 182 420Z" glyph-name="threesuperior" horiz-adv-x="317" unicode="&#179;" /><glyph d="M306 529Q283 529 268 535.5Q253 542 234 552Q214 564 201.5 570.5Q189 577 174 577Q158 577 149.5 566.5Q141 556 144 530H89Q80 554 81 576.5Q82 599 92 616.5Q102 634 120.5 644Q139 654 163 654Q189 654 206 646Q223 638 242 627Q262 615 273 609.5Q284 604 297 604Q311 604 319.5 614.5Q328 625 326 653H383Q401 600 380.5 564.5Q360 529 306 529Z" glyph-name="tilde" horiz-adv-x="472" unicode="&#732;" /><glyph d="M306 653Q283 653 268 660Q253 667 234 677Q214 688 201.5 695Q189 702 174 702Q158 702 149.5 691.5Q141 681 144 655H89Q80 679 81 701.5Q82 724 92 742Q102 760 120.5 770.5Q139 781 163 781Q189 781 206 773.5Q223 766 242 755Q262 742 273 736.5Q284 731 297 731Q311 731 319.5 742Q328 753 326 780H383Q392 754 391 730.5Q390 707 380 690Q370 673 351.5 663Q333 653 306 653Z" glyph-name="tilde.cap" horiz-adv-x="472" unicode="&#58404;" /><glyph d="M93 341V541H20V589H222V541H149V341ZM488 341V504H483L435 391H388L338 504H333V341H277V589H348L410 455H414L475 589H544V341Z" glyph-name="trademark" horiz-adv-x="592" unicode="&#8482;" /><glyph d="M416 0H35V71Q95 119 146 161Q197 203 234.5 243.5Q272 284 293 326Q314 368 314 416Q314 470 287 498Q260 526 212 526Q165 526 140 500.5Q115 475 115 433Q115 404 129.5 379.5Q144 355 165 338L90 301Q80 309 69 322Q58 335 48.5 352Q39 369 33 389.5Q27 410 27 434Q27 465 38 495.5Q49 526 72 549Q95 572 130.5 586.5Q166 601 215 601Q255 601 290 590.5Q325 580 351 558Q377 536 392 501.5Q407 467 407 419Q407 356 379 303Q351 250 310.5 208Q270 166 224.5 134.5Q179 103 143 84V80H416Z" glyph-name="two" horiz-adv-x="452" unicode="2" /><glyph d="M288 -203H22V-151Q65 -121 97.5 -96.5Q130 -72 152 -49.5Q174 -27 185.5 -5Q197 17 197 42Q197 68 183 81.5Q169 95 143 95Q113 95 98.5 75.5Q84 56 83 27L23 54Q23 73 32 91.5Q41 110 57.5 125Q74 140 98 149Q122 158 154 158Q178 158 199 151.5Q220 145 236.5 131.5Q253 118 262.5 97.5Q272 77 272 49Q272 11 255.5 -19Q239 -49 214.5 -72Q190 -95 162 -112.5Q134 -130 112 -142V-146H288Z" glyph-name="two.inf" horiz-adv-x="309" unicode="&#58739;" /><glyph d="M288 236H22V288Q65 318 97.5 342.5Q130 367 152 389.5Q174 412 185.5 434Q197 456 197 481Q197 507 183 520.5Q169 534 143 534Q113 534 98.5 514.5Q84 495 83 466L23 493Q23 512 32 530.5Q41 549 57.5 564Q74 579 98 588Q122 597 154 597Q178 597 199 590.5Q220 584 236.5 570.5Q253 557 262.5 536.5Q272 516 272 488Q272 450 255.5 420Q239 390 214.5 367Q190 344 162 326.5Q134 309 112 297V293H288Z" glyph-name="twosuperior" horiz-adv-x="309" unicode="&#178;" /><glyph d="M348 84Q331 33 296 10.5Q261 -12 206 -12Q174 -12 148.5 -3.5Q123 5 104.5 23.5Q86 42 76 71Q66 100 66 141V462H156V155Q156 55 239 55Q258 55 277 63.5Q296 72 311.5 88.5Q327 105 336.5 130.5Q346 156 346 189V462H436V0H359Z" glyph-name="u" horiz-adv-x="508" unicode="u" /><glyph d="M348 84Q331 33 296 10.5Q261 -12 206 -12Q174 -12 148.5 -3.5Q123 5 104.5 23.5Q86 42 76 71Q66 100 66 141V462H156V155Q156 55 239 55Q258 55 277 63.5Q296 72 311.5 88.5Q327 105 336.5 130.5Q346 156 346 189V462H436V0H359ZM204 529 278 675H399L283 529Z" glyph-name="uacute" horiz-adv-x="508" unicode="&#250;" /><glyph d="M348 84Q331 33 296 10.5Q261 -12 206 -12Q174 -12 148.5 -3.5Q123 5 104.5 23.5Q86 42 76 71Q66 100 66 141V462H156V155Q156 55 239 55Q258 55 277 63.5Q296 72 311.5 88.5Q327 105 336.5 130.5Q346 156 346 189V462H436V0H359ZM251 526Q185 526 150 565Q115 604 115 667H186Q188 634 200.5 613.5Q213 593 251 593Q288 593 301 613.5Q314 634 316 667H387Q387 604 352 565Q317 526 251 526Z" glyph-name="ubreve" horiz-adv-x="508" unicode="&#365;" /><glyph d="M348 84Q331 33 296 10.5Q261 -12 206 -12Q174 -12 148.5 -3.5Q123 5 104.5 23.5Q86 42 76 71Q66 100 66 141V462H156V155Q156 55 239 55Q258 55 277 63.5Q296 72 311.5 88.5Q327 105 336.5 130.5Q346 156 346 189V462H436V0H359ZM278 675 403 528H311L277 570Q269 578 264.5 585.5Q260 593 258 598Q255 604 254 608H249Q248 604 245 598Q241 588 226 570L192 528H100L225 675Z" glyph-name="ucircumflex" horiz-adv-x="508" unicode="&#251;" /><glyph d="M348 84Q331 33 296 10.5Q261 -12 206 -12Q174 -12 148.5 -3.5Q123 5 104.5 23.5Q86 42 76 71Q66 100 66 141V462H156V155Q156 55 239 55Q258 55 277 63.5Q296 72 311.5 88.5Q327 105 336.5 130.5Q346 156 346 189V462H436V0H359ZM93 595Q93 621 110.5 638Q128 655 152 655Q177 655 194.5 638Q212 621 212 595Q212 569 194.5 552.5Q177 536 152 536Q128 536 110.5 552.5Q93 569 93 595ZM289 594Q289 620 306.5 637Q324 654 348 654Q374 654 391 637Q408 620 408 594Q408 569 391 552Q374 535 348 535Q324 535 306.5 552Q289 569 289 594Z" glyph-name="udieresis" horiz-adv-x="508" unicode="&#252;" /><glyph d="M348 84Q331 33 296 10.5Q261 -12 206 -12Q174 -12 148.5 -3.5Q123 5 104.5 23.5Q86 42 76 71Q66 100 66 141V462H156V155Q156 55 239 55Q258 55 277 63.5Q296 72 311.5 88.5Q327 105 336.5 130.5Q346 156 346 189V462H436V0H359ZM219 529 104 675H225L299 529Z" glyph-name="ugrave" horiz-adv-x="508" unicode="&#249;" /><glyph d="M348 84Q331 33 296 10.5Q261 -12 206 -12Q174 -12 148.5 -3.5Q123 5 104.5 23.5Q86 42 76 71Q66 100 66 141V462H156V155Q156 55 239 55Q258 55 277 63.5Q296 72 311.5 88.5Q327 105 336.5 130.5Q346 156 346 189V462H436V0H359ZM138 529 200 675H309L205 529ZM284 529 358 675H471L355 529Z" glyph-name="uhungarumlaut" horiz-adv-x="508" unicode="&#369;" /><glyph d="M348 84Q331 33 296 10.5Q261 -12 206 -12Q174 -12 148.5 -3.5Q123 5 104.5 23.5Q86 42 76 71Q66 100 66 141V462H156V155Q156 55 239 55Q258 55 277 63.5Q296 72 311.5 88.5Q327 105 336.5 130.5Q346 156 346 189V462H436V0H359ZM121 558V631H383V558Z" glyph-name="umacron" horiz-adv-x="508" unicode="&#363;" /><glyph d="M50 -22H431V-93H50Z" glyph-name="underscore" horiz-adv-x="481" unicode="_" /><glyph d="M250 -110Q250 -86 259.5 -66Q269 -46 284 -30Q299 -14 318 -2Q337 10 356 18L348 88Q332 40 296.5 14Q261 -12 206 -12Q174 -12 148.5 -3.5Q123 5 104.5 23.5Q86 42 76 71Q66 100 66 141V462H156V155Q156 55 237 55Q256 55 275.5 64Q295 73 311 90.5Q327 108 336.5 134Q346 160 346 193V462H436V0Q415 -1 395.5 -7.5Q376 -14 361.5 -26Q347 -38 338 -55.5Q329 -73 329 -94Q329 -120 340.5 -135Q352 -150 378 -150Q403 -150 420 -138.5Q437 -127 448 -108L477 -152Q461 -178 434 -194.5Q407 -211 362 -211Q311 -211 280.5 -185Q250 -159 250 -110Z" glyph-name="uogonek" horiz-adv-x="508" unicode="&#371;" /><glyph d="M348 84Q331 33 296 10.5Q261 -12 206 -12Q174 -12 148.5 -3.5Q123 5 104.5 23.5Q86 42 76 71Q66 100 66 141V462H156V155Q156 55 239 55Q258 55 277 63.5Q296 72 311.5 88.5Q327 105 336.5 130.5Q346 156 346 189V462H436V0H359ZM252 520Q202 520 175.5 549Q149 578 149 620Q149 659 177 687.5Q205 716 252 716Q299 716 327 687.5Q355 659 355 620Q355 578 328.5 549Q302 520 252 520ZM252 674Q226 674 211.5 658.5Q197 643 197 618Q197 595 211 580Q225 565 252 565Q279 565 293 580Q307 595 307 618Q307 643 292.5 658.5Q278 674 252 674Z" glyph-name="uring" horiz-adv-x="508" unicode="&#367;" /><glyph d="M348 84Q331 33 296 10.5Q261 -12 206 -12Q174 -12 148.5 -3.5Q123 5 104.5 23.5Q86 42 76 71Q66 100 66 141V462H156V155Q156 55 239 55Q258 55 277 63.5Q296 72 311.5 88.5Q327 105 336.5 130.5Q346 156 346 189V462H436V0H359ZM321 529Q298 529 283 535.5Q268 542 249 552Q229 564 216.5 570.5Q204 577 189 577Q173 577 164.5 566.5Q156 556 159 530H104Q95 554 96 576.5Q97 599 107 616.5Q117 634 135.5 644Q154 654 178 654Q204 654 221 646Q238 638 257 627Q277 615 288 609.5Q299 604 312 604Q326 604 334.5 614.5Q343 625 341 653H398Q416 600 395.5 564.5Q375 529 321 529Z" glyph-name="utilde" horiz-adv-x="508" unicode="&#361;" /><glyph d="M8 462H106L186 208Q196 175 202.5 148.5Q209 122 214 102Q219 79 222 61H226Q229 78 233 101Q237 121 243 148Q249 175 260 208L337 462H432L274 0H169Z" glyph-name="v" horiz-adv-x="440" unicode="v" /><glyph d="M448 222Q458 187 463.5 158.5Q469 130 473 109Q477 84 479 65H483Q483 83 487 108Q490 128 495 157.5Q500 187 509 222L571 462H662L536 0H428L367 219Q357 252 351.5 278.5Q346 305 343 325Q339 347 337 365H333Q332 347 328 325Q322 286 305 219L247 0H139L10 462H103L166 222Q175 187 181 158.5Q187 130 191 109Q195 84 197 65H201Q202 84 206 109Q209 130 214 159Q219 188 229 223L293 462H383Z" glyph-name="w" horiz-adv-x="672" unicode="w" /><glyph d="M448 222Q458 187 463.5 158.5Q469 130 473 109Q477 84 479 65H483Q483 83 487 108Q490 128 495 157.5Q500 187 509 222L571 462H662L536 0H428L367 219Q357 252 351.5 278.5Q346 305 343 325Q339 347 337 365H333Q332 347 328 325Q322 286 305 219L247 0H139L10 462H103L166 222Q175 187 181 158.5Q187 130 191 109Q195 84 197 65H201Q202 84 206 109Q209 130 214 159Q219 188 229 223L293 462H383ZM288 529 362 675H483L367 529Z" glyph-name="wacute" horiz-adv-x="672" unicode="&#7811;" /><glyph d="M448 222Q458 187 463.5 158.5Q469 130 473 109Q477 84 479 65H483Q483 83 487 108Q490 128 495 157.5Q500 187 509 222L571 462H662L536 0H428L367 219Q357 252 351.5 278.5Q346 305 343 325Q339 347 337 365H333Q332 347 328 325Q322 286 305 219L247 0H139L10 462H103L166 222Q175 187 181 158.5Q187 130 191 109Q195 84 197 65H201Q202 84 206 109Q209 130 214 159Q219 188 229 223L293 462H383ZM362 675 487 528H395L361 570Q353 578 348.5 585.5Q344 593 342 598Q339 604 338 608H333Q332 604 329 598Q325 588 310 570L276 528H184L309 675Z" glyph-name="wcircumflex" horiz-adv-x="672" unicode="&#373;" /><glyph d="M448 222Q458 187 463.5 158.5Q469 130 473 109Q477 84 479 65H483Q483 83 487 108Q490 128 495 157.5Q500 187 509 222L571 462H662L536 0H428L367 219Q357 252 351.5 278.5Q346 305 343 325Q339 347 337 365H333Q332 347 328 325Q322 286 305 219L247 0H139L10 462H103L166 222Q175 187 181 158.5Q187 130 191 109Q195 84 197 65H201Q202 84 206 109Q209 130 214 159Q219 188 229 223L293 462H383ZM177 595Q177 621 194.5 638Q212 655 236 655Q261 655 278.5 638Q296 621 296 595Q296 569 278.5 552.5Q261 536 236 536Q212 536 194.5 552.5Q177 569 177 595ZM373 594Q373 620 390.5 637Q408 654 432 654Q458 654 475 637Q492 620 492 594Q492 569 475 552Q458 535 432 535Q408 535 390.5 552Q373 569 373 594Z" glyph-name="wdieresis" horiz-adv-x="672" unicode="&#7813;" /><glyph d="M448 222Q458 187 463.5 158.5Q469 130 473 109Q477 84 479 65H483Q483 83 487 108Q490 128 495 157.5Q500 187 509 222L571 462H662L536 0H428L367 219Q357 252 351.5 278.5Q346 305 343 325Q339 347 337 365H333Q332 347 328 325Q322 286 305 219L247 0H139L10 462H103L166 222Q175 187 181 158.5Q187 130 191 109Q195 84 197 65H201Q202 84 206 109Q209 130 214 159Q219 188 229 223L293 462H383ZM303 529 188 675H309L383 529Z" glyph-name="wgrave" horiz-adv-x="672" unicode="&#7809;" /><glyph d="M254 107Q240 129 232 144Q224 159 221 167Q217 177 217 182H213Q212 177 208 167Q204 159 196 144.5Q188 130 174 107L105 0H9L162 232L17 462H121L178 365Q192 341 200 326Q208 311 212 303Q216 293 218 288H222Q223 292 227 303Q231 311 238.5 326.5Q246 342 260 365L319 462H416L271 235L424 0H323Z" glyph-name="x" horiz-adv-x="433" unicode="x" /><glyph d="M186 208Q197 174 203 147Q209 120 214 101Q218 79 222 62H226Q229 79 233 101Q237 120 243.5 146.5Q250 173 261 208L338 462H432L262 -38Q244 -89 224 -122Q204 -155 181 -174Q158 -193 131.5 -200.5Q105 -208 74 -208Q57 -208 39.5 -205Q22 -202 7 -197L15 -120Q43 -134 75 -134Q112 -134 135.5 -111Q159 -88 179 -27L8 462H107Z" glyph-name="y" horiz-adv-x="440" unicode="y" /><glyph d="M186 208Q197 174 203 147Q209 120 214 101Q218 79 222 62H226Q229 79 233 101Q237 120 243.5 146.5Q250 173 261 208L338 462H432L262 -38Q244 -89 224 -122Q204 -155 181 -174Q158 -193 131.5 -200.5Q105 -208 74 -208Q57 -208 39.5 -205Q22 -202 7 -197L15 -120Q43 -134 75 -134Q112 -134 135.5 -111Q159 -88 179 -27L8 462H107ZM179 529 253 675H374L258 529Z" glyph-name="yacute" horiz-adv-x="440" unicode="&#253;" /><glyph d="M186 208Q197 174 203 147Q209 120 214 101Q218 79 222 62H226Q229 79 233 101Q237 120 243.5 146.5Q250 173 261 208L338 462H432L262 -38Q244 -89 224 -122Q204 -155 181 -174Q158 -193 131.5 -200.5Q105 -208 74 -208Q57 -208 39.5 -205Q22 -202 7 -197L15 -120Q43 -134 75 -134Q112 -134 135.5 -111Q159 -88 179 -27L8 462H107ZM252 675 377 528H285L251 570Q243 578 238.5 585.5Q234 593 232 598Q229 604 228 608H223Q222 604 219 598Q215 588 200 570L166 528H74L199 675Z" glyph-name="ycircumflex" horiz-adv-x="440" unicode="&#375;" /><glyph d="M186 208Q197 174 203 147Q209 120 214 101Q218 79 222 62H226Q229 79 233 101Q237 120 243.5 146.5Q250 173 261 208L338 462H432L262 -38Q244 -89 224 -122Q204 -155 181 -174Q158 -193 131.5 -200.5Q105 -208 74 -208Q57 -208 39.5 -205Q22 -202 7 -197L15 -120Q43 -134 75 -134Q112 -134 135.5 -111Q159 -88 179 -27L8 462H107ZM67 595Q67 621 84.5 638Q102 655 126 655Q151 655 168.5 638Q186 621 186 595Q186 569 168.5 552.5Q151 536 126 536Q102 536 84.5 552.5Q67 569 67 595ZM263 594Q263 620 280.5 637Q298 654 322 654Q348 654 365 637Q382 620 382 594Q382 569 365 552Q348 535 322 535Q298 535 280.5 552Q263 569 263 594Z" glyph-name="ydieresis" horiz-adv-x="440" unicode="&#255;" /><glyph d="M303 190V0H211V190H65V241H201L176 290H65V341H149L19 589H124L216 402Q229 376 236.5 358Q244 340 249 327Q254 312 257 302H261Q263 312 268 327Q275 351 299 402L386 589H483L361 341H459V290H336L312 241H459V190Z" glyph-name="yen" horiz-adv-x="502" unicode="&#165;" /><glyph d="M186 208Q197 174 203 147Q209 120 214 101Q218 79 222 62H226Q229 79 233 101Q237 120 243.5 146.5Q250 173 261 208L338 462H432L262 -38Q244 -89 224 -122Q204 -155 181 -174Q158 -193 131.5 -200.5Q105 -208 74 -208Q57 -208 39.5 -205Q22 -202 7 -197L15 -120Q43 -134 75 -134Q112 -134 135.5 -111Q159 -88 179 -27L8 462H107ZM194 529 79 675H200L274 529Z" glyph-name="ygrave" horiz-adv-x="440" unicode="&#7923;" /><glyph d="M186 148Q173 129 163 115.5Q153 102 145 93Q136 82 129 75V71Q137 71 149 72Q160 73 176 73.5Q192 74 215 74H372V0H22V51L199 312Q211 330 221.5 344Q232 358 240 367Q249 378 256 385V389Q247 388 235 387Q224 386 208.5 386Q193 386 170 386H32V462H362V402Z" glyph-name="z" horiz-adv-x="394" unicode="z" /><glyph d="M186 148Q173 129 163 115.5Q153 102 145 93Q136 82 129 75V71Q137 71 149 72Q160 73 176 73.5Q192 74 215 74H372V0H22V51L199 312Q211 330 221.5 344Q232 358 240 367Q249 378 256 385V389Q247 388 235 387Q224 386 208.5 386Q193 386 170 386H32V462H362V402ZM154 529 228 675H349L233 529Z" glyph-name="zacute" horiz-adv-x="394" unicode="&#378;" /><glyph d="M186 148Q173 129 163 115.5Q153 102 145 93Q136 82 129 75V71Q137 71 149 72Q160 73 176 73.5Q192 74 215 74H372V0H22V51L199 312Q211 330 221.5 344Q232 358 240 367Q249 378 256 385V389Q247 388 235 387Q224 386 208.5 386Q193 386 170 386H32V462H362V402ZM177 528 52 675H144L178 632Q185 623 190 616Q195 609 197 604Q200 598 201 594H206Q207 598 210 604Q215 615 229 632L263 675H355L230 528Z" glyph-name="zcaron" horiz-adv-x="394" unicode="&#382;" /><glyph d="M186 148Q173 129 163 115.5Q153 102 145 93Q136 82 129 75V71Q137 71 149 72Q160 73 176 73.5Q192 74 215 74H372V0H22V51L199 312Q211 330 221.5 344Q232 358 240 367Q249 378 256 385V389Q247 388 235 387Q224 386 208.5 386Q193 386 170 386H32V462H362V402ZM140 609Q140 635 157.5 652Q175 669 200 669Q226 669 244 652Q262 635 262 609Q262 583 244 566Q226 549 200 549Q175 549 157.5 566Q140 583 140 609Z" glyph-name="zdotaccent" horiz-adv-x="394" unicode="&#380;" /><glyph d="M281 -12Q224 -12 181 11Q138 34 108.5 74.5Q79 115 64 171.5Q49 228 49 294Q49 357 65 413Q81 469 111 510.5Q141 552 184 576.5Q227 601 281 601Q335 601 378 576.5Q421 552 450.5 510.5Q480 469 496 413Q512 357 512 294Q512 228 497 171.5Q482 115 452.5 74.5Q423 34 380 11Q337 -12 281 -12ZM280 521Q247 521 221 504Q195 487 176.5 456.5Q158 426 148.5 384Q139 342 139 292Q139 243 148.5 201Q158 159 176.5 128.5Q195 98 221 80.5Q247 63 280 63Q313 63 339 80.5Q365 98 383 128.5Q401 159 410.5 201Q420 243 420 292Q420 342 410.5 384Q401 426 383 456.5Q365 487 339 504Q313 521 280 521Z" glyph-name="zero" horiz-adv-x="561" unicode="0" /></font>
</defs>
</svg>
